<?xml version="1.0" encoding="UTF-8" standalone="no"?>
<svg
   xmlns:dc="http://purl.org/dc/elements/1.1/"
   xmlns:cc="http://creativecommons.org/ns#"
   xmlns:rdf="http://www.w3.org/1999/02/22-rdf-syntax-ns#"
   xmlns:svg="http://www.w3.org/2000/svg"
   xmlns="http://www.w3.org/2000/svg"
   xmlns:sodipodi="http://sodipodi.sourceforge.net/DTD/sodipodi-0.dtd"
   xmlns:inkscape="http://www.inkscape.org/namespaces/inkscape"
   version="1.0"
   width="800px"
   height="640px"
   viewBox="0 0 8000 6400"
   preserveAspectRatio="xMidYMid meet"
   id="svg691"
   sodipodi:docname="Markov_Decision_Process_examplesvg.svg"
   inkscape:version="0.92.1 r15371">
  <title
     id="title4601">Markov Decision Process</title>
  <metadata
     id="metadata697">
    <rdf:RDF>
      <cc:Work
         rdf:about="">
        <dc:format>image/svg+xml</dc:format>
        <dc:type
           rdf:resource="http://purl.org/dc/dcmitype/StillImage" />
        <dc:title>Markov Decision Process</dc:title>
        <cc:license
           rdf:resource="http://creativecommons.org/licenses/by-sa/4.0/" />
        <dc:creator>
          <cc:Agent>
            <dc:title>waldo alvarez</dc:title>
          </cc:Agent>
        </dc:creator>
        <dc:publisher>
          <cc:Agent>
            <dc:title>http://tradingfuturo.com</dc:title>
          </cc:Agent>
        </dc:publisher>
        <dc:date>5/28/2017</dc:date>
      </cc:Work>
      <cc:License
         rdf:about="http://creativecommons.org/licenses/by-sa/4.0/">
        <cc:permits
           rdf:resource="http://creativecommons.org/ns#Reproduction" />
        <cc:permits
           rdf:resource="http://creativecommons.org/ns#Distribution" />
        <cc:requires
           rdf:resource="http://creativecommons.org/ns#Notice" />
        <cc:requires
           rdf:resource="http://creativecommons.org/ns#Attribution" />
        <cc:permits
           rdf:resource="http://creativecommons.org/ns#DerivativeWorks" />
        <cc:requires
           rdf:resource="http://creativecommons.org/ns#ShareAlike" />
      </cc:License>
    </rdf:RDF>
  </metadata>
  <defs
     id="defs695" />
  <sodipodi:namedview
     pagecolor="#ffffff"
     bordercolor="#666666"
     borderopacity="1"
     objecttolerance="10"
     gridtolerance="10"
     guidetolerance="10"
     inkscape:pageopacity="0"
     inkscape:pageshadow="2"
     inkscape:window-width="1920"
     inkscape:window-height="1017"
     id="namedview693"
     showgrid="false"
     inkscape:zoom="1.435"
     inkscape:cx="380.3631"
     inkscape:cy="340.26447"
     inkscape:window-x="-8"
     inkscape:window-y="-8"
     inkscape:window-maximized="1"
     inkscape:current-layer="layer3" />
  <g
     id="layer2"
     style="fill:#e89a6f;stroke:none">
    <path
       d="m 922,5164 c 33,-53 43,-63 48,-48 6,15 12,12 38,-25 37,-51 47,-93 38,-166 -8,-74 3,-81 93,-61 126,29 231,14 246,-35 8,-26 -8,-44 -72,-86 -54,-34 -68,-65 -37,-77 9,-3 59,-11 111,-17 145,-16 147,-18 79,-68 -31,-23 -60,-50 -63,-58 -10,-25 23,-41 95,-48 37,-4 93,-13 125,-21 68,-16 87,-17 87,-5 0,16 -53,31 -164,46 -61,9 -111,17 -113,19 -2,2 21,22 52,45 40,30 55,48 55,66 0,28 -30,38 -135,50 -33,3 -73,8 -88,11 -28,6 -28,6 25,43 62,43 83,77 69,115 -22,55 -137,79 -254,52 -38,-9 -72,-16 -76,-16 -5,0 -8,35 -8,78 0,82 -10,114 -59,171 -20,24 -22,31 -10,31 31,0 14,15 -47,43 -34,15 -65,27 -69,27 -4,0 11,-30 34,-66 z"
       id="path377"
       inkscape:connector-curvature="0" />
    <path
       d="m 5545,4916 c -225,-106 -154,-420 95,-420 214,0 312,248 151,385 -72,63 -161,75 -246,35 z"
       id="path389"
       inkscape:connector-curvature="0"
       sodipodi:nodetypes="cscc" />
    <path
       d="m 3555,4306 c -64,-29 -101,-72 -121,-144 -14,-46 -15,-65 -5,-104 48,-209 318,-247 414,-59 48,95 33,189 -42,261 -74,72 -157,88 -246,46 z"
       id="path399"
       inkscape:connector-curvature="0"
       sodipodi:nodetypes="cccccc" />
    <path
       d="m 1945,3101 c -179,-82 -179,-330 0,-412 121,-56 274,20 305,152 43,180 -140,336 -305,260 z"
       id="path405"
       inkscape:connector-curvature="0"
       sodipodi:nodetypes="cccc" />
    <path
       d="m 6275,3096 c -144,-63 -185,-235 -84,-349 93,-107 255,-107 348,0 84,94 72,231 -26,312 -21,17 -54,36 -73,41 -49,14 -129,12 -165,-4 z"
       id="path411"
       inkscape:connector-curvature="0"
       sodipodi:nodetypes="cccccc" />
    <path
       d="m 5357,2189 c -118,-28 -196,-153 -167,-267 16,-67 46,-110 98,-143 93,-59 193,-48 273,30 50,49 69,95 69,166 0,47 -37,130 -71,162 -49,44 -137,67 -202,52 z"
       id="path415"
       inkscape:connector-curvature="0"
       sodipodi:nodetypes="ccccscc" />
    <path
       d="m 3633,2119 c -112,-20 -183,-106 -183,-221 1,-128 95,-218 227,-218 204,1 307,233 167,374 -54,54 -134,78 -211,65 z"
       id="path421"
       inkscape:connector-curvature="0"
       sodipodi:nodetypes="ccccc" />
    <path
       d="m 4327,1563 c -4,-3 -7,-21 -7,-38 0,-18 -11,-47 -25,-66 -65,-88 -64,-106 4,-204 23,-32 41,-64 41,-71 0,-7 -11,-21 -25,-32 -29,-23 -32,-52 -8,-89 16,-24 16,-26 -2,-39 -10,-8 -24,-14 -31,-14 -20,0 -22,-36 -3,-61 21,-28 24,-62 8,-108 l -11,-32 -29,27 c -16,15 -31,26 -33,23 -6,-5 73,-271 83,-281 4,-4 24,56 44,133 21,78 35,144 32,147 -2,3 -15,-3 -27,-14 -21,-19 -21,-19 -14,1 17,45 17,74 2,104 -9,17 -12,31 -7,31 36,0 53,69 27,106 -13,17 -12,21 10,39 40,32 35,74 -19,154 -26,37 -47,73 -47,78 0,6 16,34 35,63 23,33 35,64 35,85 0,18 3,40 6,49 4,11 0,16 -13,16 -11,0 -23,-3 -26,-7 z"
       id="path445"
       inkscape:connector-curvature="0" />
  </g>
  <g
     id="layer4"
     style="fill:#010101;stroke:none">
    <path
       d="m 3037,4242 c -19,-21 -22,-83 -7,-113 13,-24 62,-25 81,-2 17,20 17,97 -1,118 -17,20 -53,19 -73,-3 z m 59,-38 c 8,-30 -11,-77 -29,-72 -13,5 -22,61 -13,84 9,23 35,16 42,-12 z"
       id="path483"
       inkscape:connector-curvature="0" />
    <path
       d="m 3150,4240 c 0,-11 7,-20 15,-20 8,0 15,9 15,20 0,11 -7,20 -15,20 -8,0 -15,-9 -15,-20 z"
       id="path485"
       inkscape:connector-curvature="0" />
    <path
       d="m 3219,4243 c -8,-9 -14,-35 -14,-58 0,-23 6,-49 14,-58 17,-21 81,-23 81,-3 0,10 -9,14 -26,13 -15,-1 -29,4 -31,11 -3,7 4,12 19,12 30,0 48,17 48,46 0,47 -62,73 -91,37 z m 56,-38 c 0,-28 -29,-25 -33,3 -3,19 0,23 15,20 10,-2 18,-12 18,-23 z"
       id="path487"
       inkscape:connector-curvature="0" />
    <path
       d="m 2172,3498 c -15,-15 -16,-92 -2,-119 13,-23 53,-25 74,-3 19,19 22,104 4,122 -7,7 -24,12 -38,12 -14,0 -31,-5 -38,-12 z m 53,-59 c 0,-34 -4,-44 -17,-47 -15,-3 -18,4 -18,41 0,24 3,47 7,51 16,16 28,-4 28,-45 z"
       id="path489"
       inkscape:connector-curvature="0" />
    <path
       d="m 2290,3495 c 0,-8 7,-15 15,-15 8,0 15,7 15,15 0,8 -7,15 -15,15 -8,0 -15,-7 -15,-15 z"
       id="path491"
       inkscape:connector-curvature="0" />
    <path
       d="m 2340,3496 c 0,-9 11,-13 33,-12 26,1 32,-3 32,-19 0,-14 -8,-21 -27,-23 -25,-3 -28,-7 -28,-43 0,-39 0,-39 40,-39 29,0 40,4 40,15 0,10 -10,15 -30,15 -16,0 -30,5 -30,10 0,6 10,10 23,10 30,0 47,18 47,50 0,14 -5,31 -12,38 -17,17 -88,16 -88,-2 z"
       id="path493"
       inkscape:connector-curvature="0" />
    <path
       d="m 1460,2746 c -19,-57 4,-116 45,-116 32,0 55,31 55,74 0,56 -15,76 -55,76 -29,0 -35,-4 -45,-34 z m 65,-37 c 0,-33 -4,-45 -17,-47 -21,-4 -34,49 -18,78 18,33 35,18 35,-31 z"
       id="path495"
       inkscape:connector-curvature="0" />
    <path
       d="m 1580,2765 c 0,-8 7,-15 15,-15 8,0 15,7 15,15 0,8 -7,15 -15,15 -8,0 -15,-7 -15,-15 z"
       id="path497"
       inkscape:connector-curvature="0" />
    <path
       d="m 1640,2767 c 0,-10 10,-14 33,-13 26,1 32,-3 32,-19 0,-14 -8,-21 -27,-23 -25,-3 -28,-7 -28,-43 0,-39 0,-39 40,-39 29,0 40,4 40,15 0,10 -10,15 -30,15 -39,0 -39,16 0,23 33,7 51,48 33,76 -14,22 -93,28 -93,8 z"
       id="path499"
       inkscape:connector-curvature="0" />
    <path
       d="m 3376,3718 c -18,-26 -20,-65 -6,-102 8,-21 16,-26 45,-26 29,0 37,5 45,26 23,60 0,124 -45,124 -13,0 -31,-10 -39,-22 z m 58,-24 c 11,-28 6,-61 -10,-75 -13,-10 -17,-10 -25,2 -10,16 -12,73 -2,82 11,12 31,7 37,-9 z"
       id="path509"
       inkscape:connector-curvature="0" />
    <path
       d="m 3490,3720 c 0,-11 7,-20 15,-20 8,0 15,9 15,20 0,11 -7,20 -15,20 -8,0 -15,-9 -15,-20 z"
       id="path511"
       inkscape:connector-curvature="0" />
    <path
       d="m 3600,3720 c 0,-16 -7,-20 -30,-20 -38,0 -38,-10 0,-66 41,-58 60,-58 60,0 0,26 5,47 13,50 10,5 10,7 0,12 -7,3 -13,14 -13,25 0,10 -7,19 -15,19 -8,0 -15,-9 -15,-20 z m 0,-62 c 0,-12 -1,-19 -3,-17 -1,2 -9,12 -16,22 -12,14 -11,17 3,17 10,0 16,-8 16,-22 z"
       id="path513"
       inkscape:connector-curvature="0" />
    <path
       d="m 5419,4203 c -8,-9 -14,-35 -14,-58 0,-51 18,-75 56,-75 34,0 49,23 49,75 0,20 -5,45 -10,56 -13,24 -62,25 -81,2 z m 61,-58 c 0,-42 -24,-65 -39,-36 -6,11 -11,27 -11,36 0,9 5,25 11,36 15,29 39,6 39,-36 z"
       id="path515"
       inkscape:connector-curvature="0" />
    <path
       d="m 5530,4205 c 0,-8 7,-15 15,-15 8,0 15,7 15,15 0,8 -7,15 -15,15 -8,0 -15,-7 -15,-15 z"
       id="path517"
       inkscape:connector-curvature="0" />
    <path
       d="m 5650,4205 c 0,-10 -11,-15 -35,-15 -43,0 -44,-10 -4,-72 42,-65 69,-66 69,-3 0,25 5,45 10,45 6,0 10,7 10,15 0,8 -4,15 -10,15 -5,0 -10,7 -10,15 0,8 -7,15 -15,15 -8,0 -15,-7 -15,-15 z m 0,-72 c 0,-26 -1,-26 -15,-7 -19,25 -19,34 0,34 10,0 15,-10 15,-27 z"
       id="path519"
       inkscape:connector-curvature="0" />
    <path
       d="m 5720,4201 c -5,-11 -10,-36 -10,-56 0,-52 15,-75 49,-75 38,0 54,22 54,75 0,24 -5,51 -13,59 -18,23 -67,20 -80,-3 z m 70,-54 c 0,-10 -5,-27 -11,-38 -15,-28 -39,-7 -39,35 0,42 20,63 37,39 7,-9 13,-25 13,-36 z"
       id="path521"
       inkscape:connector-curvature="0" />
    <path
       d="m 5060,3644 c -23,-60 0,-124 45,-124 45,0 68,64 45,124 -8,21 -16,26 -45,26 -29,0 -37,-5 -45,-26 z m 66,-19 c 9,-38 -3,-77 -24,-73 -19,4 -27,37 -18,74 8,31 34,31 42,-1 z"
       id="path523"
       inkscape:connector-curvature="0" />
    <path
       d="m 5180,3655 c 0,-8 7,-15 15,-15 8,0 15,7 15,15 0,8 -7,15 -15,15 -8,0 -15,-7 -15,-15 z"
       id="path525"
       inkscape:connector-curvature="0" />
    <path
       d="m 5250,3655 c -6,-8 -12,-35 -12,-60 0,-25 6,-52 12,-60 17,-21 54,-19 73,3 19,21 22,83 7,113 -13,23 -62,26 -80,4 z m 55,-56 c 0,-33 -4,-45 -17,-47 -21,-4 -34,49 -18,78 18,33 35,18 35,-31 z"
       id="path527"
       inkscape:connector-curvature="0" />
    <path
       d="m 5360,3655 c 0,-11 6,-14 23,-10 28,7 52,-8 44,-29 -4,-10 -18,-16 -37,-16 -30,0 -31,-2 -28,-37 3,-37 4,-38 46,-41 33,-2 42,0 42,12 0,11 -10,16 -30,16 -39,0 -39,16 0,23 33,7 51,48 33,76 -14,23 -93,28 -93,6 z"
       id="path529"
       inkscape:connector-curvature="0" />
    <path
       d="m 5432,2758 c -15,-15 -16,-92 -2,-119 13,-23 53,-25 74,-3 19,19 22,104 4,122 -7,7 -24,12 -38,12 -14,0 -31,-5 -38,-12 z m 53,-59 c 0,-32 -4,-45 -16,-47 -20,-4 -31,42 -18,76 14,37 34,21 34,-29 z"
       id="path531"
       inkscape:connector-curvature="0" />
    <path
       d="m 5550,2755 c 0,-8 7,-15 15,-15 8,0 15,7 15,15 0,8 -7,15 -15,15 -8,0 -15,-7 -15,-15 z"
       id="path533"
       inkscape:connector-curvature="0" />
    <path
       d="m 5610,2757 c 0,-7 11,-13 27,-12 14,0 28,-6 30,-12 3,-9 -6,-13 -25,-13 -31,0 -42,-14 -42,-54 0,-29 18,-46 50,-46 38,0 50,18 50,75 0,28 -5,56 -12,63 -16,16 -78,16 -78,-1 z m 58,-85 c 3,-17 -2,-22 -17,-22 -14,0 -21,6 -21,18 0,38 33,41 38,4 z"
       id="path535"
       inkscape:connector-curvature="0" />
    <path
       d="m 5720,2757 c 0,-10 10,-14 33,-13 26,1 33,-3 35,-21 3,-20 -1,-23 -27,-23 -29,0 -31,-2 -31,-40 v -40 h 40 c 29,0 40,4 40,15 0,9 -9,15 -25,15 -14,0 -25,5 -25,10 0,6 8,10 19,10 27,0 43,24 39,62 -3,32 -5,33 -50,36 -37,2 -48,0 -48,-11 z"
       id="path537"
       inkscape:connector-curvature="0" />
    <path
       d="m 4816,2434 c -10,-10 -16,-33 -16,-64 0,-52 17,-80 49,-80 30,0 51,33 51,82 0,66 -46,101 -84,62 z m 49,-65 c 0,-32 -4,-44 -15,-44 -16,0 -26,54 -16,82 12,30 31,6 31,-38 z"
       id="path539"
       inkscape:connector-curvature="0" />
    <path
       d="m 5124,2436 c -14,-11 -19,-26 -19,-66 0,-40 5,-55 19,-66 27,-19 42,-18 66,6 39,39 15,140 -33,140 -7,0 -22,-6 -33,-14 z m 52,-41 c 8,-34 -3,-75 -21,-75 -18,0 -29,41 -21,75 4,14 13,25 21,25 8,0 17,-11 21,-25 z"
       id="path541"
       inkscape:connector-curvature="0" />
    <path
       d="m 4930,2425 c 0,-8 7,-15 15,-15 8,0 15,7 15,15 0,8 -7,15 -15,15 -8,0 -15,-7 -15,-15 z"
       id="path543"
       inkscape:connector-curvature="0" />
    <path
       d="m 4980,2434 c 0,-3 16,-24 35,-47 41,-48 40,-63 -4,-61 -36,2 -43,-21 -10,-31 66,-21 98,33 55,90 l -27,35 h 25 c 15,0 26,5 26,10 0,6 -22,10 -50,10 -27,0 -50,-3 -50,-6 z"
       id="path545"
       inkscape:connector-curvature="0" />
    <path
       d="m 3880,2275 c 0,-8 7,-15 15,-15 11,0 15,-12 15,-45 0,-34 -4,-45 -16,-45 -26,0 -9,-25 19,-28 27,-3 27,-3 27,57 0,48 3,61 15,61 8,0 15,7 15,15 0,11 -12,15 -45,15 -33,0 -45,-4 -45,-15 z"
       id="path547"
       inkscape:connector-curvature="0" />
    <path
       d="m 4000,2275 c 0,-8 7,-15 15,-15 8,0 15,7 15,15 0,8 -7,15 -15,15 -8,0 -15,-7 -15,-15 z"
       id="path549"
       inkscape:connector-curvature="0" />
    <path
       d="m 4066,2268 c -34,-48 -9,-128 39,-128 13,0 31,10 39,22 34,48 9,128 -39,128 -13,0 -31,-10 -39,-22 z m 64,-53 c 0,-38 -20,-61 -38,-43 -29,29 -5,111 25,87 7,-7 13,-26 13,-44 z"
       id="path551"
       inkscape:connector-curvature="0" />
    <path
       d="m 660,5290 c 0,-5 7,-10 15,-10 11,0 15,-12 15,-49 0,-44 -2,-49 -20,-44 -14,4 -20,0 -20,-11 0,-12 9,-16 35,-16 h 35 v 60 c 0,47 3,60 15,60 8,0 15,5 15,10 0,6 -20,10 -45,10 -25,0 -45,-4 -45,-10 z"
       id="path583"
       inkscape:connector-curvature="0" />
    <path
       d="m 570,5245 c 0,-10 10,-15 30,-15 20,0 30,5 30,15 0,10 -10,15 -30,15 -20,0 -30,-5 -30,-15 z"
       id="path585"
       inkscape:connector-curvature="0" />
    <path
       d="m 6184,4976 c -14,-11 -19,-26 -19,-66 0,-40 5,-55 19,-66 27,-19 42,-18 66,6 39,39 15,140 -33,140 -7,0 -22,-6 -33,-14 z m 52,-41 c 8,-34 -3,-75 -21,-75 -8,0 -17,11 -21,25 -8,34 3,75 21,75 8,0 17,-11 21,-25 z"
       id="path587"
       inkscape:connector-curvature="0" />
    <path
       d="m 6357,4983 c -16,-15 -5,-28 26,-28 37,0 46,-28 10,-33 -13,-2 -23,-10 -23,-17 0,-7 10,-15 23,-17 33,-5 27,-23 -10,-26 -37,-4 -43,-17 -12,-27 49,-16 97,26 69,60 -7,9 -8,15 0,20 15,9 12,41 -6,59 -15,16 -65,22 -77,9 z"
       id="path589"
       inkscape:connector-curvature="0" />
    <path
       d="m 6487,4972 c -24,-26 -23,-104 1,-125 43,-39 82,-9 82,63 0,72 -44,105 -83,62 z m 53,-37 c 11,-30 -4,-79 -23,-73 -13,5 -22,61 -13,84 8,22 26,17 36,-11 z"
       id="path591"
       inkscape:connector-curvature="0" />
    <path
       d="m 6290,4965 c 0,-8 7,-15 15,-15 8,0 15,7 15,15 0,8 -7,15 -15,15 -8,0 -15,-7 -15,-15 z"
       id="path593"
       inkscape:connector-curvature="0" />
    <path
       d="m 6675,4066 c -14,-10 -19,-26 -19,-66 0,-40 5,-56 19,-66 43,-32 85,1 85,66 0,65 -42,98 -85,66 z m 50,-66 c 0,-33 -4,-46 -16,-48 -11,-2 -19,6 -23,22 -9,38 3,78 23,74 12,-2 16,-15 16,-48 z"
       id="path595"
       inkscape:connector-curvature="0" />
    <path
       d="m 6853,4073 c -25,-10 -12,-28 20,-28 37,0 46,-28 10,-33 -13,-2 -23,-10 -23,-17 0,-7 10,-15 23,-17 33,-5 27,-23 -10,-26 -37,-4 -43,-17 -12,-27 49,-16 97,26 69,60 -7,9 -8,15 0,20 17,11 11,54 -9,65 -21,10 -47,12 -68,3 z"
       id="path597"
       inkscape:connector-curvature="0" />
    <path
       d="m 6976,4058 c -32,-46 -10,-138 33,-138 38,0 55,25 55,80 0,40 -5,56 -19,66 -27,20 -52,17 -69,-8 z m 58,-33 c 9,-37 -3,-77 -23,-73 -16,3 -27,57 -17,84 9,23 33,16 40,-11 z"
       id="path599"
       inkscape:connector-curvature="0" />
    <path
       d="m 6780,4055 c 0,-8 7,-15 15,-15 8,0 15,7 15,15 0,8 -7,15 -15,15 -8,0 -15,-7 -15,-15 z"
       id="path601"
       inkscape:connector-curvature="0" />
    <path
       d="m 4539,1623 c -12,-32 -6,-88 12,-109 32,-39 89,1 89,64 0,52 -15,72 -56,72 -28,0 -36,-5 -45,-27 z m 65,-9 c 12,-30 6,-75 -10,-81 -19,-7 -34,13 -34,48 0,40 32,64 44,33 z"
       id="path603"
       inkscape:connector-curvature="0" />
    <path
       d="m 4660,1635 c 0,-8 7,-15 15,-15 8,0 15,7 15,15 0,8 -7,15 -15,15 -8,0 -15,-7 -15,-15 z"
       id="path605"
       inkscape:connector-curvature="0" />
    <path
       d="m 4746,1628 c 3,-13 13,-38 20,-57 18,-43 19,-41 -16,-41 -20,0 -30,-5 -30,-15 0,-11 12,-15 50,-15 28,0 50,3 50,7 0,27 -54,143 -67,143 -10,0 -12,-6 -7,-22 z"
       id="path607"
       inkscape:connector-curvature="0" />
    <path
       d="m 4850,1631 c -15,-30 -12,-97 6,-115 21,-22 61,-20 74,3 14,27 13,104 -2,119 -19,19 -66,15 -78,-7 z m 60,-27 c 13,-34 2,-76 -19,-72 -10,2 -17,15 -19,37 -6,60 20,84 38,35 z"
       id="path609"
       inkscape:connector-curvature="0" />
    <path
       d="m 5470,811 c -15,-29 -12,-83 6,-109 17,-25 56,-29 73,-8 18,21 24,77 12,109 -9,22 -17,27 -45,27 -25,0 -38,-6 -46,-19 z m 58,-13 c 14,-14 16,-57 3,-77 -15,-23 -41,-5 -41,28 0,54 14,73 38,49 z"
       id="path611"
       inkscape:connector-curvature="0" />
    <path
       d="m 5590,815 c 0,-8 7,-15 15,-15 8,0 15,7 15,15 0,8 -7,15 -15,15 -8,0 -15,-7 -15,-15 z"
       id="path613"
       inkscape:connector-curvature="0" />
    <path
       d="m 5660,820 c 0,-5 7,-10 15,-10 11,0 15,-12 15,-51 0,-46 -2,-50 -20,-44 -14,4 -20,2 -20,-8 0,-16 44,-32 60,-22 6,4 10,33 10,66 0,46 3,59 15,59 8,0 15,5 15,10 0,6 -20,10 -45,10 -25,0 -45,-4 -45,-10 z"
       id="path615"
       inkscape:connector-curvature="0" />
    <path
       d="m 5782,818 c -15,-15 -16,-92 -2,-119 7,-12 21,-19 40,-19 19,0 33,7 40,19 14,27 13,104 -2,119 -15,15 -61,15 -76,0 z m 53,-59 c 0,-32 -4,-44 -15,-44 -16,0 -26,54 -16,82 12,30 31,6 31,-38 z"
       id="path617"
       inkscape:connector-curvature="0" />
    <path
       d="m 4230,455 c 0,-20 -5,-25 -25,-25 -16,0 -25,-6 -25,-15 0,-9 9,-15 25,-15 20,0 25,-5 25,-25 0,-16 6,-25 15,-25 9,0 15,9 15,25 0,20 5,25 25,25 16,0 25,6 25,15 0,9 -9,15 -25,15 -20,0 -25,5 -25,25 0,16 -6,25 -15,25 -9,0 -15,-9 -15,-25 z"
       id="path619"
       inkscape:connector-curvature="0" />
    <path
       d="m 4340,465 c 0,-11 6,-14 23,-10 15,4 28,1 36,-9 18,-21 5,-36 -30,-36 -27,0 -29,-2 -29,-40 v -40 h 45 c 33,0 45,4 45,15 0,10 -10,15 -30,15 -16,0 -30,5 -30,10 0,6 8,10 18,10 11,0 27,9 37,20 15,16 17,26 9,48 -8,23 -16,27 -52,30 -33,2 -42,0 -42,-13 z"
       id="path621"
       inkscape:connector-curvature="0" />
  </g>
  <g
     id="layer5"
     style="display:none;fill:#ffffff;stroke:none">
    <path
       d="M 0,3200 V 0 H 4000 8000 V 3200 6400 H 4000 0 Z m 5165,2446 c 561,-55 894,-166 991,-331 35,-60 34,-151 -3,-226 -26,-52 -158,-196 -231,-250 -31,-23 -32,-27 -21,-58 15,-44 7,-129 -17,-176 l -20,-38 125,-64 c 69,-34 166,-92 215,-129 537,-399 977,-1267 976,-1926 0,-148 -16,-240 -55,-325 -14,-31 -25,-57 -25,-59 0,-1 19,-4 43,-6 l 42,-3 -113,-74 c -88,-57 -111,-77 -106,-90 69,-154 70,-282 3,-412 -42,-83 -170,-177 -266,-195 -18,-3 -33,-9 -33,-12 0,-3 18,-53 41,-110 22,-57 38,-106 36,-109 -3,-2 -21,10 -40,26 l -35,31 -16,-25 c -55,-84 -201,-147 -446,-192 -121,-23 -478,-25 -585,-4 -132,26 -251,70 -327,121 -83,55 -127,105 -166,188 -24,52 -27,68 -27,172 0,130 13,184 77,321 l 40,87 -31,42 c -17,24 -31,51 -31,62 0,13 -7,18 -29,18 -59,0 -187,-33 -288,-75 -123,-51 -480,-244 -480,-259 1,-72 -6,-98 -38,-146 -19,-29 -35,-57 -35,-63 0,-5 21,-41 47,-78 54,-80 59,-122 19,-154 -22,-18 -23,-22 -10,-39 26,-37 9,-106 -27,-106 -5,0 -2,-14 7,-31 15,-30 15,-59 -2,-104 -7,-20 -7,-20 14,-1 12,11 25,17 27,14 3,-3 -11,-69 -32,-147 -20,-77 -40,-137 -44,-133 -10,10 -89,276 -83,281 2,3 17,-8 33,-23 l 29,-27 11,32 c 16,46 13,80 -8,108 -19,25 -17,61 3,61 7,0 21,6 31,14 18,13 18,15 2,39 -24,37 -21,66 8,89 14,11 25,25 25,31 0,7 -21,43 -47,80 -52,77 -58,113 -25,155 36,45 53,82 50,107 -3,24 -7,22 -138,-52 -414,-232 -734,-357 -1060,-414 -88,-15 -363,-16 -435,-1 -27,6 -51,9 -52,8 -1,-1 9,-19 22,-39 14,-20 25,-39 25,-42 0,-4 -51,21 -114,55 l -115,61 -47,-51 c -69,-74 -154,-113 -259,-118 -170,-9 -308,74 -380,229 -14,30 -27,68 -31,85 l -6,31 -140,-29 c -78,-15 -143,-26 -146,-24 -2,3 11,18 29,34 l 34,30 -40,7 c -237,38 -405,209 -474,480 -142,558 120,1593 648,2564 28,52 50,96 48,97 -8,8 -129,33 -189,39 -72,7 -105,23 -95,48 3,8 32,35 63,58 68,50 66,52 -79,68 -52,6 -102,14 -111,17 -31,12 -17,43 36,77 65,42 81,60 73,86 -15,49 -120,64 -246,35 -90,-20 -101,-13 -93,61 9,73 -1,115 -38,166 -26,37 -32,40 -38,25 -5,-15 -15,-5 -48,48 -23,36 -38,66 -34,66 4,0 35,-12 69,-27 61,-28 78,-43 47,-43 -12,0 -10,-7 10,-31 49,-57 59,-89 59,-171 0,-43 3,-78 8,-78 4,0 38,7 76,16 117,27 232,3 254,-52 14,-38 -7,-72 -69,-115 -53,-37 -53,-37 -25,-43 15,-3 55,-8 88,-11 105,-12 135,-22 135,-50 0,-18 -15,-36 -57,-67 l -57,-43 40,-7 c 21,-4 77,-14 124,-21 47,-8 92,-17 100,-20 11,-5 36,27 96,126 151,245 316,459 465,603 92,88 143,126 234,172 260,130 862,246 1475,282 102,6 205,12 230,14 110,9 835,-4 975,-18 z M 750,5290 c 0,-5 -7,-10 -15,-10 -12,0 -15,-13 -15,-60 v -60 h -35 c -26,0 -35,4 -35,16 0,11 6,15 20,11 18,-5 20,0 20,44 0,37 -4,49 -15,49 -8,0 -15,5 -15,10 0,6 20,10 45,10 25,0 45,-4 45,-10 z m -120,-45 c 0,-10 -10,-15 -30,-15 -20,0 -30,5 -30,15 0,10 10,15 30,15 20,0 30,-5 30,-15 z m 5620,-275 c 39,-39 15,-140 -33,-140 -34,0 -52,28 -52,80 0,40 5,55 19,66 27,19 42,18 66,-6 z m 184,4 c 18,-18 21,-50 6,-59 -8,-5 -7,-11 0,-20 28,-34 -20,-76 -69,-60 -31,10 -25,23 12,27 37,3 43,21 10,26 -13,2 -23,10 -23,17 0,7 10,15 23,17 36,5 27,33 -10,33 -31,0 -42,13 -26,28 12,13 62,7 77,-9 z m 120,0 c 10,-10 16,-33 16,-64 0,-72 -39,-102 -82,-63 -12,11 -18,30 -18,61 0,70 45,105 84,66 z m -234,-9 c 0,-8 -7,-15 -15,-15 -8,0 -15,7 -15,15 0,8 7,15 15,15 8,0 15,-7 15,-15 z m 424,-907 c 32,-46 10,-138 -33,-138 -38,0 -55,25 -55,80 0,40 5,56 19,66 27,20 52,17 69,-8 z m 177,12 c 20,-11 26,-54 9,-65 -8,-5 -7,-11 0,-20 28,-34 -20,-76 -69,-60 -31,10 -25,23 12,27 37,3 43,21 10,26 -13,2 -23,10 -23,17 0,7 10,15 23,17 36,5 27,33 -10,33 -19,0 -33,5 -33,12 0,22 49,30 81,13 z m 124,-4 c 14,-10 19,-26 19,-66 0,-40 -5,-56 -19,-66 -43,-32 -85,1 -85,66 0,65 42,98 85,66 z m -235,-11 c 0,-8 -7,-15 -15,-15 -8,0 -15,7 -15,15 0,8 7,15 15,15 8,0 15,-7 15,-15 z M 4630,1631 c 15,-29 12,-83 -6,-109 -17,-25 -56,-29 -73,-8 -18,21 -24,77 -12,109 9,22 17,27 45,27 25,0 38,-6 46,-19 z m 60,4 c 0,-8 -7,-15 -15,-15 -8,0 -15,7 -15,15 0,8 7,15 15,15 8,0 15,-7 15,-15 z m 104,-53 c 14,-37 26,-71 26,-75 0,-4 -22,-7 -50,-7 -38,0 -50,4 -50,15 0,10 10,15 30,15 35,0 34,-2 16,41 -26,64 -28,79 -13,79 10,0 25,-26 41,-68 z m 134,56 c 15,-15 16,-92 2,-119 -13,-23 -53,-25 -74,-3 -18,18 -21,85 -6,115 12,22 59,26 78,7 z m 633,-835 c 12,-32 6,-88 -12,-109 -32,-39 -89,1 -89,64 0,52 15,72 56,72 28,0 36,-5 45,-27 z m 59,12 c 0,-8 -7,-15 -15,-15 -8,0 -15,7 -15,15 0,8 7,15 15,15 8,0 15,-7 15,-15 z m 130,5 c 0,-5 -7,-10 -15,-10 -12,0 -15,-13 -15,-59 0,-33 -4,-62 -10,-66 -16,-10 -60,6 -60,22 0,10 6,12 20,8 18,-6 20,-2 20,44 0,39 -4,51 -15,51 -8,0 -15,5 -15,10 0,6 20,10 45,10 25,0 45,-4 45,-10 z m 108,-2 c 15,-15 16,-92 2,-119 -7,-12 -21,-19 -40,-19 -19,0 -33,7 -40,19 -14,27 -13,104 2,119 15,15 61,15 76,0 z M 4260,455 c 0,-20 5,-25 25,-25 16,0 25,-6 25,-15 0,-9 -9,-15 -25,-15 -20,0 -25,-5 -25,-25 0,-16 -6,-25 -15,-25 -9,0 -15,9 -15,25 0,20 -5,25 -25,25 -16,0 -25,6 -25,15 0,9 9,15 25,15 20,0 25,5 25,25 0,16 6,25 15,25 9,0 15,-9 15,-25 z m 174,-7 c 8,-22 6,-32 -9,-48 -10,-11 -26,-20 -37,-20 -10,0 -18,-4 -18,-10 0,-5 14,-10 30,-10 20,0 30,-5 30,-15 0,-11 -12,-15 -45,-15 h -45 v 40 c 0,38 2,40 29,40 35,0 48,15 30,36 -8,10 -21,13 -36,9 -17,-4 -23,-1 -23,10 0,13 9,15 42,13 36,-3 44,-7 52,-30 z"
       id="path624"
       inkscape:connector-curvature="0" />
    <path
       d="m 3054,4216 c -9,-23 0,-79 13,-84 18,-5 37,42 29,72 -7,28 -33,35 -42,12 z"
       id="path628"
       inkscape:connector-curvature="0" />
    <path
       d="m 3242,4208 c 2,-12 10,-23 18,-23 22,0 19,39 -3,43 -15,3 -18,-1 -15,-20 z"
       id="path630"
       inkscape:connector-curvature="0" />
    <path
       d="m 2197,3484 c -4,-4 -7,-27 -7,-51 0,-37 3,-44 18,-41 13,3 17,13 17,47 0,41 -12,61 -28,45 z"
       id="path632"
       inkscape:connector-curvature="0" />
    <path
       d="m 1490,2740 c -16,-29 -3,-82 18,-78 13,2 17,14 17,47 0,49 -17,64 -35,31 z"
       id="path634"
       inkscape:connector-curvature="0" />
    <path
       d="m 5085,5250 c -122,-19 -216,-55 -342,-128 l -63,-37 v -75 c 0,-41 -3,-85 -6,-96 -5,-19 8,-29 105,-80 61,-33 111,-62 111,-66 0,-5 -19,-8 -42,-8 l -43,-1 50,-46 c 249,-228 509,-400 624,-410 84,-8 122,24 137,116 6,40 6,41 -22,41 -42,1 -106,32 -146,72 -90,91 -101,226 -27,334 36,53 97,90 174,106 l 58,11 -39,36 c -22,20 -61,56 -88,79 -26,24 -46,45 -44,47 2,2 21,0 42,-5 37,-8 37,-8 20,11 -23,25 -109,67 -175,84 -71,19 -209,26 -284,15 z"
       id="path636"
       inkscape:connector-curvature="0" />
    <path
       d="m 3768,4869 c -65,-33 -118,-56 -118,-53 0,4 9,22 21,40 l 21,34 -26,-9 c -58,-23 -135,-67 -187,-108 -190,-148 -231,-351 -103,-501 l 36,-42 44,49 c 52,58 113,85 190,85 h 52 l 32,111 c 39,136 46,150 55,110 13,-61 15,-62 38,-34 12,14 45,41 72,59 28,18 65,47 82,63 33,31 56,30 37,-1 -6,-9 -31,-32 -55,-50 -63,-47 -131,-104 -127,-108 2,-1 20,1 41,5 20,5 37,5 37,1 0,-5 -40,-43 -89,-87 l -88,-78 49,-28 c 73,-42 128,-137 128,-223 0,-17 -7,-55 -16,-85 -20,-67 -97,-148 -160,-167 -91,-27 -202,-6 -262,51 l -24,22 -25,-30 c -39,-47 -125,-182 -175,-275 -106,-197 -190,-409 -358,-905 -205,-607 -270,-768 -353,-875 l -19,-25 49,-5 48,-5 -65,-39 c -36,-22 -89,-55 -118,-74 l -53,-33 37,-41 c 47,-52 83,-132 98,-216 l 11,-67 50,13 c 54,15 208,19 460,13 177,-4 224,5 296,55 36,25 103,103 95,111 -1,2 -17,-2 -35,-8 -18,-6 -34,-9 -36,-7 -3,2 31,45 74,94 l 79,90 -29,28 c -47,48 -64,93 -64,176 0,52 5,86 18,111 44,88 141,149 238,149 h 56 l 36,78 c 105,224 148,433 222,1082 47,420 79,653 121,899 19,112 32,206 30,208 -3,3 -19,-5 -36,-17 -17,-12 -33,-20 -36,-17 -3,3 20,53 51,112 32,58 56,107 54,109 -2,1 -26,13 -54,26 -92,44 -174,138 -205,235 -7,22 -15,43 -19,47 -3,3 -59,-20 -123,-53 z M 3454,3718 c 18,-26 20,-65 6,-102 -8,-21 -16,-26 -45,-26 -29,0 -37,5 -45,26 -23,60 0,124 45,124 13,0 31,-10 39,-22 z m 66,2 c 0,-11 -7,-20 -15,-20 -8,0 -15,9 -15,20 0,11 7,20 15,20 8,0 15,-9 15,-20 z m 110,1 c 0,-11 6,-22 13,-25 10,-5 10,-7 0,-12 -8,-3 -13,-24 -13,-50 0,-58 -19,-58 -60,0 -38,56 -38,66 0,66 23,0 30,4 30,20 0,11 7,20 15,20 8,0 15,-9 15,-19 z"
       id="path638"
       inkscape:connector-curvature="0" />
    <path
       d="m 3397,3703 c -10,-9 -8,-66 2,-82 13,-20 41,3 41,34 0,45 -22,70 -43,48 z"
       id="path640"
       inkscape:connector-curvature="0" />
    <path
       d="m 3581,3663 c 7,-10 15,-20 16,-22 2,-2 3,5 3,17 0,14 -6,22 -16,22 -14,0 -15,-3 -3,-17 z"
       id="path642"
       inkscape:connector-curvature="0" />
    <path
       d="m 4638,4817 c -9,-19 -31,-51 -48,-71 -23,-25 -29,-40 -23,-49 6,-6 43,-54 83,-105 40,-51 70,-95 68,-98 -3,-2 -21,3 -41,11 l -37,15 17,-37 c 43,-93 132,-213 237,-319 151,-151 274,-241 601,-445 384,-238 548,-359 682,-504 l 79,-85 39,11 c 88,25 197,-5 264,-73 50,-50 70,-102 71,-183 l 1,-70 111,-70 112,-70 -46,-3 -46,-3 44,-65 c 24,-36 51,-90 60,-120 31,-109 15,-250 -45,-387 -12,-27 -21,-50 -21,-53 0,-2 13,-10 28,-18 16,-8 47,-34 70,-57 24,-23 44,-40 46,-38 1,2 27,57 57,121 30,65 57,118 61,118 4,0 8,-19 10,-42 l 4,-43 26,55 c 105,225 59,650 -122,1105 -184,464 -471,864 -797,1109 -48,36 -143,94 -210,127 l -122,62 -36,-27 c -43,-33 -96,-56 -130,-56 -28,0 -40,-19 -50,-84 -8,-49 -50,-92 -100,-102 -126,-23 -359,113 -677,399 l -78,69 v -48 -49 l -33,52 c -17,29 -46,75 -62,103 l -31,51 z m 862,-616 c 5,-11 10,-36 10,-56 0,-52 -15,-75 -49,-75 -38,0 -56,24 -56,75 0,23 6,49 14,58 19,23 68,22 81,-2 z m 60,4 c 0,-8 -7,-15 -15,-15 -8,0 -15,7 -15,15 0,8 7,15 15,15 8,0 15,-7 15,-15 z m 120,0 c 0,-8 5,-15 10,-15 6,0 10,-7 10,-15 0,-8 -4,-15 -10,-15 -5,0 -10,-20 -10,-45 0,-63 -27,-62 -69,3 -40,62 -39,72 4,72 24,0 35,5 35,15 0,8 7,15 15,15 8,0 15,-7 15,-15 z m 120,-1 c 8,-8 13,-35 13,-59 0,-53 -16,-75 -54,-75 -34,0 -49,23 -49,75 0,20 5,45 10,56 13,23 62,26 80,3 z"
       id="path644"
       inkscape:connector-curvature="0" />
    <path
       d="m 5441,4181 c -6,-11 -11,-27 -11,-36 0,-9 5,-25 11,-36 15,-29 39,-6 39,36 0,42 -24,65 -39,36 z"
       id="path646"
       inkscape:connector-curvature="0" />
    <path
       d="m 5620,4153 c 0,-5 7,-17 15,-27 14,-19 15,-19 15,7 0,17 -5,27 -15,27 -8,0 -15,-3 -15,-7 z"
       id="path648"
       inkscape:connector-curvature="0" />
    <path
       d="m 5752,4188 c -17,-17 -15,-73 2,-87 28,-24 48,48 23,82 -10,14 -15,15 -25,5 z"
       id="path650"
       inkscape:connector-curvature="0" />
    <path
       d="m 4528,4684 c -4,-5 -32,-23 -62,-38 -31,-16 -56,-33 -56,-38 0,-5 16,-62 35,-125 19,-64 33,-118 30,-121 -3,-3 -19,7 -35,23 l -30,29 v -80 c 1,-149 20,-699 30,-849 58,-847 168,-1170 446,-1302 39,-19 119,-46 177,-60 l 106,-26 40,45 c 58,66 124,92 218,86 62,-4 81,-10 122,-38 27,-19 60,-51 74,-73 49,-75 59,-186 23,-255 l -14,-28 133,-34 c 74,-18 132,-37 129,-41 -2,-4 -22,-10 -43,-14 l -40,-7 87,-87 c 77,-79 93,-90 141,-101 47,-11 175,-10 186,2 3,2 0,32 -5,66 -17,105 12,223 75,307 l 27,35 -23,9 c -13,4 -70,25 -126,46 -100,37 -121,55 -63,55 16,0 31,4 34,9 3,4 -21,41 -54,82 -165,206 -264,487 -216,612 9,24 27,54 39,65 28,27 99,52 144,52 35,0 38,3 47,61 8,45 51,111 93,142 l 33,24 -70,76 c -134,144 -268,244 -680,502 -129,81 -264,168 -300,193 -257,181 -447,379 -542,567 l -31,60 -16,-42 c -8,-24 -18,-43 -22,-43 -3,0 -12,60 -20,133 -8,72 -17,127 -21,121 z m 622,-1040 c 23,-60 0,-124 -45,-124 -45,0 -68,64 -45,124 8,21 16,26 45,26 29,0 37,-5 45,-26 z m 60,11 c 0,-8 -7,-15 -15,-15 -8,0 -15,7 -15,15 0,8 7,15 15,15 8,0 15,-7 15,-15 z m 120,-4 c 15,-30 12,-92 -7,-113 -19,-22 -56,-24 -73,-3 -6,8 -12,35 -12,60 0,25 6,52 12,60 18,22 67,19 80,-4 z m 123,-2 c 18,-28 0,-69 -33,-76 -39,-7 -39,-23 0,-23 20,0 30,-5 30,-16 0,-12 -9,-14 -42,-12 -42,3 -43,4 -46,41 -3,35 -2,37 28,37 19,0 33,6 37,16 8,21 -16,36 -44,29 -17,-4 -23,-1 -23,10 0,22 79,17 93,-6 z m 55,-891 c 18,-18 15,-103 -4,-122 -21,-22 -61,-20 -74,3 -14,27 -13,104 2,119 7,7 24,12 38,12 14,0 31,-5 38,-12 z m 72,-3 c 0,-8 -7,-15 -15,-15 -8,0 -15,7 -15,15 0,8 7,15 15,15 8,0 15,-7 15,-15 z m 108,3 c 7,-7 12,-35 12,-63 0,-57 -12,-75 -50,-75 -32,0 -50,17 -50,46 0,40 11,54 42,54 19,0 28,4 25,13 -2,6 -16,12 -30,12 -16,-1 -27,5 -27,12 0,17 62,17 78,1 z m 130,-26 c 4,-38 -12,-62 -39,-62 -11,0 -19,-4 -19,-10 0,-5 11,-10 25,-10 16,0 25,-6 25,-15 0,-11 -11,-15 -40,-15 h -40 v 40 c 0,38 2,40 31,40 26,0 30,3 27,23 -2,18 -9,22 -35,21 -23,-1 -33,3 -33,13 0,11 11,13 48,11 45,-3 47,-4 50,-36 z m -936,-299 c 24,-21 25,-99 1,-125 -39,-43 -83,-10 -83,62 0,72 39,102 82,63 z m 308,-3 c 39,-39 15,-140 -33,-140 -34,0 -52,28 -52,80 0,40 5,55 19,66 27,19 42,18 66,-6 z m -230,-5 c 0,-8 -7,-15 -15,-15 -8,0 -15,7 -15,15 0,8 7,15 15,15 8,0 15,-7 15,-15 z m 120,5 c 0,-5 -11,-10 -26,-10 h -25 l 27,-35 c 43,-57 11,-111 -55,-90 -33,10 -26,33 10,31 44,-2 45,13 4,61 -19,23 -35,44 -35,47 0,3 23,6 50,6 28,0 50,-4 50,-10 z"
       id="path652"
       inkscape:connector-curvature="0" />
    <path
       d="m 5084,3626 c -9,-37 -1,-70 18,-74 21,-4 33,35 24,73 -8,32 -34,32 -42,1 z"
       id="path654"
       inkscape:connector-curvature="0" />
    <path
       d="m 5270,3630 c -16,-29 -3,-82 18,-78 13,2 17,14 17,47 0,49 -17,64 -35,31 z"
       id="path656"
       inkscape:connector-curvature="0" />
    <path
       d="m 5451,2728 c -13,-34 -2,-80 18,-76 12,2 16,15 16,47 0,50 -20,66 -34,29 z"
       id="path658"
       inkscape:connector-curvature="0" />
    <path
       d="m 5637,2694 c -16,-16 -7,-44 14,-44 15,0 20,5 17,22 -3,22 -19,33 -31,22 z"
       id="path660"
       inkscape:connector-curvature="0" />
    <path
       d="m 4834,2407 c -10,-28 0,-82 16,-82 11,0 15,12 15,44 0,44 -19,68 -31,38 z"
       id="path662"
       inkscape:connector-curvature="0" />
    <path
       d="m 5134,2395 c -8,-34 3,-75 21,-75 8,0 17,11 21,25 8,34 -3,75 -21,75 -8,0 -17,-11 -21,-25 z"
       id="path664"
       inkscape:connector-curvature="0" />
    <path
       d="m 4214,4525 c 4,-44 9,-100 12,-125 l 5,-45 -30,35 c -22,26 -31,31 -35,20 -22,-69 -99,-604 -146,-1015 -86,-762 -118,-913 -256,-1231 -3,-5 11,-17 30,-26 171,-82 204,-312 62,-434 -70,-60 -193,-82 -273,-49 -20,8 -37,14 -39,12 -2,-1 -11,-50 -20,-107 -9,-58 -20,-109 -24,-113 -4,-5 -14,9 -21,32 l -14,40 -45,-57 c -34,-42 -63,-66 -114,-92 l -69,-35 h -306 c -234,0 -318,-3 -358,-14 -51,-14 -52,-15 -62,-63 -6,-27 -18,-65 -26,-85 l -15,-36 121,7 c 127,8 139,3 76,-31 l -32,-17 35,-8 c 68,-16 284,-21 388,-9 332,39 643,161 1192,467 517,288 677,360 825,371 l 72,6 2,51 c 1,28 3,62 4,75 2,23 -4,26 -96,48 -425,100 -558,359 -632,1232 -8,96 -19,323 -25,505 -6,182 -13,387 -16,454 l -6,124 -29,-28 c -16,-15 -31,-25 -34,-23 -2,3 9,54 25,115 17,60 30,114 30,119 0,6 -32,10 -81,10 h -81 z M 3970,2275 c 0,-8 -7,-15 -15,-15 -12,0 -15,-13 -15,-61 0,-60 0,-60 -27,-57 -28,3 -45,28 -19,28 12,0 16,11 16,45 0,33 -4,45 -15,45 -8,0 -15,7 -15,15 0,11 12,15 45,15 33,0 45,-4 45,-15 z m 60,0 c 0,-8 -7,-15 -15,-15 -8,0 -15,7 -15,15 0,8 7,15 15,15 8,0 15,-7 15,-15 z m 114,-7 c 34,-48 9,-128 -39,-128 -13,0 -31,10 -39,22 -34,48 -9,128 39,128 13,0 31,-10 39,-22 z"
       id="path666"
       inkscape:connector-curvature="0" />
    <path
       d="m 4092,2258 c -15,-15 -15,-71 0,-86 18,-18 38,5 38,43 0,38 -20,61 -38,43 z"
       id="path668"
       inkscape:connector-curvature="0" />
    <path
       d="m 5970,2841 c -57,-30 -74,-62 -78,-145 -3,-60 1,-87 27,-167 46,-135 168,-343 236,-399 16,-14 17,-12 13,23 -2,20 -1,37 3,37 5,0 119,-144 160,-203 4,-5 31,7 60,27 79,52 145,69 248,63 47,-3 98,-8 112,-12 24,-6 27,-3 51,62 44,116 51,145 52,228 1,95 -24,172 -82,250 l -37,50 -5,-50 -6,-50 -54,113 -55,114 -32,-45 c -44,-64 -108,-99 -191,-105 -82,-5 -136,8 -191,48 -48,35 -77,77 -93,138 -12,42 -13,42 -58,42 -25,0 -61,-8 -80,-19 z"
       id="path670"
       inkscape:connector-curvature="0" />
    <path
       d="m 5598,1785 c -10,-13 -43,-36 -74,-51 -75,-37 -162,-38 -233,-2 l -50,24 -34,-75 c -93,-203 -106,-357 -41,-488 101,-208 435,-322 856,-292 271,19 549,100 563,164 18,79 35,196 31,204 -3,4 -30,11 -61,14 -109,11 -235,96 -286,191 l -24,45 h -106 c -135,-1 -162,10 -261,109 -80,79 -85,80 -69,24 5,-17 6,-32 2,-32 -4,0 -47,43 -95,95 -48,52 -91,95 -94,95 -4,0 -15,-11 -24,-25 z"
       id="path672"
       inkscape:connector-curvature="0" />
    <path
       d="m 6194,4935 c -8,-34 3,-75 21,-75 18,0 29,41 21,75 -4,14 -13,25 -21,25 -8,0 -17,-11 -21,-25 z"
       id="path674"
       inkscape:connector-curvature="0" />
    <path
       d="m 6504,4946 c -9,-23 0,-79 13,-84 19,-6 34,43 23,73 -10,28 -28,33 -36,11 z"
       id="path676"
       inkscape:connector-curvature="0" />
    <path
       d="m 6686,4026 c -9,-38 3,-78 23,-74 12,2 16,15 16,48 0,33 -4,46 -16,48 -11,2 -19,-6 -23,-22 z"
       id="path678"
       inkscape:connector-curvature="0" />
    <path
       d="m 6994,4036 c -10,-27 1,-81 17,-84 20,-4 32,36 23,73 -7,27 -31,34 -40,11 z"
       id="path680"
       inkscape:connector-curvature="0" />
    <path
       d="m 4572,1618 c -14,-14 -16,-57 -3,-77 15,-23 41,-5 41,28 0,54 -14,73 -38,49 z"
       id="path682"
       inkscape:connector-curvature="0" />
    <path
       d="m 4874,1616 c -3,-8 -4,-29 -2,-47 4,-42 33,-52 42,-15 11,45 -25,102 -40,62 z"
       id="path684"
       inkscape:connector-curvature="0" />
    <path
       d="m 5496,794 c -12,-30 -6,-75 10,-81 19,-7 34,13 34,48 0,40 -32,64 -44,33 z"
       id="path686"
       inkscape:connector-curvature="0" />
    <path
       d="m 5804,797 c -10,-28 0,-82 16,-82 11,0 15,12 15,44 0,44 -19,68 -31,38 z"
       id="path688"
       inkscape:connector-curvature="0" />
  </g>
  <g
     inkscape:groupmode="layer"
     id="layer1"
     inkscape:label="Layer 1"
     style="display:inline">
    <ellipse
       style="display:inline;fill:#bcd35f;stroke-width:9.30623722"
       id="path4577"
       cx="2123.1116"
       cy="1344.4338"
       rx="387.91986"
       ry="400.87979" />
    <ellipse
       style="display:inline;fill:#bcd35f;stroke-width:9.30623722"
       id="path4577-2"
       cx="6620.209"
       cy="1683.136"
       rx="387.91986"
       ry="400.87979" />
    <ellipse
       style="display:inline;fill:#bcd35f;stroke-width:9.30623722"
       id="path4577-9"
       cx="4282.0615"
       cy="4995.6416"
       rx="387.91986"
       ry="400.87979" />
  </g>
  <g
     inkscape:groupmode="layer"
     id="layer3"
     inkscape:label="Layer 2"
     style="display:inline">
    <path
       style="fill:#010101;stroke:none"
       d="m 4190,5664 c -25,-2 -128,-8 -230,-14 -379,-23 -784,-79 -1075,-150 -241,-58 -390,-115 -505,-193 -108,-73 -296,-279 -444,-486 -82,-116 -226,-346 -226,-363 0,-6 -9,-21 -19,-32 -27,-29 -195,-359 -284,-556 -321,-710 -491,-1426 -448,-1883 29,-316 128,-512 312,-624 41,-25 139,-59 194,-68 l 40,-7 -34,-30 c -18,-16 -31,-31 -29,-34 3,-2 68,9 146,24 l 140,29 6,-31 c 9,-45 52,-132 86,-176 38,-48 120,-102 189,-125 40,-13 75,-16 136,-13 105,5 190,44 259,118 l 47,51 115,-61 c 63,-34 114,-59 114,-55 0,3 -11,22 -25,42 -13,20 -23,38 -22,39 1,1 25,-2 52,-8 72,-15 347,-14 435,1 251,44 457,112 737,246 106,51 380,198 473,255 8,5 103,57 212,115 227,123 373,186 483,209 104,22 135,21 135,-2 0,-11 14,-38 31,-62 l 31,-42 -40,-87 c -64,-137 -77,-191 -77,-321 0,-104 3,-120 27,-172 39,-83 83,-133 166,-188 76,-51 195,-95 327,-121 107,-21 464,-19 585,4 245,45 391,108 446,192 l 16,25 35,-31 c 19,-16 37,-28 40,-26 2,3 -14,52 -36,109 -23,57 -41,107 -41,110 0,3 15,9 33,12 96,18 224,112 266,195 33.449,64.901 52.4135,132.9993 51.966,200.3874 -0.449,67.5936 -20.4135,134.4954 -54.966,211.6126 -5,13 18,33 106,90 l 113,74 -42,3 c -24,2 -43,5 -43,6 0,2 11,28 25,59 39,85 55,177 55,325 1,659 -439,1527 -976,1926 -49,37 -146,95 -215,129 l -125,64 20,38 c 24,47 32,132 17,176 -11,31 -10,35 21,58 73,54 205,198 231,250 37,75 38,166 3,226 -97,165 -430,276 -991,331 -140,14 -865,27 -975,18 z m 730,-29 c 294,-11 632,-59 845,-120 208,-60 360,-161 385,-256 26,-95 -10,-171 -147,-306 -56,-57 -63.446,-57.7038 -118.2265,-113.453 C 5881.2691,4835.9807 5861,4870 5837,4893 c -24,24 -64,52 -89,61 l -45,18 -38,129 c -21,71 -42,129 -46,129 -4,0 -11,-20 -15,-45 l -6,-45 -34,30 c -80,70 -175,101 -334,107 -189,8 -343,-31 -492,-126 l -63,-40 -31,67 c -116,250 -443,310 -636,116 l -47,-47 -114,51 c -63,29 -120,52 -126,52 -7,0 1,-17 18,-38 l 30,-38 -50,-13 c -128,-33 -417,-206 -628,-375 -525,-421 -901,-921 -1016,-1348 -27,-100 -51,-303 -41,-343 12,-49 26,-24 26,48 0,358 219,791 612,1213 331,356 762,679 1018,765 l 55,19 -30,-25 -30,-25 h 25 c 14,0 70,7 125,15 55,7 101,12 103,10 2,-2 -2,-13 -8,-25 -23,-43 -40,-117 -40,-176 v -60 l -82,7 c -46,5 -107,10 -135,14 -60,6 -67,-3 -23,-28 38,-23 38,-30 -5,-45 -73,-27 -171,-89 -229,-147 -138,-136 -177,-281 -112,-421 26,-56 83,-127 96,-119 5,3 4,-9 -1,-27 -16,-55 -12,-144 10,-193 l 20,-45 -49,-65 c -90,-119 -188,-296 -275,-501 -66,-153 -124,-313 -270,-744 -167,-492 -223,-632 -308,-765 l -32,-50 -5,50 -5,50 -63,-123 c -35,-68 -66,-122 -70,-120 -101.1449,61.4638 -181.3186,86.3856 -279.5874,70.3914 L 2027,1745 l 6,95 c 4,52 22,181 42,287 19,106 38,226 42,268 l 6,76 34,-32 c 18,-18 33,-27 33,-21 0,7 -12,61 -27,119 l -26,107 23,15 c 54,36 80,65 106,117 85,175 -36,380 -227,383 -99,2 -194,-56 -239,-145 -29,-59 -33,-167 -8,-225 41,-94 142,-159 248,-159 28,0 50,-1 50,-2 0,-2 -16,-50 -34,-108 -19,-58 -32,-107 -30,-109 3,-3 20,10 39,29 l 34,33 -6,-59 c -3,-32 -21,-144 -40,-249 -19,-104 -39,-244 -45,-310 l -12,-120 -50,-25 c -59,-29 -147,-113 -165,-158 -8,-18 -17,-32 -21,-32 -4,0 -36,43 -71,95 -35,52 -68,94 -73,95 -5,0 -6,-18 -2,-41 5,-31 3,-40 -6,-37 -25,8 -147,160 -191,236 -93,164 -121,269 -121,462 0,170 12,229 79,365 80,163 200,255 333,255 22.843,0 59.3401,-11.471 71.3675,-11.2556 0,0 5.7715,20.5353 2.2532,25.2726 -4.5008,6.0603 -20.806,7.6899 -37.6207,11.983 -18.9253,4.7313 -40.827,5.556 -64.2383,2.9683 C 1609.1583,2971.1642 1524.8257,2932.3237 1467,2876 c -221,-215 -268,-637 -106,-964 47,-94 108,-181 182,-259 l 49,-52 -41,-7 c -23,-4 -39,-10 -34,-14 4,-4 58,-29 120,-55 109,-47 111,-49 102,-73 -6,-14 -11,-56 -12,-94 -1,-37 -3,-68 -3,-68 -1,0 -62,23 -134,50 -73,28 -135,48 -138,45 -3,-3 7,-19 23,-35 27,-28 27,-30 8,-30 -12,0 -49,9 -84,20 -203,63 -331,221 -390,479 -27,114 -36,367 -20,527 71,691 428,1631 889,2339 208,319 442,569 613,655 199,101 620,198 1079,249 473,53 816,65 1350,46 z m -510,-271 c 182,-61 290,-276 234,-465 -81,-273 -415,-362 -617,-165 -95,92 -136,236 -104,363 57,220 273,339 487,267 z m 959,-129 c 66,-17 152,-59 175,-84 17,-19 17,-19 -20,-11 -21,5 -40,7 -42,5 -2,-2 18,-23 44,-47 27,-23 66,-59 88,-79 l 39,-36 -58,-11 c -77,-16 -138,-53 -174,-106 -74,-108 -63,-243 27,-334 40,-40 104,-71 146,-72 28,0 28,-1 22,-41 -15,-92 -53,-124 -137,-116 -115,10 -375,182 -624,410 l -50,46 43,1 c 23,0 42,3 42,8 0,4 -50,33 -111,66 -97,51 -110,61 -105,80 3,11 11.387,55.0442 9.4843,96 l -3.4843,75 63,37 c 126,73 220,109 342,128 75,11 213,4 284,-15 z m 371.0314,-325.2265 c 83,-42 120.5156,-95.0627 127.4843,-192.2892 4.5754,-63.8362 -19.7422,-113.4843 -63.7422,-156.4843 -47.8621,-47.8621 -104.3395,-62.7153 -160.9361,-63.3161 -114.865,-1.2193 -224.7868,78.0027 -226.1266,211.3161 0,61 3.5157,74.547 39.5157,127.547 61,89 180.8049,124.2265 283.8049,73.2265 z M 3910,4875 c 31,-97 113,-194.4843 205,-238.4843 28,-13 53.7422,-21.5157 55.7422,-22.5157 2,-2 -23.7422,-51 -55.7422,-109 -31,-59 -54,-109 -51,-112 3,-3 19,5 36,17 17,12 33,20 36,17 2,-2 -11,-96 -30,-208 -42,-246 -74,-479 -121,-899 -74,-649 -117,-858 -222,-1082 l -36,-78 h -56 c -97,0 -194,-61 -238,-149 -13,-25 -29.4222,-66.5036 -26.0073,-118.3914 C 3412.5362,1808.3767 3432,1772 3479,1724 l 29,-28 -79,-90 c -43,-49 -77,-92 -74,-94 2,-2 18,1 36,7 18,6 34,10 35,8 8,-8 -59,-86 -95,-111 -72,-50 -119,-59 -296,-55 -252,6 -324.1185,1.5645 -460,-13 L 2522.3868,1335.8711 2514,1402 c -15,84 -51,164 -98,216 l -37,41 53,33 c 29,19 82,52 118,74 l 65,39 -48,5 -49,5 19,25 c 83,107 148,268 353,875 168,496 252,708 358,905 50,93 136,228 175,275 l 25,30 24,-22 c 60,-57 171,-78 262,-51 63,19 140,100 160,167 9,30 16,68 16,85 0,86 -55,181 -128,223 l -49,28 88,78 c 49,44 89,82 89,87 0,4 -17,4 -37,-1 -21,-4 -39,-6 -41,-5 -4,4 64,61 127,108 24,18 73.0038,60.2128 79.0038,69.2128 -9.1949,10.3509 -9.2849,8.2247 -16.6957,14.5932 -6.2075,5.3344 -33.9177,-23.0453 -44.3081,-32.806 -17,-16 -54,-45 -82,-63 -27,-18 -60,-45 -72,-59 -23,-28 -25,-27 -38,34 -9,40 -16,26 -55,-110 l -32,-111 h -52 c -77,0 -138,-27 -190,-85 l -44,-49 -36,42 c -128,150 -87,353 103,501 52,41 129,85 187,108 l 26,9 -21,-34 c -12,-18 -21,-36 -21,-40 0,-3 53,20 118,53 64,33 120,56 123,53 4,-4 12,-25 19,-47 z m 837,-178 33,-52 v 49 48 l 78,-69 c 318,-286 551,-422 677,-399 50,10 92,53 100,102 10,65 22,84 50,84 34,0 87,23 130,56 l 36,27 122,-62 c 67,-33 162,-91 210,-127 326,-245 613,-645 797,-1109 181,-455 227,-880 122,-1105 l -26,-55 -4,43 c -2,23 -6,42 -10,42 -4,0 -31,-53 -61,-118 -30,-64 -56,-119 -57,-121 -2,-2 -22,15 -46,38 -23,23 -54,49 -70,57 -15,8 -28,16 -28,18 0,3 9,26 21,53 60,137 76,278 45,387 -9,30 -36,84 -60,120 l -44,65 46,3 46,3 -112,70 -111,70 -9.6768,5.7725 L 6630,2885 c -7.0976,81.8711 -27.9686,125.1603 -76.2265,183 -67,68 -170.7735,98 -258.7735,73 l -39,-11 -79,85 c -134,145 -298,266 -682,504 -327,204 -450,294 -601,445 -105,106 -194,226 -237,319 l -17,37 37,-15 c 20,-8 38,-13 41,-11 2,3 -28,47 -68,98 -40,51 -77,99 -83,105 -6,9 0,24 23,49 17,20 39,52 48,71 l 16,34 31,-51 c 16,-28 45,-74 62,-103 z m -178,-267 c 4,0 14,19 22,43 l 16,42 31,-60 c 95,-188 285,-386 542,-567 36,-25 171,-112 300,-193 412,-258 546,-358 680,-502 l 70,-76 -33,-24 c -42,-31 -85,-97 -93,-142 -9,-58 -12,-61 -47,-61 -45,0 -116,-25 -144,-52 -12,-11 -30,-41 -39,-65 -48,-125 51,-406 216,-612 33,-41 57,-78 54,-82 -3,-5 -18,-9 -34,-9 -58,0 -37,-18 63,-55 56,-21 113,-42 126,-46 l 23,-9 -27,-35 c -63,-84 -92,-202 -75,-307 5,-34 17.8551,-62.7681 6.2319,-69.6957 -25.7827,-5.8405 -135.3043,-2.5288 -182.9202,6.0073 C 6026.1089,1551.7608 5975,1572 5898,1651 l -87,87 40,7 c 21,4 41,10 43,14 3,4 -55,23 -129,41 l -133,34 14,28 c 36,69 26,180 -23,255 -14,22 -47,54 -74,73 -41,28 -60,34 -122,38 -94,6 -160,-20 -218,-86 l -40,-45 -106,26 c -58,14 -138,41 -177,60 -278,132 -388,455 -446,1302 -10,150 -29,700 -30,849 v 80 l 30,-29 c 16,-16 32,-26 35,-23 3,3 -11,57 -30,121 -19,63 -35,120 -35,125 0,5 35.453,23.7422 66.453,39.7422 30,15 47.547,31.2578 51.547,36.2578 4,6 13,-49 21,-121 8,-73 17,-133 20,-133 z m -199,165 c 0,-5 -13,-59 -30,-119 -16,-61 -27,-112 -25,-115 3,-2 18,8 34,23 l 29,28 6,-124 c 3,-67 10,-272 16,-454 24,-752 88,-1175 213,-1419 85,-166 226,-267 444,-318 92,-22 98,-25 96,-48 -1,-13 -3,-47 -4,-75 l -2,-51 -72,-6 c -148,-11 -308,-83 -825,-371 -549,-306 -860,-428 -1192,-467 -104,-12 -320,-7 -388,9 l -35,8 32,17 c 63,34 51,39 -76,31 l -121,-7 15,36 c 8,20 20,58 26,85 10,48 4.4669,19.8188 10.1707,49.4983 C 2562.0418,1324.1603 2697,1335 2931,1335 l 307.7422,5.2265 67.2578,28.0313 c 51,26 80,51.7422 114,93.7422 l 45,57 14,-40 c 7,-23 17,-37 21,-32 4,4 15,55 24,113 9,57 18,106 20,107 2,2 19,-4 39,-12 80,-33 203,-11 273,49 115,98 118,289 7,386 -19,17 -53.6132,38.5645 -71.6132,47.5645 -19,9 -27.338,12.2892 -30,16.8536 C 3899.3868,2472.4181 3934,2633 4020,3395 c 47,411 124,946 146,1015 4,11 13,6 35,-20 l 30,-35 -5,45 c -3,25 -8,81 -12,125 l -4.2578,76.5157 49.6411,-5.2265 C 4308.1139,4591.1586 4370,4601 4370,4595 Z m -624.2265,-293.8711 c 136.6446,-87.8083 161.1289,-252.4495 42.6133,-371.2578 -72,-63 -142.5471,-55.7073 -229.0314,-30.6446 -60,28 -87,56 -114,116 -31.7735,82.8711 -23,170.6446 37,237.6446 75.7422,71.547 166.4181,99.2578 263.4181,48.2578 z M 2112.3987,3106.6086 c 39.7608,-20.4711 92.1375,-54.8405 119.1375,-109.8405 C 2262.2246,2929.2319 2265.9203,2862 2230.9203,2792 2195.6086,2733.3116 2156,2696.5435 2088,2679.5435 c -93,-25 -174.1011,11.2552 -235.1808,90.5595 -26.616,52.3987 -32.664,53.6376 -37.0797,113.0026 -4.1845,56.2568 6.8372,90.8525 25.0332,117.1263 31,57 73.7635,93.6086 134.3795,111.4565 46,12 75.2465,7.9202 137.2465,-5.0798 z M 6459.913,3089 c 53.1594,-16.8405 108.9275,-91.9276 123.9275,-138.9276 20.6087,-90.1594 -19.7986,-197.3043 -93.7986,-246.3043 -42.6827,-23.3605 -68.728,-28.544 -105.8404,-33.8252 -89.2912,-12.7062 -169.6311,36.4084 -220.042,120.289 -33,65 -36,125.7681 -9,184.7681 56,122 179.8259,161.6811 304.7535,114 z M 6108,2818 c 16,-61 45,-103 93,-138 55,-40 109,-53 191,-48 83,6 147,41 191,105 l 32,45 55,-114 54,-113 6,50 5,50 37,-50 c 58,-78 83,-155 82,-250 -1,-83 -8,-112 -52,-228 -24,-65 -27,-68 -51,-62 -14,4 -63.7681,16.3914 -110.7681,19.3914 C 6537.2319,2090.3914 6470,2066 6391,2014 c -29,-20 -51.0724,-39.3914 -55.0724,-34.3914 C 6294.9276,2038.6086 6176,2190 6171,2190 c -4,0 -5,-17 -3,-37 4,-35 3,-37 -13,-23 -68,56 -190,264 -236,399 -26,80 -30,107 -27,167 2,53 9,80 23,100 29,39 83,64 135,64 45,0 46,0 58,-42 z m -635.2578,-636.9686 c 22,-6 50.1602,-14.8049 106.1324,-74.0035 51.5768,-64.6855 66.8568,-161.5993 26.6964,-241.0861 -10.7205,-21.2183 -28.5249,-41.3681 -47.2731,-59.0791 C 5523.1537,1773.6629 5478.1238,1749.033 5424,1742 c -65.5536,-5.4305 -121.2184,23.1033 -163.8583,62.7172 -67.2876,62.5126 -98.246,160.4059 -54.7863,255.2828 33.0976,60 54,86.2578 114,114.2578 56.8711,21.6446 95.3868,24.7736 153.3868,6.7736 z M 3750.9276,2109.307 c 172.4669,-60.8397 210.2327,-259.2408 71.9435,-379.3384 C 3722.7422,1656.453 3581,1662 3497,1761 c -90.4933,118.8843 -44.1057,281.9603 95.8236,344.4828 39,12 104.9751,13.2911 158.104,3.8242 z M 6725,2047 c 106,-33 195,-112 242,-212 20.3043,-54.4638 36.6233,-62.1449 36.6233,-145.1449 0,-85 -15.319,-109.3913 -39.6233,-169.8551 -135,-285 -535,-298 -682,-23 -109,206 -21,450 195,539 67,27 181,32 248,11 z M 5716,1715 c 48,-52 91,-95 95,-95 4,0 3,15 -2,32 -16,56 -11,55 69,-24 99,-99 126,-110 261,-109 h 106 l 24,-45 c 51,-95 177,-180 286,-191 31,-3 58,-10 61,-14 4,-8 -47.6938,-111.0189 -65.6938,-190.0189 13.3738,5.9659 8.2502,5.0216 26.838,12.7124 4.8105,1.9904 22.7859,10.5616 33.9906,14.3163 12.6475,4.2382 32.8722,17.5134 30.683,12.442 -6.0542,-14.0241 -0.138,6.335 -8.9488,-14.3209 C 6612.3124,1055.9382 6515.0171,996.501 6363.7102,952.78251 6255.7474,921.5878 6130.8818,908.63378 6022,901 c -421,-30 -755,84 -856,292 -65,131 -52,285 41,488 l 34,75 50,-24 c 71,-36 158,-35 233,2 31,15 64,38 74,51 9,14 20,25 24,25 3,0 46,-43 94,-95 z m -3503,0 c 212,-55 330,-285 260,-505 -30,-92 -108,-178 -203,-223 -122,-58 -281,-36 -383,53 -95,84 -142,195 -135,318 6,99 36,177 95,242 99,111 228,151 366,115 z"
       id="path481"
       inkscape:connector-curvature="0"
       sodipodi:nodetypes="cccccscccccccccccccccccscsccccccscccscccccccccsccsccccsccccccccccccccccsccccsccccccccccsccccccscccccscscsccccccscccccccccccccsccccccscccccccsscsccccccccssccccscssscscccccccccccscscccccccccccccccsccccccccccccsccscccccscscccccccsssccccscsccccscscccccccccccccccccccscccsccccsccccccscccccccscsccccccccsccccccccsccccsccccccccccccccccccccsccccccscccccccccsccccscccccccccccccccccccccccccscscccssccccccccccccccccccccccsccccccccccccccccccccsscccccccccccsccccccscccccccccccccccccccscccccscccsscsccccccccccsccccssccccccccssssscccccccssccccccc" />
    <text
       xml:space="preserve"
       style="font-style:normal;font-weight:normal;font-size:360.06414795px;line-height:1.25;font-family:sans-serif;letter-spacing:0px;word-spacing:0px;fill:#000000;fill-opacity:1;stroke:none;stroke-width:9.00160313"
       x="1825.46"
       y="1559.5504"
       id="text4372"
       transform="scale(1.0731998,0.9317929)"><tspan
         sodipodi:role="line"
         id="tspan4370"
         x="1825.46"
         y="1559.5504"
         style="stroke-width:9.00160313">S</tspan></text>
    <text
       xml:space="preserve"
       style="font-style:normal;font-weight:normal;font-size:184.51693726px;line-height:1.25;font-family:sans-serif;letter-spacing:0px;word-spacing:0px;fill:#000000;fill-opacity:1;stroke:none;stroke-width:4.61292362"
       x="2234.9414"
       y="1461.1385"
       id="text4376"
       transform="scale(0.9886507,1.0114796)"><tspan
         sodipodi:role="line"
         id="tspan4374"
         x="2234.9414"
         y="1461.1385"
         style="stroke-width:4.61292362">0</tspan></text>
    <text
       xml:space="preserve"
       style="font-style:normal;font-weight:normal;font-size:267.24850464px;line-height:1.25;font-family:sans-serif;letter-spacing:0px;word-spacing:0px;fill:#000000;fill-opacity:1;stroke:none;stroke-width:6.68121243"
       x="3543.3455"
       y="1933.3982"
       id="text4406"
       transform="scale(1.002788,0.9972197)"><tspan
         sodipodi:role="line"
         id="tspan4404"
         x="3543.3455"
         y="1933.3982"
         style="stroke-width:6.68121243">a</tspan></text>
    <text
       xml:space="preserve"
       style="font-style:normal;font-weight:normal;font-size:163.88998413px;line-height:1.25;font-family:sans-serif;letter-spacing:0px;word-spacing:0px;fill:#000000;fill-opacity:1;stroke:none;stroke-width:4.09724903"
       x="4177.3662"
       y="1776.364"
       id="text4496"
       transform="scale(0.8978804,1.1137341)"><tspan
         sodipodi:role="line"
         id="tspan4494"
         x="4177.3662"
         y="1776.364"
         style="stroke-width:4.09724903">1</tspan></text>
    <text
       xml:space="preserve"
       style="font-style:normal;font-weight:normal;font-size:267.24850464px;line-height:1.25;font-family:sans-serif;letter-spacing:0px;word-spacing:0px;fill:#000000;fill-opacity:1;stroke:none;stroke-width:6.68121195"
       x="3504.5735"
       y="4146.291"
       id="text4406-87"
       transform="scale(1.002788,0.9972198)"><tspan
         sodipodi:role="line"
         id="tspan4404-5"
         x="3504.5735"
         y="4146.291"
         style="stroke-width:6.68121195">a</tspan></text>
    <text
       xml:space="preserve"
       style="font-style:normal;font-weight:normal;font-size:181.04994202px;line-height:1.25;font-family:sans-serif;letter-spacing:0px;word-spacing:0px;fill:#000000;fill-opacity:1;stroke:none;stroke-width:4.52624893"
       x="3645.4678"
       y="4242.6992"
       id="text4460-2"
       transform="scale(1.0143341,0.9858685)"><tspan
         sodipodi:role="line"
         id="tspan4458-3"
         x="3645.4678"
         y="4242.6992"
         style="stroke-width:4.52624893">0</tspan></text>
    <text
       xml:space="preserve"
       style="font-style:normal;font-weight:normal;font-size:360.06411743px;line-height:1.25;font-family:sans-serif;letter-spacing:0px;word-spacing:0px;fill:#000000;fill-opacity:1;stroke:none;stroke-width:9.00160313"
       x="3832.5469"
       y="5471.2368"
       id="text4372-1"
       transform="scale(1.0731998,0.9317929)"><tspan
         sodipodi:role="line"
         id="tspan4370-4"
         x="3832.5469"
         y="5471.2368"
         style="stroke-width:9.00160313">S</tspan></text>
    <text
       xml:space="preserve"
       style="font-style:normal;font-weight:normal;font-size:199.01454163px;line-height:1.25;font-family:sans-serif;letter-spacing:0px;word-spacing:0px;fill:#000000;fill-opacity:1;stroke:none;stroke-width:4.97536325"
       x="4196.6758"
       y="5351.2739"
       id="text4464"
       transform="scale(1.033717,0.9673828)"><tspan
         sodipodi:role="line"
         id="tspan4462"
         x="4196.6758"
         y="5351.2739"
         style="stroke-width:4.97536325">2</tspan></text>
    <text
       xml:space="preserve"
       style="font-style:normal;font-weight:normal;font-size:360.06411743px;line-height:1.25;font-family:sans-serif;letter-spacing:0px;word-spacing:0px;fill:#000000;fill-opacity:1;stroke:none;stroke-width:9.00160313"
       x="6020.0732"
       y="1899.0435"
       id="text4372-6"
       transform="scale(1.0731998,0.9317929)"><tspan
         sodipodi:role="line"
         id="tspan4370-9"
         x="6020.0732"
         y="1899.0435"
         style="stroke-width:9.00160313">S</tspan></text>
    <text
       xml:space="preserve"
       style="font-style:normal;font-weight:normal;font-size:163.88998413px;line-height:1.25;font-family:sans-serif;letter-spacing:0px;word-spacing:0px;fill:#000000;fill-opacity:1;stroke:none;stroke-width:4.09724903"
       x="7484.2002"
       y="1615.1868"
       id="text4496-81"
       transform="scale(0.8978804,1.1137341)"><tspan
         sodipodi:role="line"
         id="tspan4494-83"
         x="7484.2002"
         y="1615.1868"
         style="stroke-width:4.09724903">1</tspan></text>
    <text
       xml:space="preserve"
       style="font-style:normal;font-weight:normal;font-size:267.24850464px;line-height:1.25;font-family:sans-serif;letter-spacing:0px;word-spacing:0px;fill:#000000;fill-opacity:1;stroke:none;stroke-width:6.68121195"
       x="6223.4736"
       y="2930.3669"
       id="text4406-6"
       transform="scale(1.002788,0.9972198)"><tspan
         sodipodi:role="line"
         id="tspan4404-1"
         x="6223.4736"
         y="2930.3669"
         style="stroke-width:6.68121195">a</tspan></text>
    <text
       xml:space="preserve"
       style="font-style:normal;font-weight:normal;font-size:163.88998413px;line-height:1.25;font-family:sans-serif;letter-spacing:0px;word-spacing:0px;fill:#000000;fill-opacity:1;stroke:none;stroke-width:4.09724903"
       x="7175.9937"
       y="2669.8484"
       id="text4496-8"
       transform="scale(0.8978804,1.1137341)"><tspan
         sodipodi:role="line"
         id="tspan4494-8"
         x="7175.9937"
         y="2669.8484"
         style="stroke-width:4.09724903">1</tspan></text>
    <text
       xml:space="preserve"
       style="font-style:normal;font-weight:normal;font-size:267.24850464px;line-height:1.25;font-family:sans-serif;letter-spacing:0px;word-spacing:0px;fill:#000000;fill-opacity:1;stroke:none;stroke-width:6.68121195"
       x="5259.2632"
       y="2011.4357"
       id="text4406-1"
       transform="scale(1.002788,0.9972198)"><tspan
         sodipodi:role="line"
         id="tspan4404-67"
         x="5259.2632"
         y="2011.4357"
         style="stroke-width:6.68121195">a</tspan></text>
    <text
       xml:space="preserve"
       style="font-style:normal;font-weight:normal;font-size:184.87390137px;line-height:1.25;font-family:sans-serif;letter-spacing:0px;word-spacing:0px;fill:#000000;fill-opacity:1;stroke:none;stroke-width:4.62184763"
       x="5759.8726"
       y="1953.5789"
       id="text4474"
       transform="scale(0.9480777,1.0547659)"><tspan
         sodipodi:role="line"
         id="tspan4472"
         x="5759.8726"
         y="1953.5789"
         style="stroke-width:4.62184763">0</tspan></text>
    <text
       xml:space="preserve"
       style="font-style:normal;font-weight:normal;font-size:267.24850464px;line-height:1.25;font-family:sans-serif;letter-spacing:0px;word-spacing:0px;fill:#000000;fill-opacity:1;stroke:none;stroke-width:6.68121195"
       x="1888.8689"
       y="2940.8491"
       id="text4406-8"
       transform="scale(1.002788,0.9972198)"><tspan
         sodipodi:role="line"
         id="tspan4404-6"
         x="1888.8689"
         y="2940.8491"
         style="stroke-width:6.68121195">a</tspan></text>
    <text
       xml:space="preserve"
       style="font-style:normal;font-weight:normal;font-size:181.04994202px;line-height:1.25;font-family:sans-serif;letter-spacing:0px;word-spacing:0px;fill:#000000;fill-opacity:1;stroke:none;stroke-width:4.52624893"
       x="2056.8232"
       y="3023.041"
       id="text4460"
       transform="scale(1.0143341,0.9858684)"><tspan
         sodipodi:role="line"
         id="tspan4458"
         x="2056.8232"
         y="3023.041"
         style="stroke-width:4.52624893">0</tspan></text>
    <text
       xml:space="preserve"
       style="font-style:normal;font-weight:normal;font-size:267.24850464px;line-height:1.25;font-family:sans-serif;letter-spacing:0px;word-spacing:0px;fill:#000000;fill-opacity:1;stroke:none;stroke-width:6.68121195"
       x="5504.2251"
       y="4756"
       id="text4406-5"
       transform="scale(1.002788,0.9972198)"><tspan
         sodipodi:role="line"
         id="tspan4404-0"
         x="5504.2251"
         y="4756"
         style="stroke-width:6.68121195">a</tspan></text>
    <text
       xml:space="preserve"
       style="font-style:normal;font-weight:normal;font-size:163.88998413px;line-height:1.25;font-family:sans-serif;letter-spacing:0px;word-spacing:0px;fill:#000000;fill-opacity:1;stroke:none;stroke-width:4.09724903"
       x="6370.1353"
       y="4310.1821"
       id="text4496-9"
       transform="scale(0.8978804,1.1137341)"><tspan
         sodipodi:role="line"
         id="tspan4494-4"
         x="6370.1353"
         y="4310.1821"
         style="stroke-width:4.09724903">1</tspan></text>
  </g>
</svg>
