<?xml version="1.0" encoding="UTF-8" standalone="no"?>
<!-- Created with Inkscape (http://www.inkscape.org/) -->

<svg
   width="175.77092mm"
   height="48.290596mm"
   viewBox="0 0 175.77092 48.290596"
   version="1.1"
   id="svg5"
   xml:space="preserve"
   sodipodi:docname="State_Visits_Eligibility_Trace.svg"
   inkscape:version="1.2.2 (732a01da63, 2022-12-09)"
   xmlns:inkscape="http://www.inkscape.org/namespaces/inkscape"
   xmlns:sodipodi="http://sodipodi.sourceforge.net/DTD/sodipodi-0.dtd"
   xmlns="http://www.w3.org/2000/svg"
   xmlns:svg="http://www.w3.org/2000/svg"><sodipodi:namedview
     id="namedview7"
     pagecolor="#ffffff"
     bordercolor="#666666"
     borderopacity="1.0"
     inkscape:showpageshadow="2"
     inkscape:pageopacity="0.0"
     inkscape:pagecheckerboard="0"
     inkscape:deskcolor="#d1d1d1"
     inkscape:document-units="mm"
     showgrid="false"
     inkscape:zoom="1.1200123"
     inkscape:cx="345.53192"
     inkscape:cy="110.71307"
     inkscape:window-width="1920"
     inkscape:window-height="1017"
     inkscape:window-x="1912"
     inkscape:window-y="-8"
     inkscape:window-maximized="1"
     inkscape:current-layer="layer1" /><defs
     id="defs2"><inkscape:path-effect
   effect="bspline"
   id="path-effect6205"
   is_visible="true"
   lpeversion="1"
   weight="33.333333"
   steps="2"
   helper_size="0"
   apply_no_weight="true"
   apply_with_weight="true"
   only_selected="false" /><inkscape:path-effect
   effect="bspline"
   id="path-effect6189"
   is_visible="true"
   lpeversion="1"
   weight="33.333333"
   steps="2"
   helper_size="0"
   apply_no_weight="true"
   apply_with_weight="true"
   only_selected="false" /><inkscape:path-effect
   effect="bspline"
   id="path-effect6173"
   is_visible="true"
   lpeversion="1"
   weight="33.333333"
   steps="2"
   helper_size="0"
   apply_no_weight="true"
   apply_with_weight="true"
   only_selected="false" /><inkscape:path-effect
   effect="bspline"
   id="path-effect5977"
   is_visible="true"
   lpeversion="1"
   weight="33.333333"
   steps="2"
   helper_size="0"
   apply_no_weight="true"
   apply_with_weight="true"
   only_selected="false" /><marker
   style="overflow:visible"
   id="marker2724"
   refX="0"
   refY="0"
   orient="auto-start-reverse"
   inkscape:stockid="TriangleStart"
   markerWidth="5.3244081"
   markerHeight="6.155385"
   viewBox="0 0 5.3244081 6.1553851"
   inkscape:isstock="true"
   inkscape:collect="always"
   preserveAspectRatio="xMidYMid"><path
     transform="scale(0.5)"
     style="fill:context-stroke;fill-rule:evenodd;stroke:context-stroke;stroke-width:1pt"
     d="M 5.77,0 -2.88,5 V -5 Z"
     id="path2722" /></marker><marker
   style="overflow:visible"
   id="TriangleStart"
   refX="0"
   refY="0"
   orient="auto-start-reverse"
   inkscape:stockid="TriangleStart"
   markerWidth="5.3244081"
   markerHeight="6.155385"
   viewBox="0 0 5.3244081 6.1553851"
   inkscape:isstock="true"
   inkscape:collect="always"
   preserveAspectRatio="xMidYMid"><path
     transform="scale(0.5)"
     style="fill:context-stroke;fill-rule:evenodd;stroke:context-stroke;stroke-width:1pt"
     d="M 5.77,0 -2.88,5 V -5 Z"
     id="path135" /></marker><clipPath
   id="clipPath6947">
      <path
   clip-rule="nonzero"
   d="M 0,0 H 5.5 V 6.917969 H 0 Z m 0,0"
   id="path7948" />
    </clipPath>
  <clipPath
   id="clipPath8009">
      <path
   clip-rule="nonzero"
   d="M 5,3 H 9 V 8.414063 H 5 Z m 0,0"
   id="path5954" />
    </clipPath>
  <inkscape:path-effect
   effect="bspline"
   id="path-effect5977-2"
   is_visible="true"
   lpeversion="1"
   weight="33.333333"
   steps="2"
   helper_size="0"
   apply_no_weight="true"
   apply_with_weight="true"
   only_selected="false" /><inkscape:path-effect
   effect="bspline"
   id="path-effect5977-2-7"
   is_visible="true"
   lpeversion="1"
   weight="33.333333"
   steps="2"
   helper_size="0"
   apply_no_weight="true"
   apply_with_weight="true"
   only_selected="false" /><inkscape:path-effect
   effect="bspline"
   id="path-effect5977-2-7-7"
   is_visible="true"
   lpeversion="1"
   weight="33.333333"
   steps="2"
   helper_size="0"
   apply_no_weight="true"
   apply_with_weight="true"
   only_selected="false" /></defs><g
     inkscape:label="Ebene 1"
     inkscape:groupmode="layer"
     id="layer1"
     transform="translate(-17.008646,-161.04056)"><path
       style="fill:none;stroke:#000000;stroke-width:0.255164px;stroke-linecap:butt;stroke-linejoin:miter;stroke-opacity:1;marker-start:url(#TriangleStart)"
       d="M 27.284972,165.76169 27.155393,204.8154"
       id="path2375"
       sodipodi:nodetypes="cc" /><path
       style="fill:none;stroke:#000000;stroke-width:0.264583px;stroke-linecap:butt;stroke-linejoin:miter;stroke-opacity:1;marker-end:url(#marker2724)"
       d="M 17.008741,197.22582 181.78092,197.1077"
       id="path2377"
       sodipodi:nodetypes="cc" /><g
       inkscape:label=""
       transform="matrix(2.1218809,0,0,2.1218809,182.57685,198.58285)"
       id="g3171"
       style="stroke-width:1.29652"><g
   clip-path="url(#clipPath6947)"
   id="g17"
   transform="matrix(0.352778,0,0,0.352778,-0.192925,0.00136694)"
   style="stroke-width:1.29652">
    <g
   fill="#000000"
   fill-opacity="1"
   id="g15"
   style="stroke-width:1.68096">
      <g
   id="use13"
   transform="translate(0,6.9180002)"
   style="stroke-width:1.29652">
        <path
   d="m 2.859375,-6.8125 c 0,0 0,-0.109375 -0.125,-0.109375 -0.234375,0 -0.953125,0.078125 -1.21875,0.109375 -0.078125,0 -0.1875,0.015625 -0.1875,0.1875 0,0.125 0.09375,0.125 0.234375,0.125 0.484375,0 0.5,0.0625 0.5,0.171875 L 2.03125,-6.125 0.59375,-0.390625 c -0.046875,0.140625 -0.046875,0.15625 -0.046875,0.21875 0,0.234375 0.203125,0.28125 0.296875,0.28125 0.125,0 0.265625,-0.09375 0.328125,-0.203125 0.046875,-0.09375 0.5,-1.9375 0.5625,-2.1875 0.34375,0.03125 1.15625,0.1875 1.15625,0.84375 0,0.078125 0,0.109375 -0.03125,0.21875 -0.015625,0.109375 -0.03125,0.234375 -0.03125,0.34375 0,0.578125 0.390625,0.984375 0.90625,0.984375 0.296875,0 0.578125,-0.15625 0.796875,-0.53125 0.25,-0.4375 0.359375,-0.984375 0.359375,-1 0,-0.109375 -0.09375,-0.109375 -0.125,-0.109375 -0.09375,0 -0.109375,0.046875 -0.140625,0.1875 -0.203125,0.71875 -0.421875,1.234375 -0.859375,1.234375 -0.203125,0 -0.328125,-0.109375 -0.328125,-0.46875 0,-0.171875 0.046875,-0.40625 0.078125,-0.5625 C 3.5625,-1.3125 3.5625,-1.34375 3.5625,-1.453125 3.5625,-2.09375 2.9375,-2.375 2.078125,-2.5 2.390625,-2.671875 2.71875,-2.984375 2.9375,-3.234375 3.421875,-3.765625 3.875,-4.1875 4.359375,-4.1875 c 0.0625,0 0.078125,0 0.09375,0.015625 0.125,0.015625 0.125,0.015625 0.21875,0.078125 0.015625,0 0.015625,0.015625 0.03125,0.03125 -0.46875,0.03125 -0.5625,0.421875 -0.5625,0.546875 0,0.15625 0.109375,0.34375 0.375,0.34375 0.265625,0 0.546875,-0.21875 0.546875,-0.609375 0,-0.296875 -0.234375,-0.625 -0.671875,-0.625 -0.28125,0 -0.734375,0.078125 -1.453125,0.875 -0.34375,0.375 -0.734375,0.78125 -1.109375,0.921875 z m 0,0"
   id="path23"
   style="stroke-width:1.29652" />
      </g>
    </g>
  </g>
</g><g
       inkscape:label=""
       transform="matrix(0.7265728,0,0,0.7265728,17.425791,166.65626)"
       id="g3246"
       style="stroke-width:1.37633"><g
   fill="#000000"
   fill-opacity="1"
   id="g22"
   transform="matrix(0.97051278,0,0,0.97051278,9.7251637,-10.167678)"
   style="stroke-width:1.72309">
    <g
   id="use20"
   transform="translate(0,6.9190001)"
   style="stroke-width:1.37633">
      <path
   d="m 1.328125,-0.828125 c 0.53125,-0.578125 0.828125,-0.828125 1.1875,-1.140625 0,0 0.609375,-0.53125 0.96875,-0.890625 C 4.4375,-3.78125 4.65625,-4.265625 4.65625,-4.3125 c 0,-0.09375 -0.09375,-0.09375 -0.109375,-0.09375 -0.078125,0 -0.09375,0.015625 -0.15625,0.109375 -0.296875,0.484375 -0.5,0.640625 -0.734375,0.640625 -0.25,0 -0.359375,-0.15625 -0.515625,-0.328125 -0.1875,-0.21875 -0.359375,-0.421875 -0.6875,-0.421875 -0.75,0 -1.203125,0.921875 -1.203125,1.140625 0,0.046875 0.03125,0.109375 0.109375,0.109375 0.09375,0 0.109375,-0.046875 0.140625,-0.109375 0.1875,-0.46875 0.765625,-0.46875 0.84375,-0.46875 0.203125,0 0.390625,0.0625 0.625,0.140625 0.40625,0.15625 0.515625,0.15625 0.765625,0.15625 -0.359375,0.421875 -1.1875,1.140625 -1.375,1.296875 l -0.90625,0.84375 C 0.78125,-0.625 0.421875,-0.0625 0.421875,0.015625 c 0,0.09375 0.109375,0.09375 0.125,0.09375 0.078125,0 0.09375,-0.015625 0.15625,-0.125 0.234375,-0.359375 0.53125,-0.625 0.859375,-0.625 0.21875,0 0.328125,0.09375 0.578125,0.375 0.15625,0.21875 0.34375,0.375 0.625,0.375 1,0 1.578125,-1.265625 1.578125,-1.53125 0,-0.046875 -0.046875,-0.109375 -0.125,-0.109375 -0.09375,0 -0.109375,0.0625 -0.140625,0.140625 C 3.84375,-0.75 3.203125,-0.5625 2.875,-0.5625 c -0.1875,0 -0.375,-0.0625 -0.578125,-0.125 -0.34375,-0.125 -0.5,-0.171875 -0.703125,-0.171875 -0.015625,0 -0.171875,0 -0.265625,0.03125 z m 0,0"
   id="path38"
   style="stroke-width:1.37633" />
    </g>
  </g>
  <g
   clip-path="url(#clipPath8009)"
   id="g28"
   transform="matrix(0.97051278,0,0,0.97051278,9.7251637,-10.167678)"
   style="stroke-width:1.37633">
    <g
   fill="#000000"
   fill-opacity="1"
   id="g26"
   style="stroke-width:1.72309">
      <g
   id="use24"
   transform="translate(4.6329999,8.4130001)"
   style="stroke-width:1.37633">
        <path
   d="m 2.1875,-4.625 c 0,-0.015625 0.015625,-0.109375 0.015625,-0.109375 0,-0.046875 -0.015625,-0.109375 -0.109375,-0.109375 -0.140625,0 -0.71875,0.0625 -0.890625,0.078125 -0.046875,0 -0.15625,0.015625 -0.15625,0.15625 0,0.09375 0.109375,0.09375 0.1875,0.09375 0.328125,0 0.328125,0.0625 0.328125,0.109375 0,0.046875 -0.015625,0.09375 -0.015625,0.15625 L 0.5625,-0.3125 c -0.046875,0.125 -0.046875,0.140625 -0.046875,0.15625 0,0.109375 0.09375,0.21875 0.25,0.21875 0.1875,0 0.265625,-0.125 0.3125,-0.28125 0.015625,-0.03125 0.3125,-1.265625 0.34375,-1.359375 0.5,0.046875 0.890625,0.21875 0.890625,0.578125 0,0.03125 0,0.0625 -0.015625,0.140625 -0.03125,0.09375 -0.03125,0.140625 -0.03125,0.21875 0,0.484375 0.40625,0.703125 0.75,0.703125 0.671875,0 0.875,-1.046875 0.875,-1.0625 0,-0.09375 -0.078125,-0.09375 -0.109375,-0.09375 -0.09375,0 -0.109375,0.046875 -0.140625,0.171875 C 3.5625,-0.625 3.375,-0.125 3.03125,-0.125 c -0.1875,0 -0.25,-0.171875 -0.25,-0.359375 0,-0.125 0,-0.140625 0.046875,-0.3125 0.015625,-0.03125 0.03125,-0.140625 0.03125,-0.21875 0,-0.625 -0.828125,-0.71875 -1.125,-0.734375 C 1.9375,-1.875 2.1875,-2.109375 2.3125,-2.21875 2.671875,-2.546875 3.015625,-2.875 3.40625,-2.875 c 0.078125,0 0.171875,0.015625 0.234375,0.09375 C 3.34375,-2.734375 3.28125,-2.5 3.28125,-2.390625 c 0,0.140625 0.109375,0.25 0.265625,0.25 0.203125,0 0.40625,-0.15625 0.40625,-0.4375 0,-0.234375 -0.171875,-0.5 -0.53125,-0.5 -0.40625,0 -0.765625,0.296875 -1.125,0.625 C 2,-2.1875 1.78125,-1.96875 1.484375,-1.84375 Z m 0,0"
   id="path42"
   style="stroke-width:1.37633" />
      </g>
    </g>
  </g>
  
</g><text
       xml:space="preserve"
       style="font-size:4.23333px;line-height:1.25;font-family:'Minion Pro';-inkscape-font-specification:'Minion Pro';letter-spacing:0px;word-spacing:0px;stroke-width:0.264583"
       x="-195.1142"
       y="25.033705"
       id="text3712"
       transform="rotate(-90)"><tspan
         sodipodi:role="line"
         id="tspan3710"
         style="font-style:normal;font-variant:normal;font-weight:normal;font-stretch:normal;font-family:Arial;-inkscape-font-specification:Arial;stroke-width:0.264583"
         x="-195.1142"
         y="25.033705">Eligibility trace</tspan></text><path
       style="fill:none;stroke:#000000;stroke-width:0.264583px;stroke-linecap:butt;stroke-linejoin:miter;stroke-opacity:1"
       d="m 27.060742,197.10911 11.821162,0.10798 0.04893,-12.53651"
       id="path5860"
       sodipodi:nodetypes="ccc" /><path
       style="fill:none;stroke:#000000;stroke-width:0.264583px;stroke-linecap:butt;stroke-linejoin:miter;stroke-opacity:1"
       d="m 50.140353,190.2853 v -2.24421 -10.09894"
       id="path5866"
       sodipodi:nodetypes="ccc" /><path
       style="fill:none;stroke:#000000;stroke-width:0.264583px;stroke-linecap:butt;stroke-linejoin:miter;stroke-opacity:1"
       d="m 38.881131,203.16145 v -0.68722 -3.0925"
       id="path5866-31"
       sodipodi:nodetypes="ccc" /><path
       style="fill:none;stroke:#000000;stroke-width:0.264583px;stroke-linecap:butt;stroke-linejoin:miter;stroke-opacity:1"
       d="m 50.234842,203.17501 v -0.68722 -3.0925"
       id="path5866-31-4"
       sodipodi:nodetypes="ccc" /><path
       style="fill:none;stroke:#000000;stroke-width:0.264583px;stroke-linecap:butt;stroke-linejoin:miter;stroke-opacity:1"
       d="m 61.177972,203.17936 v -0.68722 -3.0925"
       id="path5866-31-4-1"
       sodipodi:nodetypes="ccc" /><path
       style="fill:none;stroke:#000000;stroke-width:0.264583px;stroke-linecap:butt;stroke-linejoin:miter;stroke-opacity:1"
       d="m 72.944014,203.15997 v -0.68722 -3.0925"
       id="path5866-31-4-1-2"
       sodipodi:nodetypes="ccc" /><path
       style="fill:none;stroke:#000000;stroke-width:0.264583px;stroke-linecap:butt;stroke-linejoin:miter;stroke-opacity:1"
       d="m 109.92183,203.21903 v -0.68722 -3.0925"
       id="path5866-31-4-1-2-7"
       sodipodi:nodetypes="ccc" /><path
       style="fill:none;stroke:#000000;stroke-width:0.264583px;stroke-linecap:butt;stroke-linejoin:miter;stroke-opacity:1"
       d="m 121.04346,203.21555 v -0.68722 -3.0925"
       id="path5866-31-4-1-2-7-7"
       sodipodi:nodetypes="ccc" /><path
       style="fill:none;stroke:#000000;stroke-width:0.264583px;stroke-linecap:butt;stroke-linejoin:miter;stroke-opacity:1"
       d="m 156.22825,203.27809 v -0.68722 -3.0925"
       id="path5866-31-4-1-2-7-9"
       sodipodi:nodetypes="ccc" /><path
       style="fill:none;stroke:#000000;stroke-width:0.264583px;stroke-linecap:butt;stroke-linejoin:miter;stroke-opacity:1"
       d="M 61.213753,183.55267 V 171.20952"
       id="path5866-3" /><path
       style="fill:none;stroke:#000000;stroke-width:0.264583px;stroke-linecap:butt;stroke-linejoin:miter;stroke-opacity:1"
       d="M 72.239457,176.81558 V 164.47243"
       id="path5866-3-8" /><path
       style="fill:none;stroke:#000000;stroke-width:0.264583px;stroke-linecap:butt;stroke-linejoin:miter;stroke-opacity:1"
       d="M 109.82987,194.34396 V 182.00081"
       id="path5866-3-8-1" /><path
       style="fill:none;stroke:#000000;stroke-width:0.264583px;stroke-linecap:butt;stroke-linejoin:miter;stroke-opacity:1"
       d="M 156.01688,191.92186 V 179.57871"
       id="path5866-3-8-1-8" /><path
       style="fill:none;stroke:#000000;stroke-width:0.264583px;stroke-linecap:butt;stroke-linejoin:miter;stroke-opacity:1"
       d="M 120.83895,187.59443 V 175.25128"
       id="path5866-3-8-1-7" /><path
       style="fill:none;stroke:#000000;stroke-width:0.264583px;stroke-linecap:butt;stroke-linejoin:miter;stroke-opacity:1"
       d="m 38.860251,184.73383 c 1.949209,1.5259 3.898087,3.05153 5.75846,3.94717 1.860373,0.89565 3.632078,1.1614 5.403524,1.42712"
       id="path5975"
       inkscape:path-effect="#path-effect5977"
       inkscape:original-d="m 38.860251,184.73383 c 1.949181,1.52593 3.898059,3.05157 5.846755,4.577 1.772045,0.26604 3.54375,0.53179 5.315229,0.79729"
       sodipodi:nodetypes="ccc" /><path
       style="fill:none;stroke:#000000;stroke-width:0.264583px;stroke-linecap:butt;stroke-linejoin:miter;stroke-opacity:1"
       d="m 50.082728,178.04693 c 1.949209,1.52589 3.898089,3.05153 5.758462,3.94717 1.860372,0.89564 3.632076,1.1614 5.403522,1.42712"
       id="path5975-6"
       inkscape:path-effect="#path-effect5977-2"
       inkscape:original-d="m 50.082728,178.04693 c 1.949181,1.52593 3.898059,3.05157 5.846755,4.577 1.772045,0.26604 3.54375,0.53179 5.315229,0.79729"
       sodipodi:nodetypes="ccc" /><path
       style="fill:none;stroke:#000000;stroke-width:0.264583px;stroke-linecap:butt;stroke-linejoin:miter;stroke-opacity:1"
       d="m 61.175217,171.31252 c 1.949209,1.52589 3.898089,3.05153 5.758462,3.94717 1.860372,0.89564 3.632076,1.1614 5.403522,1.42712"
       id="path5975-6-0"
       inkscape:path-effect="#path-effect5977-2-7"
       inkscape:original-d="m 61.175217,171.31252 c 1.949181,1.52593 3.898059,3.05157 5.846755,4.577 1.772045,0.26604 3.54375,0.53179 5.315229,0.79729"
       sodipodi:nodetypes="ccc" /><path
       style="fill:none;stroke:#000000;stroke-width:0.264583px;stroke-linecap:butt;stroke-linejoin:miter;stroke-opacity:1"
       d="m 109.78177,182.09976 c 1.94921,1.52589 3.89809,3.05153 5.75846,3.94717 1.86037,0.89564 3.63208,1.1614 5.40352,1.42712"
       id="path5975-6-0-1"
       inkscape:path-effect="#path-effect5977-2-7-7"
       inkscape:original-d="m 109.78177,182.09976 c 1.94918,1.52593 3.89806,3.05157 5.84676,4.577 1.77204,0.26604 3.54375,0.53179 5.31522,0.79729"
       sodipodi:nodetypes="ccc" /><path
       style="fill:none;stroke:#000000;stroke-width:0.264583px;stroke-linecap:butt;stroke-linejoin:miter;stroke-opacity:1"
       d="m 72.287153,164.53595 c 4.626388,8.74092 9.252515,17.48135 15.512866,22.42251 6.26035,4.94116 14.154301,6.08292 22.048101,7.22467"
       id="path6171"
       inkscape:path-effect="#path-effect6173"
       inkscape:original-d="m 72.287153,164.53595 c 4.626485,8.74087 9.252611,17.4813 13.878659,26.22181 7.894525,1.14208 15.788478,2.28384 23.682308,3.42537"
       sodipodi:nodetypes="ccc" /><path
       style="fill:none;stroke:#000000;stroke-width:0.264583px;stroke-linecap:butt;stroke-linejoin:miter;stroke-opacity:1"
       d="m 120.71482,175.28453 c 5.39426,4.44928 10.78813,8.89824 16.66454,11.65425 5.87641,2.75601 12.23487,3.81903 18.59316,4.88203"
       id="path6187"
       inkscape:path-effect="#path-effect6189"
       inkscape:original-d="m 120.71482,175.28453 c 5.39424,4.44931 10.78811,8.89827 16.18193,13.34714 6.35898,1.06333 12.71744,2.12636 19.07577,3.18914"
       sodipodi:nodetypes="ccc" /><path
       style="fill:none;stroke:#000000;stroke-width:0.264583px;stroke-linecap:butt;stroke-linejoin:miter;stroke-opacity:1"
       d="m 156.09064,179.71389 c 4.92179,4.31149 9.8432,8.62265 15.95584,11.1621 6.11264,2.53944 13.41602,3.30718 20.71926,4.0749"
       id="path6203"
       inkscape:path-effect="#path-effect6205"
       inkscape:original-d="m 156.09064,179.71389 c 4.92177,4.31151 9.84319,8.62267 14.76453,12.93374 7.30393,0.76803 14.60731,1.53577 21.91057,2.30326"
       sodipodi:nodetypes="ccc" /><text
       xml:space="preserve"
       style="font-size:4.23333px;line-height:1.25;font-family:'Minion Pro';-inkscape-font-specification:'Minion Pro';letter-spacing:0px;word-spacing:0px;stroke-width:0.264583"
       x="77.963219"
       y="209.23396"
       id="text7116"><tspan
         sodipodi:role="line"
         id="tspan7114"
         style="font-style:normal;font-variant:normal;font-weight:normal;font-stretch:normal;font-family:Arial;-inkscape-font-specification:Arial;stroke-width:0.264583"
         x="77.963219"
         y="209.23396">Visits of a certain state </tspan></text><g
       inkscape:label=""
       transform="matrix(1.4454669,0,0,1.4454669,121.81455,207.02851)"
       id="g7612"
       style="stroke-width:0.691819"><g
   fill="#000000"
   fill-opacity="1"
   id="g12"
   transform="matrix(0.352778,0,0,0.352778,-0.104731,0.0413632)"
   style="stroke-width:0.316428">
    <g
   id="use10"
   transform="translate(0,4.289)"
   style="stroke-width:0.691819">
      <path
   d="M 3.328125,-3.015625 C 3.390625,-3.265625 3.625,-4.1875 4.3125,-4.1875 c 0.046875,0 0.296875,0 0.5,0.125 C 4.53125,-4 4.34375,-3.765625 4.34375,-3.515625 c 0,0.15625 0.109375,0.34375 0.375,0.34375 0.21875,0 0.53125,-0.171875 0.53125,-0.578125 0,-0.515625 -0.578125,-0.65625 -0.921875,-0.65625 -0.578125,0 -0.921875,0.53125 -1.046875,0.75 -0.25,-0.65625 -0.78125,-0.75 -1.078125,-0.75 -1.03125,0 -1.609375,1.28125 -1.609375,1.53125 0,0.109375 0.109375,0.109375 0.125,0.109375 0.078125,0 0.109375,-0.03125 0.125,-0.109375 0.34375,-1.0625 1,-1.3125 1.34375,-1.3125 0.1875,0 0.53125,0.09375 0.53125,0.671875 0,0.3125 -0.171875,0.96875 -0.53125,2.375 -0.15625,0.609375 -0.515625,1.03125 -0.953125,1.03125 -0.0625,0 -0.28125,0 -0.5,-0.125 0.25,-0.0625 0.46875,-0.265625 0.46875,-0.546875 0,-0.265625 -0.21875,-0.34375 -0.359375,-0.34375 -0.3125,0 -0.546875,0.25 -0.546875,0.578125 0,0.453125 0.484375,0.65625 0.921875,0.65625 0.671875,0 1.03125,-0.703125 1.046875,-0.75 0.125,0.359375 0.484375,0.75 1.078125,0.75 1.03125,0 1.59375,-1.28125 1.59375,-1.53125 0,-0.109375 -0.078125,-0.109375 -0.109375,-0.109375 -0.09375,0 -0.109375,0.046875 -0.140625,0.109375 -0.328125,1.078125 -1,1.3125 -1.3125,1.3125 -0.390625,0 -0.546875,-0.3125 -0.546875,-0.65625 0,-0.21875 0.046875,-0.4375 0.15625,-0.875 z m 0,0"
   id="path18"
   style="stroke-width:0.691819" />
    </g>
  </g>
</g></g></svg>
