<?xml version="1.0" encoding="UTF-8" standalone="no"?>
<!-- Created with Inkscape (http://www.inkscape.org/) -->

<svg
   width="300"
   height="290"
   viewBox="0 0 79.374998 76.729172"
   version="1.1"
   id="svg4059"
   inkscape:version="1.2.2 (732a01da63, 2022-12-09)"
   sodipodi:docname="RL_Safety_Critic.svg"
   xmlns:inkscape="http://www.inkscape.org/namespaces/inkscape"
   xmlns:sodipodi="http://sodipodi.sourceforge.net/DTD/sodipodi-0.dtd"
   xmlns="http://www.w3.org/2000/svg"
   xmlns:svg="http://www.w3.org/2000/svg"
   xmlns:rdf="http://www.w3.org/1999/02/22-rdf-syntax-ns#"
   xmlns:cc="http://creativecommons.org/ns#"
   xmlns:dc="http://purl.org/dc/elements/1.1/">
  <sodipodi:namedview
     id="base"
     pagecolor="#ffffff"
     bordercolor="#666666"
     borderopacity="1.0"
     inkscape:pageopacity="0.0"
     inkscape:pageshadow="2"
     inkscape:zoom="3.959798"
     inkscape:cx="129.67833"
     inkscape:cy="180.94357"
     inkscape:document-units="mm"
     inkscape:current-layer="layer1"
     showgrid="false"
     units="px"
     inkscape:window-width="2560"
     inkscape:window-height="1361"
     inkscape:window-x="-9"
     inkscape:window-y="-9"
     inkscape:window-maximized="1"
     inkscape:showpageshadow="2"
     inkscape:pagecheckerboard="0"
     inkscape:deskcolor="#d1d1d1" />
  <defs
     id="defs4053">
    <marker
       inkscape:isstock="true"
       style="overflow:visible"
       id="Arrow2Lstart"
       refX="0.0"
       refY="0.0"
       orient="auto"
       inkscape:stockid="Arrow2Lstart">
      <path
         transform="scale(1.1) translate(1,0)"
         d="M 8.7185878,4.0337352 L -2.2072895,0.016013256 L 8.7185884,-4.0017078 C 6.9730900,-1.6296469 6.9831476,1.6157441 8.7185878,4.0337352 z "
         style="fill-rule:evenodd;stroke-width:0.625;stroke-linejoin:round;stroke:#000000;stroke-opacity:1;fill:#000000;fill-opacity:1"
         id="path8846" />
    </marker>
    <marker
       inkscape:isstock="true"
       style="overflow:visible"
       id="marker13081"
       refX="0.0"
       refY="0.0"
       orient="auto"
       inkscape:stockid="Arrow1Lstart">
      <path
         transform="scale(0.8) translate(12.5,0)"
         style="fill-rule:evenodd;stroke:#000000;stroke-width:1pt;stroke-opacity:1;fill:#000000;fill-opacity:1"
         d="M 0.0,0.0 L 5.0,-5.0 L -12.5,0.0 L 5.0,5.0 L 0.0,0.0 z "
         id="path13079" />
    </marker>
    <marker
       inkscape:isstock="true"
       style="overflow:visible"
       id="Arrow1Lstart"
       refX="0.0"
       refY="0.0"
       orient="auto"
       inkscape:stockid="Arrow1Lstart">
      <path
         transform="scale(0.8) translate(12.5,0)"
         style="fill-rule:evenodd;stroke:#000000;stroke-width:1pt;stroke-opacity:1;fill:#000000;fill-opacity:1"
         d="M 0.0,0.0 L 5.0,-5.0 L -12.5,0.0 L 5.0,5.0 L 0.0,0.0 z "
         id="path8828" />
    </marker>
    <marker
       inkscape:stockid="Arrow2Lend"
       orient="auto"
       refY="0"
       refX="0"
       id="marker12943"
       style="overflow:visible"
       inkscape:isstock="true">
      <path
         id="path12941"
         style="fill:#000000;fill-opacity:1;fill-rule:evenodd;stroke:#000000;stroke-width:0.625;stroke-linejoin:round;stroke-opacity:1"
         d="M 8.7185878,4.0337352 -2.2072895,0.01601326 8.7185884,-4.0017078 c -1.7454984,2.3720609 -1.7354408,5.6174519 -6e-7,8.035443 z"
         transform="matrix(-1.1,0,0,-1.1,-1.1,0)" />
    </marker>
    <marker
       inkscape:isstock="true"
       style="overflow:visible;"
       id="marker12885"
       refX="0.0"
       refY="0.0"
       orient="auto"
       inkscape:stockid="Arrow2Lend">
      <path
         transform="scale(1.1) rotate(180) translate(1,0)"
         d="M 8.7185878,4.0337352 L -2.2072895,0.016013256 L 8.7185884,-4.0017078 C 6.9730900,-1.6296469 6.9831476,1.6157441 8.7185878,4.0337352 z "
         style="fill-rule:evenodd;stroke-width:0.625;stroke-linejoin:round;stroke:#000000;stroke-opacity:1;fill:#000000;fill-opacity:1"
         id="path12883" />
    </marker>
    <marker
       inkscape:collect="always"
       inkscape:stockid="Arrow2Lend"
       orient="auto"
       refY="0.0"
       refX="0.0"
       id="marker9358"
       style="overflow:visible;"
       inkscape:isstock="true">
      <path
         id="path9356"
         style="fill-rule:evenodd;stroke-width:0.625;stroke-linejoin:round;stroke:#000000;stroke-opacity:1;fill:#000000;fill-opacity:1"
         d="M 8.7185878,4.0337352 L -2.2072895,0.016013256 L 8.7185884,-4.0017078 C 6.9730900,-1.6296469 6.9831476,1.6157441 8.7185878,4.0337352 z "
         transform="scale(1.1) rotate(180) translate(1,0)" />
    </marker>
    <marker
       inkscape:collect="always"
       inkscape:isstock="true"
       style="overflow:visible;"
       id="Arrow2Lend"
       refX="0.0"
       refY="0.0"
       orient="auto"
       inkscape:stockid="Arrow2Lend">
      <path
         transform="scale(1.1) rotate(180) translate(1,0)"
         d="M 8.7185878,4.0337352 L -2.2072895,0.016013256 L 8.7185884,-4.0017078 C 6.9730900,-1.6296469 6.9831476,1.6157441 8.7185878,4.0337352 z "
         style="fill-rule:evenodd;stroke-width:0.625;stroke-linejoin:round;stroke:#000000;stroke-opacity:1;fill:#000000;fill-opacity:1"
         id="path8849" />
    </marker>
    <marker
       inkscape:isstock="true"
       style="overflow:visible;"
       id="marker9112"
       refX="0.0"
       refY="0.0"
       orient="auto"
       inkscape:stockid="Arrow1Lend">
      <path
         transform="scale(0.8) rotate(180) translate(12.5,0)"
         style="fill-rule:evenodd;stroke:#000000;stroke-width:1pt;stroke-opacity:1;fill:#000000;fill-opacity:1"
         d="M 0.0,0.0 L 5.0,-5.0 L -12.5,0.0 L 5.0,5.0 L 0.0,0.0 z "
         id="path9110" />
    </marker>
    <marker
       inkscape:isstock="true"
       style="overflow:visible;"
       id="Arrow1Lend"
       refX="0.0"
       refY="0.0"
       orient="auto"
       inkscape:stockid="Arrow1Lend">
      <path
         transform="scale(0.8) rotate(180) translate(12.5,0)"
         style="fill-rule:evenodd;stroke:#000000;stroke-width:1pt;stroke-opacity:1;fill:#000000;fill-opacity:1"
         d="M 0.0,0.0 L 5.0,-5.0 L -12.5,0.0 L 5.0,5.0 L 0.0,0.0 z "
         id="path8831" />
    </marker>
    <style
       type="text/css"
       id="style9277">
    .str1 {stroke:black;stroke-width:42.33}
    .str0 {stroke:black;stroke-width:42.33;stroke-linecap:round;stroke-linejoin:round}
    .fil2 {fill:none}
    .fil1 {fill:#666666}
    .fil0 {fill:url(#id0)}
  </style>
    <linearGradient
       gradientTransform="translate(4602.8341,-3302.9596)"
       id="id0"
       y2="2329.5"
       gradientUnits="userSpaceOnUse"
       x2="1639.5"
       y1="3043.4"
       x1="2559.7">
      <stop
         style="stop-color:#CCCCCC"
         offset="0"
         id="stop9279" />
      <stop
         style="stop-color:white"
         offset="1"
         id="stop9281" />
    </linearGradient>
    <marker
       inkscape:stockid="Arrow2Lend"
       orient="auto"
       refY="0"
       refX="0"
       id="marker9358-0"
       style="overflow:visible"
       inkscape:isstock="true">
      <path
         id="path9356-6"
         style="fill:#000000;fill-opacity:1;fill-rule:evenodd;stroke:#000000;stroke-width:0.625;stroke-linejoin:round;stroke-opacity:1"
         d="M 8.7185878,4.0337352 -2.2072895,0.01601326 8.7185884,-4.0017078 c -1.7454984,2.3720609 -1.7354408,5.6174519 -6e-7,8.035443 z"
         transform="matrix(-1.1,0,0,-1.1,-1.1,0)"
         inkscape:connector-curvature="0" />
    </marker>
    <marker
       inkscape:isstock="true"
       style="overflow:visible"
       id="Arrow2Lstart-9"
       refX="0"
       refY="0"
       orient="auto"
       inkscape:stockid="Arrow2Lstart">
      <path
         transform="matrix(1.1,0,0,1.1,1.1,0)"
         d="M 8.7185878,4.0337352 -2.2072895,0.01601326 8.7185884,-4.0017078 c -1.7454984,2.3720609 -1.7354408,5.6174519 -6e-7,8.035443 z"
         style="fill:#000000;fill-opacity:1;fill-rule:evenodd;stroke:#000000;stroke-width:0.625;stroke-linejoin:round;stroke-opacity:1"
         id="path8846-2"
         inkscape:connector-curvature="0" />
    </marker>
    <marker
       inkscape:stockid="Arrow2Lend"
       orient="auto"
       refY="0"
       refX="0"
       id="marker12943-5"
       style="overflow:visible"
       inkscape:isstock="true">
      <path
         id="path12941-3"
         style="fill:#000000;fill-opacity:1;fill-rule:evenodd;stroke:#000000;stroke-width:0.625;stroke-linejoin:round;stroke-opacity:1"
         d="M 8.7185878,4.0337352 -2.2072895,0.01601326 8.7185884,-4.0017078 c -1.7454984,2.3720609 -1.7354408,5.6174519 -6e-7,8.035443 z"
         transform="matrix(-1.1,0,0,-1.1,-1.1,0)" />
    </marker>
    <clipPath
       id="clipPath1220">
      <path
         clip-rule="nonzero"
         d="M 5,0 H 9 V 5.785156 H 5 Z m 0,0"
         id="path9986" />
    </clipPath>
  </defs>
  <metadata
     id="metadata4056">
    <rdf:RDF>
      <cc:Work
         rdf:about="">
        <dc:format>image/svg+xml</dc:format>
        <dc:type
           rdf:resource="http://purl.org/dc/dcmitype/StillImage" />
        <dc:title />
      </cc:Work>
    </rdf:RDF>
  </metadata>
  <g
     transform="translate(0, -220.271)"
     id="layer1"
     inkscape:groupmode="layer"
     inkscape:label="Layer 1">
    <g
       transform="matrix(0.03542353,0,0,0.03542353,35.419219,272.13558)"
       id="g4307"
       style="fill:none;stroke:none;stroke-linecap:square;stroke-miterlimit:10">
      <g
         clip-path="url(#p.0)"
         id="g4263">
        <path
           style="fill:#000000;fill-opacity:0;fill-rule:nonzero"
           inkscape:connector-curvature="0"
           d="M 0,0 H 522.8399 V 473.18372 H 0 Z"
           id="path4197" />
        <path
           style="fill:#000000;fill-opacity:0;fill-rule:nonzero"
           inkscape:connector-curvature="0"
           d="m 228.13649,346.40683 c -0.22354,11.86569 -1.11768,59.32852 -1.34122,71.19421"
           id="path4199" />
        <path
           style="fill-rule:nonzero;stroke:#666666;stroke-width:24;stroke-linecap:butt;stroke-linejoin:round"
           inkscape:connector-curvature="0"
           d="m 228.13649,346.40683 c -0.22354,11.86569 -1.11768,59.32852 -1.34122,71.19421"
           id="path4201" />
        <path
           style="fill:#000000;fill-opacity:0;fill-rule:nonzero"
           inkscape:connector-curvature="0"
           d="m 300.55386,346.40683 c 1.13953,11.86569 5.69769,59.32852 6.83722,71.19421"
           id="path4203" />
        <path
           style="fill-rule:nonzero;stroke:#666666;stroke-width:24;stroke-linecap:butt;stroke-linejoin:round"
           inkscape:connector-curvature="0"
           d="m 300.55386,346.40683 c 1.13953,11.86569 5.69769,59.32852 6.83722,71.19421"
           id="path4205" />
        <path
           style="fill:#000000;fill-opacity:0;fill-rule:nonzero"
           inkscape:connector-curvature="0"
           d="m 269.77954,195.95801 c 1.11942,-7.38802 8.05991,-29.77603 6.71652,-44.32808 -1.34338,-14.55206 -12.31409,-35.82022 -14.77691,-42.98426"
           id="path4207" />
        <path
           style="fill-rule:nonzero;stroke:#666666;stroke-width:24;stroke-linecap:butt;stroke-linejoin:round"
           inkscape:connector-curvature="0"
           d="m 269.77954,195.95801 c 1.11942,-7.38802 8.05991,-29.77603 6.71652,-44.32808 -1.34338,-14.55206 -12.31409,-35.82022 -14.77691,-42.98426"
           id="path4209" />
        <path
           style="fill:#000000;fill-opacity:0;fill-rule:nonzero"
           inkscape:connector-curvature="0"
           d="m 339.6299,228.19685 c 12.08969,-3.35828 55.07526,-4.47813 72.53805,-20.14961 17.46283,-15.67148 26.86573,-61.56606 32.23886,-73.87926"
           id="path4211" />
        <path
           style="fill-rule:nonzero;stroke:#666666;stroke-width:24;stroke-linecap:butt;stroke-linejoin:round"
           inkscape:connector-curvature="0"
           d="m 339.6299,228.19685 c 12.08969,-3.35828 55.07526,-4.47813 72.53805,-20.14961 17.46283,-15.67148 26.86573,-61.56606 32.23886,-73.87926"
           id="path4213" />
        <path
           style="fill:#000000;fill-opacity:0;fill-rule:nonzero"
           inkscape:connector-curvature="0"
           d="M 216.04724,226.85301 C 198.58487,222.37576 135.00438,218.12379 111.27296,199.9895 87.541553,181.85521 79.927814,131.70428 73.658786,118.04724"
           id="path4215" />
        <path
           style="fill-rule:nonzero;stroke:#666666;stroke-width:24;stroke-linecap:butt;stroke-linejoin:round"
           inkscape:connector-curvature="0"
           d="M 216.04724,226.85301 C 198.58487,222.37576 135.00438,218.12379 111.27296,199.9895 87.541553,181.85521 79.927814,131.70428 73.658786,118.04724"
           id="path4217" />
        <path
           style="fill:#000000;fill-opacity:0;fill-rule:nonzero"
           inkscape:connector-curvature="0"
           d="m 439.2001,94.39518 c -0.94623,5.534821 -9.28522,25.22923 -5.67731,33.2089 3.60788,7.97966 17.59385,16.86331 27.32471,14.66907 9.73084,-2.19425 25.88364,-23.19547 31.06036,-27.83457"
           id="path4219" />
        <path
           style="fill-rule:nonzero;stroke:#64f3d5;stroke-width:24;stroke-linecap:butt;stroke-linejoin:round"
           inkscape:connector-curvature="0"
           d="m 439.2001,94.39518 c -0.94623,5.534821 -9.28522,25.22923 -5.67731,33.2089 3.60788,7.97966 17.59385,16.86331 27.32471,14.66907 9.73084,-2.19425 25.88364,-23.19547 31.06036,-27.83457"
           id="path4221" />
        <path
           style="fill:#000000;fill-opacity:0;fill-rule:nonzero"
           inkscape:connector-curvature="0"
           d="m 93.065025,80.63384 c -0.762947,5.142448 2.247849,23.38075 -4.577682,30.85468 -6.825539,7.47393 -25.904457,15.9148 -36.375523,13.98892 C 41.640754,123.55156 30.06943,104.19063 25.66095,99.933271"
           id="path4223" />
        <path
           style="fill-rule:nonzero;stroke:#64f3d5;stroke-width:24;stroke-linecap:butt;stroke-linejoin:round"
           inkscape:connector-curvature="0"
           d="m 93.065025,80.63384 c -0.762947,5.142448 2.247849,23.38075 -4.577682,30.85468 -6.825539,7.47393 -25.904457,15.9148 -36.375523,13.98892 C 41.640754,123.55156 30.06943,104.19063 25.66095,99.933271"
           id="path4225" />
        <path
           style="fill:#64f3d5;fill-rule:nonzero"
           inkscape:connector-curvature="0"
           d="M 173.72441,357.13647 192.53114,186.5538 h 151.80385 l 18.80673,170.58267 z"
           id="path4227" />
        <path
           style="fill-rule:nonzero;stroke:#64f3d5;stroke-width:12;stroke-linecap:butt;stroke-linejoin:round"
           inkscape:connector-curvature="0"
           d="M 173.72441,357.13647 192.53114,186.5538 h 151.80385 l 18.80673,170.58267 z"
           id="path4229" />
        <path
           style="fill:#64f3d5;fill-rule:nonzero"
           inkscape:connector-curvature="0"
           d="m 183.86234,440.9923 c -8.04796,-6.22379 18.32567,-27.03534 27.34328,-32.67541 9.01761,-5.64011 18.71443,-7.38892 26.76239,-1.16514 8.04797,6.22379 30.54301,32.86774 21.5254,38.50782 -9.01761,5.6401 -67.5831,1.55652 -75.63107,-4.66727 z"
           id="path4231" />
        <path
           style="fill:#64f3d5;fill-rule:nonzero"
           inkscape:connector-curvature="0"
           d="m 269.87466,447.45374 c -9.01462,-4.71481 13.30234,-29.83099 21.19162,-36.96582 7.88931,-7.13486 17.12952,-10.55808 26.14413,-5.84326 9.01462,4.71481 35.83286,26.99728 27.94358,34.13214 -7.88928,7.13482 -66.26471,13.39175 -75.27933,8.67694 z"
           id="path4233" />
        <path
           style="fill:#666666;fill-rule:nonzero"
           inkscape:connector-curvature="0"
           d="m 140.92181,77.68381 v 0 C 139.01742,55.508853 155.45022,35.9918 177.6255,34.091246 L 314.14059,22.391085 v 0 c 10.64896,-0.91268 21.22504,2.442238 29.40164,9.326706 8.17661,6.884468 13.28394,16.73455 14.19846,27.383339 l 1.95401,22.75251 c 1.90439,22.17495 -14.52844,41.69201 -36.70371,43.59256 L 186.4759,137.14636 c -22.17528,1.90056 -41.69571,-14.53509 -43.6001,-36.71005 z"
           id="path4235" />
        <path
           style="fill-rule:nonzero;stroke:#64f3d5;stroke-width:16;stroke-linecap:butt;stroke-linejoin:round"
           inkscape:connector-curvature="0"
           d="m 140.92181,77.68381 v 0 C 139.01742,55.508853 155.45022,35.9918 177.6255,34.091246 L 314.14059,22.391085 v 0 c 10.64896,-0.91268 21.22504,2.442238 29.40164,9.326706 8.17661,6.884468 13.28394,16.73455 14.19846,27.383339 l 1.95401,22.75251 c 1.90439,22.17495 -14.52844,41.69201 -36.70371,43.59256 L 186.4759,137.14636 c -22.17528,1.90056 -41.69571,-14.53509 -43.6001,-36.71005 z"
           id="path4237" />
        <path
           style="fill:#434343;fill-rule:nonzero"
           inkscape:connector-curvature="0"
           d="m 266.19684,72.54068 v 0 c 0,-14.185452 12.02838,-25.685036 26.86615,-25.685036 v 0 c 7.12534,0 13.95886,2.706093 18.99722,7.522972 5.03839,4.816879 7.86893,11.349968 7.86893,18.162064 v 0 c 0,14.185455 -12.02838,25.685043 -26.86615,25.685043 v 0 c -14.83777,0 -26.86615,-11.499588 -26.86615,-25.685043 z"
           id="path4239" />
        <path
           style="fill-rule:nonzero;stroke:#64f3d5;stroke-width:12;stroke-linecap:butt;stroke-linejoin:round"
           inkscape:connector-curvature="0"
           d="m 266.19684,72.54068 v 0 c 0,-14.185452 12.02838,-25.685036 26.86615,-25.685036 v 0 c 7.12534,0 13.95886,2.706093 18.99722,7.522972 5.03839,4.816879 7.86893,11.349968 7.86893,18.162064 v 0 c 0,14.185455 -12.02838,25.685043 -26.86615,25.685043 v 0 c -14.83777,0 -26.86615,-11.499588 -26.86615,-25.685043 z"
           id="path4241" />
        <path
           style="fill:#434343;fill-rule:nonzero"
           inkscape:connector-curvature="0"
           d="m 182.32545,82.96063 v 0 c 0,-14.185455 12.02838,-25.685043 26.86615,-25.685043 v 0 c 7.12534,0 13.95885,2.706097 18.99722,7.522972 5.03838,4.816879 7.86891,11.349976 7.86891,18.162071 v 0 c 0,14.185455 -12.02838,25.68504 -26.86613,25.68504 v 0 c -14.83777,0 -26.86615,-11.499584 -26.86615,-25.68504 z"
           id="path4243" />
        <path
           style="fill-rule:nonzero;stroke:#64f3d5;stroke-width:12;stroke-linecap:butt;stroke-linejoin:round"
           inkscape:connector-curvature="0"
           d="m 182.32545,82.96063 v 0 c 0,-14.185455 12.02838,-25.685043 26.86615,-25.685043 v 0 c 7.12534,0 13.95885,2.706097 18.99722,7.522972 5.03838,4.816879 7.86891,11.349976 7.86891,18.162071 v 0 c 0,14.185455 -12.02838,25.68504 -26.86613,25.68504 v 0 c -14.83777,0 -26.86615,-11.499584 -26.86615,-25.68504 z"
           id="path4245" />
        <path
           style="fill:#cccccc;fill-rule:nonzero"
           inkscape:connector-curvature="0"
           d="m 212.18898,253.20998 5.20174,-51.37009 h 103.76974 l 5.20175,51.37009 z"
           id="path4247" />
        <path
           style="fill-rule:nonzero;stroke:#666666;stroke-width:8;stroke-linecap:butt;stroke-linejoin:round"
           inkscape:connector-curvature="0"
           d="m 212.18898,253.20998 5.20174,-51.37009 h 103.76974 l 5.20175,51.37009 z"
           id="path4249" />
        <path
           style="fill:#000000;fill-opacity:0;fill-rule:evenodd"
           inkscape:connector-curvature="0"
           d="m 322.67514,234.32773 c -1.7431,-2.20818 -3.68524,-4.40466 -5.93451,-6.56191 -0.46646,-0.44738 -0.23712,-1.15003 -1.07797,-0.87449 -1.40988,0.46202 -0.16889,0.77374 -0.77002,1.4801 -1.17462,1.3802 -2.82224,2.67337 -3.87198,4.0752 -0.19128,0.25544 0.0782,0.95964 -0.50052,0.7779 -4.05627,-1.27386 -3.86148,-3.76582 -5.082,-5.7012 -1.96689,-3.11888 -3.11191,-6.27534 -4.1745,-9.41881 -0.63074,-1.86586 -0.23703,-3.78585 -1.91949,-5.59748 -0.2887,-0.31086 -0.15076,0.30421 -0.26401,0.6127 -0.83829,2.28357 -0.93854,2.27331 -1.63901,4.57119 -0.85904,2.81809 -0.68863,2.83429 -1.47949,5.659 -1.30203,4.65053 -2.58258,9.30318 -3.80051,13.9616 -0.30966,1.18452 -0.0106,2.49678 -1.34747,3.511 -0.77353,0.58682 -2.05286,-1.26374 -2.59601,-1.9556 -0.41879,-0.53343 -3.40604,-5.60074 -3.70151,-6.0659 -1.21872,-1.9187 -1.33319,-1.91287 -2.4805,-3.8351 -1.06091,-1.77747 -0.30825,-2.15912 -0.781,-2.0242 -3.02909,0.86453 -3.87174,2.55972 -5.6705,3.8753 -0.86798,0.63483 -1.0914,1.24935 -1.43,1.1702 -3.18036,-0.74336 -3.21081,-2.65392 -4.27899,-4.035 -0.26233,-0.33915 -0.0943,-0.90465 -0.638,-0.6679 -6.54758,2.85108 -7.712,7.25356 -10.86252,11.014 -1.18911,1.41932 -2.44542,2.82866 -3.43199,4.2818 -0.20749,0.30563 -0.0625,0.90011 -0.4895,0.5989 -2.62323,-1.85029 -2.07889,-4.05354 -2.343,-6.0726 -0.68596,-5.24409 -0.26314,-10.44955 -1.0725,-15.6972 -0.40583,-2.63137 -1.20025,-5.27546 -1.3255,-7.8969 -0.0158,-0.33142 0.66526,-0.94749 -0.16499,-0.99831 -2.75668,-0.1687 -2.71765,1.77633 -3.78951,2.73272 -3.80729,3.39711 -5.67834,7.19653 -7.238,10.96629 -0.58702,1.41887 -1.58737,2.7858 -2.519,4.158 -0.14532,0.21405 0.14362,0.61992 -0.25299,0.4337 -2.31902,-1.08888 -1.22641,-2.699 -1.56201,-4.0484 -0.15082,-0.60647 0.27411,-2.33555 -0.34099,-1.81759 -2.07242,1.74508 -3.13493,3.69641 -4.642,5.55529 -0.16069,0.19819 -2.73128,3.66196 -2.9315,3.5039 -4.25806,-3.36156 -6.00195,-7.04071 -8.6295,-10.5898"
           id="path4251" />
        <path
           style="fill-rule:evenodd;stroke:#ffffff;stroke-width:2;stroke-linecap:butt;stroke-linejoin:round"
           inkscape:connector-curvature="0"
           d="m 322.67514,234.32773 c -1.7431,-2.20818 -3.68524,-4.40466 -5.93451,-6.56191 -0.46646,-0.44738 -0.23712,-1.15003 -1.07797,-0.87449 -1.40988,0.46202 -0.16889,0.77374 -0.77002,1.4801 -1.17462,1.3802 -2.82224,2.67337 -3.87198,4.0752 -0.19128,0.25544 0.0782,0.95964 -0.50052,0.7779 -4.05627,-1.27386 -3.86148,-3.76582 -5.082,-5.7012 -1.96689,-3.11888 -3.11191,-6.27534 -4.1745,-9.41881 -0.63074,-1.86586 -0.23703,-3.78585 -1.91949,-5.59748 -0.2887,-0.31086 -0.15076,0.30421 -0.26401,0.6127 -0.83829,2.28357 -0.93854,2.27331 -1.63901,4.57119 -0.85904,2.81809 -0.68863,2.83429 -1.47949,5.659 -1.30203,4.65053 -2.58258,9.30318 -3.80051,13.9616 -0.30966,1.18452 -0.0106,2.49678 -1.34747,3.511 -0.77353,0.58682 -2.05286,-1.26374 -2.59601,-1.9556 -0.41879,-0.53343 -3.40604,-5.60074 -3.70151,-6.0659 -1.21872,-1.9187 -1.33319,-1.91287 -2.4805,-3.8351 -1.06091,-1.77747 -0.30825,-2.15912 -0.781,-2.0242 -3.02909,0.86453 -3.87174,2.55972 -5.6705,3.8753 -0.86798,0.63483 -1.0914,1.24935 -1.43,1.1702 -3.18036,-0.74336 -3.21081,-2.65392 -4.27899,-4.035 -0.26233,-0.33915 -0.0943,-0.90465 -0.638,-0.6679 -6.54758,2.85108 -7.712,7.25356 -10.86252,11.014 -1.18911,1.41932 -2.44542,2.82866 -3.43199,4.2818 -0.20749,0.30563 -0.0625,0.90011 -0.4895,0.5989 -2.62323,-1.85029 -2.07889,-4.05354 -2.343,-6.0726 -0.68596,-5.24409 -0.26314,-10.44955 -1.0725,-15.6972 -0.40583,-2.63137 -1.20025,-5.27546 -1.3255,-7.8969 -0.0158,-0.33142 0.66526,-0.94749 -0.16499,-0.99831 -2.75668,-0.1687 -2.71765,1.77633 -3.78951,2.73272 -3.80729,3.39711 -5.67834,7.19653 -7.238,10.96629 -0.58702,1.41887 -1.58737,2.7858 -2.519,4.158 -0.14532,0.21405 0.14362,0.61992 -0.25299,0.4337 -2.31902,-1.08888 -1.22641,-2.699 -1.56201,-4.0484 -0.15082,-0.60647 0.27411,-2.33555 -0.34099,-1.81759 -2.07242,1.74508 -3.13493,3.69641 -4.642,5.55529 -0.16069,0.19819 -2.73128,3.66196 -2.9315,3.5039 -4.25806,-3.36156 -6.00195,-7.04071 -8.6295,-10.5898"
           id="path4253" />
        <path
           style="fill:#000000;fill-opacity:0;fill-rule:nonzero"
           inkscape:connector-curvature="0"
           d="m 212.18898,253.20998 5.20174,-51.37009 h 103.76974 l 5.20175,51.37009 z"
           id="path4255" />
        <path
           style="fill-rule:nonzero;stroke:#666666;stroke-width:8;stroke-linecap:butt;stroke-linejoin:round"
           inkscape:connector-curvature="0"
           d="m 212.18898,253.20998 5.20174,-51.37009 h 103.76974 l 5.20175,51.37009 z"
           id="path4257" />
        <path
           style="fill:#666666;fill-rule:nonzero"
           inkscape:connector-curvature="0"
           d="m 207.29921,279.08136 v 0 c 0,-5.24454 4.36435,-9.49606 9.74803,-9.49606 v 0 c 2.58534,0 5.06479,1.00049 6.8929,2.78134 1.82811,1.78085 2.85513,4.19623 2.85513,6.71472 v 0 c 0,5.24454 -4.36433,9.49606 -9.74803,9.49606 v 0 c -5.38368,0 -9.74803,-4.25152 -9.74803,-9.49606 z"
           id="path4259" />
        <path
           style="fill:#666666;fill-rule:nonzero"
           inkscape:connector-curvature="0"
           d="m 236.05774,279.08136 v 0 c 0,-5.24454 4.36435,-9.49606 9.74803,-9.49606 v 0 c 2.58534,0 5.06479,1.00049 6.8929,2.78134 1.82811,1.78085 2.85513,4.19623 2.85513,6.71472 v 0 c 0,5.24454 -4.36433,9.49606 -9.74803,9.49606 v 0 c -5.38368,0 -9.74803,-4.25152 -9.74803,-9.49606 z"
           id="path4261" />
      </g>
    </g>
    <g
       style="fill:#000000;stroke:none"
       transform="matrix(0.04267473,0,0,-0.04267473,38.065053,235.37526)"
       id="g4315">
      <title
         id="title4309">A Simple Maze Puzzle, by Adam Stanislav</title>
      <path
         inkscape:connector-curvature="0"
         d="M 0,165 V 10 h 105 105 v 5 5 H 170 130 V 50 80 H 105 80 V 60 40 H 60 40 v -5 -5 h 25 25 v 20 20 h 15 15 V 45 20 h -5 -5 v 20 20 h -5 -5 V 40 20 H 55 10 v 15 15 h 5 5 V 40 30 h 5 5 v 10 10 h 20 20 v 20 20 h 35 35 V 80 70 h 10 10 V 60 50 h 20 20 v -5 -5 h -25 -25 v 10 10 h -5 -5 V 45 30 h 35 35 v 40 40 h 20 20 v 10 10 h 15 15 V 105 80 h -5 -5 v 20 20 h -5 -5 v -10 -10 h -20 -20 v -5 -5 h 20 20 V 80 70 h 15 15 v 35 35 h -20 -20 v 15 15 h 10 10 v 5 5 h -15 -15 v -30 -30 h -25 -25 v 15 15 h 10 10 v 5 5 h -15 -15 v -25 -25 h 10 10 V 85 60 h -15 -15 v 10 10 h -10 -10 v 10 10 h -10 -10 v 15 15 h 10 10 v 5 5 h -25 -25 v -5 -5 h 10 10 V 115 100 H 80 40 V 95 90 H 50 60 V 75 60 H 35 10 v 45 45 h 20 20 v 20 20 h 5 5 V 165 140 H 40 20 V 105 70 h 15 15 v 5 5 H 40 30 v 15 15 h 40 40 v 5 5 H 100 90 v 15 15 h 35 35 v -15 -15 h -10 -10 v -5 -5 h 10 10 V 100 90 h 10 10 V 80 70 h 5 5 v 15 15 h -10 -10 v 35 35 h 25 25 v -15 -15 h -10 -10 v -5 -5 h 15 15 v 30 30 h 25 25 v -15 -15 h -10 -10 v -5 -5 h 15 15 v 25 25 h -10 -10 v 50 50 h -25 -25 v -5 -5 h 20 20 v -25 -25 h -15 -15 v 10 10 h -5 -5 v -10 -10 h -10 -10 v -5 -5 h 20 20 v -10 -10 h 5 5 v 10 10 h 5 5 v -15 -15 h -30 -30 v -5 -5 h 10 10 v -5 -5 h -25 -25 v 10 10 h -5 -5 V 180 160 H 125 90 v 20 20 H 85 80 V 160 120 H 55 30 v 5 5 h 20 20 v 35 35 H 60 50 v 45 45 h 25 25 V 275 260 H 90 80 v -15 -15 h 45 45 v 15 15 h -25 -25 v -5 -5 h 20 20 v -5 -5 H 125 90 v 5 5 h 10 10 v 20 20 h 20 20 v 5 5 H 95 40 V 280 260 H 30 20 v -5 -5 H 30 40 V 225 200 H 30 20 v -15 -15 h 5 5 v 10 10 h 5 5 V 175 160 H 25 10 v 35 35 h 5 5 v -10 -10 h 5 5 v 15 15 H 20 10 v 35 35 h 5 5 v -20 -20 h 5 5 v 20 20 h 60 60 v 5 5 H 75 0 Z"
         id="path4311" />
      <path
         inkscape:connector-curvature="0"
         d="m 160,315 v -5 h 20 20 v -25 -25 h -5 -5 v 10 10 h -10 -10 v 5 5 h 10 10 v 5 5 h -15 -15 v -10 -10 h -20 -20 v -5 -5 h 30 30 v -25 -25 h -20 -20 v -20 -20 h -15 -15 v 15 15 h 5 5 v -10 -10 h 5 5 v 15 15 H 100 70 v 25 25 h 10 10 v 5 5 H 75 60 v -35 -35 h 20 20 v -20 -20 h 25 25 v 20 20 h 15 15 v -10 -10 h 5 5 v 10 10 h 20 20 v 5 5 h -20 -20 v 15 15 h 10 10 v 10 10 h 15 15 v -10 -10 h 5 5 v 15 15 h -20 -20 v 15 15 h 45 45 v -45 -45 h -5 -5 v 40 40 h -5 -5 v -45 -45 h 10 10 V 135 60 H 275 250 V 70 80 H 235 220 V 55 30 h 5 5 v 20 20 h 5 5 V 60 50 h 20 20 V 40 30 h 5 5 v 10 10 h 5 5 V 35 20 h -25 -25 v 5 5 h 10 10 v 5 5 H 255 240 V 30 20 h -10 -10 v -5 -5 h 45 45 v 155 155 h -75 -75 z"
         id="path4313" />
    </g>
    <text
       id="text8001"
       y="241.15166"
       x="29.856512"
       style="font-style:normal;font-weight:normal;font-size:10.5833px;line-height:1.25;font-family:sans-serif;letter-spacing:0px;word-spacing:0px;fill:#000000;fill-opacity:1;stroke:none;stroke-width:0.264583"
       xml:space="preserve"><tspan
         style="font-style:italic;font-variant:normal;font-weight:normal;font-stretch:normal;font-size:4.58611px;font-family:sans-serif;-inkscape-font-specification:'sans-serif Italic';stroke-width:0.264583"
         y="241.15166"
         x="29.856512"
         id="tspan7999"
         sodipodi:role="line">Environment</tspan></text>
    <text
       id="text8001-8"
       y="294.59744"
       x="37.928112"
       style="font-style:normal;font-weight:normal;font-size:10.5833px;line-height:1.25;font-family:sans-serif;letter-spacing:0px;word-spacing:0px;fill:#000000;fill-opacity:1;stroke:none;stroke-width:0.264583"
       xml:space="preserve"><tspan
         style="font-style:italic;font-variant:normal;font-weight:normal;font-stretch:normal;font-size:4.58611px;font-family:sans-serif;-inkscape-font-specification:'sans-serif Italic';stroke-width:0.264583"
         y="294.59744"
         x="37.928112"
         id="tspan7999-4"
         sodipodi:role="line">Agent</tspan></text>
    <path
       sodipodi:nodetypes="cc"
       inkscape:connector-curvature="0"
       id="path8021"
       d="m 52.699746,281.75512 c 31.505379,0.17818 32.072343,-53.89935 0,-53.58754"
       style="fill:none;stroke:#000000;stroke-width:0.26499999;stroke-linecap:butt;stroke-linejoin:miter;stroke-miterlimit:4;stroke-dasharray:none;stroke-opacity:1;marker-end:url(#Arrow2Lend)" />
    <text
       transform="rotate(-90)"
       id="text8001-3"
       y="74.130653"
       x="-262.15799"
       style="font-style:normal;font-weight:normal;font-size:10.5833px;line-height:1.25;font-family:sans-serif;letter-spacing:0px;word-spacing:0px;fill:#000000;fill-opacity:1;stroke:none;stroke-width:0.264583"
       xml:space="preserve"><tspan
         style="font-size:4.58611px;stroke-width:0.264583"
         y="74.130653"
         x="-262.15799"
         id="tspan7999-1"
         sodipodi:role="line">Action</tspan></text>
    <g
       transform="matrix(-0.00313558,0,0,0.00313558,19.846613,245.18364)"
       id="g9313"
       style="clip-rule:evenodd;fill-rule:evenodd;image-rendering:optimizeQuality;shape-rendering:geometricPrecision;text-rendering:geometricPrecision">
      <g
         id="Layer_x0020_1">
        <path
           style="fill:#0000eb;fill-opacity:1"
           inkscape:connector-curvature="0"
           class="fil1"
           d="M 310,3745 C 126,3435 21,3073 21,2687 c 0,-386 106,-748 289,-1058 87,332 134,688 134,1058 0,370 -47,726 -134,1058 z"
           id="path9288" />
        <path
           style="fill:none;stroke:#000000;stroke-width:42.33000183;stroke-linecap:round;stroke-linejoin:round"
           inkscape:connector-curvature="0"
           class="fil2 str0"
           d="M 4178,2686 C 2306,2686 496,934 21,21"
           id="path9290" />
        <path
           style="fill:none;stroke:#000000;stroke-width:42.33000183;stroke-linecap:round;stroke-linejoin:round"
           inkscape:connector-curvature="0"
           class="fil2 str0"
           d="M 4178,2686 C 2306,2686 496,4438 21,5351"
           id="path9292" />
        <path
           style="fill:none;stroke:#000000;stroke-width:42.33000183"
           inkscape:connector-curvature="0"
           class="fil2 str1"
           d="M 822,4326 C 335,3946 21,3353 21,2687 21,2021 334,1428 822,1048 c 815,813 2071,1639 3356,1639 -1285,0 -2541,826 -3356,1639 z"
           id="path9294" />
        <path
           sodipodi:nodetypes="cscsc"
           style="clip-rule:evenodd;fill:#000000;fill-opacity:1;fill-rule:evenodd;stroke-width:0.37731388;image-rendering:optimizeQuality;shape-rendering:geometricPrecision;text-rendering:geometricPrecision"
           inkscape:connector-curvature="0"
           class="fil1"
           d="M 83.408285,3109.4521 C 17.387778,2986.4517 21.000033,2840.1554 21.000033,2687.0002 c 0,-153.1552 -5.917123,-291.4605 59.744574,-414.4609 31.216223,131.7294 72.053243,267.6541 72.053243,414.4609 0,146.8068 -38.17334,290.7225 -69.389565,422.4519 z"
           id="path9288-4" />
      </g>
    </g>
    <text
       id="text8001-8-9"
       y="266.02237"
       x="2.5774715"
       style="font-style:normal;font-weight:normal;font-size:10.5833px;line-height:1.25;font-family:sans-serif;letter-spacing:0px;word-spacing:0px;fill:#000000;fill-opacity:1;stroke:none;stroke-width:0.264583"
       xml:space="preserve"><tspan
         style="font-style:italic;font-variant:normal;font-weight:normal;font-stretch:normal;font-size:4.58611px;font-family:sans-serif;-inkscape-font-specification:'sans-serif Italic';stroke-width:0.264583"
         y="266.02237"
         x="2.5774715"
         id="tspan7999-4-2"
         sodipodi:role="line">Interpreter</tspan></text>
    <path
       sodipodi:nodetypes="cc"
       inkscape:connector-curvature="0"
       id="path9348"
       d="m 35.419221,228.05045 c -11.326126,-0.1163 -23.484588,4.88464 -23.396732,17.3911"
       style="fill:none;stroke:#000000;stroke-width:0.26499999;stroke-linecap:butt;stroke-linejoin:miter;stroke-miterlimit:4;stroke-dasharray:none;stroke-opacity:1;marker-end:url(#marker9358)" />
    <path
       sodipodi:nodetypes="cc"
       inkscape:connector-curvature="0"
       id="path9348-8"
       d="M 35.509201,281.97809 C 21.442748,282.09439 12.119105,279.4558 12.395949,268.55574"
       style="fill:none;stroke:#000000;stroke-width:0.26499999;stroke-linecap:butt;stroke-linejoin:miter;stroke-miterlimit:4;stroke-dasharray:none;stroke-opacity:1;marker-start:url(#Arrow2Lstart)" />
    <path
       sodipodi:nodetypes="cc"
       inkscape:connector-curvature="0"
       id="path9348-8-6"
       d="m 21.628573,257.83091 c 13.411449,-0.11636 20.13969,2.52346 19.875738,13.42861"
       style="fill:none;stroke:#000000;stroke-width:0.265124;stroke-linecap:butt;stroke-linejoin:miter;stroke-miterlimit:4;stroke-dasharray:none;stroke-opacity:1;marker-end:url(#marker12943)" />
    <path
       sodipodi:nodetypes="cc"
       inkscape:connector-curvature="0"
       id="path9348-8-6-3"
       d="m 21.379994,251.40512 c 18.035446,-0.17151 27.08345,3.71931 26.728492,19.79238"
       style="fill:none;stroke:#000000;stroke-width:0.265124;stroke-linecap:butt;stroke-linejoin:miter;stroke-miterlimit:4;stroke-dasharray:none;stroke-opacity:1;marker-end:url(#marker12943-5)" />
    <text
       transform="rotate(0.64762955)"
       id="text8001-8-6"
       y="257.17996"
       x="24.101311"
       style="font-style:normal;font-weight:normal;font-size:10.5833px;line-height:1.25;font-family:sans-serif;letter-spacing:0px;word-spacing:0px;fill:#000000;fill-opacity:1;stroke:none;stroke-width:0.264583"
       xml:space="preserve"><tspan
         style="font-size:4.58611px;stroke-width:0.264583"
         y="257.17996"
         x="24.101311"
         id="tspan7999-4-4"
         sodipodi:role="line">Reward</tspan></text>
    <text
       transform="rotate(0.64762955)"
       id="text8001-8-6-6"
       y="250.34991"
       x="23.952654"
       style="font-style:normal;font-weight:normal;font-size:10.5833px;line-height:1.25;font-family:sans-serif;letter-spacing:0px;word-spacing:0px;fill:#000000;fill-opacity:1;stroke:none;stroke-width:0.264583"
       xml:space="preserve"><tspan
         style="font-size:4.58611px;stroke-width:0.264583"
         y="250.34991"
         x="23.952654"
         id="tspan7999-4-4-0"
         sodipodi:role="line">Safety indicator</tspan></text>
    <text
       transform="rotate(-31.815501)"
       id="text8001-8-6-3"
       y="206.38593"
       x="-111.8375"
       style="font-style:normal;font-weight:normal;font-size:10.5833px;line-height:1.25;font-family:sans-serif;letter-spacing:0px;word-spacing:0px;fill:#000000;fill-opacity:1;stroke:none;stroke-width:0.264583"
       xml:space="preserve"><tspan
         style="font-size:4.58611px;stroke-width:0.264583"
         y="206.38593"
         x="-111.8375"
         id="tspan7999-4-4-8"
         sodipodi:role="line">State</tspan></text>
    <text
       transform="rotate(10.657531)"
       id="text8001-8-6-3-5"
       y="276.11087"
       x="56.884464"
       style="font-style:normal;font-weight:normal;font-size:10.5833px;line-height:1.25;font-family:sans-serif;letter-spacing:0px;word-spacing:0px;fill:#000000;fill-opacity:1;stroke:none;stroke-width:0.264583"
       xml:space="preserve"><tspan
         style="font-size:4.58611px;stroke-width:0.264583"
         y="276.11087"
         x="56.884464"
         id="tspan7999-4-4-8-9"
         sodipodi:role="line">Observation</tspan></text>
    <g
       style="stroke-width:0.78897077"
       transform="matrix(1.2674741,0,0,1.2674741,-35.625003,224.57318)"
       id="g1099">
      <g
         style="font-style:normal;font-variant:normal;font-weight:normal;font-stretch:normal;letter-spacing:normal;word-spacing:normal;text-anchor:start;fill:none;fill-opacity:1;fill-rule:evenodd;stroke:#000000;stroke-width:0.78897077;stroke-linecap:butt;stroke-linejoin:miter;stroke-miterlimit:10.43299961;stroke-dasharray:none;stroke-dashoffset:0;stroke-opacity:1"
         word-spacing="normal"
         letter-spacing="normal"
         font-size-adjust="none"
         font-stretch="normal"
         font-weight="normal"
         font-variant="normal"
         font-style="normal"
         stroke-miterlimit="10.433"
         xml:space="preserve"
         transform="matrix(0.1096131,0,0,-0.1096131,-19.182292,59.53125)"
         id="g1097"><path
           style="fill:#000000;stroke-width:0"
           inkscape:connector-curvature="0"
           id="path1093"
           d="m 472.16,421.25 0.03,0.13 0.04,0.15 0.04,0.16 0.04,0.18 0.06,0.19 0.06,0.21 0.06,0.22 0.07,0.22 0.08,0.23 0.09,0.24 0.1,0.25 0.1,0.24 0.11,0.25 0.12,0.25 0.13,0.25 0.14,0.25 0.15,0.24 0.15,0.24 0.17,0.23 0.18,0.22 0.18,0.22 0.2,0.2 0.21,0.19 0.22,0.18 0.23,0.16 0.25,0.14 0.12,0.07 0.13,0.06 0.14,0.05 0.13,0.05 0.14,0.05 0.14,0.04 0.15,0.03 0.15,0.03 0.15,0.02 0.16,0.02 0.16,0.01 h 0.16 c 0.25,0 1.44,0 2.48,-0.64 -1.39,-0.25 -2.39,-1.5 -2.39,-2.69 0,-0.79 0.55,-1.75 1.89,-1.75 1.1,0 2.69,0.89 2.69,2.89 0,2.6 -2.94,3.28 -4.63,3.28 -2.89,0 -4.64,-2.64 -5.23,-3.78 -1.25,3.28 -3.94,3.78 -5.37,3.78 -5.19,0 -8.04,-6.42 -8.04,-7.67 0,-0.5 0.5,-0.5 0.61,-0.5 0.39,0 0.55,0.11 0.64,0.55 1.69,5.28 4.99,6.53 6.68,6.53 0.95,0 2.68,-0.44 2.68,-3.33 0,-1.54 -0.84,-4.89 -2.68,-11.86 -0.8,-3.09 -2.54,-5.18 -4.74,-5.18 -0.3,0 -1.44,0 -2.48,0.65 1.25,0.24 2.34,1.28 2.34,2.69 0,1.34 -1.09,1.73 -1.84,1.73 -1.5,0 -2.75,-1.29 -2.75,-2.89 0,-2.28 2.5,-3.28 4.68,-3.28 3.3,0 5.08,3.49 5.24,3.78 0.59,-1.84 2.39,-3.78 5.37,-3.78 5.14,0 7.99,6.42 7.99,7.67 0,0.5 -0.45,0.5 -0.61,0.5 -0.44,0 -0.55,-0.2 -0.64,-0.54 -1.64,-5.33 -5.03,-6.53 -6.63,-6.53 -1.95,0 -2.75,1.59 -2.75,3.29 0,1.1 0.3,2.19 0.86,4.38 z" /><path
           style="fill:#000000;stroke-width:0"
           inkscape:connector-curvature="0"
           id="path1095"
           d="m 494.87,421.9 v 0.01 0 0 0.01 h 0.01 v 0.01 0.01 0 0.01 l 0.01,0.01 v 0.01 l 0.01,0.02 v 0.02 l 0.01,0.02 v 0.02 l 0.01,0.02 0.01,0.02 v 0.03 l 0.01,0.02 0.01,0.05 0.01,0.04 0.01,0.03 v 0.02 l 0.01,0.02 v 0.02 l 0.01,0.02 v 0.02 0.02 l 0.01,0.01 v 0.01 0.01 0 0.01 0 l 0.01,0.01 v 0 0.01 0 0 0.01 0 c 0,0.19 -0.14,0.5 -0.56,0.5 -0.69,0 -3.58,-0.28 -4.46,-0.36 -0.28,-0.03 -0.76,-0.06 -0.76,-0.8 0,-0.48 0.48,-0.48 0.9,-0.48 1.67,0 1.67,-0.25 1.67,-0.53 0,-0.24 -0.07,-0.46 -0.14,-0.77 l -4.92,-19.72 c -0.17,-0.62 -0.17,-0.68 -0.17,-0.76 0,-0.52 0.42,-1.11 1.19,-1.11 0.94,0 1.39,0.69 1.61,1.45 0.06,0.14 1.56,6.28 1.7,6.77 2.47,-0.25 4.45,-1.05 4.45,-2.86 0,-0.17 0,-0.35 -0.06,-0.69 -0.14,-0.53 -0.14,-0.7 -0.14,-1.09 0,-2.47 2.02,-3.58 3.69,-3.58 3.39,0 4.44,5.29 4.44,5.33 0,0.45 -0.46,0.45 -0.57,0.45 -0.48,0 -0.53,-0.17 -0.7,-0.84 -0.41,-1.5 -1.36,-3.97 -3.06,-3.97 -0.94,0 -1.22,0.87 -1.22,1.81 0,0.59 0,0.66 0.2,1.56 0.05,0.11 0.19,0.7 0.19,1.1 0,3.09 -4.19,3.57 -5.66,3.68 1.02,0.63 2.3,1.78 2.89,2.3 1.78,1.67 3.53,3.31 5.47,3.31 0.42,0 0.88,-0.11 1.16,-0.45 -1.5,-0.25 -1.81,-1.42 -1.81,-1.95 0,-0.77 0.59,-1.29 1.39,-1.29 0.95,0 1.98,0.77 1.98,2.22 0,1.16 -0.83,2.44 -2.67,2.44 -1.99,0 -3.8,-1.42 -5.58,-3.06 -1.47,-1.39 -2.61,-2.47 -4.05,-3.06 z" /></g>
    </g>
    <g
       style="stroke-width:0.788971"
       transform="matrix(1.2674741,0,0,1.2674741,-5.2377359,250.47717)"
       id="g1579">
      <g
         style="font-style:normal;font-variant:normal;font-weight:normal;font-stretch:normal;letter-spacing:normal;word-spacing:normal;text-anchor:start;fill:none;fill-opacity:1;fill-rule:evenodd;stroke:#000000;stroke-width:0.788971;stroke-linecap:butt;stroke-linejoin:miter;stroke-miterlimit:10.433;stroke-dasharray:none;stroke-dashoffset:0;stroke-opacity:1"
         word-spacing="normal"
         letter-spacing="normal"
         font-size-adjust="none"
         font-stretch="normal"
         font-weight="normal"
         font-variant="normal"
         font-style="normal"
         stroke-miterlimit="10.433"
         xml:space="preserve"
         transform="matrix(0.1096131,0,0,-0.1096131,-19.182292,59.53125)"
         id="g1577"><path
           style="fill:#000000;stroke-width:0"
           inkscape:connector-curvature="0"
           id="path1573"
           d="m 459.91,409.14 -0.02,-0.07 -0.01,-0.08 -0.02,-0.07 -0.01,-0.08 -0.04,-0.16 -0.04,-0.16 -0.03,-0.16 -0.04,-0.16 -0.04,-0.16 -0.03,-0.16 -0.02,-0.08 -0.02,-0.07 -0.02,-0.07 -0.01,-0.07 -0.02,-0.07 -0.01,-0.07 -0.01,-0.06 -0.01,-0.06 -0.01,-0.06 -0.01,-0.05 -0.01,-0.05 -0.01,-0.04 -0.01,-0.04 v -0.04 -0.03 -0.02 c 0,-0.89 0.7,-1.35 1.43,-1.35 0.61,0 1.5,0.39 1.85,1.39 0.11,0.21 1.8,6.99 2,7.88 0.39,1.64 1.3,5.12 1.59,6.48 0.21,0.64 1.6,2.99 2.78,4.08 0.41,0.34 1.85,1.64 4,1.64 1.28,0 2.03,-0.59 2.08,-0.59 -1.48,-0.25 -2.58,-1.46 -2.58,-2.74 0,-0.79 0.55,-1.75 1.89,-1.75 1.35,0 2.74,1.14 2.74,2.94 0,1.75 -1.6,3.23 -4.13,3.23 -3.25,0 -5.43,-2.43 -6.39,-3.82 -0.39,2.23 -2.18,3.82 -4.53,3.82 -2.28,0 -3.23,-1.93 -3.69,-2.82 -0.89,-1.71 -1.54,-4.69 -1.54,-4.85 0,-0.5 0.5,-0.5 0.61,-0.5 0.5,0 0.54,0.07 0.84,1.16 0.84,3.53 1.84,5.92 3.64,5.92 0.84,0 1.55,-0.39 1.55,-2.28 0,-1.05 -0.16,-1.61 -0.8,-4.19 z" /><path
           style="fill:#000000;stroke-width:0"
           inkscape:connector-curvature="0"
           id="path1575"
           d="m 488.87,421.9 v 0.01 0 0 0.01 h 0.01 v 0.01 0.01 0 0.01 l 0.01,0.01 v 0.01 l 0.01,0.02 v 0.02 l 0.01,0.02 v 0.02 l 0.01,0.02 0.01,0.02 v 0.03 l 0.01,0.02 0.01,0.05 0.01,0.04 0.01,0.03 v 0.02 l 0.01,0.02 v 0.02 l 0.01,0.02 v 0.02 0.02 l 0.01,0.01 v 0.01 0.01 0 0.01 0 l 0.01,0.01 v 0 0.01 0 0 0.01 0 c 0,0.19 -0.14,0.5 -0.56,0.5 -0.69,0 -3.58,-0.28 -4.46,-0.36 -0.28,-0.03 -0.76,-0.06 -0.76,-0.8 0,-0.48 0.48,-0.48 0.9,-0.48 1.67,0 1.67,-0.25 1.67,-0.53 0,-0.24 -0.07,-0.46 -0.14,-0.77 l -4.92,-19.72 c -0.17,-0.62 -0.17,-0.68 -0.17,-0.76 0,-0.52 0.42,-1.11 1.19,-1.11 0.94,0 1.39,0.69 1.61,1.45 0.06,0.14 1.56,6.28 1.7,6.77 2.47,-0.25 4.45,-1.05 4.45,-2.86 0,-0.17 0,-0.35 -0.06,-0.69 -0.14,-0.53 -0.14,-0.7 -0.14,-1.09 0,-2.47 2.02,-3.58 3.69,-3.58 3.39,0 4.44,5.29 4.44,5.33 0,0.45 -0.46,0.45 -0.57,0.45 -0.48,0 -0.53,-0.17 -0.7,-0.84 -0.41,-1.5 -1.36,-3.97 -3.06,-3.97 -0.94,0 -1.22,0.87 -1.22,1.81 0,0.59 0,0.66 0.2,1.56 0.05,0.11 0.19,0.7 0.19,1.1 0,3.09 -4.19,3.57 -5.66,3.68 1.02,0.63 2.3,1.78 2.89,2.3 1.78,1.67 3.53,3.31 5.47,3.31 0.42,0 0.88,-0.11 1.16,-0.45 -1.5,-0.25 -1.81,-1.42 -1.81,-1.95 0,-0.77 0.59,-1.29 1.39,-1.29 0.95,0 1.98,0.77 1.98,2.22 0,1.16 -0.83,2.44 -2.67,2.44 -1.99,0 -3.8,-1.42 -5.58,-3.06 -1.47,-1.39 -2.61,-2.47 -4.05,-3.06 z" /></g>
    </g>
    <g
       style="stroke-width:0.78897077"
       transform="matrix(1.2674741,0,0,1.2674741,-10.867563,259.2525)"
       id="g1831">
      <g
         style="font-style:normal;font-variant:normal;font-weight:normal;font-stretch:normal;letter-spacing:normal;word-spacing:normal;text-anchor:start;fill:none;fill-opacity:1;fill-rule:evenodd;stroke:#000000;stroke-width:0.78897077;stroke-linecap:butt;stroke-linejoin:miter;stroke-miterlimit:10.43299961;stroke-dasharray:none;stroke-dashoffset:0;stroke-opacity:1"
         id="g1829"
         transform="matrix(0.1096131,0,0,-0.1096131,-19.182292,59.53125)"
         xml:space="preserve"
         stroke-miterlimit="10.433"
         font-style="normal"
         font-variant="normal"
         font-weight="normal"
         font-stretch="normal"
         font-size-adjust="none"
         letter-spacing="normal"
         word-spacing="normal"><path
           style="fill:#000000;stroke-width:0"
           inkscape:connector-curvature="0"
           d="m 479.74,425.18 0.01,0.04 0.01,0.03 0.01,0.06 0.02,0.05 0.01,0.06 0.01,0.05 0.02,0.04 0.01,0.05 0.01,0.04 0.01,0.04 v 0.04 l 0.01,0.04 0.01,0.04 0.01,0.03 v 0.03 l 0.01,0.03 v 0.03 l 0.01,0.03 v 0.03 l 0.01,0.05 v 0.06 0.05 0.05 l 0.01,0.05 v 0.03 0.03 0.03 0.03 c 0,0.91 -0.69,1.35 -1.44,1.35 -0.5,0 -1.3,-0.3 -1.75,-1.05 -0.1,-0.25 -0.5,-1.78 -0.69,-2.69 -0.36,-1.29 -0.7,-2.64 -1,-3.98 l -2.25,-8.97 c -0.19,-0.75 -2.33,-4.23 -5.62,-4.23 -2.54,0 -3.1,2.18 -3.1,4.03 0,2.29 0.86,5.39 2.55,9.76 0.8,2.05 1,2.6 1,3.6 0,2.23 -1.59,4.07 -4.09,4.07 -4.74,0 -6.58,-7.21 -6.58,-7.67 0,-0.5 0.5,-0.5 0.61,-0.5 0.5,0 0.54,0.11 0.79,0.91 1.35,4.69 3.33,6.17 5.03,6.17 0.4,0 1.25,0 1.25,-1.59 0,-1.25 -0.5,-2.53 -0.85,-3.49 -1.99,-5.28 -2.9,-8.12 -2.9,-10.47 0,-4.42 3.15,-5.92 6.08,-5.92 1.96,0 3.64,0.85 5.03,2.24 -0.64,-2.58 -1.23,-5.03 -3.23,-7.68 -1.3,-1.68 -3.19,-3.14 -5.48,-3.14 -0.69,0 -2.94,0.16 -3.79,2.1 0.8,0 1.46,0 2.14,0.61 0.5,0.43 1,1.09 1,2.03 0,1.55 -1.34,1.75 -1.84,1.75 -1.14,0 -2.8,-0.8 -2.8,-3.24 0,-2.5 2.21,-4.34 5.29,-4.34 5.14,0 10.26,4.55 11.67,10.17 z"
           id="path1825" /><path
           style="fill:#000000;stroke-width:0"
           inkscape:connector-curvature="0"
           d="m 490.91,421.9 v 0.01 0 0 0.01 0 l 0.01,0.01 v 0.01 0 0.01 l 0.01,0.01 v 0.01 l 0.01,0.02 v 0.02 l 0.01,0.02 v 0.02 l 0.01,0.02 v 0.02 l 0.01,0.03 0.01,0.02 0.01,0.05 0.01,0.04 0.01,0.03 v 0.02 l 0.01,0.02 v 0.02 l 0.01,0.02 v 0.02 0.02 l 0.01,0.01 v 0.01 0.01 0 0.01 0 0.01 h 0.01 v 0.01 0 0 0.01 0 c 0,0.19 -0.14,0.5 -0.57,0.5 -0.68,0 -3.57,-0.28 -4.45,-0.36 -0.28,-0.03 -0.76,-0.06 -0.76,-0.8 0,-0.48 0.48,-0.48 0.9,-0.48 1.67,0 1.67,-0.25 1.67,-0.53 0,-0.24 -0.07,-0.46 -0.14,-0.77 l -4.92,-19.72 c -0.17,-0.62 -0.17,-0.68 -0.17,-0.76 0,-0.52 0.42,-1.11 1.19,-1.11 0.93,0 1.39,0.69 1.61,1.45 0.06,0.14 1.56,6.28 1.7,6.77 2.47,-0.25 4.45,-1.05 4.45,-2.86 0,-0.17 0,-0.35 -0.06,-0.69 -0.14,-0.53 -0.14,-0.7 -0.14,-1.09 0,-2.47 2.02,-3.58 3.69,-3.58 3.39,0 4.43,5.29 4.43,5.33 0,0.45 -0.45,0.45 -0.56,0.45 -0.48,0 -0.53,-0.17 -0.7,-0.84 -0.41,-1.5 -1.36,-3.97 -3.06,-3.97 -0.94,0 -1.22,0.87 -1.22,1.81 0,0.59 0,0.66 0.2,1.56 0.05,0.11 0.19,0.7 0.19,1.1 0,3.09 -4.19,3.57 -5.66,3.68 1.02,0.63 2.3,1.78 2.89,2.3 1.78,1.67 3.53,3.31 5.47,3.31 0.42,0 0.88,-0.11 1.16,-0.45 -1.5,-0.25 -1.81,-1.42 -1.81,-1.95 0,-0.77 0.59,-1.29 1.39,-1.29 0.95,0 1.98,0.77 1.98,2.22 0,1.16 -0.83,2.44 -2.67,2.44 -1.99,0 -3.8,-1.42 -5.58,-3.06 -1.47,-1.39 -2.61,-2.47 -4.05,-3.06 z"
           id="path1827" /></g>
    </g>
    <g
       id="g1100"
       transform="matrix(1.3327893,0,0,1.3327893,14.426787,206.08914)"
       style="stroke-width:0.75030619">
      <g
         word-spacing="normal"
         letter-spacing="normal"
         font-size-adjust="none"
         font-stretch="normal"
         font-weight="normal"
         font-variant="normal"
         font-style="normal"
         stroke-miterlimit="10.433"
         xml:space="preserve"
         transform="matrix(0.1096131,0,0,-0.1096131,-19.182292,59.53125)"
         id="content"
         style="font-style:normal;font-variant:normal;font-weight:normal;font-stretch:normal;letter-spacing:normal;word-spacing:normal;text-anchor:start;fill:none;fill-opacity:1;fill-rule:evenodd;stroke:#000000;stroke-width:0.75030619;stroke-linecap:butt;stroke-linejoin:miter;stroke-miterlimit:10.43299961;stroke-dasharray:none;stroke-dashoffset:0;stroke-opacity:1"><path
           id="path1094"
           d="m 472.96,409 0.05,-0.19 0.06,-0.19 0.07,-0.18 0.08,-0.18 0.08,-0.17 0.09,-0.16 0.09,-0.16 0.1,-0.16 0.11,-0.15 0.11,-0.15 0.11,-0.14 0.13,-0.13 0.12,-0.13 0.14,-0.12 0.14,-0.12 0.14,-0.11 0.15,-0.11 0.15,-0.1 0.15,-0.09 0.16,-0.09 0.17,-0.08 0.17,-0.07 0.17,-0.07 0.18,-0.06 0.17,-0.06 0.19,-0.04 0.18,-0.05 0.19,-0.03 0.19,-0.02 0.2,-0.02 0.2,-0.01 0.19,-0.01 c 1.74,0 2.9,1.14 3.69,2.74 0.85,1.79 1.49,4.84 1.49,4.93 0,0.5 -0.44,0.5 -0.6,0.5 -0.5,0 -0.54,-0.2 -0.7,-0.9 -0.69,-2.78 -1.64,-6.17 -3.73,-6.17 -1.05,0 -1.54,0.65 -1.54,2.29 0,1.1 0.6,3.44 0.99,5.17 l 1.4,5.4 c 0.15,0.75 0.65,2.64 0.85,3.39 0.25,1.14 0.75,3.03 0.75,3.32 0,0.91 -0.7,1.35 -1.45,1.35 -0.25,0 -1.55,-0.05 -1.94,-1.74 -0.96,-3.64 -3.14,-12.36 -3.74,-15 -0.06,-0.2 -2.04,-4.18 -5.68,-4.18 -2.6,0 -3.1,2.25 -3.1,4.09 0,2.78 1.41,6.72 2.71,10.16 0.59,1.5 0.84,2.18 0.84,3.14 0,2.23 -1.59,4.07 -4.09,4.07 -4.74,0 -6.58,-7.21 -6.58,-7.67 0,-0.5 0.5,-0.5 0.61,-0.5 0.5,0 0.54,0.11 0.79,0.91 1.24,4.33 3.14,6.17 5.03,6.17 0.44,0 1.25,-0.05 1.25,-1.64 0,-1.2 -0.56,-2.64 -0.85,-3.39 -1.85,-4.94 -2.9,-8.02 -2.9,-10.45 0,-4.74 3.44,-5.99 6.15,-5.99 3.28,0 5.07,2.24 5.92,3.35 z"
           inkscape:connector-curvature="0"
           style="fill:#000000;stroke-width:0" /><path
           id="path1096"
           d="m 494.98,421.9 0.01,0.01 v 0 0 0.01 0 0.01 l 0.01,0.01 v 0 0.01 0.01 l 0.01,0.01 v 0.02 l 0.01,0.02 0.01,0.02 v 0.02 l 0.01,0.02 v 0.02 l 0.01,0.03 v 0.02 l 0.02,0.05 0.01,0.04 v 0.03 l 0.01,0.02 v 0.02 l 0.01,0.02 v 0.02 l 0.01,0.02 v 0.02 0.01 l 0.01,0.01 v 0.01 0 0.01 0 0.01 0 0.01 0 0 0.01 h 0.01 c 0,0.19 -0.15,0.5 -0.57,0.5 -0.68,0 -3.58,-0.28 -4.45,-0.36 -0.28,-0.03 -0.77,-0.06 -0.77,-0.8 0,-0.48 0.49,-0.48 0.91,-0.48 1.67,0 1.67,-0.25 1.67,-0.53 0,-0.24 -0.08,-0.46 -0.14,-0.77 l -4.92,-19.72 c -0.17,-0.62 -0.17,-0.68 -0.17,-0.76 0,-0.52 0.42,-1.11 1.19,-1.11 0.93,0 1.39,0.69 1.6,1.45 0.07,0.14 1.57,6.28 1.71,6.77 2.47,-0.25 4.45,-1.05 4.45,-2.86 0,-0.17 0,-0.35 -0.06,-0.69 -0.14,-0.53 -0.14,-0.7 -0.14,-1.09 0,-2.47 2.01,-3.58 3.69,-3.58 3.39,0 4.43,5.29 4.43,5.33 0,0.45 -0.45,0.45 -0.56,0.45 -0.48,0 -0.53,-0.17 -0.7,-0.84 -0.41,-1.5 -1.36,-3.97 -3.07,-3.97 -0.93,0 -1.21,0.87 -1.21,1.81 0,0.59 0,0.66 0.2,1.56 0.05,0.11 0.19,0.7 0.19,1.1 0,3.09 -4.19,3.57 -5.66,3.68 1.02,0.63 2.3,1.78 2.89,2.3 1.78,1.67 3.53,3.31 5.47,3.31 0.42,0 0.87,-0.11 1.16,-0.45 -1.5,-0.25 -1.82,-1.42 -1.82,-1.95 0,-0.77 0.6,-1.29 1.39,-1.29 0.96,0 1.99,0.77 1.99,2.22 0,1.16 -0.83,2.44 -2.67,2.44 -1.99,0 -3.8,-1.42 -5.58,-3.06 -1.47,-1.39 -2.61,-2.47 -4.05,-3.06 z"
           inkscape:connector-curvature="0"
           style="fill:#000000;stroke-width:0" /></g>
    </g>
    <g
       style="fill:#000000;fill-opacity:1;stroke:none;stroke-width:43.6264;stroke-opacity:1"
       id="g544"
       transform="matrix(0.01019284,0,0,0.01019284,13.21148,251.58901)">
      <g
         id="g534"
         style="fill:#000000;fill-opacity:1;stroke:none;stroke-width:43.6264;stroke-opacity:1">
        <path
           d="m 442.138,11.508 c -1.107,-4.625 -4.342,-8.45 -8.718,-10.312 -4.376,-1.862 -9.375,-1.537 -13.476,0.875 -53.767,31.626 -120.569,31.628 -174.34,0 -4.692,-2.762 -10.516,-2.762 -15.21,0 -53.768,31.627 -120.571,31.627 -174.339,0 C 51.956,-0.341 46.956,-0.663 42.58,1.196 38.204,3.057 34.969,6.883 33.862,11.508 -4.815,173.094 55.859,342.213 188.436,442.359 l 40.522,30.61 c 2.675,2.021 5.857,3.031 9.041,3.031 3.183,0 6.367,-1.011 9.042,-3.031 l 40.522,-30.61 C 420.141,342.213 480.815,173.094 442.138,11.508 Z M 269.482,418.421 238,442.201 206.519,418.421 C 88.624,329.366 31.987,181.539 59.004,37.407 115.969,63.545 182.278,61.805 238,32.185 c 55.724,29.62 122.03,31.361 178.996,5.222 27.017,144.132 -29.62,291.959 -147.514,381.014 z"
           id="path530"
           style="fill:#000000;fill-opacity:1;stroke:none;stroke-width:43.6264;stroke-opacity:1" />
        <path
           d="m 397.194,71.145 c -2.409,-1.708 -5.451,-2.265 -8.304,-1.519 -18.303,4.766 -37.182,7.183 -56.114,7.183 -30.958,0 -62.325,-6.672 -90.712,-19.296 -2.588,-1.15 -5.54,-1.15 -8.127,0 -28.386,12.624 -59.753,19.296 -90.711,19.296 -18.933,0 -37.813,-2.417 -56.115,-7.183 -2.857,-0.745 -5.896,-0.188 -8.303,1.519 -2.407,1.707 -3.938,4.391 -4.183,7.332 -4.871,58.737 4.658,118.513 27.557,172.864 25.044,59.444 65.5,111.425 116.995,150.323 l 12.797,9.666 c 1.783,1.347 3.905,2.021 6.027,2.021 2.122,0 4.244,-0.674 6.027,-2.021 l 12.796,-9.666 c 51.496,-38.899 91.952,-90.881 116.996,-150.323 22.898,-54.352 32.428,-114.127 27.557,-172.864 -0.245,-2.942 -1.775,-5.625 -4.183,-7.332 z m -41.806,172.43 c -23.678,56.202 -61.93,105.351 -110.619,142.13 l -6.769,5.114 -6.77,-5.113 C 182.542,348.928 144.29,299.78 120.611,243.576 100.465,195.758 91.263,143.499 93.792,91.724 c 16.242,3.377 32.819,5.085 49.433,5.085 32.266,0 64.934,-6.648 94.775,-19.259 29.842,12.61 62.51,19.259 94.775,19.259 16.613,0 33.19,-1.708 49.433,-5.085 2.529,51.774 -6.673,104.033 -26.82,151.851 z"
           id="path532"
           style="fill:#000000;fill-opacity:1;stroke:none;stroke-width:43.6264;stroke-opacity:1" />
      </g>
    </g>
    <g
       inkscape:label=""
       transform="matrix(2.0076642,0,0,2.0076642,50.324642,266.78014)"
       id="g7514"
       style="stroke-width:0.498091">
      <g
         fill="#000000"
         fill-opacity="1"
         id="g19"
         transform="matrix(0.352778,0,0,0.352778,-0.181901,0.0410104)"
         style="stroke-width:0.259854">
        <g
           id="use17"
           transform="translate(0,4.29)"
           style="stroke-width:0.498091">
          <path
             d="M 3.890625,-3.734375 C 3.625,-3.71875 3.421875,-3.5 3.421875,-3.28125 c 0,0.140625 0.09375,0.296875 0.3125,0.296875 0.21875,0 0.453125,-0.171875 0.453125,-0.5625 C 4.1875,-4 3.765625,-4.40625 3,-4.40625 c -1.3125,0 -1.6875,1.015625 -1.6875,1.453125 0,0.78125 0.734375,0.921875 1.03125,0.984375 0.515625,0.109375 1.03125,0.21875 1.03125,0.765625 0,0.25 -0.21875,1.09375 -1.421875,1.09375 -0.140625,0 -0.90625,0 -1.140625,-0.53125 0.390625,0.046875 0.640625,-0.25 0.640625,-0.53125 0,-0.21875 -0.171875,-0.34375 -0.375,-0.34375 -0.265625,0 -0.5625,0.203125 -0.5625,0.65625 0,0.5625 0.578125,0.96875 1.421875,0.96875 1.625,0 2.015625,-1.203125 2.015625,-1.65625 0,-0.359375 -0.1875,-0.609375 -0.3125,-0.71875 -0.265625,-0.28125 -0.5625,-0.34375 -1,-0.421875 -0.359375,-0.078125 -0.75,-0.15625 -0.75,-0.609375 C 1.890625,-3.578125 2.125,-4.1875 3,-4.1875 c 0.25,0 0.75,0.078125 0.890625,0.453125 z m 0,0"
             id="path31"
             style="stroke-width:0.498091" />
        </g>
      </g>
      <g
         clip-path="url(#clipPath1220)"
         id="g25"
         transform="matrix(0.352778,0,0,0.352778,-0.181901,0.0410104)"
         style="stroke-width:0.498091">
        <g
           fill="#000000"
           fill-opacity="1"
           id="g23"
           style="stroke-width:0.259854">
          <g
             id="use21"
             transform="translate(4.6700001,5.7839999)"
             style="stroke-width:0.498091">
            <path
               d="m 2.1875,-4.625 c 0,-0.015625 0.015625,-0.109375 0.015625,-0.109375 0,-0.046875 -0.015625,-0.109375 -0.109375,-0.109375 -0.140625,0 -0.71875,0.0625 -0.890625,0.078125 -0.046875,0 -0.15625,0.015625 -0.15625,0.15625 0,0.09375 0.109375,0.09375 0.1875,0.09375 0.328125,0 0.328125,0.0625 0.328125,0.109375 0,0.046875 -0.015625,0.09375 -0.015625,0.15625 L 0.5625,-0.3125 c -0.046875,0.125 -0.046875,0.140625 -0.046875,0.15625 0,0.109375 0.09375,0.21875 0.25,0.21875 0.1875,0 0.265625,-0.125 0.3125,-0.28125 0.015625,-0.03125 0.3125,-1.265625 0.34375,-1.359375 0.5,0.046875 0.890625,0.21875 0.890625,0.578125 0,0.03125 0,0.0625 -0.015625,0.140625 -0.03125,0.09375 -0.03125,0.140625 -0.03125,0.21875 0,0.484375 0.40625,0.703125 0.75,0.703125 0.671875,0 0.875,-1.046875 0.875,-1.0625 0,-0.09375 -0.078125,-0.09375 -0.109375,-0.09375 -0.09375,0 -0.109375,0.046875 -0.140625,0.171875 C 3.5625,-0.625 3.375,-0.125 3.03125,-0.125 c -0.1875,0 -0.25,-0.171875 -0.25,-0.359375 0,-0.125 0,-0.140625 0.046875,-0.3125 0.015625,-0.03125 0.03125,-0.140625 0.03125,-0.21875 0,-0.625 -0.828125,-0.71875 -1.125,-0.734375 C 1.9375,-1.875 2.1875,-2.109375 2.3125,-2.21875 2.671875,-2.546875 3.015625,-2.875 3.40625,-2.875 c 0.078125,0 0.171875,0.015625 0.234375,0.09375 C 3.34375,-2.734375 3.28125,-2.5 3.28125,-2.390625 c 0,0.140625 0.109375,0.25 0.265625,0.25 0.203125,0 0.40625,-0.15625 0.40625,-0.4375 0,-0.234375 -0.171875,-0.5 -0.53125,-0.5 -0.40625,0 -0.765625,0.296875 -1.125,0.625 C 2,-2.1875 1.78125,-1.96875 1.484375,-1.84375 Z m 0,0"
               id="path35"
               style="stroke-width:0.498091" />
          </g>
        </g>
      </g>
    </g>
  </g>
</svg>
