<?xml version="1.0" encoding="UTF-8" standalone="no"?>
<svg
   xmlns:dc="http://purl.org/dc/elements/1.1/"
   xmlns:cc="http://creativecommons.org/ns#"
   xmlns:rdf="http://www.w3.org/1999/02/22-rdf-syntax-ns#"
   xmlns:svg="http://www.w3.org/2000/svg"
   xmlns="http://www.w3.org/2000/svg"
   xmlns:xlink="http://www.w3.org/1999/xlink"
   xmlns:sodipodi="http://sodipodi.sourceforge.net/DTD/sodipodi-0.dtd"
   xmlns:inkscape="http://www.inkscape.org/namespaces/inkscape"
   version="1.1"
   viewBox="0 0 152.51773 193.01894"
   id="svg114"
   sodipodi:docname="Bell_man.svg"
   width="152.51773"
   height="193.01895"
   inkscape:version="0.92.3 (2405546, 2018-03-11)">
  <metadata
     id="metadata118">
    <rdf:RDF>
      <cc:Work
         rdf:about="">
        <dc:format>image/svg+xml</dc:format>
        <dc:type
           rdf:resource="http://purl.org/dc/dcmitype/StillImage" />
        <dc:title></dc:title>
      </cc:Work>
    </rdf:RDF>
  </metadata>
  <sodipodi:namedview
     pagecolor="#ffffff"
     bordercolor="#666666"
     borderopacity="1"
     objecttolerance="10"
     gridtolerance="10"
     guidetolerance="10"
     inkscape:pageopacity="0"
     inkscape:pageshadow="2"
     inkscape:window-width="1920"
     inkscape:window-height="1137"
     id="namedview116"
     showgrid="false"
     inkscape:zoom="5.0741831"
     inkscape:cx="31.95923"
     inkscape:cy="101.47159"
     inkscape:window-x="-8"
     inkscape:window-y="-8"
     inkscape:window-maximized="1"
     inkscape:current-layer="svg114">
    <sodipodi:guide
       position="-38.162667,-17.27372"
       orientation="0,207.71599"
       id="guide978"
       inkscape:locked="false" />
    <sodipodi:guide
       position="169.55332,-17.27372"
       orientation="-210.29268,0"
       id="guide980"
       inkscape:locked="false" />
    <sodipodi:guide
       position="169.55332,193.01896"
       orientation="0,-207.71599"
       id="guide982"
       inkscape:locked="false" />
    <sodipodi:guide
       position="-38.162667,193.01896"
       orientation="210.29268,0"
       id="guide984"
       inkscape:locked="false" />
    <sodipodi:guide
       position="-38.162667,-17.27372"
       orientation="0,207.71599"
       id="guide986"
       inkscape:locked="false" />
    <sodipodi:guide
       position="169.55332,-17.27372"
       orientation="-210.29268,0"
       id="guide988"
       inkscape:locked="false" />
    <sodipodi:guide
       position="169.55332,193.01896"
       orientation="0,-207.71599"
       id="guide990"
       inkscape:locked="false" />
    <sodipodi:guide
       position="-38.162667,193.01896"
       orientation="210.29268,0"
       id="guide992"
       inkscape:locked="false" />
  </sodipodi:namedview>
  <defs
     id="defs18">
    <filter
       id="g"
       x="-0.11461"
       y="-0.24987"
       width="1.2292"
       height="1.4997">
      <feGaussianBlur
         stdDeviation="4.5975223"
         id="feGaussianBlur2" />
    </filter>
    <linearGradient
       id="i"
       x1="226.28999"
       x2="68.626999"
       y1="261.13"
       y2="263.85999"
       gradientTransform="scale(1.1364,0.87994)"
       gradientUnits="userSpaceOnUse"
       spreadMethod="reflect"
       xlink:href="#a" />
    <linearGradient
       id="h"
       x1="120.97"
       x2="26.955999"
       y1="813.28998"
       y2="813.28003"
       gradientTransform="scale(2.1038,0.47534)"
       gradientUnits="userSpaceOnUse"
       spreadMethod="reflect">
      <stop
         stop-color="#cc5a5d"
         offset="0"
         id="stop6" />
      <stop
         stop-color="#ffb712"
         offset="1"
         id="stop8" />
    </linearGradient>
    <linearGradient
       id="a">
      <stop
         stop-color="#cc955d"
         offset="0"
         id="stop11" />
      <stop
         stop-color="#ffdf32"
         offset="1"
         id="stop13" />
    </linearGradient>
    <radialGradient
       id="k"
       cx="215.95"
       cy="47.873001"
       r="44.682999"
       gradientTransform="scale(1.0667,0.9375)"
       gradientUnits="userSpaceOnUse"
       xlink:href="#a" />
    <radialGradient
       id="j"
       cx="122.4"
       cy="299.07999"
       r="105.41"
       gradientTransform="scale(1.0384,0.96301)"
       gradientUnits="userSpaceOnUse"
       xlink:href="#a" />
  </defs>
  <path
     d="m 46.808516,94.065326 c -2.2856,-0.50595 -2.8553,-0.93362 -2.1139,-3.8993 2.7738,-2.2174 10.347,0.19415 5.6702,3.5101 0,1.7264 -0.20345,-0.20013 1.6998,1.7032 1.3765,2.4295 1.2839,4.1637 -1.3568,4.713594 -1.2792,-0.319804 1.4915,0.60985 2.6708,1.1995 1.7911,0.89556 -0.76964,3.4517 -0.98551,3.6136 -2.5319,1.9098 -5.1833,2.2895 -7.8841,0.65701 -2.5447,-2.4143 -2.0659,-4.0618 1.0711,-4.399 -0.75768,-0.65368 -2.0326,-2.147094 -3.0422,-3.156594 -1.1989,-1.1989 -0.36385,-2.1642 -0.15725,-2.3707 0.7083,-0.70832 3.4258,-1.5714 4.4279,-1.5714 z"
     id="path20"
     inkscape:connector-curvature="0"
     style="fill:#ffe6e5;fill-rule:evenodd;stroke:#561c00;stroke-width:1.61600006" />
  <g
     transform="matrix(0.1169405,0.15639948,-0.15639948,0.1169405,51.718295,68.824532)"
     id="g34"
     style="stroke:#000000;stroke-width:10;stroke-linejoin:round">
    <g
       id="g30"
       style="fill-rule:evenodd">
      <path
         transform="matrix(0.8094,-0.58726,0.58726,0.8094,-133.76,168.14)"
         d="m 71.202,379.75 c 3.9558,64.082 393.2,47.468 384.49,3.955 20.57,-16.614 -258.7,-80.696 -384.49,-3.955 z"
         id="path22"
         inkscape:connector-curvature="0"
         style="fill:url(#h)" />
      <path
         transform="matrix(0.8094,-0.58726,0.58726,0.8094,-112.63,202.66)"
         d="m 170.1,371.84 c -70.411,0 -65.665,-92.564 -3.956,-93.355 62.5,0 79.114,94.146 3.956,93.355 z"
         id="path24"
         inkscape:connector-curvature="0"
         style="fill:url(#j)" />
      <path
         transform="matrix(0.8094,-0.58726,0.58726,0.8094,-133.76,168.14)"
         d="m 71.203,378.96 c 114.72,-66.46 359.18,-24.53 386.08,3.95 -42.72,-60.92 -75.16,-90.19 -85.44,-162.97 -17.41,-94.15 -50.64,-127.38 -113.93,-133.71 -59.33,4.751 -90.98,21.37 -103.64,113.14 -12.66,91.77 -40.35,132.12 -83.067,179.59 z"
         id="path26"
         inkscape:connector-curvature="0"
         style="fill:url(#i)" />
      <path
         transform="matrix(0.8094,-0.58726,0.58726,0.8094,-133.76,168.14)"
         d="m 255.54,87.025 c -32.437,0 -36.392,-37.975 -3.956,-41.139 33.228,0.7912 34.019,39.557 3.956,41.139 z"
         id="path28"
         inkscape:connector-curvature="0"
         style="fill:url(#k)" />
    </g>
    <path
       d="m 354.43,174.05 c -31.646,0 -153.48,36.392 -185.92,126.58"
       id="path32"
       inkscape:connector-curvature="0"
       style="fill:none" />
  </g>
  <g
     id="g42"
     style="fill:#552200;fill-rule:evenodd;stroke:#170800;stroke-width:1.61600006"
     transform="translate(-158.59833,-537.97275)">
    <path
       d="m 259.99,713.04 c -4.3428,-0.17626 -8.4005,-0.45311 -11.122,3.3255 -1.1367,4.3883 -0.16065,8.2359 3.7863,10.452 3.6685,1.3175 6.9277,0.31647 10.412,-0.9501 0.98679,-0.49525 2.4626,-0.47508 3.5497,-0.47508 4.7178,-2.0835 6.7258,-8.6622 5.6795,-13.539 -4.0634,-0.18494 -8.2349,0.7025 -12.306,1.1877 z"
       id="path38"
       inkscape:connector-curvature="0" />
    <path
       d="m 267.56,715.17 c -2.9743,4.9739 -3.9356,10.564 0.70994,14.727 7.4002,1.2441 13.696,-1.7195 20.825,-5.7008 0.67663,-3.761 1.7606,-10.624 -3.0764,-11.639 -7.1199,-1.4584 -12.841,-0.0968 -18.458,2.6129 z"
       id="path40"
       inkscape:connector-curvature="0" />
  </g>
  <path
     d="m 99.071671,105.27725 c -8.5359,1.9691 -19.271,2.6762 -27.988,0.98611 -4.9666,-1.7444 -7.2422,-7.679096 -9.8383,-12.214996 -1.4286,-1.4553 -4.8595,-2.0932 -5.8239,-3.0576 -3.5705,-1.991 -5.5412,4.9764 2.1429,8.2075 -1.1362,2.440596 -2.1508,2.386696 -1.9464,5.950896 0.20441,3.5642 3.1457,6.3715 2.6899,9.1772 0.33995,1.3598 4.3692,2.2366 5.2207,2.4495 12.685,-0.13221 21.748,1.0786 33.759,4.8995 2.5001,-1.2265 1.5457,-13.663 1.7845,-16.398 z"
     id="path44"
     inkscape:connector-curvature="0"
     style="fill:#ffe6e5;fill-rule:evenodd;stroke:#561c00;stroke-width:1.61600006" />
  <g
     id="g50"
     style="fill:#cbcbeb;fill-rule:evenodd;stroke:#0e0e26;stroke-width:1.61600006"
     transform="translate(-158.59833,-537.97275)">
    <path
       d="m 244.95,640.5 c -5.1704,-0.0228 -3.705,-1.1362 -8.8258,-1.4852 -5.8309,5.4102 -3.9376,13.543 -3.2711,19.654 5.5904,1.6014 5.4214,1.1475 9.8402,0.1712 5.8984,0.99029 11.483,-4.7308 13.14,-10.184 0.42982,-3.7379 -0.71598,-5.3663 -3.6136,-7.2271 -2.5462,0.17833 -4.6973,-1.3853 -7.2699,-0.92878 z"
       id="path46"
       inkscape:connector-curvature="0" />
    <path
       d="m 253.36,637.26 c -0.33716,0.69318 -1.0978,2.5072 -1.4199,3.8005 -0.27424,1.1011 -0.47327,1.9644 -0.47327,3.088 0,0.84664 -1.2344,2.478 -1.6565,3.3254 -0.66604,1.3371 -1.5098,1.7862 -1.8932,3.3255 -0.26316,1.0566 -0.86592,1.8139 -1.1832,3.088 -0.18634,0.74815 -0.70308,2.1103 -0.94657,3.0879 -0.36484,1.4648 -0.4733,2.6963 -0.4733,4.2756 0,1.4427 0.15176,2.7468 0.4733,4.038 0.37269,1.4964 0.59051,2.3732 1.1832,3.563 0.5895,1.1834 0.67531,2.0683 1.1832,3.0879 0.5699,1.1441 1.1655,1.8824 1.8932,2.6129 0.72456,0.7273 1.1674,1.9583 1.6565,2.6129 0.80546,1.078 1.2667,1.5649 2.6031,1.9003 1.2078,0.30306 2.3767,0.41826 3.5497,0.7126 1.172,0.29408 2.8215,0 4.023,0 1.4798,0 2.8497,-0.47506 4.4963,-0.47506 h 4.4963 c 2.0944,0 2.4981,0.0661 3.313,0.47506 1.022,0.51291 3.7346,-0.23754 4.9696,-0.23754 2.0201,0 3.2085,-0.71812 4.9696,-1.4252 1.2603,-0.50602 2.2866,-0.0787 3.5497,-0.71259 1.0589,-0.53144 2.0802,-0.18778 2.8397,-0.95013 0.71411,-0.71679 2.2994,-0.88287 3.313,-1.9003 1.042,-1.0459 1.5586,-2.2198 1.8932,-3.563 0.29898,-1.2004 0.23664,-2.5055 0.23664,-3.8006 0,-1.4802 -0.47328,-2.2266 -0.47328,-3.8005 0,-1.5254 -0.23664,-2.7432 -0.23664,-4.2756 v -4.9882 c 0,-2.2298 -0.4733,-4.2538 -0.4733,-6.4134 0,-1.7301 -0.76744,-4.0314 -1.1832,-5.7008 -0.36645,-1.4713 -1.3948,-3.2918 -2.1298,-4.2756 -0.72109,-0.96507 -0.95619,-2.4139 -1.1832,-3.3255 -0.27995,-1.124 -0.69219,-2.1932 -1.1832,-2.8504 -0.72025,-0.96395 -0.37528,-1.4948 -1.6565,-2.1378 -0.88865,-0.44599 -3.2394,0 -4.2596,0 -1.3087,0 -2.1771,-0.95014 -3.7864,-0.95014 h -5.6795 c -1.3418,0 -2.7215,-0.68888 -4.023,-0.95013 -1.3679,-0.27462 -3.1088,0 -4.4963,0 -1.9073,0 -3.435,1.0726 -4.4962,2.1378 -0.74537,0.74815 -1.8206,1.27 -2.6031,1.6627 -1.1028,0.55346 -1.8837,1.6501 -2.6031,2.6129 -1.0532,1.4095 -1.4424,1.6005 -2.1298,3.3255 z"
       id="path48"
       inkscape:connector-curvature="0" />
  </g>
  <path
     d="m 89.621671,19.117254 c -4.015,9.8356 -9.9538,18.899 -12.311,29.448 -1.7318,9.6379 0.89385,19.758 3.7573,28.981 4.5402,11.256 23.837999,11.67 34.946999,10.922 6.6667,-1.633 13.56,-4.4252 19.27,-8.3664 8.2,-9.6889 8.5733,-22.632 8.5953,-34.637 -1.5722,-10.398 -4.9869,-23.029 -13.931,-29.666 -6.1653,-5.3375 -9.8394,-4.6222 -18.13,-4.3263 -7.6696,-1.8514992 -16.030999,0.96688 -22.196999,7.6454 z"
     id="path52"
     inkscape:connector-curvature="0"
     style="fill:#ffe6e5;fill-rule:evenodd;stroke:#561c00;stroke-width:1.61600006" />
  <path
     d="m 84.431671,79.147254 c 1.0242,4.629 2.2168,9.1862 6.8986,10.841 7.1892,1.3053 13.020999,-2.317 16.096999,-8.5412"
     id="path54"
     inkscape:connector-curvature="0"
     style="fill:#ffe6d5;fill-rule:evenodd;stroke:#562200;stroke-width:1.61600006" />
  <path
     d="m 93.631671,35.127254 c -4.873,1.692 -16.226,3.3788 -19.382,9.5267 -0.39102,4.8375 1.5702,7.682 6.2416,8.5412 3.5135,-0.46711 7.2725,-1.4682 9.8552,-3.9421"
     id="path56"
     inkscape:connector-curvature="0"
     style="fill:#ffe6e5;fill-rule:evenodd;stroke:#561c00;stroke-width:1.61600006" />
  <path
     d="m 106.77167,22.647254 c -4.9336,-1.898 -8.749699,0.22697 -9.198199,6.2416 0.31826,3.5939 3.268699,4.9605 6.241599,6.2416 3.5013,0.48726 5.386,-1.4013 6.8986,-4.2706 0.63408,-3.9314 -0.51465,-6.404 -3.9421,-8.2126 z"
     id="path58"
     inkscape:connector-curvature="0"
     style="fill:#ffffff;fill-rule:evenodd;stroke:#333333;stroke-width:1.61600006" />
  <path
     d="m 100.58167,27.087254 c -0.30536,-1.2214 -2.281599,0.36446 -1.313999,2.2995 0.941329,1.8827 2.956599,-0.33815 2.956599,-1.6425 0,-0.5897 -1.095,-0.43802 -1.6425,-0.65701 z"
     id="path60"
     inkscape:connector-curvature="0"
     style="fill-rule:evenodd;stroke:#000000;stroke-width:1.61600006" />
  <path
     d="m 93.961671,24.947254 c -2.4331,-3.7014 -7.0542,-3.9749 -11.269,-0.0289 -3.1036,7.8834 3.1157,9.9136 8.3122,8.57 2.752,-1.9051 2.8214,-5.3841 2.9566,-8.5411 z"
     id="path62"
     inkscape:connector-curvature="0"
     style="fill:#ffffff;fill-rule:evenodd;stroke:#333333;stroke-width:1.61600006" />
  <g
     id="g68"
     style="fill-rule:evenodd;stroke:#000000;stroke-width:1.61600006"
     transform="translate(-158.59833,-537.97275)">
    <path
       d="m 244.58,565.47 c 0.0228,-1.4118 -3.7185,-0.48621 -2.2996,2.2995 0.10861,0.21337 4.6819,1.6711 2.2996,-2.2995 z"
       id="path64"
       inkscape:connector-curvature="0" />
    <path
       d="m 268,601.02 c -0.77186,-1.9954 -1.8927,-3.3678 -3.6136,-4.5991 -5.5518,-2.7759 -7.6881,-1.7617 -13.797,-1.314 -7.2781,0.53332 -12.596,1.8615 -11.826,6.5701 0.86769,4.3491 2.8809,5.905 7.2271,5.9131 5.2815,0.36396 9.1376,-2.5164 13.469,-4.9276 2.4819,-1.2597 3.0247,-1.913 4.0705,-4.399"
       id="path66"
       inkscape:connector-curvature="0" />
  </g>
  <path
     style="fill:none;stroke:#562200;stroke-width:1.61600006"
     inkscape:connector-curvature="0"
     id="path72"
     d="m 113.34167,58.777254 c -4.047,1.8006 -3.7204,5.7154 -3.9421,9.5267" />
  <g
     style="fill-rule:evenodd;stroke-width:1.61600006"
     id="g86"
     transform="translate(-158.59833,-537.97275)">
    <path
       style="fill:#4d4d4d;stroke:#1a1a1a"
       inkscape:connector-curvature="0"
       id="path74"
       d="m 276.63,561.76 c -11.729,-7.7184 -24.49,-5.361 -30.957,-7.9148 -16.475,-6.5063 -18.508,-19.374 9.78,-13.618 8.8381,1.7986 14.604,1.2125 25.05,2.0172 10.883,0.83848 13.052,7.4874 14.852,8.3979 5.7683,2.4487 12.568,19.946 11.734,25.083 0.49136,4.1351 -1.9638,5.6122 -4.9276,2.2995 -1.9167,-2.3644 -3.1026,-5.1537 -4.9276,-7.5556 -4.1824,-3.3685 -8.639,4.3162 -12.234,8.9068 -7.9206,1.7132 -4.7892,-9.8422 -8.3695,-17.617 z" />
    <path
       style="fill:#ffe6e5;stroke:#561c00"
       inkscape:connector-curvature="0"
       id="path76"
       d="m 290.67,572.77 c 5.2804,-4.6518 14.557,-0.56434 9.1982,7.2271 -2.5735,2.4502 -5.2341,3.5321 -7.8841,0.98552" />
    <g
       style="fill:#cbcbeb;stroke:#0e0e26"
       id="g82">
      <path
         inkscape:connector-curvature="0"
         id="path78"
         d="m 267.8,627.29 c 1.3771,3.0736 4.052,6.7616 4.0634,9.8352 5.0932,-3.0906 10.459,-4.6151 16.288,-5.322 3.1596,-0.22339 2.4301,-2.3582 0.94658,-4.2756 -3.0906,-3.1099 -6.8025,-2.8162 -10.886,-2.3753 -3.5325,0.40146 -6.9522,1.3464 -10.412,2.1378 z" />
      <path
         inkscape:connector-curvature="0"
         id="path80"
         d="m 256.24,629.24 c 3.4688,-0.51942 7.6157,-2.719 5.8267,-0.38204 -1.789,2.33696 -2.6629,6.9485 -4.9205,8.8884 -2.2245,-2.0197 -3.9742,-2.1912 -4.7733,-4.8088 1.3363,-3.5433 0.39838,-3.1781 3.8672,-3.6976 z" />
    </g>
    <path
       style="fill:#008000;stroke:#094709"
       inkscape:connector-curvature="0"
       id="path84"
       d="m 262.63,629.26 c 0.6949,-1.395 -0.91023,3.1666 -1.2871,4.6796 0.8547,2.0811 3.5295,2.2097 5.743,2.6129 2.31,-1.2314 2.5562,-3.8507 1.5873,-6.0338 -1.2789,-2.0083 -3.8698,-0.95906 -6.0432,-1.2587 z" />
  </g>
  <path
     style="fill:none;stroke:#0e0e26;stroke-width:1.61600006"
     inkscape:connector-curvature="0"
     id="path88"
     d="m 102.98167,123.74725 c -1.8791,5.8064 0.72708,11.416 1.0158,17.116" />
  <g
     style="fill-rule:evenodd;stroke-width:1.61600006"
     id="g96"
     transform="translate(-158.59833,-537.97275)">
    <path
       style="fill:#008000;stroke:#094709"
       inkscape:connector-curvature="0"
       id="path90"
       d="m 263.05,635.36 c -1.2586,3.4732 -1.286,6.7457 -3.6807,9.6515 -1.7748,2.766 -1.2155,6.081 -1.1325,9.2128 0.32661,2.9575 0.60734,7.7384 3.2147,11.714 4.2161,-3.104 1.1898,-7.1819 1.5985,-9.3742 3.0554,-3.819 3.8645,-7.9818 4.6717,-12.722 0.14869,-2.4022 -1.0652,-4.4989 -1.4157,-6.873 0,-0.58047 -0.79697,-0.92345 -1.2741,-1.1699 -0.69557,-0.35924 -1.0991,-0.43869 -1.9819,-0.43869 z" />
    <path
       style="fill:#0c0d1e;stroke:#020206"
       inkscape:connector-curvature="0"
       id="path92"
       d="m 249.65,675.21 c 0.54721,6.3156 5.1175,8.8693 9.1599,12.649 1.739,7.9454 -0.75032,16.141 1.6565,24.466 2.6932,1.6563 6.8278,1.1715 9.9391,0.57056 3.241,1.051 13.813,0.83238 16.802,-0.51059 -1.0183,-10.036 4.7907,-19.957 8.7559,-28.802 1.2726,-4.4762 2.473,-9.6166 -0.70992,-13.539 -5.7759,5.7495 -12.564,7.6011 -20.352,7.6011 -5.048,0.24265 -10.095,0.51947 -15.145,0.71262 -3.3611,-0.18299 -7.2498,-1.3864 -10.106,-3.1479 z" />
    <path
       style="fill:#ffe6e5;stroke:#561c00"
       inkscape:connector-curvature="0"
       id="path94"
       d="m 290.73,661.87 c 0.81022,2.8659 4.5331,4.9449 6.4928,7.1516 1.2069,1.2069 2.9859,0.62764 1.314,2.2995 -3.3015,3.4601 -5.6786,7.8938 -7.8841,12.155 -3.2,0.0701 -5.9514,-1.3798 -9.1982,-0.32852 0.16868,5.5354 4.7599,1.6949 4.2706,5.9131 -2.674,2.1229 -5.8966,3.2948 -3.6136,6.8986 1.5017,1.5017 4.9988,-2.8503 5.0031,-2.8546 1.4294,-1.4294 1.4657,-1.3392 0.90997,0.88363 -0.5705,2.282 -2.1243,1.4846 -1.4405,4.2196 3.3241,1.4479 4.833,-2.1003 6.0396,-4.8766 0.23568,2.2008 -1.8374,5.792 2.9566,4.1704 0.42502,-3.6961 0.41775,-5.6834 2.3259,-9.1226 0.90613,-0.90612 2.956,-2.3782 3.2587,-3.589 4.37,-4.9922 9.6752,-12.093 9.0986,-18.839 -4.3391,-3.0077 -4.6653,-7.8314 -8.3415,-11.004 -0.74123,-0.55591 -0.68591,-3.4498 -1.9201,-5.3562 -2.6706,-4.846 -13.09,-4.1113 -14.275,1.314 1.3293,3.2873 3.9046,7.2709 5.0031,10.965 z" />
  </g>
  <path
     style="fill:none;stroke:#020206;stroke-width:1.61600006"
     inkscape:connector-curvature="0"
     id="path98"
     d="m 110.62167,149.88725 c -2.36,3.6427 -2.5986,7.8746 -2.3665,12.114 0.81587,3.7551 0.82615,9.6011 1.6565,13.318" />
  <g
     style="fill-rule:evenodd;stroke-width:1.61600006"
     id="g104"
     transform="translate(-158.59833,-537.97275)">
    <path
       style="fill:#800000;stroke:#000000"
       inkscape:connector-curvature="0"
       id="path100"
       d="m 247.85,601.48 c -2.6711,-2.5476 -6.6258,-2.4904 -8.2854,0.57139 -0.29212,4.0628 5.2754,5.086 8.2854,4.857 2.9565,-0.27049 9.8723,-2.5118 10.857,-5.4284 -2.4274,-3.5598 -9.2783,-2.0286 -10.857,2e-5 z" />
    <path
       style="fill:#cbcbeb;stroke:#0e0e26"
       inkscape:connector-curvature="0"
       id="path102"
       d="m 288.82,662.67 c -5.3942,-4.7112 -8.2151,-9.6139 -8.245,-15.418 -0.0299,-5.804 2.9141,-9.9465 9.0695,-9.1365 2.3458,1.7934 4.6892,3.1716 7.4205,4.2828 3.709,2.3313 5.7488,6.2669 7.1456,10.279 -4.3232,4.5169 -10.568,6.1332 -15.391,9.9931 z" />
  </g>
  <g
     style="fill:none;stroke-width:1.61600006"
     id="g110"
     transform="translate(-158.59833,-537.97275)">
    <path
       style="stroke:#562200"
       inkscape:connector-curvature="0"
       id="path106"
       d="m 248.59,623.46 c 0.35937,-3.1864 5.6755,-3.4473 5.7141,0.5714" />
    <path
       style="stroke:#561c00"
       inkscape:connector-curvature="0"
       id="path108"
       d="m 293.06,574.47 c 7.7268,-3.2885 4.4318,5.3381 0.55704,3.8994" />
  </g>
</svg>
