<?xml version="1.0" encoding="UTF-8" standalone="no"?>
<!-- Created with Inkscape (http://www.inkscape.org/) -->

<svg
   xmlns:dc="http://purl.org/dc/elements/1.1/"
   xmlns:cc="http://creativecommons.org/ns#"
   xmlns:rdf="http://www.w3.org/1999/02/22-rdf-syntax-ns#"
   xmlns:svg="http://www.w3.org/2000/svg"
   xmlns="http://www.w3.org/2000/svg"
   xmlns:sodipodi="http://sodipodi.sourceforge.net/DTD/sodipodi-0.dtd"
   xmlns:inkscape="http://www.inkscape.org/namespaces/inkscape"
   width="971.18683"
   height="345.40292"
   id="svg2"
   sodipodi:version="0.32"
   inkscape:version="0.92.3 (2405546, 2018-03-11)"
   sodipodi:docname="Control_Loop.svg"
   inkscape:output_extension="org.inkscape.output.svg.inkscape"
   version="1.0">
  <sodipodi:namedview
     id="base"
     pagecolor="#ffffff"
     bordercolor="#666666"
     borderopacity="1.0"
     inkscape:pageopacity="0.0"
     inkscape:pageshadow="2"
     inkscape:zoom="2.56"
     inkscape:cx="248.49162"
     inkscape:cy="246.88005"
     inkscape:document-units="px"
     inkscape:current-layer="layer1"
     showgrid="false"
     inkscape:window-width="1920"
     inkscape:window-height="1137"
     inkscape:window-x="-8"
     inkscape:window-y="-8"
     showguides="true"
     inkscape:guide-bbox="true"
     inkscape:snap-global="false"
     inkscape:window-maximized="1"
     fit-margin-top="0"
     fit-margin-left="0"
     fit-margin-right="0"
     fit-margin-bottom="0">
    <inkscape:grid
       originy="-14.065238"
       originx="-2.15644"
       enabled="true"
       visible="true"
       id="grid6125"
       type="xygrid" />
    <sodipodi:guide
       inkscape:locked="false"
       id="guide6171"
       position="655.80482,680.13624"
       orientation="0,1" />
    <sodipodi:guide
       inkscape:locked="false"
       id="guide3526"
       position="859.84356,1077.9348"
       orientation="1,0" />
  </sodipodi:namedview>
  <defs
     id="defs4">
    <linearGradient
       id="linearGradient3262">
      <stop
         id="stop3264"
         offset="0"
         style="stop-color:#ffffff;stop-opacity:1;" />
      <stop
         id="stop3266"
         offset="1"
         style="stop-color:#ffffff;stop-opacity:0;" />
    </linearGradient>
    <marker
       style="overflow:visible"
       id="Arrow2Lend"
       refX="0"
       refY="0"
       orient="auto"
       inkscape:stockid="Arrow2Lend">
      <path
         inkscape:connector-curvature="0"
         transform="matrix(-1.1,0,0,-1.1,-1.1,0)"
         d="M 8.7185878,4.0337352 -2.2072895,0.01601326 8.7185884,-4.0017078 c -1.7454984,2.3720609 -1.7354408,5.6174519 -6e-7,8.035443 z"
         style="font-size:12px;fill-rule:evenodd;stroke-width:0.625;stroke-linejoin:round"
         id="path4339" />
    </marker>
    <inkscape:perspective
       id="perspective10"
       inkscape:persp3d-origin="372.04724 : 350.78739 : 1"
       inkscape:vp_z="744.09448 : 526.18109 : 1"
       inkscape:vp_y="0 : 1000 : 0"
       inkscape:vp_x="0 : 526.18109 : 1"
       sodipodi:type="inkscape:persp3d" />
    <marker
       style="overflow:visible"
       id="Arrow2Lend-5"
       refX="0"
       refY="0"
       orient="auto"
       inkscape:stockid="Arrow2Lend">
      <path
         inkscape:connector-curvature="0"
         transform="matrix(-1.1,0,0,-1.1,-1.1,0)"
         d="M 8.7185878,4.0337352 -2.2072895,0.01601326 8.7185884,-4.0017078 c -1.7454984,2.3720609 -1.7354408,5.6174519 -6e-7,8.035443 z"
         style="font-size:12px;fill-rule:evenodd;stroke-width:0.625;stroke-linejoin:round"
         id="path4339-9" />
    </marker>
    <inkscape:perspective
       id="perspective10-5"
       inkscape:persp3d-origin="372.04724 : 350.78739 : 1"
       inkscape:vp_z="744.09448 : 526.18109 : 1"
       inkscape:vp_y="0 : 1000 : 0"
       inkscape:vp_x="0 : 526.18109 : 1"
       sodipodi:type="inkscape:persp3d" />
  </defs>
  <metadata
     id="metadata7">
    <rdf:RDF>
      <cc:Work
         rdf:about="">
        <dc:format>image/svg+xml</dc:format>
        <dc:type
           rdf:resource="http://purl.org/dc/dcmitype/StillImage" />
        <dc:title></dc:title>
      </cc:Work>
    </rdf:RDF>
  </metadata>
  <g
     transform="translate(-143.62496,-433.53459)"
     inkscape:label="2"
     id="layer2"
     inkscape:groupmode="layer" />
  <g
     transform="translate(-143.62496,-433.53459)"
     id="layer1"
     inkscape:groupmode="layer"
     inkscape:label="Capa 1">
    <circle
       r="100.55331"
       cy="268.04639"
       cx="217.44653"
       transform="matrix(0.34961644,0,0,0.34932201,208.14506,481.44478)"
       id="path2434"
       style="fill:#000000;fill-opacity:1;stroke:#000000;stroke-width:9.51715279;stroke-linecap:round;stroke-linejoin:round;stroke-miterlimit:4;stroke-dasharray:none;stroke-dashoffset:0;stroke-opacity:1" />
    <circle
       r="100.55331"
       cy="268.04639"
       cx="217.44653"
       transform="matrix(0.34961644,0,0,0.34932201,206.08882,479.76859)"
       id="path2432"
       style="fill:#dddddd;fill-opacity:1;stroke:#000000;stroke-width:9.51715279;stroke-linecap:round;stroke-linejoin:round;stroke-miterlimit:4;stroke-dasharray:none;stroke-dashoffset:0;stroke-opacity:1" />
    <path
       inkscape:connector-curvature="0"
       id="text2425"
       d="m 285.93409,572.84636 c 0.0388,0.0775 0.0258,0.15501 -0.0388,0.23249 l -12.35185,14.80199 17.08317,0 c 0.0517,0 0.0969,-0.0129 0.13574,-0.0387 0.0387,-0.0258 0.0582,-0.0646 0.0582,-0.11626 l 0.91137,-4.01048 c -4e-5,-0.0258 0.0194,-0.0581 0.0582,-0.0969 0.0388,-0.0387 0.0969,-0.0581 0.17452,-0.0581 l 1.16344,0 c 0.1551,0 0.23266,0.0646 0.23269,0.19374 l 0,6.93602 c -3e-5,0.14206 -0.0776,0.2131 -0.23269,0.21311 l -23.67601,0 c -0.12926,-10e-6 -0.1939,-0.0711 -0.1939,-0.21311 l 0,-0.79436 c 0,-0.0517 0.0129,-0.0904 0.0388,-0.11625 l 12.91418,-15.51884 c 0.0517,-0.0775 0.0517,-0.15498 0,-0.23248 l -12.27429,-16.62318 c 0,-0.0258 -0.006,-0.0452 -0.0194,-0.0581 -0.0129,-0.0129 -0.0194,-0.0323 -0.0194,-0.0581 l 0,-0.83309 c 0,-0.12914 0.0646,-0.19372 0.19391,-0.19374 l 22.16353,0 c 0.1551,2e-5 0.23266,0.0646 0.23268,0.19374 l 0,6.21916 c -2e-5,0.1421 -0.0776,0.21314 -0.23268,0.21312 l -1.08588,0 c -0.0776,2e-5 -0.13576,-0.0129 -0.17451,-0.0388 -0.0388,-0.0258 -0.0582,-0.0645 -0.0582,-0.11624 l -1.18283,-4.49485 c -2e-5,-0.0516 -0.0194,-0.0904 -0.0582,-0.11626 -0.0388,-0.0258 -0.0711,-0.0387 -0.0969,-0.0387 l -14.62056,0 10.95573,14.76324 0,0 z"
       style="font-style:normal;font-variant:normal;font-weight:normal;font-stretch:normal;font-size:56px;line-height:100%;font-family:Verdana;-inkscape-font-specification:Verdana;text-align:start;writing-mode:lr-tb;text-anchor:start;fill:#000000;fill-opacity:1;stroke:none;stroke-width:1px;stroke-linecap:butt;stroke-linejoin:miter;stroke-opacity:1" />
    <text
       id="text3836"
       y="316.05032"
       x="-115.60039"
       style="font-style:normal;font-variant:normal;font-weight:normal;font-stretch:normal;line-height:0%;font-family:Verdana;-inkscape-font-specification:Verdana;text-align:start;writing-mode:lr-tb;text-anchor:start;fill:#000000;fill-opacity:1;stroke:none;stroke-width:1px;stroke-linecap:butt;stroke-linejoin:miter;stroke-opacity:1"
       xml:space="preserve"><tspan
         style="font-style:normal;font-variant:normal;font-weight:normal;font-stretch:normal;font-size:56px;line-height:100%;font-family:'Courier New';-inkscape-font-specification:'Courier New';text-align:start;writing-mode:lr-tb;text-anchor:start"
         y="316.05032"
         x="-115.60039"
         id="tspan3838"
         sodipodi:role="line"> </tspan></text>
    <path
       style="fill:#000000;fill-opacity:1;fill-rule:evenodd;stroke:none"
       d="m 406.6035,463.0368 0,2.05496 c 24.5668,-1e-5 36.84355,0 42.98525,0 3.07085,0 4.60896,0 5.37667,0 0.38386,0 0.57964,0 0.67561,0 0.048,0 0.0724,0 0.0844,0 l 0,-1.04156 0,-1.0134 c 0,0 0.0116,-1e-5 -49.12197,0 z"
       id="path6123"
       inkscape:connector-curvature="0" />
    <path
       d="m 433.57728,454.86677 24.90044,9.15652 -24.90044,9.15653 c 3.97805,-5.40601 3.95512,-12.80237 0,-18.31305 z"
       style="font-size:12px;fill-rule:evenodd;stroke-width:0.625;stroke-linejoin:round"
       id="path8181"
       inkscape:connector-curvature="0" />
    <path
       sodipodi:nodetypes="ccccccccccc"
       style="fill:#000000;fill-opacity:1;fill-rule:evenodd;stroke:none"
       d="m 781.00023,572.4845 0,2.0831 72.4322,0 4.04038,0 0.5187,0 0.0546,0 0.0272,0 0,-1.04155 0,-1.04155 -77.07317,0 z"
       id="path6157"
       inkscape:connector-curvature="0" />
    <path
       d="m 850.58146,564.33489 24.14832,9.15653 -24.14832,9.15652 c 3.85789,-5.406 3.83567,-12.80236 0,-18.31305 z"
       style="font-size:12px;fill-rule:evenodd;stroke-width:0.625;stroke-linejoin:round"
       id="path8175"
       inkscape:connector-curvature="0" />
    <path
       inkscape:connector-curvature="0"
       id="path7235"
       d="m 318.91584,572.00592 c 0,0 0,1.04155 0,1.04155 l 0,1.04156 c 0,0 0.009,-3e-5 88.6729,0 l 0,-2.08311 c -44.3321,-10e-6 -66.49873,0 -77.58175,0 -5.54151,0 -8.29826,0 -9.68364,0 -0.6927,0 -1.06544,0 -1.23861,0 -0.0866,0 -0.1191,0 -0.14075,0 -0.0108,0 -0.0254,0 -0.0281,0 z"
       style="fill:#000000;fill-opacity:1;fill-rule:evenodd;stroke:none;stroke-width:2.29999995;stroke-linecap:butt;stroke-linejoin:miter;stroke-miterlimit:4;stroke-dasharray:none;stroke-opacity:1" />
    <path
       style="fill:#000000;fill-opacity:1;fill-rule:evenodd;stroke:none"
       d="m 143.62501,571.69629 0,2.05496 c 50.85149,10e-6 76.26968,0 88.98255,0 6.35643,0 9.53019,0 11.1193,0 0.79456,0 1.20887,0 1.40751,0 0.0993,0 0.14407,0 0.1689,0 0.0124,0 0.025,0 0.0281,0 l 0,-1.0134 0,-1.04156 c 0,0 -0.004,2e-5 -101.70641,0 z"
       id="path2446"
       inkscape:connector-curvature="0" />
    <path
       d="m 223.17315,563.53324 24.90044,9.15653 -24.90045,9.15652 c 3.97805,-5.406 3.95514,-12.80236 1e-5,-18.31305 z"
       style="font-size:12px;fill-rule:evenodd;stroke-width:0.625;stroke-linejoin:round"
       id="path8167"
       inkscape:connector-curvature="0" />
    <path
       sodipodi:nodetypes="cccccccccc"
       inkscape:connector-curvature="0"
       id="path2608"
       d="m 281.50432,776.88254 0,2.05496 751.12448,0 0,-2.05496 -661.49448,0 -78.42625,0 -9.79624,0 -1.23861,0 -0.14075,0 z"
       style="fill:#000000;fill-opacity:1;fill-rule:evenodd;stroke:none;stroke-width:2.29999995;stroke-linecap:butt;stroke-linejoin:miter;stroke-miterlimit:4;stroke-dasharray:none;stroke-opacity:1" />
    <path
       inkscape:connector-curvature="0"
       id="text2628"
       d="m 697.61613,561.76771 0,-6.61991 -6.57605,0 0,-2.76653 6.57605,0 0,-6.57052 2.80182,0 0,6.57052 6.57605,0 0,2.76653 -6.57605,0 0,6.61991 -2.80182,0 z"
       style="font-style:normal;font-weight:normal;font-size:28px;font-family:'Bitstream Vera Sans';fill:#000000;fill-opacity:1;stroke:none;stroke-width:1px;stroke-linecap:butt;stroke-linejoin:miter;stroke-opacity:1" />
    <path
       inkscape:connector-curvature="0"
       id="text2632"
       d="m 724.1918,630.08962 0,-6.61991 -6.57604,0 0,-2.76653 6.57604,0 0,-6.57051 2.80183,0 0,6.57051 6.57605,0 0,2.76653 -6.57605,0 0,6.61991 -2.80183,0 z"
       style="font-style:normal;font-weight:normal;font-size:28px;font-family:'Bitstream Vera Sans';fill:#000000;fill-opacity:1;stroke:none;stroke-width:1px;stroke-linecap:butt;stroke-linejoin:miter;stroke-opacity:1" />
    <path
       style="fill:#000000;fill-opacity:1;fill-rule:evenodd;stroke:none"
       d="m 991.96524,572.45635 0,2.0831 c 59.89416,0 89.83566,0 104.80916,0 7.4867,0 11.2412,0 13.1128,0 0.9359,0 1.3974,0 1.6313,0 0.117,0 0.159,0 0.1883,0 0.014,0 0.028,0 0.031,0 l 0,-1.04155 0,-1.04155 c 0,0 0.015,0 -119.77286,0 z"
       id="path2470"
       inkscape:connector-curvature="0" />
    <path
       d="m 1087.0627,564.29784 27.7491,9.15653 -27.7491,9.15652 c 4.4331,-5.406 4.4075,-12.80236 0,-18.31305 z"
       style="font-size:12px;fill-rule:evenodd;stroke-width:0.625;stroke-linejoin:round"
       id="path8159"
       inkscape:connector-curvature="0" />
    <path
       id="rect2470"
       d="m 464.55635,439.70287 192.71769,0 0,61.82978 -192.71769,0 0,-61.82978 z"
       style="fill:#000000;fill-opacity:1;stroke:#000000;stroke-width:2.50000024;stroke-linecap:round;stroke-linejoin:round;stroke-miterlimit:4;stroke-dashoffset:0;stroke-opacity:1"
       inkscape:connector-curvature="0" />
    <path
       id="rect2468"
       d="m 458.98895,434.78459 192.7177,0 0,61.82978 -192.7177,0 0,-61.82978 z"
       style="fill:#dddddd;fill-opacity:1;stroke:#000000;stroke-width:2.50000024;stroke-linecap:round;stroke-linejoin:round;stroke-miterlimit:4;stroke-dashoffset:0;stroke-opacity:1"
       inkscape:connector-curvature="0" />
    <path
       inkscape:connector-curvature="0"
       id="path3323"
       d="m 406.09678,464.89469 c 10e-6,53.89951 0,80.8562 0,94.33107 0,6.73744 0,10.11054 0,11.7949 0,0.84218 0,1.25327 0,1.46381 0,0.10528 0,0.17073 0,0.19705 l 1.04156,0 1.04155,0 c 0,0 10e-6,0.0122 0,-107.78683 l -2.08311,0 z"
       style="fill:#000000;fill-opacity:1;fill-rule:evenodd;stroke:none;stroke-width:2.29999995;stroke-linecap:butt;stroke-linejoin:miter;stroke-miterlimit:4;stroke-dasharray:none;stroke-opacity:1" />
    <path
       style="fill:#000000;fill-opacity:1;fill-rule:evenodd;stroke:none"
       d="m 407.19466,572.00594 0,2.08311 c 24.5668,0 36.84354,0 42.98524,0 3.07085,0 4.60897,0 5.37668,0 0.38386,0 0.57964,0 0.6756,0 0.048,0 0.0724,0 0.0844,0 l 0,-1.04155 0,-1.04156 c 0,0 0.0116,0 -49.12197,0 z"
       id="path3325"
       inkscape:connector-curvature="0" />
    <path
       d="m 434.16984,563.85513 24.90044,9.15653 -24.90044,9.15652 c 3.97805,-5.406 3.95512,-12.80236 0,-18.31305 z"
       style="font-size:12px;fill-rule:evenodd;stroke-width:0.625;stroke-linejoin:round"
       id="path8151"
       inkscape:connector-curvature="0" />
    <rect
       y="545.1427"
       x="465.073"
       height="61.829777"
       width="191.63405"
       id="rect3329"
       style="fill:#000000;fill-opacity:1;stroke:#000000;stroke-width:2.5;stroke-linecap:round;stroke-linejoin:round;stroke-miterlimit:4;stroke-dasharray:none;stroke-dashoffset:0;stroke-opacity:1" />
    <rect
       y="540.22443"
       x="459.53696"
       height="61.829777"
       width="191.63405"
       id="rect3331"
       style="fill:#dddddd;fill-opacity:1;stroke:#000000;stroke-width:2.5;stroke-linecap:round;stroke-linejoin:round;stroke-miterlimit:4;stroke-dasharray:none;stroke-dashoffset:0;stroke-opacity:1" />
    <text
       transform="translate(-22.582686,278.33055)"
       id="text3333"
       y="-89"
       x="320"
       style="font-style:normal;font-variant:normal;font-weight:normal;font-stretch:normal;line-height:0%;font-family:Verdana;-inkscape-font-specification:Verdana;text-align:start;writing-mode:lr-tb;text-anchor:start;fill:#000000;fill-opacity:1;stroke:none;stroke-width:1px;stroke-linecap:butt;stroke-linejoin:miter;stroke-opacity:1"
       xml:space="preserve"><tspan
         style="line-height:0"
         y="-89"
         x="320"
         id="tspan3335"
         sodipodi:role="line"> </tspan></text>
    <path
       inkscape:connector-curvature="0"
       id="path3482"
       d="m 406.06863,573.38527 c -10e-6,53.89953 0,80.85619 0,94.33108 0,6.73744 0,10.11054 0,11.7949 0,0.84218 0,1.25326 0,1.46381 0,0.10528 0,0.14258 0,0.1689 0,0.0132 0,0.0249 0,0.0281 l 1.04156,0 1.04155,0 c 0,0 -1e-5,0.0122 0,-107.78684 l -2.08311,0 z"
       style="fill:#000000;fill-opacity:1;fill-rule:evenodd;stroke:none;stroke-width:2.29999995;stroke-linecap:butt;stroke-linejoin:miter;stroke-miterlimit:4;stroke-dasharray:none;stroke-opacity:1" />
    <path
       style="fill:#000000;fill-opacity:1;fill-rule:evenodd;stroke:none"
       d="m 406.35015,679.56758 0,2.05496 c 24.5668,1e-5 36.84355,0 42.98525,0 3.07085,0 4.60896,0 5.37667,0 0.38386,0 0.57964,0 0.6756,0 0.048,0 0.0724,0 0.0844,0 l 0,-1.0134 0,-1.04156 c 0,0 0.0116,10e-6 -49.12197,0 z"
       id="path3484"
       inkscape:connector-curvature="0" />
    <path
       d="m 433.32377,671.40645 24.90044,9.15653 -24.90044,9.15652 c 3.97805,-5.406 3.95512,-12.80236 0,-18.31305 z"
       style="font-size:12px;fill-rule:evenodd;stroke-width:0.625;stroke-linejoin:round"
       id="path8143"
       inkscape:connector-curvature="0" />
    <rect
       y="651.93958"
       x="463.71112"
       height="61.829777"
       width="192.88271"
       id="rect3494"
       style="fill:#000000;fill-opacity:1;stroke:#000000;stroke-width:2.5;stroke-linecap:round;stroke-linejoin:round;stroke-miterlimit:4;stroke-dasharray:none;stroke-dashoffset:0;stroke-opacity:1" />
    <rect
       y="647.02124"
       x="458.13901"
       height="61.829777"
       width="192.88271"
       id="rect3496"
       style="fill:#dddddd;fill-opacity:1;stroke:#000000;stroke-width:2.5;stroke-linecap:round;stroke-linejoin:round;stroke-miterlimit:4;stroke-dasharray:none;stroke-dashoffset:0;stroke-opacity:1" />
    <path
       inkscape:connector-curvature="0"
       id="text3520"
       d="m 493.70468,457.37941 c -3e-5,1.26801 -0.22115,2.44315 -0.66338,3.52541 -0.44227,1.08229 -1.06077,2.02047 -1.85552,2.81456 -0.98707,0.98623 -2.15358,1.72589 -3.49954,2.21899 -1.34599,0.49311 -3.04448,0.73966 -5.09547,0.73966 l -3.80719,0 0,10.66267 -3.80719,0 0,-28.6067 7.7682,0 c 1.7177,3e-5 3.17265,0.14412 4.36482,0.43226 1.19212,0.28821 2.24967,0.73969 3.17265,1.35446 1.08957,0.73008 1.93241,1.63944 2.52851,2.7281 0.59604,1.0887 0.89408,2.46556 0.89411,4.13059 l 0,0 z m -3.96102,0.0961 c -2e-5,-0.9862 -0.17307,-1.84434 -0.51916,-2.57442 -0.34613,-0.73003 -0.8717,-1.3256 -1.57671,-1.78671 -0.61532,-0.39702 -1.31715,-0.682 -2.1055,-0.85494 -0.78836,-0.17288 -1.78502,-0.25934 -2.98998,-0.25935 l -3.76873,0 0,11.43114 3.21111,0 c 1.53824,2e-5 2.78808,-0.13767 3.7495,-0.41305 0.96139,-0.27537 1.74335,-0.71404 2.34585,-1.31603 0.60247,-0.61477 1.02869,-1.26158 1.27867,-1.94041 0.24996,-0.67881 0.37493,-1.44088 0.37495,-2.28623 l 0,0 z"
       style="font-style:normal;font-variant:normal;font-weight:normal;font-stretch:normal;font-size:56px;line-height:125%;font-family:Verdana;-inkscape-font-specification:Verdana;text-align:start;writing-mode:lr-tb;text-anchor:start;fill:#000000;fill-opacity:1;stroke:none;stroke-width:1px;stroke-linecap:butt;stroke-linejoin:miter;stroke-opacity:1" />
    <path
       inkscape:connector-curvature="0"
       id="text3543"
       d="m 488.0351,584.3887 -11.30619,0 0,-2.92023 3.74951,0 0,-22.76625 -3.74951,0 0,-2.92022 11.30619,0 0,2.92022 -3.7495,0 0,22.76625 3.7495,0 0,2.92023 z"
       style="font-style:normal;font-variant:normal;font-weight:normal;font-stretch:normal;font-size:56px;line-height:125%;font-family:Verdana;-inkscape-font-specification:Verdana;text-align:start;writing-mode:lr-tb;text-anchor:start;fill:#000000;fill-opacity:1;stroke:none;stroke-width:1px;stroke-linecap:butt;stroke-linejoin:miter;stroke-opacity:1" />
    <path
       inkscape:connector-curvature="0"
       id="text3574"
       d="m 497.20696,678.01005 c -3e-5,2.60004 -0.56726,4.95671 -1.7017,7.07003 -1.13449,2.11332 -2.64391,3.75275 -4.52824,4.91827 -1.30755,0.80691 -2.76568,1.38968 -4.37442,1.7483 -1.60878,0.35863 -3.72709,0.53794 -6.35493,0.53794 l -7.22981,0 0,-28.60671 7.1529,0 c 2.79449,3e-5 5.01535,0.20176 6.66258,0.60518 1.6472,0.40348 3.04124,0.95743 4.18213,1.66184 1.94843,1.21679 3.46747,2.837 4.55709,4.86064 1.08957,2.02369 1.63437,4.42518 1.6344,7.20451 l 0,0 z m -3.98025,-0.0576 c -2e-5,-2.24139 -0.39099,-4.13057 -1.17291,-5.66755 -0.78198,-1.53695 -1.94848,-2.74729 -3.49954,-3.63108 -1.12807,-0.64037 -2.32663,-1.08544 -3.59568,-1.33524 -1.26908,-0.24972 -2.7881,-0.3746 -4.55708,-0.37462 l -3.57645,0 0,22.07462 3.57645,0 c 1.83307,0 3.43222,-0.13449 4.79744,-0.40347 1.36518,-0.26896 2.61822,-0.76846 3.75911,-1.49853 1.42287,-0.90937 2.49004,-2.10691 3.20151,-3.59265 0.71142,-1.48571 1.06713,-3.34288 1.06715,-5.57148 l 0,0 z"
       style="font-style:normal;font-variant:normal;font-weight:normal;font-stretch:normal;font-size:56px;line-height:125%;font-family:Verdana;-inkscape-font-specification:Verdana;text-align:start;writing-mode:lr-tb;text-anchor:start;fill:#000000;fill-opacity:1;stroke:none;stroke-width:1px;stroke-linecap:butt;stroke-linejoin:miter;stroke-opacity:1" />
    <circle
       r="100.55331"
       cy="268.04639"
       cx="217.44653"
       transform="matrix(0.34961644,0,0,0.34932201,673.19806,480.80201)"
       id="path3582"
       style="fill:#00000f;fill-opacity:0.94117647;stroke:#000000;stroke-width:9.51715279;stroke-linecap:round;stroke-linejoin:round;stroke-miterlimit:4;stroke-dasharray:none;stroke-dashoffset:0;stroke-opacity:1" />
    <circle
       r="100.55331"
       cy="268.04639"
       cx="217.44653"
       transform="matrix(0.34961644,0,0,0.34932201,671.14182,479.12582)"
       id="path3584"
       style="fill:#dddddd;fill-opacity:1;stroke:#000000;stroke-width:9.51715279;stroke-linecap:round;stroke-linejoin:round;stroke-miterlimit:4;stroke-dasharray:none;stroke-dashoffset:0;stroke-opacity:1" />
    <path
       inkscape:connector-curvature="0"
       id="path3586"
       d="m 750.98711,572.20359 c 0.0388,0.0775 0.0258,0.15501 -0.0388,0.23249 l -12.35185,14.80199 17.08314,0 c 0.0517,0 0.097,-0.0129 0.13579,-0.0387 0.0387,-0.0258 0.0582,-0.0646 0.0582,-0.11626 l 0.91135,-4.01048 c 0,-0.0258 0.0193,-0.0581 0.0582,-0.0969 0.0387,-0.0388 0.097,-0.0581 0.17454,-0.0581 l 1.16345,0 c 0.15505,0 0.23262,0.0646 0.23268,0.19375 l 0,6.93601 c -6e-5,0.14206 -0.0776,0.2131 -0.23268,0.21311 l -23.67602,0 c -0.12926,-10e-6 -0.19389,-0.0711 -0.19389,-0.21311 l 0,-0.79436 c 0,-0.0517 0.0129,-0.0904 0.0388,-0.11625 l 12.91418,-15.51883 c 0.0517,-0.0775 0.0517,-0.155 0,-0.2325 l -12.2744,-16.6232 c 0,-0.0258 -0.006,-0.0452 -0.0194,-0.0581 -0.0129,-0.0129 -0.0194,-0.0323 -0.0194,-0.0581 l 0,-0.83309 c 0,-0.12914 0.0646,-0.19372 0.19391,-0.19374 l 22.16351,0 c 0.15513,2e-5 0.23269,0.0646 0.23269,0.19374 l 0,6.21916 c 0,0.1421 -0.0776,0.21314 -0.23269,0.21312 l -1.08589,0 c -0.0775,2e-5 -0.13571,-0.0129 -0.17446,-0.0388 -0.0388,-0.0258 -0.0582,-0.0646 -0.0582,-0.11624 l -1.18279,-4.49485 c -8e-5,-0.0516 -0.0194,-0.0904 -0.0582,-0.11626 -0.0388,-0.0258 -0.0712,-0.0387 -0.097,-0.0387 l -14.62057,0 10.95573,14.76324 0,0 z"
       style="font-style:normal;font-variant:normal;font-weight:normal;font-stretch:normal;font-size:56px;line-height:100%;font-family:Verdana;-inkscape-font-specification:Verdana;text-align:start;writing-mode:lr-tb;text-anchor:start;fill:#000000;fill-opacity:1;stroke:none;stroke-width:1px;stroke-linecap:butt;stroke-linejoin:miter;stroke-opacity:1" />
    <path
       inkscape:connector-curvature="0"
       id="path3588"
       d="m 655.4506,462.98048 0,2.08311 c 46.35422,0 69.55381,0 81.14237,0 5.79428,0 8.68715,0 10.13571,0 0.72428,0 1.09297,0 1.27405,0 0.0905,0 0.11893,0 0.14156,0 0.0113,0 0.0255,0 0.0283,0 l 0,-1.04156 0,-1.04155 c 0,0 -0.0136,10e-6 -92.722,0 z"
       style="fill:#000000;fill-opacity:1;fill-rule:evenodd;stroke:none;stroke-width:2.29999948;stroke-linecap:butt;stroke-linejoin:miter;stroke-miterlimit:4;stroke-dasharray:none;stroke-opacity:1" />
    <path
       style="fill:#000000;fill-opacity:1;fill-rule:evenodd;stroke:none"
       d="m 657.13964,572.5971 0,2.05496 c 26.13997,-10e-6 39.20897,0 45.74396,0 3.2675,0 4.8976,0 5.71448,0 0.40843,0 0.62979,0 0.7319,0 0.0511,0 0.0717,0 0.0844,0 l 0,-1.01341 0,-1.04155 c 0,0 0.005,-2e-5 -52.27479,0 z"
       id="path4632"
       inkscape:connector-curvature="0" />
    <path
       d="m 687.2702,564.4339 24.90044,9.15653 -24.90044,9.15652 c 3.97805,-5.406 3.95512,-12.80236 0,-18.31305 z"
       style="font-size:12px;fill-rule:evenodd;stroke-width:0.625;stroke-linejoin:round"
       id="path8135"
       inkscape:connector-curvature="0" />
    <path
       inkscape:connector-curvature="0"
       id="path4721"
       d="m 655.0002,680.77801 0,2.05496 c 47.00533,0 70.50334,0 82.25467,0 5.87567,0 8.83404,0 10.30295,0 0.73446,0 1.08314,0 1.26676,0 0.0918,0 0.14594,0 0.1689,0 0.0115,0 0.0253,0 0.0281,0 l 0,-1.04156 0,-1.0134 c 0,0 -0.0108,10e-6 -94.02143,0 z"
       style="fill:#000000;fill-opacity:1;fill-rule:evenodd;stroke:none;stroke-width:2.29999948;stroke-linecap:butt;stroke-linejoin:miter;stroke-miterlimit:4;stroke-dasharray:none;stroke-opacity:1" />
    <path
       style="fill:#000000;fill-opacity:1;fill-rule:evenodd;stroke:none"
       d="m 747.1919,613.25643 c 0,0 0,-0.0173 0,69.18582 l 2.05496,0 c 0,-34.60157 0,-51.88026 0,-60.53065 0,-4.3252 0,-6.49197 0,-7.57327 0,-0.54065 0,-0.80803 0,-0.94319 0,-0.0676 0,-0.12181 0,-0.13871 l -1.0134,0 -1.04156,0 z"
       id="path4723"
       inkscape:connector-curvature="0" />
    <path
       d="m 739.02834,635.07924 9.15653,-24.53847 9.15652,24.53847 c -5.40601,-3.92022 -12.80236,-3.89764 -18.31305,0 z"
       style="font-size:12px;fill-rule:evenodd;stroke-width:0.625;stroke-linejoin:round"
       id="path8127"
       inkscape:connector-curvature="0" />
    <path
       inkscape:connector-curvature="0"
       id="text7079"
       d="m 724.17904,534.80818 0,-6.61991 -6.57605,0 0,-2.76653 6.57605,0 0,-6.57051 2.80183,0 0,6.57051 6.57605,0 0,2.76653 -6.57605,0 0,6.61991 -2.80183,0 z"
       style="font-style:normal;font-weight:normal;font-size:28px;font-family:'Bitstream Vera Sans';fill:#000000;fill-opacity:1;stroke:none;stroke-width:1px;stroke-linecap:butt;stroke-linejoin:miter;stroke-opacity:1" />
    <rect
       style="fill:#000000;fill-opacity:1;stroke:#000000;stroke-width:2.49999976;stroke-linecap:round;stroke-linejoin:round;stroke-miterlimit:4;stroke-dasharray:none;stroke-dashoffset:0;stroke-opacity:1"
       id="rect7089"
       width="135.67393"
       height="62.368107"
       x="879.07281"
       y="544.75092" />
    <rect
       y="540.901"
       x="875.21967"
       height="62.368107"
       width="135.67393"
       id="rect7083"
       style="fill:#dddddd;fill-opacity:1;stroke:#000000;stroke-width:2.49999976;stroke-linecap:round;stroke-linejoin:round;stroke-miterlimit:4;stroke-dasharray:none;stroke-dashoffset:0;stroke-opacity:1" />
    <text
       xml:space="preserve"
       style="font-style:normal;font-weight:bold;line-height:0%;font-family:sans-serif;-inkscape-font-specification:'Sans Bold';letter-spacing:0px;word-spacing:0px;fill:#000000;fill-opacity:1;stroke:none"
       x="889.46851"
       y="569.25275"
       id="text3133"><tspan
         sodipodi:role="line"
         id="tspan3135"
         x="889.46851"
         y="569.25275"
         style="font-weight:bold;font-size:24px;line-height:87.99999952%;font-family:sans-serif;-inkscape-font-specification:'Sans Bold'">Plant /</tspan><tspan
         sodipodi:role="line"
         x="889.46851"
         y="590.37274"
         style="font-weight:bold;font-size:24px;line-height:87.99999952%;font-family:sans-serif;-inkscape-font-specification:'Sans Bold'"
         id="tspan3137">Process</tspan></text>
    <path
       inkscape:connector-curvature="0"
       id="path7109"
       d="m 1030.6583,574.70833 c 0,101.38946 0,152.08288 0,177.43025 0,12.67368 0,19.01388 0,22.1823 0,1.58421 0,2.39081 0,2.78686 0,0.19803 0,0.2883 0,0.3378 0,0.0248 0,0.022 0,0.0281 0,0.003 0,0.0274 0,0.0281 l 2.055,0 c 0,0 0,-0.0146 0,-202.79351 l -2.055,0 z"
       style="fill:#000000;fill-opacity:1;fill-rule:evenodd;stroke:none;stroke-width:2.29999995;stroke-linecap:butt;stroke-linejoin:miter;stroke-miterlimit:4;stroke-dasharray:none;stroke-opacity:1" />
    <path
       style="fill:#000000;fill-opacity:1;fill-rule:evenodd;stroke:none"
       d="m 281.02578,615.10379 c 0,0 10e-6,-0.006 0,162.84849 l 2.08311,0 c 1e-5,-81.42747 0,-122.13908 0,-142.49595 0,-10.17844 0,-15.27442 0,-17.81903 0,-1.2723 0,-1.90579 0,-2.22386 0,-0.15904 0,-0.24174 0,-0.2815 0,-0.0199 0,-0.0231 0,-0.0281 l -2.08311,0 z"
       id="path7634"
       inkscape:connector-curvature="0" />
    <path
       d="m 272.87312,637.25442 9.15653,-24.90045 9.15652,24.90045 c -5.40601,-3.97805 -12.80237,-3.95514 -18.31305,0 z"
       style="font-size:12px;fill-rule:evenodd;stroke-width:0.625;stroke-linejoin:round"
       id="path8119"
       inkscape:connector-curvature="0" />
    <path
       inkscape:connector-curvature="0"
       id="text7640"
       d="m 321.0239,627.38821 h -18.35132 v -3.47737 h 18.35132 z"
       style="font-style:normal;font-variant:normal;font-weight:normal;font-stretch:normal;font-size:56px;line-height:125%;font-family:Verdana;-inkscape-font-specification:Verdana;text-align:start;writing-mode:lr-tb;text-anchor:start;fill:#000000;fill-opacity:1;stroke:none;stroke-width:1px;stroke-linecap:butt;stroke-linejoin:miter;stroke-opacity:1" />
    <path
       style="fill:#000000;fill-opacity:1;fill-rule:evenodd;stroke:none"
       d="m 748.10792,533.72806 c 0,0 0,0.0176 0,-70.20642 l -2.05496,0 c 0,35.112 0,52.64558 0,61.42358 0,4.389 0,6.58773 0,7.68499 0,0.54862 0,0.81994 0,0.9571 0,0.0685 0,0.12361 0,0.14075 l 1.0134,0 1.04156,0 z"
       id="path2489"
       inkscape:connector-curvature="0" />
    <path
       d="m 756.27148,511.58333 -9.15653,24.90045 -9.15652,-24.90045 c 5.40601,3.97805 12.80237,3.95514 18.31305,0 z"
       style="font-size:12px;fill-rule:evenodd;stroke-width:0.625;stroke-linejoin:round"
       id="path2491"
       inkscape:connector-curvature="0" />
    <g
       id="layer2-2"
       inkscape:label="2"
       transform="translate(525.90025,280.3842)" />
    <text
       id="text3836-9"
       y="596.43451"
       x="410.29987"
       style="font-style:normal;font-variant:normal;font-weight:normal;font-stretch:normal;line-height:0%;font-family:Verdana;-inkscape-font-specification:Verdana;text-align:start;writing-mode:lr-tb;text-anchor:start;fill:#000000;fill-opacity:1;stroke:none"
       xml:space="preserve"><tspan
         style="font-style:normal;font-variant:normal;font-weight:normal;font-stretch:normal;font-size:56px;line-height:100%;font-family:'Courier New';-inkscape-font-specification:'Courier New';text-align:start;writing-mode:lr-tb;text-anchor:start"
         y="596.43451"
         x="410.29987"
         id="tspan3838-8"
         sodipodi:role="line"> </tspan></text>
    <text
       id="text3333-1"
       y="469.71475"
       x="823.31757"
       style="font-style:normal;font-variant:normal;font-weight:normal;font-stretch:normal;line-height:0%;font-family:Verdana;-inkscape-font-specification:Verdana;text-align:start;writing-mode:lr-tb;text-anchor:start;fill:#000000;fill-opacity:1;stroke:none"
       xml:space="preserve"><tspan
         style="line-height:0"
         y="469.71475"
         x="823.31757"
         id="tspan3335-4"
         sodipodi:role="line"> </tspan></text>
    <g
       style="stroke-width:0.5171926"
       id="g1021"
       transform="matrix(1.9335157,0,0,1.9335157,771.76517,-467.48408)">
      <g
         word-spacing="normal"
         letter-spacing="normal"
         font-size-adjust="none"
         font-stretch="normal"
         font-weight="normal"
         font-variant="normal"
         font-style="normal"
         stroke-miterlimit="10.433"
         xml:space="preserve"
         transform="matrix(0.49343274,0,0,-0.49343274,-86.35073,728.39012)"
         id="g1019"
         style="font-style:normal;font-variant:normal;font-weight:normal;font-stretch:normal;letter-spacing:normal;word-spacing:normal;text-anchor:start;fill:none;fill-opacity:1;fill-rule:evenodd;stroke:#000000;stroke-width:0.5171926;stroke-linecap:butt;stroke-linejoin:miter;stroke-miterlimit:10.43299961;stroke-dasharray:none;stroke-dashoffset:0;stroke-opacity:1"><path
           id="path1015"
           d="m 479.74,425.18 0.01,0.04 0.01,0.03 0.01,0.06 0.02,0.05 0.01,0.06 0.01,0.05 0.02,0.04 0.01,0.05 0.01,0.04 0.01,0.04 v 0.04 l 0.01,0.04 0.01,0.04 0.01,0.03 v 0.03 l 0.01,0.03 v 0.03 l 0.01,0.03 v 0.03 l 0.01,0.05 v 0.06 0.05 0.05 l 0.01,0.05 v 0.03 0.03 0.03 0.03 c 0,0.91 -0.69,1.35 -1.44,1.35 -0.5,0 -1.3,-0.3 -1.75,-1.05 -0.1,-0.25 -0.5,-1.78 -0.69,-2.69 -0.36,-1.29 -0.7,-2.64 -1,-3.98 l -2.25,-8.97 c -0.19,-0.75 -2.33,-4.23 -5.62,-4.23 -2.54,0 -3.1,2.18 -3.1,4.03 0,2.29 0.86,5.39 2.55,9.76 0.8,2.05 1,2.6 1,3.6 0,2.23 -1.59,4.07 -4.09,4.07 -4.74,0 -6.58,-7.21 -6.58,-7.67 0,-0.5 0.5,-0.5 0.61,-0.5 0.5,0 0.54,0.11 0.79,0.91 1.35,4.69 3.33,6.17 5.03,6.17 0.4,0 1.25,0 1.25,-1.59 0,-1.25 -0.5,-2.53 -0.85,-3.49 -1.99,-5.28 -2.9,-8.12 -2.9,-10.47 0,-4.42 3.15,-5.92 6.08,-5.92 1.96,0 3.64,0.85 5.03,2.24 -0.64,-2.58 -1.23,-5.03 -3.23,-7.68 -1.3,-1.68 -3.19,-3.14 -5.48,-3.14 -0.69,0 -2.94,0.16 -3.79,2.1 0.8,0 1.46,0 2.14,0.61 0.5,0.43 1,1.09 1,2.03 0,1.55 -1.34,1.75 -1.84,1.75 -1.14,0 -2.8,-0.8 -2.8,-3.24 0,-2.5 2.21,-4.34 5.29,-4.34 5.14,0 10.26,4.55 11.67,10.17 z"
           inkscape:connector-curvature="0"
           style="fill:#000000;stroke-width:0" /><path
           id="path1017"
           d="m 490.91,421.9 v 0.01 0 0 0.01 0 l 0.01,0.01 v 0.01 0 0.01 l 0.01,0.01 v 0.01 l 0.01,0.02 v 0.02 l 0.01,0.02 v 0.02 l 0.01,0.02 v 0.02 l 0.01,0.03 0.01,0.02 0.01,0.05 0.01,0.04 0.01,0.03 v 0.02 l 0.01,0.02 v 0.02 l 0.01,0.02 v 0.02 0.02 l 0.01,0.01 v 0.01 0.01 0 0.01 0 0.01 h 0.01 v 0.01 0 0 0.01 0 c 0,0.19 -0.14,0.5 -0.57,0.5 -0.68,0 -3.57,-0.28 -4.45,-0.36 -0.28,-0.03 -0.76,-0.06 -0.76,-0.8 0,-0.48 0.48,-0.48 0.9,-0.48 1.67,0 1.67,-0.25 1.67,-0.53 0,-0.24 -0.07,-0.46 -0.14,-0.77 l -4.92,-19.72 c -0.17,-0.62 -0.17,-0.68 -0.17,-0.76 0,-0.52 0.42,-1.11 1.19,-1.11 0.93,0 1.39,0.69 1.61,1.45 0.06,0.14 1.56,6.28 1.7,6.77 2.47,-0.25 4.45,-1.05 4.45,-2.86 0,-0.17 0,-0.35 -0.06,-0.69 -0.14,-0.53 -0.14,-0.7 -0.14,-1.09 0,-2.47 2.02,-3.58 3.69,-3.58 3.39,0 4.43,5.29 4.43,5.33 0,0.45 -0.45,0.45 -0.56,0.45 -0.48,0 -0.53,-0.17 -0.7,-0.84 -0.41,-1.5 -1.36,-3.97 -3.06,-3.97 -0.94,0 -1.22,0.87 -1.22,1.81 0,0.59 0,0.66 0.2,1.56 0.05,0.11 0.19,0.7 0.19,1.1 0,3.09 -4.19,3.57 -5.66,3.68 1.02,0.63 2.3,1.78 2.89,2.3 1.78,1.67 3.53,3.31 5.47,3.31 0.42,0 0.88,-0.11 1.16,-0.45 -1.5,-0.25 -1.81,-1.42 -1.81,-1.95 0,-0.77 0.59,-1.29 1.39,-1.29 0.95,0 1.98,0.77 1.98,2.22 0,1.16 -0.83,2.44 -2.67,2.44 -1.99,0 -3.8,-1.42 -5.58,-3.06 -1.47,-1.39 -2.61,-2.47 -4.05,-3.06 z"
           inkscape:connector-curvature="0"
           style="fill:#000000;stroke-width:0" /></g>    </g>
    <g
       style="stroke-width:0.5171926"
       transform="matrix(1.9335157,0,0,1.9335157,-99.800325,-469.45783)"
       id="g1235">
      <g
         style="font-style:normal;font-variant:normal;font-weight:normal;font-stretch:normal;letter-spacing:normal;word-spacing:normal;text-anchor:start;fill:none;fill-opacity:1;fill-rule:evenodd;stroke:#000000;stroke-width:0.26748818;stroke-linecap:butt;stroke-linejoin:miter;stroke-miterlimit:10.43299961;stroke-dasharray:none;stroke-dashoffset:0;stroke-opacity:1"
         id="g1233"
         transform="matrix(0.49343274,0,0,-0.49343274,-86.35073,728.39012)"
         xml:space="preserve"
         stroke-miterlimit="10.433"
         font-style="normal"
         font-variant="normal"
         font-weight="normal"
         font-stretch="normal"
         font-size-adjust="none"
         letter-spacing="normal"
         word-spacing="normal"><path
           style="fill:#000000;stroke-width:0"
           inkscape:connector-curvature="0"
           d="m 479.74,425.18 0.01,0.04 0.01,0.03 0.01,0.06 0.02,0.05 0.01,0.06 0.01,0.05 0.02,0.04 0.01,0.05 0.01,0.04 0.01,0.04 v 0.04 l 0.01,0.04 0.01,0.04 0.01,0.03 v 0.03 l 0.01,0.03 v 0.03 l 0.01,0.03 v 0.03 l 0.01,0.05 v 0.06 0.05 0.05 l 0.01,0.05 v 0.03 0.03 0.03 0.03 c 0,0.91 -0.69,1.35 -1.44,1.35 -0.5,0 -1.3,-0.3 -1.75,-1.05 -0.1,-0.25 -0.5,-1.78 -0.69,-2.69 -0.36,-1.29 -0.7,-2.64 -1,-3.98 l -2.25,-8.97 c -0.19,-0.75 -2.33,-4.23 -5.62,-4.23 -2.54,0 -3.1,2.18 -3.1,4.03 0,2.29 0.86,5.39 2.55,9.76 0.8,2.05 1,2.6 1,3.6 0,2.23 -1.59,4.07 -4.09,4.07 -4.74,0 -6.58,-7.21 -6.58,-7.67 0,-0.5 0.5,-0.5 0.61,-0.5 0.5,0 0.54,0.11 0.79,0.91 1.35,4.69 3.33,6.17 5.03,6.17 0.4,0 1.25,0 1.25,-1.59 0,-1.25 -0.5,-2.53 -0.85,-3.49 -1.99,-5.28 -2.9,-8.12 -2.9,-10.47 0,-4.42 3.15,-5.92 6.08,-5.92 1.96,0 3.64,0.85 5.03,2.24 -0.64,-2.58 -1.23,-5.03 -3.23,-7.68 -1.3,-1.68 -3.19,-3.14 -5.48,-3.14 -0.69,0 -2.94,0.16 -3.79,2.1 0.8,0 1.46,0 2.14,0.61 0.5,0.43 1,1.09 1,2.03 0,1.55 -1.34,1.75 -1.84,1.75 -1.14,0 -2.8,-0.8 -2.8,-3.24 0,-2.5 2.21,-4.34 5.29,-4.34 5.14,0 10.26,4.55 11.67,10.17 z"
           id="path1227" /><path
           style="fill:#000000;stroke-width:0"
           inkscape:connector-curvature="0"
           d="m 493.05,432.87 0.26,0.12 0.26,0.11 0.24,0.11 0.24,0.1 0.23,0.1 0.22,0.1 0.21,0.09 0.21,0.09 0.2,0.08 0.19,0.08 0.18,0.08 0.18,0.07 0.17,0.08 0.16,0.06 0.16,0.07 0.15,0.06 0.14,0.06 0.14,0.06 0.14,0.06 0.13,0.05 0.12,0.06 0.12,0.05 0.11,0.05 0.11,0.04 0.11,0.05 0.1,0.04 0.19,0.09 0.18,0.08 0.17,0.08 c 0.67,0.27 0.98,0.41 0.98,1.08 0,0.59 -0.45,1.11 -1.08,1.11 -0.25,0 -0.31,0 -0.73,-0.31 l -4.74,-3.17 0.52,5.15 c 0.08,0.63 0,1.5 -1.05,1.5 -0.42,0 -1.08,-0.28 -1.08,-1.04 0,-0.32 0.15,-1.36 0.18,-1.71 0.07,-0.59 0.31,-3.11 0.39,-3.9 l -4.71,3.17 c -0.36,0.2 -0.45,0.31 -0.76,0.31 -0.64,0 -1.1,-0.52 -1.1,-1.11 0,-0.7 0.43,-0.87 0.74,-1.01 l 5.26,-2.19 c -2.85,-1.27 -4.14,-1.75 -5.01,-2.17 -0.66,-0.29 -0.99,-0.43 -0.99,-1.08 0,-0.6 0.46,-1.11 1.1,-1.11 0.23,0 0.31,0 0.72,0.31 l 4.75,3.17 -0.57,-5.61 c 0,-0.76 0.66,-1.04 1.08,-1.04 0.42,0 1.08,0.28 1.08,1.04 0,0.32 -0.14,1.36 -0.17,1.71 -0.06,0.59 -0.31,3.09 -0.38,3.9 l 4.18,-2.79 c 0.9,-0.69 0.98,-0.69 1.29,-0.69 0.63,0 1.08,0.51 1.08,1.11 0,0.7 -0.42,0.87 -0.73,1.01 z"
           id="path1229" /><path
           style="fill:#000000;stroke-width:0"
           inkscape:connector-curvature="0"
           d="m 490.91,415.18 v 0 0.01 0 0.01 0 l 0.01,0.01 v 0 0.01 0.01 h 0.01 v 0.02 l 0.01,0.02 v 0.02 l 0.01,0.02 v 0.02 l 0.01,0.02 v 0.02 l 0.01,0.02 0.01,0.03 0.01,0.04 0.01,0.05 0.01,0.02 v 0.03 l 0.01,0.02 v 0.02 l 0.01,0.02 v 0.02 0.01 l 0.01,0.02 v 0.01 0 0.01 0.01 0 0.01 h 0.01 v 0.01 0 0 0.01 0 c 0,0.18 -0.14,0.5 -0.57,0.5 -0.68,0 -3.57,-0.28 -4.45,-0.36 -0.28,-0.03 -0.76,-0.07 -0.76,-0.8 0,-0.48 0.48,-0.48 0.9,-0.48 1.67,0 1.67,-0.25 1.67,-0.54 0,-0.23 -0.07,-0.45 -0.14,-0.76 l -4.92,-19.72 c -0.17,-0.62 -0.17,-0.69 -0.17,-0.77 0,-0.51 0.42,-1.1 1.19,-1.1 0.93,0 1.39,0.68 1.61,1.45 0.06,0.14 1.56,6.28 1.7,6.76 2.47,-0.25 4.45,-1.04 4.45,-2.86 0,-0.17 0,-0.34 -0.06,-0.68 -0.14,-0.53 -0.14,-0.71 -0.14,-1.1 0,-2.47 2.02,-3.57 3.69,-3.57 3.39,0 4.43,5.29 4.43,5.32 0,0.46 -0.45,0.46 -0.56,0.46 -0.48,0 -0.53,-0.18 -0.7,-0.85 -0.41,-1.5 -1.36,-3.97 -3.06,-3.97 -0.94,0 -1.22,0.88 -1.22,1.82 0,0.59 0,0.65 0.2,1.56 0.05,0.11 0.19,0.7 0.19,1.09 0,3.1 -4.19,3.58 -5.66,3.69 1.02,0.63 2.3,1.78 2.89,2.3 1.78,1.67 3.53,3.31 5.47,3.31 0.42,0 0.88,-0.11 1.16,-0.45 -1.5,-0.25 -1.81,-1.43 -1.81,-1.96 0,-0.76 0.59,-1.28 1.39,-1.28 0.95,0 1.98,0.77 1.98,2.22 0,1.16 -0.83,2.44 -2.67,2.44 -1.99,0 -3.8,-1.42 -5.58,-3.06 -1.47,-1.39 -2.61,-2.47 -4.05,-3.07 z"
           id="path1231" /></g>    </g>
    <g
       style="stroke-width:0.5171926"
       transform="matrix(1.9335157,0,0,1.9335157,529.10592,-463.59845)"
       id="g1457">
      <g
         style="font-style:normal;font-variant:normal;font-weight:normal;font-stretch:normal;letter-spacing:normal;word-spacing:normal;text-anchor:start;fill:none;fill-opacity:1;fill-rule:evenodd;stroke:#000000;stroke-width:0.26748818;stroke-linecap:butt;stroke-linejoin:miter;stroke-miterlimit:10.43299961;stroke-dasharray:none;stroke-dashoffset:0;stroke-opacity:1"
         word-spacing="normal"
         letter-spacing="normal"
         font-size-adjust="none"
         font-stretch="normal"
         font-weight="normal"
         font-variant="normal"
         font-style="normal"
         stroke-miterlimit="10.433"
         xml:space="preserve"
         transform="matrix(0.49343274,0,0,-0.49343274,-86.35073,728.39012)"
         id="g1455"><path
           style="fill:#000000;stroke-width:0"
           inkscape:connector-curvature="0"
           id="path1451"
           d="m 472.96,409 0.05,-0.19 0.06,-0.19 0.07,-0.18 0.08,-0.18 0.08,-0.17 0.09,-0.16 0.09,-0.16 0.1,-0.16 0.11,-0.15 0.11,-0.15 0.11,-0.14 0.13,-0.13 0.12,-0.13 0.14,-0.12 0.14,-0.12 0.14,-0.11 0.15,-0.11 0.15,-0.1 0.15,-0.09 0.16,-0.09 0.17,-0.08 0.17,-0.07 0.17,-0.07 0.18,-0.06 0.17,-0.06 0.19,-0.04 0.18,-0.05 0.19,-0.03 0.19,-0.02 0.2,-0.02 0.2,-0.01 0.19,-0.01 c 1.74,0 2.9,1.14 3.69,2.74 0.85,1.79 1.49,4.84 1.49,4.93 0,0.5 -0.44,0.5 -0.6,0.5 -0.5,0 -0.54,-0.2 -0.7,-0.9 -0.69,-2.78 -1.64,-6.17 -3.73,-6.17 -1.05,0 -1.54,0.65 -1.54,2.29 0,1.1 0.6,3.44 0.99,5.17 l 1.4,5.4 c 0.15,0.75 0.65,2.64 0.85,3.39 0.25,1.14 0.75,3.03 0.75,3.32 0,0.91 -0.7,1.35 -1.45,1.35 -0.25,0 -1.55,-0.05 -1.94,-1.74 -0.96,-3.64 -3.14,-12.36 -3.74,-15 -0.06,-0.2 -2.04,-4.18 -5.68,-4.18 -2.6,0 -3.1,2.25 -3.1,4.09 0,2.78 1.41,6.72 2.71,10.16 0.59,1.5 0.84,2.18 0.84,3.14 0,2.23 -1.59,4.07 -4.09,4.07 -4.74,0 -6.58,-7.21 -6.58,-7.67 0,-0.5 0.5,-0.5 0.61,-0.5 0.5,0 0.54,0.11 0.79,0.91 1.24,4.33 3.14,6.17 5.03,6.17 0.44,0 1.25,-0.05 1.25,-1.64 0,-1.2 -0.56,-2.64 -0.85,-3.39 -1.85,-4.94 -2.9,-8.02 -2.9,-10.45 0,-4.74 3.44,-5.99 6.15,-5.99 3.28,0 5.07,2.24 5.92,3.35 z" /><path
           style="fill:#000000;stroke-width:0"
           inkscape:connector-curvature="0"
           id="path1453"
           d="m 494.98,421.9 0.01,0.01 v 0 0 0.01 0 0.01 l 0.01,0.01 v 0 0.01 0.01 l 0.01,0.01 v 0.02 l 0.01,0.02 0.01,0.02 v 0.02 l 0.01,0.02 v 0.02 l 0.01,0.03 v 0.02 l 0.02,0.05 0.01,0.04 v 0.03 l 0.01,0.02 v 0.02 l 0.01,0.02 v 0.02 l 0.01,0.02 v 0.02 0.01 l 0.01,0.01 v 0.01 0 0.01 0 0.01 0 0.01 0 0 0.01 h 0.01 c 0,0.19 -0.15,0.5 -0.57,0.5 -0.68,0 -3.58,-0.28 -4.45,-0.36 -0.28,-0.03 -0.77,-0.06 -0.77,-0.8 0,-0.48 0.49,-0.48 0.91,-0.48 1.67,0 1.67,-0.25 1.67,-0.53 0,-0.24 -0.08,-0.46 -0.14,-0.77 l -4.92,-19.72 c -0.17,-0.62 -0.17,-0.68 -0.17,-0.76 0,-0.52 0.42,-1.11 1.19,-1.11 0.93,0 1.39,0.69 1.6,1.45 0.07,0.14 1.57,6.28 1.71,6.77 2.47,-0.25 4.45,-1.05 4.45,-2.86 0,-0.17 0,-0.35 -0.06,-0.69 -0.14,-0.53 -0.14,-0.7 -0.14,-1.09 0,-2.47 2.01,-3.58 3.69,-3.58 3.39,0 4.43,5.29 4.43,5.33 0,0.45 -0.45,0.45 -0.56,0.45 -0.48,0 -0.53,-0.17 -0.7,-0.84 -0.41,-1.5 -1.36,-3.97 -3.07,-3.97 -0.93,0 -1.21,0.87 -1.21,1.81 0,0.59 0,0.66 0.2,1.56 0.05,0.11 0.19,0.7 0.19,1.1 0,3.09 -4.19,3.57 -5.66,3.68 1.02,0.63 2.3,1.78 2.89,2.3 1.78,1.67 3.53,3.31 5.47,3.31 0.42,0 0.87,-0.11 1.16,-0.45 -1.5,-0.25 -1.82,-1.42 -1.82,-1.95 0,-0.77 0.6,-1.29 1.39,-1.29 0.96,0 1.99,0.77 1.99,2.22 0,1.16 -0.83,2.44 -2.67,2.44 -1.99,0 -3.8,-1.42 -5.58,-3.06 -1.47,-1.39 -2.61,-2.47 -4.05,-3.06 z" /></g>    </g>
    <g
       style="stroke-width:0.5171926"
       transform="matrix(1.9335157,0,0,1.9335157,74.418426,-463.20783)"
       id="g1687">
      <g
         style="font-style:normal;font-variant:normal;font-weight:normal;font-stretch:normal;letter-spacing:normal;word-spacing:normal;text-anchor:start;fill:none;fill-opacity:1;fill-rule:evenodd;stroke:#000000;stroke-width:0.26748818;stroke-linecap:butt;stroke-linejoin:miter;stroke-miterlimit:10.43299961;stroke-dasharray:none;stroke-dashoffset:0;stroke-opacity:1"
         id="g1685"
         transform="matrix(0.49343274,0,0,-0.49343274,-86.35073,728.39012)"
         xml:space="preserve"
         stroke-miterlimit="10.433"
         font-style="normal"
         font-variant="normal"
         font-weight="normal"
         font-stretch="normal"
         font-size-adjust="none"
         letter-spacing="normal"
         word-spacing="normal"><path
           style="fill:#000000;stroke-width:0"
           inkscape:connector-curvature="0"
           d="m 464.83,417.71 0.14,0.01 h 0.16 0.17 0.17 l 0.19,0.01 h 0.2 l 0.21,0.01 0.22,0.01 0.22,0.01 0.23,0.01 0.24,0.01 0.25,0.02 0.25,0.02 0.25,0.02 0.53,0.05 0.53,0.07 0.55,0.07 0.54,0.1 0.54,0.11 0.54,0.12 0.26,0.07 0.26,0.08 0.25,0.08 0.25,0.08 0.24,0.09 0.24,0.1 c 3.48,1.5 3.73,4.43 3.73,5.12 0,2.2 -1.89,4.23 -5.33,4.23 v -1.09 c 2.35,0 3.69,-1.44 3.69,-3.14 0,-5.17 -7.97,-5.17 -10.01,-5.17 h -2.05 c 1.95,7.56 7.08,8.31 8.37,8.31 v 1.09 c -5.53,0 -13.04,-4.82 -13.04,-13.54 0,-5.08 2.93,-9.02 7.81,-9.02 7.12,0 11.31,5.28 11.31,5.88 0,0.29 -0.3,0.65 -0.59,0.65 -0.25,0 -0.35,-0.11 -0.66,-0.5 -3.94,-4.93 -9.36,-4.93 -9.95,-4.93 -3.89,0 -4.35,4.18 -4.35,5.78 0,0.59 0.05,2.14 0.8,5.18 z"
           id="path1681" /><path
           style="fill:#000000;stroke-width:0"
           inkscape:connector-curvature="0"
           d="m 489.59,421.9 v 0.01 0 0 0.01 0 l 0.01,0.01 v 0.01 0 0.01 l 0.01,0.01 v 0.01 l 0.01,0.02 v 0.02 l 0.01,0.02 v 0.02 l 0.01,0.02 v 0.02 l 0.01,0.03 0.01,0.02 0.01,0.05 0.01,0.04 0.01,0.03 v 0.02 l 0.01,0.02 v 0.02 l 0.01,0.02 v 0.02 0.02 l 0.01,0.01 v 0.01 0.01 0 0.01 0 0.01 h 0.01 v 0.01 0 0 0.01 0 c 0,0.19 -0.14,0.5 -0.57,0.5 -0.68,0 -3.57,-0.28 -4.45,-0.36 -0.28,-0.03 -0.76,-0.06 -0.76,-0.8 0,-0.48 0.48,-0.48 0.9,-0.48 1.67,0 1.67,-0.25 1.67,-0.53 0,-0.24 -0.07,-0.46 -0.14,-0.77 l -4.92,-19.72 c -0.17,-0.62 -0.17,-0.68 -0.17,-0.76 0,-0.52 0.42,-1.11 1.19,-1.11 0.93,0 1.39,0.69 1.61,1.45 0.06,0.14 1.56,6.28 1.7,6.77 2.47,-0.25 4.45,-1.05 4.45,-2.86 0,-0.17 0,-0.35 -0.06,-0.69 -0.14,-0.53 -0.14,-0.7 -0.14,-1.09 0,-2.47 2.01,-3.58 3.69,-3.58 3.39,0 4.43,5.29 4.43,5.33 0,0.45 -0.45,0.45 -0.56,0.45 -0.48,0 -0.53,-0.17 -0.7,-0.84 -0.41,-1.5 -1.36,-3.97 -3.06,-3.97 -0.94,0 -1.22,0.87 -1.22,1.81 0,0.59 0,0.66 0.2,1.56 0.05,0.11 0.19,0.7 0.19,1.1 0,3.09 -4.19,3.57 -5.66,3.68 1.02,0.63 2.3,1.78 2.89,2.3 1.78,1.67 3.53,3.31 5.47,3.31 0.42,0 0.88,-0.11 1.16,-0.45 -1.5,-0.25 -1.82,-1.42 -1.82,-1.95 0,-0.77 0.6,-1.29 1.4,-1.29 0.95,0 1.98,0.77 1.98,2.22 0,1.16 -0.83,2.44 -2.67,2.44 -1.99,0 -3.8,-1.42 -5.58,-3.06 -1.47,-1.39 -2.61,-2.47 -4.05,-3.06 z"
           id="path1683" /></g>    </g>
    <g
       id="g1920"
       transform="matrix(1.1106362,0,0,1.1106362,398.92683,-118.54151)"
       style="stroke-width:0.90038478">
      <g
         word-spacing="normal"
         letter-spacing="normal"
         font-size-adjust="none"
         font-stretch="normal"
         font-weight="normal"
         font-variant="normal"
         font-style="normal"
         stroke-miterlimit="10.433"
         xml:space="preserve"
         transform="matrix(0.49343274,0,0,-0.49343274,-86.35073,728.39012)"
         id="content"
         style="font-style:normal;font-variant:normal;font-weight:normal;font-stretch:normal;letter-spacing:normal;word-spacing:normal;text-anchor:start;fill:none;fill-opacity:1;fill-rule:evenodd;stroke:#000000;stroke-width:0.90038478;stroke-linecap:butt;stroke-linejoin:miter;stroke-miterlimit:10.43299961;stroke-dasharray:none;stroke-dashoffset:0;stroke-opacity:1"><path
           id="path1911"
           d="m 480.88,426.32 -0.01,0.02 v 0.02 l -0.01,0.01 -0.01,0.02 v 0.02 l -0.01,0.02 -0.01,0.03 -0.01,0.02 -0.01,0.02 -0.01,0.02 -0.01,0.03 -0.01,0.02 -0.02,0.05 -0.02,0.06 -0.02,0.05 -0.02,0.05 -0.01,0.02 -0.01,0.03 -0.01,0.02 -0.01,0.02 -0.01,0.03 v 0.02 l -0.01,0.02 v 0.02 l -0.01,0.02 v 0.02 0.01 0.02 c 0,0.04 0.89,0.75 1.45,1.14 l 8.72,6.73 c 4.67,3.44 6.63,3.63 8.11,3.78 0.41,0.05 0.91,0.1 0.91,1 0,0.19 -0.16,0.55 -0.55,0.55 -1.11,0 -2.34,-0.16 -3.55,-0.16 -1.79,0 -3.73,0.16 -5.53,0.16 -0.34,0 -0.94,0 -0.94,-1 0,-0.34 0.25,-0.5 0.6,-0.55 1.09,-0.09 1.54,-0.34 1.54,-1.04 0,-0.89 -1.5,-2.05 -1.79,-2.3 l -19.44,-14.94 4,15.99 c 0.44,1.79 0.55,2.29 4.17,2.29 1.25,0 1.71,0 1.71,1 0,0.44 -0.41,0.55 -0.71,0.55 -1.39,0 -4.98,-0.16 -6.37,-0.16 -1.44,0 -4.99,0.16 -6.42,0.16 -0.36,0 -1,0 -1,-0.95 0,-0.6 0.45,-0.6 1.43,-0.6 0.66,0 1.55,-0.04 2.14,-0.09 0.8,-0.11 1.11,-0.25 1.11,-0.8 0,-0.2 -0.06,-0.36 -0.2,-0.95 l -6.67,-26.75 c -0.5,-1.95 -0.61,-2.34 -4.55,-2.34 -0.84,0 -1.39,0 -1.39,-0.96 0,-0.59 0.59,-0.59 0.75,-0.59 1.39,0 4.94,0.16 6.33,0.16 1.05,0 2.14,-0.07 3.19,-0.07 1.09,0 2.18,-0.09 3.23,-0.09 0.36,0 1,0 1,1 0,0.55 -0.45,0.55 -1.39,0.55 -1.84,0 -3.23,0 -3.23,0.89 0,0.36 0.29,1.45 0.43,2.2 0.71,2.58 1.35,5.22 2,7.81 l 7.42,5.78 5.79,-13.4 c 0.59,-1.35 0.59,-1.44 0.59,-1.74 0,-1.5 -2.14,-1.54 -2.59,-1.54 -0.55,0 -1.1,0 -1.1,-1 0,-0.55 0.6,-0.55 0.71,-0.55 1.98,0 4.07,0.16 6.07,0.16 1.1,0 3.78,-0.16 4.88,-0.16 0.25,0 0.9,0 0.9,1 0,0.55 -0.56,0.55 -1,0.55 -2.04,0.04 -2.68,0.5 -3.43,2.23 z"
           inkscape:connector-curvature="0"
           style="fill:#000000;stroke-width:0" /><path
           id="path1913"
           d="m 500.49,394.51 -0.02,-0.09 -0.02,-0.08 -0.02,-0.09 -0.03,-0.07 -0.02,-0.08 -0.02,-0.07 -0.02,-0.07 -0.02,-0.06 -0.03,-0.06 -0.02,-0.05 -0.03,-0.06 -0.03,-0.05 -0.03,-0.04 -0.03,-0.05 -0.04,-0.04 -0.04,-0.03 -0.04,-0.04 -0.05,-0.03 -0.05,-0.03 -0.06,-0.02 -0.06,-0.03 -0.06,-0.02 -0.07,-0.01 -0.07,-0.02 -0.09,-0.02 h -0.04 l -0.04,-0.01 h -0.05 l -0.04,-0.01 h -0.05 -0.05 l -0.05,-0.01 h -0.06 -0.05 -0.06 l -0.06,-0.01 h -0.06 -0.06 -0.06 c -0.46,0 -0.94,0 -0.94,-0.73 0,-0.39 0.31,-0.53 0.48,-0.53 0.91,0 2.06,0.14 3,0.14 1.19,0 2.5,-0.14 3.66,-0.14 0.31,0 0.7,0.11 0.7,0.76 0,0.5 -0.5,0.5 -0.9,0.5 -0.79,0 -1.72,0 -1.72,0.41 0,0.19 0.25,1.09 0.39,1.61 0.42,1.84 0.9,3.73 1.28,5.18 0.42,-0.68 1.5,-2.04 3.59,-2.04 v 0.97 c -2.47,0 -3.09,2.68 -3.09,3.03 0,0.14 0.06,0.39 0.09,0.53 l 1.75,7 c 2.02,2.69 3.77,3.2 4.88,3.2 1.36,0 2.54,-1.01 2.54,-3.37 0,-1.44 -0.76,-4.99 -1.81,-7.02 -0.87,-1.7 -2.58,-3.37 -4.36,-3.37 v -0.97 c 4.25,0 8.95,4.7 8.95,9.89 0,4.08 -2.82,5.81 -5.21,5.81 -2.18,0 -4.02,-1.45 -4.96,-2.44 -0.59,1.99 -2.54,2.44 -3.59,2.44 -1.36,0 -2.19,-0.91 -2.75,-1.84 -0.7,-1.19 -1.25,-3.27 -1.25,-3.49 0,-0.45 0.48,-0.45 0.59,-0.45 0.49,0 0.52,0.11 0.77,1.05 0.51,2.03 1.19,3.76 2.55,3.76 0.9,0 1.14,-0.76 1.14,-1.7 0,-0.39 -0.07,-0.84 -0.11,-1.05 z"
           inkscape:connector-curvature="0"
           style="fill:#000000;stroke-width:0" /><path
           id="path1915"
           d="m 530.23,417.71 0.15,0.01 h 0.15 0.17 0.18 l 0.19,0.01 h 0.19 l 0.21,0.01 0.22,0.01 0.22,0.01 0.24,0.01 0.24,0.01 0.24,0.02 0.25,0.02 0.26,0.02 0.52,0.05 0.54,0.07 0.54,0.07 0.54,0.1 0.54,0.11 0.54,0.12 0.26,0.07 0.26,0.08 0.25,0.08 0.25,0.08 0.24,0.09 0.24,0.1 c 3.48,1.5 3.73,4.43 3.73,5.12 0,2.2 -1.89,4.23 -5.32,4.23 v -1.09 c 2.34,0 3.68,-1.44 3.68,-3.14 0,-5.17 -7.97,-5.17 -10.01,-5.17 h -2.05 c 1.95,7.56 7.08,8.31 8.38,8.31 v 1.09 c -5.54,0 -13.05,-4.82 -13.05,-13.54 0,-5.08 2.94,-9.02 7.81,-9.02 7.13,0 11.31,5.28 11.31,5.88 0,0.29 -0.29,0.65 -0.59,0.65 -0.25,0 -0.34,-0.11 -0.66,-0.5 -3.93,-4.93 -9.36,-4.93 -9.95,-4.93 -3.89,0 -4.34,4.18 -4.34,5.78 0,0.59 0.04,2.14 0.79,5.18 z"
           inkscape:connector-curvature="0"
           style="fill:#000000;stroke-width:0" /><path
           id="path1917"
           d="m 554.98,421.9 0.01,0.01 v 0 0 0.01 0 0.01 l 0.01,0.01 v 0 0.01 0.01 l 0.01,0.01 v 0.02 l 0.01,0.02 0.01,0.02 v 0.02 l 0.01,0.02 v 0.02 l 0.01,0.03 v 0.02 l 0.02,0.05 0.01,0.04 v 0.03 l 0.01,0.02 v 0.02 l 0.01,0.02 v 0.02 l 0.01,0.02 v 0.02 0.01 l 0.01,0.01 v 0.01 0 0.01 0 0.01 0 0.01 0 0 0.01 h 0.01 c 0,0.19 -0.15,0.5 -0.57,0.5 -0.68,0 -3.58,-0.28 -4.45,-0.36 -0.28,-0.03 -0.77,-0.06 -0.77,-0.8 0,-0.48 0.49,-0.48 0.91,-0.48 1.67,0 1.67,-0.25 1.67,-0.53 0,-0.24 -0.08,-0.46 -0.14,-0.77 l -4.92,-19.72 c -0.17,-0.62 -0.17,-0.68 -0.17,-0.76 0,-0.52 0.42,-1.11 1.19,-1.11 0.93,0 1.39,0.69 1.6,1.45 0.07,0.14 1.57,6.28 1.71,6.77 2.47,-0.25 4.45,-1.05 4.45,-2.86 0,-0.17 0,-0.35 -0.06,-0.69 -0.14,-0.53 -0.14,-0.7 -0.14,-1.09 0,-2.47 2.01,-3.58 3.69,-3.58 3.39,0 4.43,5.29 4.43,5.33 0,0.45 -0.45,0.45 -0.56,0.45 -0.48,0 -0.53,-0.17 -0.7,-0.84 -0.41,-1.5 -1.36,-3.97 -3.07,-3.97 -0.93,0 -1.21,0.87 -1.21,1.81 0,0.59 0,0.66 0.2,1.56 0.05,0.11 0.19,0.7 0.19,1.1 0,3.09 -4.19,3.57 -5.66,3.68 1.02,0.63 2.3,1.78 2.89,2.3 1.78,1.67 3.53,3.31 5.47,3.31 0.42,0 0.87,-0.11 1.16,-0.45 -1.5,-0.25 -1.82,-1.42 -1.82,-1.95 0,-0.77 0.6,-1.29 1.39,-1.29 0.96,0 1.99,0.77 1.99,2.22 0,1.16 -0.83,2.44 -2.67,2.44 -1.99,0 -3.8,-1.42 -5.58,-3.06 -1.47,-1.39 -2.61,-2.47 -4.05,-3.06 z"
           inkscape:connector-curvature="0"
           style="fill:#000000;stroke-width:0" /></g>    </g>
    <g
       transform="matrix(1.1106362,0,0,1.1106362,384.41545,-9.4988892)"
       id="g2424"
       style="stroke-width:0.90038478">
      <g
         style="font-style:normal;font-variant:normal;font-weight:normal;font-stretch:normal;letter-spacing:normal;word-spacing:normal;text-anchor:start;fill:none;fill-opacity:1;fill-rule:evenodd;stroke:#000000;stroke-width:0.90038478;stroke-linecap:butt;stroke-linejoin:miter;stroke-miterlimit:10.43299961;stroke-dasharray:none;stroke-dashoffset:0;stroke-opacity:1"
         word-spacing="normal"
         letter-spacing="normal"
         font-size-adjust="none"
         font-stretch="normal"
         font-weight="normal"
         font-variant="normal"
         font-style="normal"
         stroke-miterlimit="10.433"
         xml:space="preserve"
         transform="matrix(0.49343274,0,0,-0.49343274,-86.35073,728.39012)"
         id="g2422"><path
           style="fill:#000000;stroke-width:0"
           inkscape:connector-curvature="0"
           id="path2410"
           d="m 480.88,426.32 -0.01,0.02 v 0.02 l -0.01,0.01 -0.01,0.02 v 0.02 l -0.01,0.02 -0.01,0.03 -0.01,0.02 -0.01,0.02 -0.01,0.02 -0.01,0.03 -0.01,0.02 -0.02,0.05 -0.02,0.06 -0.02,0.05 -0.02,0.05 -0.01,0.02 -0.01,0.03 -0.01,0.02 -0.01,0.02 -0.01,0.03 v 0.02 l -0.01,0.02 v 0.02 l -0.01,0.02 v 0.02 0.01 0.02 c 0,0.04 0.89,0.75 1.45,1.14 l 8.72,6.73 c 4.67,3.44 6.63,3.63 8.11,3.78 0.41,0.05 0.91,0.1 0.91,1 0,0.19 -0.16,0.55 -0.55,0.55 -1.11,0 -2.34,-0.16 -3.55,-0.16 -1.79,0 -3.73,0.16 -5.53,0.16 -0.34,0 -0.94,0 -0.94,-1 0,-0.34 0.25,-0.5 0.6,-0.55 1.09,-0.09 1.54,-0.34 1.54,-1.04 0,-0.89 -1.5,-2.05 -1.79,-2.3 l -19.44,-14.94 4,15.99 c 0.44,1.79 0.55,2.29 4.17,2.29 1.25,0 1.71,0 1.71,1 0,0.44 -0.41,0.55 -0.71,0.55 -1.39,0 -4.98,-0.16 -6.37,-0.16 -1.44,0 -4.99,0.16 -6.42,0.16 -0.36,0 -1,0 -1,-0.95 0,-0.6 0.45,-0.6 1.43,-0.6 0.66,0 1.55,-0.04 2.14,-0.09 0.8,-0.11 1.11,-0.25 1.11,-0.8 0,-0.2 -0.06,-0.36 -0.2,-0.95 l -6.67,-26.75 c -0.5,-1.95 -0.61,-2.34 -4.55,-2.34 -0.84,0 -1.39,0 -1.39,-0.96 0,-0.59 0.59,-0.59 0.75,-0.59 1.39,0 4.94,0.16 6.33,0.16 1.05,0 2.14,-0.07 3.19,-0.07 1.09,0 2.18,-0.09 3.23,-0.09 0.36,0 1,0 1,1 0,0.55 -0.45,0.55 -1.39,0.55 -1.84,0 -3.23,0 -3.23,0.89 0,0.36 0.29,1.45 0.43,2.2 0.71,2.58 1.35,5.22 2,7.81 l 7.42,5.78 5.79,-13.4 c 0.59,-1.35 0.59,-1.44 0.59,-1.74 0,-1.5 -2.14,-1.54 -2.59,-1.54 -0.55,0 -1.1,0 -1.1,-1 0,-0.55 0.6,-0.55 0.71,-0.55 1.98,0 4.07,0.16 6.07,0.16 1.1,0 3.78,-0.16 4.88,-0.16 0.25,0 0.9,0 0.9,1 0,0.55 -0.56,0.55 -1,0.55 -2.04,0.04 -2.68,0.5 -3.43,2.23 z" /><path
           style="fill:#000000;stroke-width:0"
           inkscape:connector-curvature="0"
           id="path2412"
           d="m 509.18,420.54 -0.01,0.05 v 0.06 l -0.01,0.05 v 0.06 l -0.02,0.05 -0.01,0.06 -0.02,0.05 -0.02,0.06 -0.02,0.06 -0.02,0.05 -0.03,0.06 -0.03,0.05 -0.03,0.06 -0.04,0.05 -0.04,0.05 -0.04,0.05 -0.04,0.05 -0.05,0.05 -0.05,0.04 -0.05,0.05 -0.06,0.04 -0.06,0.03 -0.06,0.04 -0.07,0.03 -0.06,0.03 -0.07,0.03 -0.08,0.02 -0.08,0.02 -0.08,0.01 -0.08,0.01 -0.09,0.01 h -0.09 c -0.94,0 -1.95,-0.91 -1.95,-1.92 0,-0.59 0.45,-1.33 1.4,-1.33 1,0 1.96,0.99 1.96,1.92 z" /><path
           style="fill:#000000;stroke-width:0"
           inkscape:connector-curvature="0"
           id="path2414"
           d="m 502.07,402.84 -0.06,-0.17 -0.05,-0.17 -0.03,-0.08 -0.02,-0.09 -0.03,-0.08 -0.02,-0.09 -0.02,-0.09 -0.02,-0.09 -0.02,-0.1 -0.02,-0.09 -0.01,-0.1 v -0.05 l -0.01,-0.05 v -0.06 -0.05 l -0.01,-0.05 v -0.06 c 0,-1.64 1.39,-2.95 3.3,-2.95 3.49,0 5.03,4.79 5.03,5.33 0,0.45 -0.45,0.45 -0.56,0.45 -0.48,0 -0.53,-0.2 -0.67,-0.59 -0.8,-2.79 -2.33,-4.22 -3.69,-4.22 -0.7,0 -0.87,0.45 -0.87,1.22 0,0.79 0.25,1.46 0.56,2.23 0.34,0.94 0.73,1.87 1.11,2.78 0.31,0.84 1.58,4.02 1.72,4.44 0.09,0.34 0.2,0.76 0.2,1.11 0,1.64 -1.39,2.95 -3.31,2.95 -3.46,0 -5.05,-4.73 -5.05,-5.33 0,-0.45 0.48,-0.45 0.59,-0.45 0.49,0 0.52,0.17 0.63,0.56 0.9,3 2.44,4.25 3.72,4.25 0.56,0 0.87,-0.28 0.87,-1.22 0,-0.79 -0.2,-1.32 -1.08,-3.48 z" /><path
           style="fill:#000000;stroke-width:0"
           inkscape:connector-curvature="0"
           id="path2416"
           d="M 543.69,416.91 526,395.05 c -0.39,-0.5 -0.44,-0.61 -0.44,-0.8 0,-0.56 0.44,-0.56 1.35,-0.56 h 41.29 l 4.28,12.41 h -1.23 c -1.25,-3.74 -4.59,-6.77 -8.83,-8.22 -0.79,-0.25 -4.23,-1.44 -11.54,-1.44 h -21.19 l 17.29,21.38 c 0.35,0.43 0.46,0.59 0.46,0.79 0,0.19 -0.06,0.25 -0.36,0.69 l -16.19,22.22 h 19.74 c 5.67,0 17.12,-0.34 20.62,-9.66 h 1.23 l -4.28,11.66 h -41.29 c -1.35,0 -1.39,-0.05 -1.39,-1.59 z" /><path
           style="fill:#000000;stroke-width:0"
           inkscape:connector-curvature="0"
           id="path2418"
           d="m 592.99,417.71 0.14,0.01 h 0.16 0.17 0.17 l 0.19,0.01 h 0.2 l 0.21,0.01 0.22,0.01 0.22,0.01 0.23,0.01 0.24,0.01 0.25,0.02 0.25,0.02 0.25,0.02 0.53,0.05 0.53,0.07 0.55,0.07 0.54,0.1 0.54,0.11 0.54,0.12 0.26,0.07 0.26,0.08 0.25,0.08 0.25,0.08 0.24,0.09 0.24,0.1 c 3.48,1.5 3.73,4.43 3.73,5.12 0,2.2 -1.89,4.23 -5.33,4.23 v -1.09 c 2.35,0 3.69,-1.44 3.69,-3.14 0,-5.17 -7.97,-5.17 -10.01,-5.17 h -2.05 c 1.95,7.56 7.08,8.31 8.37,8.31 v 1.09 c -5.53,0 -13.04,-4.82 -13.04,-13.54 0,-5.08 2.93,-9.02 7.81,-9.02 7.12,0 11.31,5.28 11.31,5.88 0,0.29 -0.3,0.65 -0.59,0.65 -0.25,0 -0.35,-0.11 -0.66,-0.5 -3.94,-4.93 -9.36,-4.93 -9.95,-4.93 -3.89,0 -4.35,4.18 -4.35,5.78 0,0.59 0.05,2.14 0.8,5.18 z" /><path
           style="fill:#000000;stroke-width:0"
           inkscape:connector-curvature="0"
           id="path2420"
           d="m 617.75,421.9 v 0.01 0 0 0.01 0 l 0.01,0.01 v 0.01 0 0.01 l 0.01,0.01 v 0.01 l 0.01,0.02 v 0.02 l 0.01,0.02 v 0.02 l 0.01,0.02 v 0.02 l 0.01,0.03 0.01,0.02 0.01,0.05 0.01,0.04 0.01,0.03 v 0.02 l 0.01,0.02 v 0.02 l 0.01,0.02 v 0.02 0.02 l 0.01,0.01 v 0.01 0.01 0 0.01 0 0.01 h 0.01 v 0.01 0 0 0.01 0 c 0,0.19 -0.14,0.5 -0.57,0.5 -0.68,0 -3.57,-0.28 -4.45,-0.36 -0.28,-0.03 -0.77,-0.06 -0.77,-0.8 0,-0.48 0.49,-0.48 0.91,-0.48 1.67,0 1.67,-0.25 1.67,-0.53 0,-0.24 -0.08,-0.46 -0.14,-0.77 l -4.92,-19.72 c -0.17,-0.62 -0.17,-0.68 -0.17,-0.76 0,-0.52 0.42,-1.11 1.19,-1.11 0.93,0 1.39,0.69 1.61,1.45 0.06,0.14 1.56,6.28 1.7,6.77 2.47,-0.25 4.45,-1.05 4.45,-2.86 0,-0.17 0,-0.35 -0.06,-0.69 -0.14,-0.53 -0.14,-0.7 -0.14,-1.09 0,-2.47 2.02,-3.58 3.69,-3.58 3.39,0 4.43,5.29 4.43,5.33 0,0.45 -0.45,0.45 -0.56,0.45 -0.48,0 -0.53,-0.17 -0.7,-0.84 -0.41,-1.5 -1.36,-3.97 -3.06,-3.97 -0.94,0 -1.22,0.87 -1.22,1.81 0,0.59 0,0.66 0.2,1.56 0.05,0.11 0.19,0.7 0.19,1.1 0,3.09 -4.19,3.57 -5.66,3.68 1.02,0.63 2.3,1.78 2.89,2.3 1.78,1.67 3.53,3.31 5.47,3.31 0.42,0 0.88,-0.11 1.16,-0.45 -1.5,-0.25 -1.81,-1.42 -1.81,-1.95 0,-0.77 0.59,-1.29 1.38,-1.29 0.96,0 1.99,0.77 1.99,2.22 0,1.16 -0.83,2.44 -2.67,2.44 -1.99,0 -3.8,-1.42 -5.58,-3.06 -1.47,-1.39 -2.61,-2.47 -4.05,-3.06 z" /></g>    </g>
    <g
       id="g3008"
       transform="matrix(1.1106362,0,0,1.1106362,366.61406,98.464471)"
       style="stroke-width:0.90038478">
      <g
         word-spacing="normal"
         letter-spacing="normal"
         font-size-adjust="none"
         font-stretch="normal"
         font-weight="normal"
         font-variant="normal"
         font-style="normal"
         stroke-miterlimit="10.433"
         xml:space="preserve"
         transform="matrix(0.49343274,0,0,-0.49343274,-86.35073,728.39012)"
         id="g3006"
         style="font-style:normal;font-variant:normal;font-weight:normal;font-stretch:normal;letter-spacing:normal;word-spacing:normal;text-anchor:start;fill:none;fill-opacity:1;fill-rule:evenodd;stroke:#000000;stroke-width:0.90038478;stroke-linecap:butt;stroke-linejoin:miter;stroke-miterlimit:10.43299961;stroke-dasharray:none;stroke-dashoffset:0;stroke-opacity:1"><path
           id="path2982"
           d="m 480.88,426.32 -0.01,0.02 v 0.02 l -0.01,0.01 -0.01,0.02 v 0.02 l -0.01,0.02 -0.01,0.03 -0.01,0.02 -0.01,0.02 -0.01,0.02 -0.01,0.03 -0.01,0.02 -0.02,0.05 -0.02,0.06 -0.02,0.05 -0.02,0.05 -0.01,0.02 -0.01,0.03 -0.01,0.02 -0.01,0.02 -0.01,0.03 v 0.02 l -0.01,0.02 v 0.02 l -0.01,0.02 v 0.02 0.01 0.02 c 0,0.04 0.89,0.75 1.45,1.14 l 8.72,6.73 c 4.67,3.44 6.63,3.63 8.11,3.78 0.41,0.05 0.91,0.1 0.91,1 0,0.19 -0.16,0.55 -0.55,0.55 -1.11,0 -2.34,-0.16 -3.55,-0.16 -1.79,0 -3.73,0.16 -5.53,0.16 -0.34,0 -0.94,0 -0.94,-1 0,-0.34 0.25,-0.5 0.6,-0.55 1.09,-0.09 1.54,-0.34 1.54,-1.04 0,-0.89 -1.5,-2.05 -1.79,-2.3 l -19.44,-14.94 4,15.99 c 0.44,1.79 0.55,2.29 4.17,2.29 1.25,0 1.71,0 1.71,1 0,0.44 -0.41,0.55 -0.71,0.55 -1.39,0 -4.98,-0.16 -6.37,-0.16 -1.44,0 -4.99,0.16 -6.42,0.16 -0.36,0 -1,0 -1,-0.95 0,-0.6 0.45,-0.6 1.43,-0.6 0.66,0 1.55,-0.04 2.14,-0.09 0.8,-0.11 1.11,-0.25 1.11,-0.8 0,-0.2 -0.06,-0.36 -0.2,-0.95 l -6.67,-26.75 c -0.5,-1.95 -0.61,-2.34 -4.55,-2.34 -0.84,0 -1.39,0 -1.39,-0.96 0,-0.59 0.59,-0.59 0.75,-0.59 1.39,0 4.94,0.16 6.33,0.16 1.05,0 2.14,-0.07 3.19,-0.07 1.09,0 2.18,-0.09 3.23,-0.09 0.36,0 1,0 1,1 0,0.55 -0.45,0.55 -1.39,0.55 -1.84,0 -3.23,0 -3.23,0.89 0,0.36 0.29,1.45 0.43,2.2 0.71,2.58 1.35,5.22 2,7.81 l 7.42,5.78 5.79,-13.4 c 0.59,-1.35 0.59,-1.44 0.59,-1.74 0,-1.5 -2.14,-1.54 -2.59,-1.54 -0.55,0 -1.1,0 -1.1,-1 0,-0.55 0.6,-0.55 0.71,-0.55 1.98,0 4.07,0.16 6.07,0.16 1.1,0 3.78,-0.16 4.88,-0.16 0.25,0 0.9,0 0.9,1 0,0.55 -0.56,0.55 -1,0.55 -2.04,0.04 -2.68,0.5 -3.43,2.23 z"
           inkscape:connector-curvature="0"
           style="fill:#000000;stroke-width:0" /><path
           id="path2984"
           d="m 517.77,421.9 v 0.01 0 h 0.01 v 0.01 0 0.01 l 0.01,0.01 v 0 0.01 0.01 l 0.01,0.01 0.01,0.02 v 0.02 l 0.01,0.02 v 0.02 l 0.01,0.02 v 0.02 l 0.01,0.03 0.01,0.02 0.01,0.05 v 0.02 l 0.01,0.02 v 0.03 l 0.01,0.02 v 0.02 l 0.01,0.02 v 0.02 0.02 l 0.01,0.02 v 0.01 0.01 0.01 0 l 0.01,0.01 v 0 0.01 0 0.01 0 0 0.01 0 c 0,0.19 -0.14,0.5 -0.55,0.5 -0.7,0 -3.59,-0.28 -4.46,-0.36 -0.29,-0.03 -0.77,-0.06 -0.77,-0.8 0,-0.48 0.48,-0.48 0.9,-0.48 1.68,0 1.68,-0.25 1.68,-0.53 0,-0.24 -0.06,-0.46 -0.14,-0.77 l -1.99,-7.94 c -0.73,1.14 -1.92,2.05 -3.59,2.05 v -0.97 c 2.44,0 3.11,-2.64 3.11,-3.03 0,-0.14 -0.08,-0.39 -0.11,-0.48 l -1.64,-6.52 c -0.24,-0.98 -1,-1.67 -1.77,-2.34 -0.31,-0.27 -1.72,-1.39 -3.22,-1.39 -1.28,0 -2.53,0.9 -2.53,3.37 0,1.86 1,5.69 1.81,7.08 1.6,2.8 3.38,3.31 4.35,3.31 v 0.97 c -4.45,0 -8.99,-4.91 -8.99,-9.92 0,-3.38 2.27,-5.78 5.27,-5.78 1.87,0 3.55,1.08 4.94,2.44 0.67,-2.1 2.69,-2.44 3.59,-2.44 1.25,0 2.13,0.76 2.75,1.84 0.77,1.36 1.22,3.35 1.22,3.49 0,0.45 -0.45,0.45 -0.55,0.45 -0.5,0 -0.53,-0.14 -0.76,-1.08 -0.43,-1.67 -1.1,-3.73 -2.55,-3.73 -0.91,0 -1.16,0.76 -1.16,1.7 0,0.67 0.08,0.98 0.18,1.44 z"
           inkscape:connector-curvature="0"
           style="fill:#000000;stroke-width:0" /><path
           id="path2986"
           d="m 534.85,438.98 h 0.1 0.1 0.12 0.12 0.14 l 0.14,0.01 h 0.15 l 0.15,0.01 0.16,0.01 0.17,0.01 h 0.17 l 0.18,0.02 0.19,0.01 0.18,0.01 0.39,0.04 0.4,0.04 0.4,0.05 0.41,0.06 0.4,0.07 0.4,0.08 0.2,0.04 0.2,0.05 0.19,0.05 0.19,0.05 0.18,0.06 0.18,0.06 c 2.58,0.91 3.06,2.58 3.06,3.63 0,1.92 -1.92,3.06 -4.32,3.06 v -0.97 c 1.53,0 2.82,-0.77 2.82,-2.09 0,-3.38 -5.89,-3.38 -7.39,-3.38 h -1.7 c 1.42,5.05 5.3,5.47 6.27,5.47 v 0.97 c -4.18,0 -9.83,-3.2 -9.83,-9.16 0,-3.51 2.2,-6.54 6.28,-6.54 5.89,0 8.64,3.43 8.64,3.93 0,0.21 -0.31,0.6 -0.59,0.6 -0.21,0 -0.29,-0.08 -0.57,-0.36 -2.72,-3.21 -6.79,-3.21 -7.42,-3.21 -2.09,0 -3.48,1.39 -3.48,4.22 0,0.49 0,1.19 0.42,3.1 z"
           inkscape:connector-curvature="0"
           style="fill:#000000;stroke-width:0" /><path
           id="path2988"
           d="m 555.05,442.11 0.01,0.01 v 0.02 0.01 l 0.01,0.02 v 0.01 l 0.01,0.01 v 0.02 0.01 l 0.01,0.03 v 0.02 l 0.01,0.02 0.01,0.02 v 0.02 0.02 l 0.01,0.02 v 0.02 l 0.01,0.01 v 0.02 0.01 0.02 l 0.01,0.01 v 0.01 0.01 0.01 0.01 0.02 0.02 0.02 0.02 0.02 l 0.01,0.01 v 0.01 c 0,0.42 -0.38,0.42 -0.77,0.41 l -3.06,-0.24 c -0.44,-0.01 -0.49,-0.04 -0.61,-0.14 -0.1,-0.12 -0.18,-0.42 -0.18,-0.58 0,-0.42 0.41,-0.42 0.75,-0.42 0.04,0 0.47,0 0.85,-0.04 0.47,-0.05 0.5,-0.13 0.5,-0.33 0,-0.08 0,-0.13 -0.13,-0.57 l -3.43,-13.75 c -0.1,-0.37 -0.1,-0.43 -0.1,-0.57 0,-0.58 0.44,-0.91 0.94,-0.91 0.97,0 1.2,0.92 1.3,1.28 l 1.12,4.58 c 0.64,-0.02 3.77,-0.2 3.77,-1.97 0,-0.17 0,-0.26 -0.08,-0.56 -0.08,-0.36 -0.08,-0.5 -0.08,-0.66 0,-1.76 1.59,-2.67 3.05,-2.67 2.53,0 3.53,3.56 3.53,3.88 0,0.34 -0.42,0.34 -0.52,0.34 -0.43,0 -0.48,-0.13 -0.6,-0.58 -0.25,-0.87 -0.97,-2.78 -2.32,-2.78 -0.92,0 -1.05,0.92 -1.05,1.47 0,0.01 0,0.37 0.1,0.8 0.11,0.39 0.12,0.64 0.12,0.84 0,2.19 -2.73,2.56 -4.37,2.69 0.69,0.4 1.73,1.25 2.14,1.59 1.42,1.13 2.78,2.19 4.2,2.19 0.58,0 0.74,-0.14 0.88,-0.3 -0.02,0 -0.14,-0.06 -0.2,-0.06 -1.15,-0.41 -1.15,-1.42 -1.15,-1.5 0,-0.42 0.3,-1.02 1.13,-1.02 0.5,0 1.55,0.39 1.55,1.77 0,1.22 -0.96,1.97 -2.16,1.97 -1.69,0 -3.12,-1.16 -4.95,-2.63 -0.88,-0.69 -1.69,-1.31 -2.69,-1.72 z"
           inkscape:connector-curvature="0"
           style="fill:#000000;stroke-width:0" /><path
           id="path2990"
           d="m 593.64,438.91 h 0.05 0.06 l 0.11,0.01 h 0.12 0.06 l 0.06,0.01 h 0.05 l 0.06,0.01 0.06,0.01 0.06,0.01 0.05,0.01 0.06,0.01 0.05,0.02 0.06,0.02 0.05,0.02 0.05,0.02 0.04,0.03 0.05,0.03 0.04,0.03 0.04,0.04 0.04,0.04 0.02,0.02 0.01,0.02 0.02,0.02 0.01,0.03 0.02,0.02 0.01,0.03 0.01,0.02 0.01,0.03 0.01,0.03 0.01,0.03 0.01,0.03 0.01,0.03 0.01,0.04 v 0.03 l 0.01,0.03 v 0.04 0.04 0.04 c 0,0.86 -0.8,0.86 -1.39,0.86 h -20.76 c -0.57,0 -1.4,0 -1.4,-0.83 0,-0.88 0.8,-0.88 1.4,-0.88 z"
           inkscape:connector-curvature="0"
           style="fill:#000000;stroke-width:0" /><path
           id="path2992"
           d="m 606.61,438.98 h 0.09 0.11 0.12 0.12 0.13 l 0.14,0.01 h 0.15 l 0.16,0.01 0.16,0.01 0.17,0.01 h 0.17 l 0.18,0.02 0.18,0.01 0.19,0.01 0.39,0.04 0.39,0.04 0.41,0.05 0.41,0.06 0.4,0.07 0.4,0.08 0.2,0.04 0.19,0.05 0.2,0.05 0.19,0.05 0.18,0.06 0.18,0.06 c 2.58,0.91 3.06,2.58 3.06,3.63 0,1.92 -1.92,3.06 -4.33,3.06 v -0.97 c 1.53,0 2.83,-0.77 2.83,-2.09 0,-3.38 -5.89,-3.38 -7.39,-3.38 h -1.7 c 1.42,5.05 5.29,5.47 6.26,5.47 v 0.97 c -4.17,0 -9.82,-3.2 -9.82,-9.16 0,-3.51 2.2,-6.54 6.28,-6.54 5.89,0 8.64,3.43 8.64,3.93 0,0.21 -0.32,0.6 -0.6,0.6 -0.2,0 -0.28,-0.08 -0.56,-0.36 -2.72,-3.21 -6.8,-3.21 -7.42,-3.21 -2.09,0 -3.49,1.39 -3.49,4.22 0,0.49 0,1.19 0.43,3.1 z"
           inkscape:connector-curvature="0"
           style="fill:#000000;stroke-width:0" /><path
           id="path2994"
           d="m 626.81,442.11 0.01,0.01 v 0.02 l 0.01,0.01 v 0.02 0.01 l 0.01,0.01 v 0.02 0.01 l 0.01,0.03 0.01,0.02 v 0.02 l 0.01,0.02 v 0.02 l 0.01,0.02 v 0.02 0.02 l 0.01,0.01 v 0.02 0.01 0.02 l 0.01,0.01 v 0.01 0.01 0.01 0.01 0.02 0.02 l 0.01,0.02 v 0.02 0.02 0.01 0.01 c 0,0.42 -0.38,0.42 -0.77,0.41 l -3.06,-0.24 c -0.44,-0.01 -0.49,-0.04 -0.61,-0.14 -0.09,-0.12 -0.17,-0.42 -0.17,-0.58 0,-0.42 0.4,-0.42 0.75,-0.42 0.03,0 0.47,0 0.84,-0.04 0.47,-0.05 0.5,-0.13 0.5,-0.33 0,-0.08 0,-0.13 -0.12,-0.57 l -3.44,-13.75 c -0.1,-0.37 -0.1,-0.43 -0.1,-0.57 0,-0.58 0.44,-0.91 0.94,-0.91 0.97,0 1.21,0.92 1.3,1.28 l 1.12,4.58 c 0.64,-0.02 3.77,-0.2 3.77,-1.97 0,-0.17 0,-0.26 -0.08,-0.56 -0.08,-0.36 -0.08,-0.5 -0.08,-0.66 0,-1.76 1.6,-2.67 3.05,-2.67 2.53,0 3.53,3.56 3.53,3.88 0,0.34 -0.42,0.34 -0.51,0.34 -0.44,0 -0.49,-0.13 -0.61,-0.58 -0.25,-0.87 -0.97,-2.78 -2.32,-2.78 -0.92,0 -1.04,0.92 -1.04,1.47 0,0.01 0,0.37 0.09,0.8 0.11,0.39 0.13,0.64 0.13,0.84 0,2.19 -2.74,2.56 -4.38,2.69 0.69,0.4 1.74,1.25 2.14,1.59 1.42,1.13 2.78,2.19 4.2,2.19 0.58,0 0.74,-0.14 0.88,-0.3 -0.02,0 -0.14,-0.06 -0.2,-0.06 -1.14,-0.41 -1.14,-1.42 -1.14,-1.5 0,-0.42 0.29,-1.02 1.12,-1.02 0.5,0 1.55,0.39 1.55,1.77 0,1.22 -0.96,1.97 -2.16,1.97 -1.69,0 -3.12,-1.16 -4.95,-2.63 -0.88,-0.69 -1.69,-1.31 -2.69,-1.72 z"
           inkscape:connector-curvature="0"
           style="fill:#000000;stroke-width:0" /><path
           id="path2996"
           d="m 658.76,431.29 h 0.04 0.04 0.04 0.04 l 0.04,0.01 h 0.05 0.04 0.04 l 0.05,0.01 h 0.04 l 0.05,0.01 0.04,0.01 0.05,0.01 0.04,0.01 0.05,0.02 0.04,0.01 0.04,0.02 0.04,0.02 0.04,0.02 0.03,0.02 0.04,0.03 0.03,0.03 0.03,0.03 0.01,0.02 0.02,0.02 0.01,0.02 0.01,0.02 0.01,0.02 0.01,0.02 0.01,0.02 0.01,0.03 0.01,0.02 0.01,0.02 0.01,0.03 v 0.03 l 0.01,0.02 v 0.03 l 0.01,0.03 v 0.03 0.03 0.04 c 0,0.68 -0.69,0.68 -1.08,0.68 H 641.9 c -0.4,0 -1.08,0 -1.08,-0.68 0,-0.71 0.68,-0.71 1.08,-0.71 z"
           inkscape:connector-curvature="0"
           style="fill:#000000;stroke-width:0" /><path
           id="path2998"
           d="m 673.76,441.61 v 0.03 0.03 0.04 0.03 0.03 0.03 l -0.01,0.03 v 0.02 0.03 0.02 0.03 0.02 l -0.01,0.03 v 0.02 0.02 l -0.01,0.02 v 0.02 l -0.01,0.02 -0.01,0.03 -0.01,0.03 -0.01,0.03 -0.02,0.03 -0.01,0.02 -0.02,0.02 -0.02,0.02 -0.03,0.02 -0.03,0.01 -0.03,0.01 -0.03,0.02 h -0.03 l -0.04,0.01 -0.04,0.01 h -0.02 -0.03 l -0.02,0.01 h -0.03 -0.02 -0.03 -0.02 -0.03 -0.03 -0.03 -0.03 -0.03 -0.04 -0.03 -0.04 -0.03 l -0.04,0.01 h -0.04 c -1.76,-1.6 -4.53,-1.6 -5.03,-1.6 h -0.42 v -1.09 h 0.42 c 0.58,0 2.19,0.06 3.64,0.69 V 427.9 c 0,-0.76 0,-1.04 -2.64,-1.04 h -1.25 v -1.1 c 1.38,0.1 3.59,0.1 5.03,0.1 1.45,0 3.67,0 5.03,-0.1 v 1.1 h -1.23 c -2.64,0 -2.64,0.28 -2.64,1.04 z"
           inkscape:connector-curvature="0"
           style="fill:#000000;stroke-width:0" /><polyline
           id="polyline3000"
           points="527,418 683.48,418 683.48,420.04 527,420.04 "
           style="fill:#000000;fill-rule:nonzero;stroke-width:0" /><path
           id="path3002"
           d="m 591.9,413.09 -0.04,0.05 -0.03,0.06 -0.03,0.05 -0.02,0.05 -0.03,0.05 -0.03,0.04 -0.03,0.04 -0.02,0.04 -0.03,0.04 -0.02,0.04 -0.03,0.03 -0.03,0.03 -0.02,0.03 -0.03,0.03 -0.03,0.03 -0.03,0.02 -0.03,0.02 -0.03,0.02 -0.03,0.02 -0.03,0.02 -0.04,0.01 -0.04,0.01 -0.04,0.02 -0.04,0.01 -0.04,0.01 h -0.05 l -0.04,0.01 h -0.05 l -0.06,0.01 h -0.05 -0.06 -0.07 c -0.42,0 -0.76,-0.11 -1.07,-0.65 l -0.08,-2.77 10.25,-18.56 h -20.5 l 10.25,18.56 0.08,2.77 -12.86,-23.35 c -0.25,-0.39 -0.25,-0.45 -0.25,-0.5 0,-0.34 0.28,-0.34 0.84,-0.34 h 26.72 c 0.56,0 0.84,0 0.84,0.34 0,0.05 0,0.11 -0.25,0.5 z"
           inkscape:connector-curvature="0"
           style="fill:#000000;stroke-width:0" /><path
           id="path3004"
           d="m 624.14,410.12 0.01,0.04 0.01,0.05 0.01,0.04 0.01,0.05 0.01,0.04 0.01,0.04 0.01,0.04 0.01,0.04 0.02,0.07 0.02,0.07 0.02,0.06 0.02,0.06 0.02,0.06 0.02,0.05 0.02,0.05 0.02,0.04 0.02,0.04 0.03,0.04 0.02,0.04 0.03,0.03 0.02,0.03 0.03,0.02 0.04,0.03 0.03,0.02 0.03,0.02 0.04,0.02 0.04,0.01 0.05,0.02 0.04,0.01 0.05,0.01 0.05,0.01 0.06,0.01 0.06,0.01 h 0.06 l 0.07,0.01 h 0.07 c 0.17,0.04 1.38,0.04 2.09,0.04 2.12,0 3.03,0 3.89,-0.29 1.58,-0.48 1.64,-1.5 1.64,-2.75 0,-0.54 0,-1 -0.24,-2.81 l -0.07,-0.39 c 0,-0.34 0.25,-0.51 0.59,-0.51 0.53,0 0.6,0.31 0.67,0.86 l 0.94,6.65 c 0,0.5 -0.42,0.5 -1.05,0.5 h -21.43 c -0.86,0 -0.94,0 -1.18,-0.73 l -2.2,-6.17 c -0.03,-0.15 -0.17,-0.46 -0.17,-0.63 0,-0.14 0.06,-0.48 0.59,-0.48 0.46,0 0.52,0.17 0.74,0.82 2.01,5.58 3.17,5.93 8.47,5.93 h 1.45 c 1.05,0 1.08,-0.04 1.08,-0.35 0,-0.03 0,-0.2 -0.14,-0.73 l -4.6,-18.33 c -0.31,-1.28 -0.42,-1.64 -4.07,-1.64 -1.25,0 -1.57,0 -1.57,-0.77 0,-0.09 0.07,-0.48 0.6,-0.48 0.97,0 2.01,0.11 2.98,0.11 0.99,0 2.03,0.03 3,0.03 0.99,0 2.17,0 3.14,-0.03 0.94,-0.05 1.98,-0.11 2.92,-0.11 0.28,0 0.81,0 0.81,0.76 0,0.49 -0.35,0.49 -1.43,0.49 -0.66,0 -1.36,0.05 -2.02,0.08 -1.18,0.09 -1.25,0.23 -1.25,0.65 0,0.25 0,0.32 0.13,0.8 z"
           inkscape:connector-curvature="0"
           style="fill:#000000;stroke-width:0" /></g>    </g>
    <circle
       style="opacity:0.98999999;fill:#000000;fill-opacity:1;stroke:none;stroke-width:1.88976395;stroke-linecap:round;stroke-linejoin:round;stroke-miterlimit:4;stroke-dasharray:1.88976384, 3.77952768000000017;stroke-dashoffset:0;stroke-opacity:1;paint-order:markers stroke fill"
       id="path3151"
       cx="407.05505"
       cy="572.92926"
       r="4.0551181" />
    <circle
       style="opacity:0.98999999;fill:#000000;fill-opacity:1;stroke:none;stroke-width:1.88976395;stroke-linecap:round;stroke-linejoin:round;stroke-miterlimit:4;stroke-dasharray:1.88976384, 3.77952768000000017;stroke-dashoffset:0;stroke-opacity:1;paint-order:markers stroke fill"
       id="path3151-2"
       cx="1031.7478"
       cy="573.40106"
       r="4.0551181" />
  </g>
</svg>
