<?xml version="1.0" encoding="UTF-8" standalone="no"?>
<!-- Created with Inkscape (http://www.inkscape.org/) -->

<svg
   xmlns:dc="http://purl.org/dc/elements/1.1/"
   xmlns:cc="http://creativecommons.org/ns#"
   xmlns:rdf="http://www.w3.org/1999/02/22-rdf-syntax-ns#"
   xmlns:svg="http://www.w3.org/2000/svg"
   xmlns="http://www.w3.org/2000/svg"
   xmlns:sodipodi="http://sodipodi.sourceforge.net/DTD/sodipodi-0.dtd"
   xmlns:inkscape="http://www.inkscape.org/namespaces/inkscape"
   width="118.79652mm"
   height="75.17794mm"
   viewBox="0 0 118.79652 75.17794"
   version="1.1"
   id="svg8"
   inkscape:version="0.92.3 (2405546, 2018-03-11)"
   sodipodi:docname="ML_AI.svg">
  <defs
     id="defs2" />
  <sodipodi:namedview
     id="base"
     pagecolor="#ffffff"
     bordercolor="#666666"
     borderopacity="1.0"
     inkscape:pageopacity="0.0"
     inkscape:pageshadow="2"
     inkscape:zoom="1.979899"
     inkscape:cx="188.11718"
     inkscape:cy="139.98215"
     inkscape:document-units="mm"
     inkscape:current-layer="layer1"
     showgrid="false"
     inkscape:lockguides="true"
     inkscape:window-width="1920"
     inkscape:window-height="1001"
     inkscape:window-x="-9"
     inkscape:window-y="-9"
     inkscape:window-maximized="1" />
  <metadata
     id="metadata5">
    <rdf:RDF>
      <cc:Work
         rdf:about="">
        <dc:format>image/svg+xml</dc:format>
        <dc:type
           rdf:resource="http://purl.org/dc/dcmitype/StillImage" />
        <dc:title></dc:title>
      </cc:Work>
    </rdf:RDF>
  </metadata>
  <g
     inkscape:label="Ebene 1"
     inkscape:groupmode="layer"
     id="layer1"
     transform="translate(-1.3056898,-219.60939)">
    <circle
       style="fill:#ffffff;fill-opacity:1;stroke:#000000;stroke-width:0.30000001;stroke-miterlimit:4;stroke-dasharray:none;stroke-dashoffset:0;stroke-opacity:1"
       id="path815"
       cx="95.581863"
       cy="266.33704"
       r="20.560369" />
    <path
       style="fill:#ffffff;fill-opacity:1;stroke:#000000;stroke-width:0.30000001;stroke-miterlimit:4;stroke-dasharray:none;stroke-dashoffset:0;stroke-opacity:1"
       id="path815-1"
       sodipodi:type="arc"
       sodipodi:cx="-6.3778391"
       sodipodi:cy="272.7193"
       sodipodi:rx="20.560369"
       sodipodi:ry="20.560369"
       sodipodi:start="3.9357175"
       sodipodi:end="0"
       d="M -20.788792,258.05461 A 20.560369,20.560369 0 0 1 1.5730815,253.75851 20.560369,20.560369 0 0 1 14.18253,272.7193 H -6.3778391 Z"
       transform="rotate(-21.943047)" />
    <path
       style="fill:#ffffff;fill-opacity:1;stroke:#000000;stroke-width:0.30000001;stroke-miterlimit:4;stroke-dasharray:none;stroke-dashoffset:0;stroke-opacity:1"
       id="path815-1-6"
       sodipodi:type="arc"
       sodipodi:cx="148.97311"
       sodipodi:cy="213.87885"
       sodipodi:rx="20.560369"
       sodipodi:ry="20.560369"
       sodipodi:start="4.4924775"
       sodipodi:end="5.6793014"
       d="m 144.48801,193.81364 a 20.560369,20.560369 0 0 1 21.40909,8.39013 l -16.92399,11.67508 z"
       transform="rotate(12.080169)" />
    <g
       id="g875"
       transform="matrix(0.0266493,0,0,0.0266493,90.818466,266.7977)"
       style="stroke-width:13.23722553">
      <path
         id="path849"
         d="m 85.03125,367.53125 c 8.09375,0.008 16.04297,-2.12891 23.04297,-6.1875 13.61328,12.00781 32.99609,14.92578 49.53906,7.45703 16.54297,-7.46875 27.17578,-23.9375 27.17578,-42.08984 V 50.789062 c 0.0352,-14.957031 -8.38672,-28.652343 -21.75,-35.371093 -13.36719,-6.71875 -29.3789,-5.304688 -41.36328,3.644531 -11.98437,8.949219 -17.88281,23.90625 -15.23437,38.625 -20.746098,-5.800781 -43.011722,0.04687 -58.226566,15.292969 -15.21875,15.25 -21.019532,37.527341 -15.171875,58.261721 -11.871094,5.33593 -20.796875,15.62109 -24.40625,28.125 -3.609375,12.50781 -1.535157,25.96484 5.671875,36.80468 2.046875,3.08594 4.476562,5.89844 7.226562,8.37891 -16.375,13.57813 -24.261718,34.85938 -20.691406,55.82813 3.574219,20.96875 18.058594,38.4414 38.003906,45.83203 v 15.14062 c 0.03125,25.49219 20.691406,46.15235 46.183594,46.17969 z M 12.003906,250.35937 c 0.03125,-26.26171 21.3125,-47.54687 47.578125,-47.57421 3.3125,0 6,-2.6875 6,-6 0,-3.31641 -2.6875,-6 -6,-6 -9.625,-0.008 -19.105469,2.33203 -27.625,6.8164 -8.445312,-6.27734 -13.308593,-16.26953 -13.035156,-26.78515 0.273437,-10.51563 5.652344,-20.24219 14.410156,-26.07032 1.316407,-0.87109 2.695313,-1.64843 4.121094,-2.32031 0.429687,0.82813 0.871094,1.64844 1.335937,2.45703 1.066407,1.875 3.054688,3.03516 5.210938,3.03906 2.152344,0.004 4.148438,-1.14843 5.21875,-3.01953 1.070312,-1.87109 1.054688,-4.17187 -0.04297,-6.03125 -11.257812,-19.51171 -7.292969,-44.242184 9.5,-59.253902 16.792969,-15.015626 41.8125,-16.195313 59.94531,-2.832032 1.72657,1.28125 4.00391,1.546875 5.97266,0.691406 1.97266,-0.859374 3.33594,-2.703124 3.57422,-4.839843 0.23828,-2.132813 -0.68359,-4.234375 -2.41406,-5.503907 -1.45313,-1.074218 -2.94922,-2.066406 -4.47657,-3 -5.58203,-10.050781 -4.32031,-22.519531 3.16797,-31.246093 7.48828,-8.726563 19.61719,-11.867188 30.40235,-7.875 10.78125,3.992187 17.9414,14.273437 17.9414,25.773437 V 326.71094 c 0.008,13.01172 -7.3789,24.89844 -19.04687,30.65625 -11.66797,5.75781 -25.59375,4.38672 -35.91797,-3.53516 8.58203,-8.62891 13.39453,-20.30859 13.38672,-32.47656 0,-3.31641 -2.6836,-6 -6,-6 -3.3125,0 -6,2.68359 -6,6 0,18.875 -15.30078,34.17969 -34.179691,34.17969 -18.878906,0 -34.183594,-15.30469 -34.183594,-34.17969 v -12.06641 c 2.890625,0.42969 5.8125,0.64844 8.734375,0.64844 3.3125,0 6,-2.6875 6,-6 0,-3.3125 -2.6875,-6 -6,-6 C 33.320311,297.9063 12.035155,276.625 12.003906,250.35937 Z m 0,0"
         inkscape:connector-curvature="0"
         style="stroke-width:13.23722553" />
      <path
         id="path851"
         d="m 136.67578,196.73437 c 1.33594,-8.80468 -1.06641,-17.76953 -6.63281,-24.72265 -2.07422,-2.58203 -5.85156,-2.9961 -8.4375,-0.92188 -2.58203,2.07032 -2.99609,5.84766 -0.92578,8.4336 4.52734,5.66015 5.61719,13.33203 2.84765,20.02734 -12.83984,5.75781 -20.38281,19.25391 -18.5625,33.21094 0.39454,2.98047 2.9336,5.21484 5.94141,5.21875 0.26563,-0.004 0.52734,-0.0195 0.79297,-0.0547 3.28516,-0.42969 5.59766,-3.44531 5.16406,-6.73047 -0.39062,-2.96484 -0.10156,-5.98437 0.84766,-8.82422 1.99219,-6.01172 6.73047,-10.71484 12.75781,-12.66797 6.02344,-1.95312 12.62109,-0.92187 17.76562,2.77735 2.6875,1.9375 6.4375,1.32812 8.375,-1.36328 1.9375,-2.6875 1.32813,-6.4375 -1.36328,-8.375 -5.41015,-3.89453 -11.90625,-5.9961 -18.57031,-6.00782 z m 0,0"
         inkscape:connector-curvature="0"
         style="stroke-width:13.23722553" />
      <path
         id="path853"
         d="m 70.667969,175.76562 c 2.316406,-2.37109 2.269531,-6.16796 -0.09766,-8.48437 -1.984374,-1.94531 -3.351562,-4.42969 -3.933593,-7.14844 3.761719,-6.04687 4.894531,-13.36719 3.140625,-20.27344 -0.824219,-3.20703 -4.09375,-5.14062 -7.304688,-4.3164 -3.210937,0.82422 -5.144531,4.09375 -4.316406,7.30469 1.652344,6.5039 -1.472656,13.27734 -7.492188,16.24218 -2.980468,1.45313 -4.21875,5.04297 -2.769531,8.02344 1.453125,2.97656 5.042969,4.21875 8.023438,2.76563 0.457031,-0.22266 0.890625,-0.47657 1.332031,-0.72266 1.273438,2.48047 2.941406,4.74219 4.929688,6.69922 2.371093,2.3164 6.167968,2.26953 8.484374,-0.0977 z m 0,0"
         inkscape:connector-curvature="0"
         style="stroke-width:13.23722553" />
      <path
         id="path855"
         d="m 101.25391,103.65625 c 5.47265,-1.39062 11.24609,0.59766 14.69922,5.0625 3.45703,4.46484 3.92968,10.55469 1.21093,15.5 -1.04687,1.87891 -1.0039,4.17187 0.10157,6.01172 1.10937,1.84375 3.12109,2.94922 5.26953,2.90625 2.14843,-0.0469 4.10547,-1.23828 5.13672,-3.125 2.39062,-4.34766 3.49999,-9.28906 3.19921,-14.24219 6.78516,-0.16797 13.23438,-2.97656 17.97657,-7.82812 1.51562,-1.52735 2.09765,-3.75391 1.52343,-5.82813 -0.57812,-2.07812 -2.22265,-3.687499 -4.30859,-4.214842 -2.08984,-0.527344 -4.30078,0.101562 -5.79688,1.65625 -3.48046,3.550782 -8.57421,5.007812 -13.40624,3.843752 -0.10157,-0.16797 -0.19922,-0.33594 -0.3125,-0.5 -6.16016,-9.265628 -17.5,-13.621096 -28.277349,-10.871096 -3.210937,0.824218 -5.144531,4.09375 -4.320312,7.304687 0.824219,3.210939 4.09375,5.144529 7.304691,4.320309 z m 0,0"
         inkscape:connector-curvature="0"
         style="stroke-width:13.23722553" />
      <path
         id="path857"
         d="m 81.839844,281.94922 c 0.05078,0.21875 0.113281,0.43359 0.1875,0.64844 2.113281,7.93359 0.277344,16.40234 -4.941406,22.74609 -2.066407,2.55859 -1.6875,6.30469 0.851562,8.39844 2.539062,2.09375 6.289062,1.7539 8.40625,-0.76563 5.300781,-6.4375 8.300781,-14.46094 8.53125,-22.79687 10.60938,2.79297 21.91406,0.77734 30.90625,-5.51172 2.71094,-1.90235 3.37109,-5.64063 1.47266,-8.35547 -1.90235,-2.71484 -5.64453,-3.375 -8.35938,-1.47266 -7.72265,5.38672 -17.79687,6.06641 -26.171874,1.75391 -1.867187,-5.23047 -4.878906,-9.97656 -8.808594,-13.89844 -1.515624,-1.53515 -3.734374,-2.14062 -5.816406,-1.58984 -2.082031,0.55469 -3.710937,2.18359 -4.261718,4.26562 -0.550782,2.08594 0.05859,4.30469 1.597656,5.8125 3,3 5.203125,6.69922 6.40625,10.76563 z m 0,0"
         inkscape:connector-curvature="0"
         style="stroke-width:13.23722553" />
      <path
         id="path859"
         d="m 370.97656,164.39062 c 10.3125,-2.5039 17.13281,-12.3125 15.88672,-22.85156 -1.24609,-10.54297 -10.16406,-18.49218 -20.77734,-18.52343 L 342.48828,90.148438 c 6.33203,-6.867188 7.34766,-17.097657 2.4961,-25.078126 C 340.13281,57.089844 330.57813,53.289062 321.57031,55.75 l -24.20312,-10.015625 -2.4336,-15.644531 c -0.32422,-2.097656 -1.73047,-3.863282 -3.69922,-4.652344 L 269.57812,16.777344 C 267.54297,6.863281 258.72656,-0.183594 248.60937,0.0117188 238.49609,0.207031 229.96094,7.59375 228.3125,17.574219 l -24.11328,15.929687 c -1.25781,0.832032 -2.15625,2.105469 -2.51953,3.570313 l -5.5,22.277343 c -0.11719,0.46875 -0.17578,0.953126 -0.17578,1.4375 V 326.71094 c 0,1.01953 0.26171,2.01953 0.7539,2.91015 l 11.64063,20.98828 c -4.47266,6.89454 -4.51172,15.76563 -0.0977,22.69922 4.41797,6.9336 12.47266,10.64844 20.61328,9.50782 8.14063,-1.14063 14.86719,-6.92579 17.20703,-14.80469 h 30.47657 c 4.1289,10.07812 15.28125,15.32031 25.67578,12.07812 10.39453,-3.24609 16.58203,-13.90234 14.24219,-24.53906 l 14.66406,-17.75391 c 8.76562,1.21485 17.34375,-3.21093 21.4414,-11.05078 4.09766,-7.83984 2.83204,-17.40625 -3.16796,-23.91015 2.33984,-1.26953 4.59375,-2.69532 6.74218,-4.26953 10.01172,5.3164 22.4336,1.72265 28.0586,-8.11719 5.62109,-9.83985 2.41406,-22.36719 -7.25,-28.29297 v -43.14453 c 0,-2.3711 -1.39453,-4.51953 -3.5625,-5.48438 l -12.28516,-5.46093 c 0.33203,-0.55079 0.57422,-1.15235 0.71094,-1.78125 z m 4.02735,-20.3789 c 0,4.96875 -4.02735,9 -9,9 -4.96875,0 -9,-4.03125 -9,-9 0,-4.97266 4.03125,-9 9,-9 4.96875,0.004 8.99609,4.03125 9,9 z m -39,-68.000001 c 0,4.96875 -4.02735,9 -9,9 -4.96875,0 -9,-4.03125 -9,-9 0,-4.972657 4.03125,-9 9,-9 4.96875,0.0039 8.99609,4.03125 9,9 z m -87,-64 c 4.97265,0 9,4.027343 9,9 0,4.96875 -4.02735,9 -9,9 -4.96875,0 -9,-4.03125 -9,-9 0.008,-4.96875 4.03515,-8.996094 9,-9 z m -23,109.000001 h 19 v 24.88281 c -8.89844,2.64844 -15,10.83203 -15,20.11719 0,9.28515 6.10156,17.46484 15,20.11328 V 195 h -37 V 89.746094 h 12 v 25.265626 c 0,3.3125 2.6875,6 6,6 z m 55.39453,0 c 1.5039,7.66406 7.125,13.86719 14.60547,16.11328 v 22.88672 h -24.88282 c -2.03515,-6.77735 -7.33984,-12.07813 -14.11718,-14.11719 v -24.88281 z m 20.60547,5 c -4.96875,0 -9,-4.03125 -9,-9 0,-4.97266 4.03125,-9 9,-9 4.97265,0 9,4.02734 9,9 -0.004,4.96875 -4.03125,8.99219 -9,9 z m -51,49 c -4.96875,0 -9,-4.03125 -9,-9 0,-4.97266 4.03125,-9 9,-9 4.97265,0 9,4.02734 9,9 -0.004,4.96875 -4.03125,8.99219 -9,9 z m -43,103 h 35.88672 c 2.03515,6.77734 7.33984,12.07812 14.11328,14.11328 v 15.88672 c 0,3.3125 2.6875,6 6,6 h 26 v 25.88281 c -7.48047,2.24609 -13.10157,8.44922 -14.60547,16.11719 h -29.27735 c -1.70703,-5.73828 -5.78515,-10.47656 -11.20312,-13.01563 -5.42188,-2.54297 -11.67188,-2.64453 -17.17578,-0.28515 l -9.73828,-17.5586 z m 56,3 c -4.96875,0 -9,-4.03125 -9,-9 0,-4.97266 4.03125,-9 9,-9 4.97265,0 9,4.02734 9,9 -0.004,4.96875 -4.03125,8.99219 -9,9 z m -38,90 c -4.96875,0 -9,-4.03125 -9,-9 0,-4.97266 4.03125,-9 9,-9 4.97265,0 9,4.02734 9,9 -0.004,4.96875 -4.03125,8.99219 -9,9 z m 70,-2 c -4.96875,0 -9,-4.03125 -9,-9 0,-4.97266 4.03125,-9 9,-9 4.97265,0 9,4.02734 9,9 -0.004,4.96875 -4.03125,8.99219 -9,9 z m 14.08984,-24.52735 c -2.32031,-2.11718 -5.08203,-3.68359 -8.08984,-4.58984 v -31.88281 c 0,-3.31641 -2.6836,-6 -6,-6 h -26 V 292.125 c 9.625,-2.86719 15.87109,-12.14844 14.90234,-22.14453 -0.96484,-9.9961 -8.87891,-17.90625 -18.87109,-18.8711 -9.9961,-0.96875 -19.27735,5.27735 -22.14453,14.90235 H 208.00391 V 207 h 57.34375 l 8.84765,34.5 c 0.67969,2.65625 3.07032,4.51172 5.8086,4.51172 h 35.88672 c 2.03515,6.77734 7.33984,12.07812 14.11328,14.11328 v 36.27734 c -7.8086,1.50391 -14.09766,7.30078 -16.23047,14.96094 -2.13281,7.66406 0.25781,15.875 6.16797,21.19922 z m 25.91016,-95.47265 c -4.96875,0 -9,-4.03125 -9,-9 0,-4.97266 4.03125,-9 9,-9 4.97265,0 9,4.02734 9,9 -0.004,4.96875 -4.03125,8.99219 -9,9 z m -2,77 c -0.71485,-0.004 -1.42578,-0.0937 -2.1211,-0.26563 -0.55078,-0.30078 -1.14844,-0.51562 -1.76562,-0.63281 -4.11328,-1.99219 -6.07032,-6.75781 -4.55078,-11.06641 1.52343,-4.30859 6.03906,-6.78906 10.49218,-5.75781 4.45313,1.03125 7.42188,5.24219 6.89453,9.78125 -0.52343,4.53906 -4.3789,7.96094 -8.94921,7.94531 z m 32,-37 c -3.48047,0.0156 -6.65625,-1.98047 -8.15625,-5.1211 -1.5,-3.14062 -1.05469,-6.86328 1.14062,-9.5625 2.19922,-2.69921 5.75781,-3.89062 9.13672,-3.05468 0.55078,0.30078 1.14453,0.51562 1.76172,0.6289 3.79297,1.8086 5.82812,6.00782 4.89844,10.10547 -0.92969,4.09766 -4.57813,7.00781 -8.78125,7.00391 z m -1,-29.94922 c -7.20703,0.33203 -13.73829,4.35156 -17.28516,10.63281 -3.55078,6.28125 -3.62109,13.94922 -0.18359,20.29688 -1.76954,1.17968 -3.61719,2.23828 -5.53125,3.16797 V 260.125 c 9.625,-2.86719 15.87109,-12.14844 14.90234,-22.14453 -0.96484,-9.9961 -8.87891,-17.90625 -18.87109,-18.8711 -9.9961,-0.96875 -19.27735,5.27735 -22.14454,14.90235 h -31.23046 l -8.84375,-34.5 C 275.13672,196.85547 272.74609,195 270.00391,195 h -13 v -8.875 c 6.77734,-2.03516 12.08203,-7.33594 14.11718,-14.11328 h 48.82422 v 26.82422 c 0.0312,2.42187 1.4375,4.61328 3.625,5.65625 l 41.4336,18.41797 z m -33.0586,-63.97656 v -29.07422 c 0,-3.31641 -2.6875,-6 -6,-6 h -17.9414 V 137.125 c 9.37109,-2.78906 15.57421,-11.67969 14.96093,-21.4375 -0.61328,-9.75781 -7.88281,-17.800781 -17.52734,-19.394531 -9.64844,-1.597657 -19.11719,3.675781 -22.83984,12.718751 H 232.00391 V 83.746094 c 0,-3.3125 -2.6836,-6 -6,-6 h -18 V 61.519531 l 4.76562,-19.292969 17.58203,-11.617187 c 3.71875,7.25 11.29688,11.6875 19.4375,11.386719 8.14063,-0.300782 15.3711,-5.285156 18.55078,-12.785156 l 15.26563,6.101562 6.47265,41.621094 c 0.51172,3.273437 3.57813,5.515625 6.85157,5.003906 3.27343,-0.507812 5.51562,-3.574219 5.00781,-6.847656 l -2.40625,-15.472656 10.35156,4.28125 c -5.12109,7.164062 -5.21094,16.769531 -0.22656,24.027343 4.98828,7.257813 13.98047,10.621094 22.50781,8.417969 l 21.86328,30.44531 c -6.44531,4.46875 -9.85547,12.16016 -8.84375,19.9336 1.01563,7.77734 6.28516,14.33593 13.66016,17 l -8.58594,39.5 z m 0,0"
         inkscape:connector-curvature="0"
         style="stroke-width:13.23722553" />
    </g>
    <g
       id="g932"
       transform="matrix(0.1511,0,0,0.1511,103.20439,224.3757)"
       style="stroke-width:14.0083828">
      <path
         id="path910"
         d="m 42,18 c 0.265,0 0.52,-0.105 0.707,-0.293 L 54.414,6 h 1.77 C 56.598,7.161 57.698,8 59,8 60.654,8 62,6.654 62,5 62,3.346 60.654,2 59,2 57.698,2 56.598,2.839 56.184,4 H 54 C 53.735,4 53.48,4.105 53.293,4.293 L 41.586,16 H 40 v -1 c 0,-1.654 -1.346,-3 -3,-3 -1.654,0 -3,1.346 -3,3 v 3 H 28.899 C 28.434,15.721 26.415,14 24,14 c -1.252,0 -2.384,0.479 -3.262,1.242 L 11.482,8.174 C 11.804,7.513 12,6.782 12,6 12,3.243 9.757,1 7,1 4.243,1 2,3.243 2,6 c 0,2.757 2.243,5 5,5 1.252,0 2.384,-0.479 3.262,-1.242 l 9.256,7.068 c -0.181,0.371 -0.332,0.758 -0.417,1.173 H 11.899 C 11.434,15.721 9.414,14 7,14 c -2.757,0 -5,2.243 -5,5 0,2.757 2.243,5 5,5 1.252,0 2.384,-0.479 3.262,-1.242 l 3.59,2.742 -3.59,2.742 C 9.384,27.479 8.252,27 7,27 c -2.757,0 -5,2.243 -5,5 0,2.757 2.243,5 5,5 1.252,0 2.384,-0.479 3.262,-1.242 l 3.59,2.742 -3.59,2.742 C 9.384,40.479 8.252,40 7,40 c -2.757,0 -5,2.243 -5,5 0,2.757 2.243,5 5,5 2.414,0 4.434,-1.721 4.899,-4 h 7.202 c 0.085,0.415 0.236,0.802 0.417,1.173 l -9.256,7.068 C 9.384,53.479 8.252,53 7,53 c -2.757,0 -5,2.243 -5,5 0,2.757 2.243,5 5,5 2.757,0 5,-2.243 5,-5 0,-0.782 -0.196,-1.513 -0.518,-2.173 l 9.256,-7.068 C 21.616,49.521 22.748,50 24,50 c 2.414,0 4.434,-1.721 4.899,-4 H 34 v 2 c 0,1.654 1.346,3 3,3 1.654,0 3,-1.346 3,-3 h 1.586 L 53.293,59.707 C 53.48,59.895 53.735,60 54,60 h 2.184 c 0.414,1.161 1.514,2 2.816,2 1.654,0 3,-1.346 3,-3 0,-1.654 -1.346,-3 -3,-3 -1.302,0 -2.402,0.839 -2.816,2 h -1.77 L 42.707,46.293 C 42.52,46.105 42.265,46 42,46 h -2 v -3 h 4.586 l 7.707,7.707 C 52.48,50.895 52.735,51 53,51 h 3.184 c 0.414,1.161 1.514,2 2.816,2 1.654,0 3,-1.346 3,-3 0,-1.654 -1.346,-3 -3,-3 -1.302,0 -2.402,0.839 -2.816,2 h -2.77 L 45.707,41.293 C 45.52,41.105 45.265,41 45,41 h -5 v -3 h 8.586 l 3.707,3.707 C 52.48,41.895 52.735,42 53,42 h 3.184 c 0.414,1.161 1.514,2 2.816,2 1.654,0 3,-1.346 3,-3 0,-1.654 -1.346,-3 -3,-3 -1.302,0 -2.402,0.839 -2.816,2 h -2.77 L 49.707,36.293 C 49.52,36.105 49.265,36 49,36 h -9 v -3 h 16.184 c 0.414,1.161 1.514,2 2.816,2 1.654,0 3,-1.346 3,-3 0,-1.654 -1.346,-3 -3,-3 -1.302,0 -2.402,0.839 -2.816,2 H 40 v -3 h 9 c 0.265,0 0.52,-0.105 0.707,-0.293 L 53.414,24 h 2.77 c 0.414,1.161 1.514,2 2.816,2 1.654,0 3,-1.346 3,-3 0,-1.654 -1.346,-3 -3,-3 -1.302,0 -2.402,0.839 -2.816,2 H 53 c -0.265,0 -0.52,0.105 -0.707,0.293 L 48.586,26 H 40 v -3 h 5 c 0.265,0 0.52,-0.105 0.707,-0.293 L 53.414,15 h 2.77 c 0.414,1.161 1.514,2 2.816,2 1.654,0 3,-1.346 3,-3 0,-1.654 -1.346,-3 -3,-3 -1.302,0 -2.402,0.839 -2.816,2 H 53 c -0.265,0 -0.52,0.105 -0.707,0.293 L 44.586,21 H 40 V 18 Z M 59,4 c 0.551,0 1,0.448 1,1 0,0.552 -0.449,1 -1,1 -0.551,0 -1,-0.448 -1,-1 0,-0.552 0.449,-1 1,-1 z m 0,54 c 0.551,0 1,0.448 1,1 0,0.552 -0.449,1 -1,1 -0.551,0 -1,-0.448 -1,-1 0,-0.552 0.449,-1 1,-1 z m 0,-9 c 0.551,0 1,0.448 1,1 0,0.552 -0.449,1 -1,1 -0.551,0 -1,-0.448 -1,-1 0,-0.552 0.449,-1 1,-1 z m 0,-9 c 0.551,0 1,0.448 1,1 0,0.552 -0.449,1 -1,1 -0.551,0 -1,-0.448 -1,-1 0,-0.552 0.449,-1 1,-1 z m 0,-9 c 0.551,0 1,0.448 1,1 0,0.552 -0.449,1 -1,1 -0.551,0 -1,-0.448 -1,-1 0,-0.552 0.449,-1 1,-1 z m 0,-9 c 0.551,0 1,0.448 1,1 0,0.552 -0.449,1 -1,1 -0.551,0 -1,-0.448 -1,-1 0,-0.552 0.449,-1 1,-1 z m 0,-9 c 0.551,0 1,0.448 1,1 0,0.552 -0.449,1 -1,1 -0.551,0 -1,-0.448 -1,-1 0,-0.552 0.449,-1 1,-1 z M 28.899,20 H 34 V 31 H 28.899 C 28.434,28.721 26.415,27 24,27 c -1.252,0 -2.384,0.479 -3.262,1.242 l -3.59,-2.742 3.59,-2.742 C 21.616,23.521 22.748,24 24,24 c 2.414,0 4.434,-1.721 4.899,-4 z M 21,32 c 0,-1.654 1.346,-3 3,-3 1.654,0 3,1.346 3,3 0,1.654 -1.346,3 -3,3 -1.654,0 -3,-1.346 -3,-3 z m 3,-16 c 1.654,0 3,1.346 3,3 0,1.654 -1.346,3 -3,3 -1.654,0 -3,-1.346 -3,-3 0,-1.654 1.346,-3 3,-3 z M 7,9 C 5.346,9 4,7.654 4,6 4,4.346 5.346,3 7,3 8.654,3 10,4.346 10,6 10,7.654 8.654,9 7,9 Z m 0,13 c -1.654,0 -3,-1.346 -3,-3 0,-1.654 1.346,-3 3,-3 1.654,0 3,1.346 3,3 0,1.654 -1.346,3 -3,3 z m 4.482,-0.827 C 11.663,20.802 11.814,20.415 11.899,20 h 7.202 c 0.085,0.415 0.236,0.802 0.417,1.173 L 15.5,24.242 Z m 8.036,8.654 C 19.337,30.198 19.186,30.585 19.101,31 H 11.899 C 11.814,30.585 11.663,30.198 11.482,29.827 L 15.5,26.759 Z M 7,35 c -1.654,0 -3,-1.346 -3,-3 0,-1.654 1.346,-3 3,-3 1.654,0 3,1.346 3,3 0,1.654 -1.346,3 -3,3 z m 4.482,-0.827 C 11.663,33.802 11.814,33.415 11.899,33 h 7.202 c 0.085,0.415 0.236,0.802 0.417,1.173 L 15.5,37.242 Z M 19.101,44 h -7.202 c -0.085,-0.415 -0.236,-0.802 -0.417,-1.173 l 4.018,-3.068 4.018,3.068 C 19.337,43.198 19.186,43.585 19.101,44 Z M 7,48 c -1.654,0 -3,-1.346 -3,-3 0,-1.654 1.346,-3 3,-3 1.654,0 3,1.346 3,3 0,1.654 -1.346,3 -3,3 z m 0,13 c -1.654,0 -3,-1.346 -3,-3 0,-1.654 1.346,-3 3,-3 1.654,0 3,1.346 3,3 0,1.654 -1.346,3 -3,3 z M 24,48 c -1.654,0 -3,-1.346 -3,-3 0,-1.654 1.346,-3 3,-3 1.654,0 3,1.346 3,3 0,1.654 -1.346,3 -3,3 z m 4.899,-4 C 28.434,41.721 26.415,40 24,40 c -1.252,0 -2.384,0.479 -3.262,1.242 l -3.59,-2.742 3.59,-2.742 C 21.616,36.521 22.748,37 24,37 c 2.414,0 4.434,-1.721 4.899,-4 H 34 V 44 Z M 38,48 c 0,0.552 -0.449,1 -1,1 -0.551,0 -1,-0.448 -1,-1 V 15 c 0,-0.552 0.449,-1 1,-1 0.551,0 1,0.448 1,1 z"
         inkscape:connector-curvature="0"
         style="stroke-width:14.0083828" />
      <path
         id="path912"
         d="m 30,23 h 2 v 2 h -2 z"
         inkscape:connector-curvature="0"
         style="stroke-width:14.0083828" />
      <path
         id="path914"
         d="m 30,27 h 2 v 2 h -2 z"
         inkscape:connector-curvature="0"
         style="stroke-width:14.0083828" />
      <path
         id="path916"
         d="m 30,35 h 2 v 2 h -2 z"
         inkscape:connector-curvature="0"
         style="stroke-width:14.0083828" />
      <path
         id="path918"
         d="m 30,39 h 2 v 2 h -2 z"
         inkscape:connector-curvature="0"
         style="stroke-width:14.0083828" />
    </g>
    <g
       id="g1031"
       transform="matrix(0.02019647,0,0,0.02019647,86.244813,238.69587)"
       style="stroke-width:13.10047245">
      <g
         id="g962"
         style="stroke-width:13.10047245">
	<g
   id="g960"
   style="stroke-width:13.10047245">
		<g
   id="g958"
   style="stroke-width:13.10047245">
			<path
   id="path934"
   d="M 374,250.136 400.728,223.4 344.16,166.832 317.424,193.56 c -9.328,-5.152 -19.2,-9.176 -29.432,-12.128 v -37.088 c 25.84,-13.904 40,-36.736 40,-64.776 0,-33.784 -21.432,-64.064 -53.328,-75.36 L 264,0.432 V 65.8 L 248,71.136 232,65.8 V 0.432 L 221.328,4.208 C 189.432,15.504 168,45.784 168,79.568 c 0,28.04 14.16,50.872 40,64.776 v 37.088 c -10.232,2.96 -20.104,6.976 -29.432,12.128 l -26.736,-26.728 -56.568,56.568 26.728,26.736 c -5.16,9.336 -9.248,19.192 -12.2,29.432 H 72 v 80 h 37.792 c 2.96,10.24 7.04,20.096 12.2,29.432 l -26.728,26.736 56.568,56.568 26.736,-26.728 c 9.336,5.16 19.192,9.248 29.432,12.2 v 37.792 h 80 v -37.792 c 10.24,-2.96 20.096,-7.04 29.432,-12.2 l 26.736,26.728 56.568,-56.568 L 374.008,389 c 5.16,-9.336 9.248,-19.192 12.2,-29.432 H 424 v -80 h -37.792 c -2.96,-10.24 -7.04,-20.096 -12.208,-29.432 z M 184,79.568 c 0,-23.048 12.488,-44.064 32,-55.352 v 53.12 L 248,88 280,77.336 v -53.12 c 19.512,11.288 32,32.304 32,55.352 0,23.464 -12.248,41.664 -35.424,52.632 L 272,134.368 v 129.2 h 16 V 250.24 c 24.632,14.128 40,40.2 40,69.328 0,29.536 -16.128,55.32 -40,69.176 V 279.568 H 272 V 395.88 c -7.584,2.392 -15.64,3.688 -24,3.688 -8.36,0 -16.416,-1.296 -24,-3.688 V 134.368 L 219.424,132.2 C 196.248,121.232 184,103.032 184,79.568 Z m 224,264 h -34.24 l -1.48,6.12 c -3.112,12.872 -8.192,25.136 -15.112,36.44 l -3.288,5.376 24.232,24.224 -33.944,33.944 -24.224,-24.232 -5.376,3.288 c -11.312,6.92 -23.568,12 -36.44,15.112 L 272,445.328 v 34.24 h -48 v -34.24 l -6.12,-1.48 c -12.872,-3.112 -25.136,-8.192 -36.44,-15.112 l -5.376,-3.288 -24.224,24.232 -33.944,-33.944 24.232,-24.224 -3.288,-5.376 c -6.92,-11.312 -12,-23.568 -15.112,-36.44 l -1.488,-6.128 H 88 v -48 h 34.24 l 1.48,-6.12 c 3.112,-12.872 8.192,-25.136 15.112,-36.44 l 3.288,-5.376 -24.232,-24.224 33.944,-33.944 24.224,24.232 5.376,-3.288 c 8.376,-5.128 17.28,-9.232 26.56,-12.28 v 34.208 c -34.184,15.624 -56,49.256 -56,87.24 0,52.936 43.064,96 96,96 52.936,0 96,-43.064 96,-96 0,-37.992 -21.816,-71.624 -56,-87.24 v -34.208 c 9.28,3.056 18.184,7.16 26.56,12.28 l 5.376,3.288 24.224,-24.232 33.944,33.944 -24.232,24.224 3.288,5.376 c 6.92,11.312 12,23.568 15.112,36.44 l 1.496,6.12 H 408 Z m -200,-93.32 v 138.496 c -23.872,-13.856 -40,-39.64 -40,-69.176 0,-29.12 15.368,-55.192 40,-69.32 z"
   inkscape:connector-curvature="0"
   style="stroke-width:13.10047245" />

			<path
   id="path936"
   d="M 32,393.04 V 103.568 c 0,-4.408 3.592,-8 8,-8 h 65.472 c 3.312,9.288 12.112,16 22.528,16 13.232,0 24,-10.768 24,-24 0,-13.232 -10.768,-24 -24,-24 -10.416,0 -19.216,6.712 -22.528,16 H 40 c -13.232,0 -24,10.768 -24,24 V 393.04 c -9.288,3.312 -16,12.112 -16,22.528 0,13.232 10.768,24 24,24 13.232,0 24,-10.768 24,-24 0,-10.416 -6.712,-19.216 -16,-22.528 z M 128,79.568 c 4.408,0 8,3.592 8,8 0,4.408 -3.592,8 -8,8 -4.408,0 -8,-3.592 -8,-8 0,-4.408 3.592,-8 8,-8 z m -104,344 c -4.408,0 -8,-3.592 -8,-8 0,-4.408 3.592,-8 8,-8 4.408,0 8,3.592 8,8 0,4.408 -3.592,8 -8,8 z"
   inkscape:connector-curvature="0"
   style="stroke-width:13.10047245" />

			<rect
   id="rect938"
   height="16"
   width="16"
   y="111.568"
   x="48"
   style="stroke-width:13.10047245" />

			<rect
   id="rect940"
   height="16"
   width="16"
   y="143.56799"
   x="48"
   style="stroke-width:13.10047245" />

			<rect
   id="rect942"
   height="16"
   width="16"
   y="175.56799"
   x="48"
   style="stroke-width:13.10047245" />

			<path
   id="path944"
   d="M 480,393.04 V 103.568 c 0,-13.232 -10.768,-24 -24,-24 h -65.472 c -3.312,-9.288 -12.112,-16 -22.528,-16 -13.232,0 -24,10.768 -24,24 0,13.232 10.768,24 24,24 10.416,0 19.216,-6.712 22.528,-16 H 456 c 4.408,0 8,3.592 8,8 V 393.04 c -9.288,3.312 -16,12.112 -16,22.528 0,13.232 10.768,24 24,24 13.232,0 24,-10.768 24,-24 0,-10.416 -6.712,-19.216 -16,-22.528 z M 368,95.568 c -4.408,0 -8,-3.592 -8,-8 0,-4.408 3.592,-8 8,-8 4.408,0 8,3.592 8,8 0,4.408 -3.592,8 -8,8 z m 104,328 c -4.408,0 -8,-3.592 -8,-8 0,-4.408 3.592,-8 8,-8 4.408,0 8,3.592 8,8 0,4.408 -3.592,8 -8,8 z"
   inkscape:connector-curvature="0"
   style="stroke-width:13.10047245" />

			<rect
   id="rect946"
   height="16"
   width="16"
   y="111.568"
   x="432"
   style="stroke-width:13.10047245" />

			<rect
   id="rect948"
   height="16"
   width="16"
   y="143.56799"
   x="432"
   style="stroke-width:13.10047245" />

			<rect
   id="rect950"
   height="16"
   width="16"
   y="175.56799"
   x="432"
   style="stroke-width:13.10047245" />

			<rect
   id="rect952"
   height="16"
   width="16"
   y="367.56799"
   x="240"
   style="stroke-width:13.10047245" />

			<rect
   id="rect954"
   height="16"
   width="16"
   y="335.56799"
   x="240"
   style="stroke-width:13.10047245" />

			<rect
   id="rect956"
   height="16"
   width="16"
   y="303.56799"
   x="240"
   style="stroke-width:13.10047245" />

		</g>

	</g>

</g>
      <g
         id="g964"
         style="stroke-width:13.10047245">
</g>
      <g
         id="g966"
         style="stroke-width:13.10047245">
</g>
      <g
         id="g968"
         style="stroke-width:13.10047245">
</g>
      <g
         id="g970"
         style="stroke-width:13.10047245">
</g>
      <g
         id="g972"
         style="stroke-width:13.10047245">
</g>
      <g
         id="g974"
         style="stroke-width:13.10047245">
</g>
      <g
         id="g976"
         style="stroke-width:13.10047245">
</g>
      <g
         id="g978"
         style="stroke-width:13.10047245">
</g>
      <g
         id="g980"
         style="stroke-width:13.10047245">
</g>
      <g
         id="g982"
         style="stroke-width:13.10047245">
</g>
      <g
         id="g984"
         style="stroke-width:13.10047245">
</g>
      <g
         id="g986"
         style="stroke-width:13.10047245">
</g>
      <g
         id="g988"
         style="stroke-width:13.10047245">
</g>
      <g
         id="g990"
         style="stroke-width:13.10047245">
</g>
      <g
         id="g992"
         style="stroke-width:13.10047245">
</g>
    </g>
    <text
       xml:space="preserve"
       style="font-style:normal;font-variant:normal;font-weight:bold;font-stretch:normal;font-size:4.58611107px;line-height:1.25;font-family:Arial;-inkscape-font-specification:'Arial, Bold';font-variant-ligatures:normal;font-variant-caps:normal;font-variant-numeric:normal;font-feature-settings:normal;text-align:start;letter-spacing:0px;word-spacing:0px;writing-mode:lr-tb;text-anchor:start;fill:#000000;fill-opacity:1;stroke:none;stroke-width:0.26458332"
       x="1.336347"
       y="248.62422"
       id="text1035"><tspan
         sodipodi:role="line"
         id="tspan1033"
         x="1.336347"
         y="248.62422"
         style="font-style:normal;font-variant:normal;font-weight:bold;font-stretch:normal;font-size:4.58611107px;font-family:Arial;-inkscape-font-specification:'Arial, Bold';font-variant-ligatures:normal;font-variant-caps:normal;font-variant-numeric:normal;font-feature-settings:normal;text-align:start;writing-mode:lr-tb;text-anchor:start;stroke-width:0.26458332">Machine Learning (ML)</tspan><tspan
         sodipodi:role="line"
         x="1.336347"
         y="254.35686"
         style="font-style:normal;font-variant:normal;font-weight:bold;font-stretch:normal;font-size:4.58611107px;font-family:Arial;-inkscape-font-specification:'Arial, Bold';font-variant-ligatures:normal;font-variant-caps:normal;font-variant-numeric:normal;font-feature-settings:normal;text-align:start;writing-mode:lr-tb;text-anchor:start;stroke-width:0.26458332"
         id="tspan1039" /><tspan
         sodipodi:role="line"
         x="1.336347"
         y="260.08951"
         style="font-style:normal;font-variant:normal;font-weight:bold;font-stretch:normal;font-size:4.58611107px;font-family:Arial;-inkscape-font-specification:'Arial, Bold';font-variant-ligatures:normal;font-variant-caps:normal;font-variant-numeric:normal;font-feature-settings:normal;text-align:start;writing-mode:lr-tb;text-anchor:start;stroke-width:0.26458332"
         id="tspan1037" /></text>
    <text
       xml:space="preserve"
       style="font-style:normal;font-variant:normal;font-weight:normal;font-stretch:normal;font-size:3.17499995px;line-height:1.25;font-family:Arial;-inkscape-font-specification:'Arial, Normal';font-variant-ligatures:normal;font-variant-caps:normal;font-variant-numeric:normal;font-feature-settings:normal;text-align:start;letter-spacing:0px;word-spacing:0px;writing-mode:lr-tb;text-anchor:start;fill:#000000;fill-opacity:1;stroke:none;stroke-width:0.26458332"
       x="1.5907083"
       y="278.87512"
       id="text1043"><tspan
         sodipodi:role="line"
         x="1.5907083"
         y="278.87512"
         style="font-style:normal;font-variant:normal;font-weight:normal;font-stretch:normal;font-size:3.17499995px;font-family:Arial;-inkscape-font-specification:'Arial, Normal';font-variant-ligatures:normal;font-variant-caps:normal;font-variant-numeric:normal;font-feature-settings:normal;text-align:start;writing-mode:lr-tb;text-anchor:start;stroke-width:0.26458332"
         id="tspan1045">Any device that perceives its environment and </tspan><tspan
         sodipodi:role="line"
         x="1.5907083"
         y="282.84387"
         style="font-style:normal;font-variant:normal;font-weight:normal;font-stretch:normal;font-size:3.17499995px;font-family:Arial;-inkscape-font-specification:'Arial, Normal';font-variant-ligatures:normal;font-variant-caps:normal;font-variant-numeric:normal;font-feature-settings:normal;text-align:start;writing-mode:lr-tb;text-anchor:start;stroke-width:0.26458332"
         id="tspan1049">takes actions that maximize its chance of </tspan><tspan
         sodipodi:role="line"
         x="1.5907083"
         y="286.81262"
         style="font-style:normal;font-variant:normal;font-weight:normal;font-stretch:normal;font-size:3.17499995px;font-family:Arial;-inkscape-font-specification:'Arial, Normal';font-variant-ligatures:normal;font-variant-caps:normal;font-variant-numeric:normal;font-feature-settings:normal;text-align:start;writing-mode:lr-tb;text-anchor:start;stroke-width:0.26458332"
         id="tspan1051">successfully achieving its goals. AI is often used to </tspan><tspan
         sodipodi:role="line"
         x="1.5907083"
         y="290.78137"
         style="font-style:normal;font-variant:normal;font-weight:normal;font-stretch:normal;font-size:3.17499995px;font-family:Arial;-inkscape-font-specification:'Arial, Normal';font-variant-ligatures:normal;font-variant-caps:normal;font-variant-numeric:normal;font-feature-settings:normal;text-align:start;writing-mode:lr-tb;text-anchor:start;stroke-width:0.26458332"
         id="tspan1053">describe machines  that mimic &quot;cognitive&quot; functions </tspan><tspan
         sodipodi:role="line"
         x="1.5907083"
         y="294.75012"
         style="font-style:normal;font-variant:normal;font-weight:normal;font-stretch:normal;font-size:3.17499995px;font-family:Arial;-inkscape-font-specification:'Arial, Normal';font-variant-ligatures:normal;font-variant-caps:normal;font-variant-numeric:normal;font-feature-settings:normal;text-align:start;writing-mode:lr-tb;text-anchor:start;stroke-width:0.26458332"
         id="tspan1055">that humans associate with the human mind.</tspan></text>
    <text
       xml:space="preserve"
       style="font-style:normal;font-variant:normal;font-weight:normal;font-stretch:normal;font-size:3.17499995px;line-height:1.25;font-family:Arial;-inkscape-font-specification:'Arial, Normal';font-variant-ligatures:normal;font-variant-caps:normal;font-variant-numeric:normal;font-feature-settings:normal;text-align:start;letter-spacing:0px;word-spacing:0px;writing-mode:lr-tb;text-anchor:start;fill:#000000;fill-opacity:1;stroke:none;stroke-width:0.26458332"
       x="1.4222566"
       y="253.27126"
       id="text1043-7"><tspan
         sodipodi:role="line"
         x="1.4222566"
         y="253.27126"
         style="font-style:normal;font-variant:normal;font-weight:normal;font-stretch:normal;font-size:3.17499995px;font-family:Arial;-inkscape-font-specification:'Arial, Normal';font-variant-ligatures:normal;font-variant-caps:normal;font-variant-numeric:normal;font-feature-settings:normal;text-align:start;writing-mode:lr-tb;text-anchor:start;stroke-width:0.26458332"
         id="tspan1125">A subset of AI involved with the creation of </tspan><tspan
         sodipodi:role="line"
         x="1.4222566"
         y="257.23999"
         style="font-style:normal;font-variant:normal;font-weight:normal;font-stretch:normal;font-size:3.17499995px;font-family:Arial;-inkscape-font-specification:'Arial, Normal';font-variant-ligatures:normal;font-variant-caps:normal;font-variant-numeric:normal;font-feature-settings:normal;text-align:start;writing-mode:lr-tb;text-anchor:start;stroke-width:0.26458332"
         id="tspan1129">algorithms which can modify itself without </tspan><tspan
         sodipodi:role="line"
         x="1.4222566"
         y="261.20874"
         style="font-style:normal;font-variant:normal;font-weight:normal;font-stretch:normal;font-size:3.17499995px;font-family:Arial;-inkscape-font-specification:'Arial, Normal';font-variant-ligatures:normal;font-variant-caps:normal;font-variant-numeric:normal;font-feature-settings:normal;text-align:start;writing-mode:lr-tb;text-anchor:start;stroke-width:0.26458332"
         id="tspan1131">human intervention to produce desired output </tspan><tspan
         sodipodi:role="line"
         x="1.4222566"
         y="265.17749"
         style="font-style:normal;font-variant:normal;font-weight:normal;font-stretch:normal;font-size:3.17499995px;font-family:Arial;-inkscape-font-specification:'Arial, Normal';font-variant-ligatures:normal;font-variant-caps:normal;font-variant-numeric:normal;font-feature-settings:normal;text-align:start;writing-mode:lr-tb;text-anchor:start;stroke-width:0.26458332"
         id="tspan1133">by feeding itself through structured data.</tspan></text>
    <text
       xml:space="preserve"
       style="font-style:normal;font-variant:normal;font-weight:bold;font-stretch:normal;font-size:4.58611107px;line-height:1.25;font-family:Arial;-inkscape-font-specification:'Arial, Bold';font-variant-ligatures:normal;font-variant-caps:normal;font-variant-numeric:normal;font-feature-settings:normal;text-align:start;letter-spacing:0px;word-spacing:0px;writing-mode:lr-tb;text-anchor:start;fill:#000000;fill-opacity:1;stroke:none;stroke-width:0.26458332"
       x="1.6423728"
       y="274.65637"
       id="text1035-3"><tspan
         sodipodi:role="line"
         id="tspan1033-2"
         x="1.6423728"
         y="274.65637"
         style="font-style:normal;font-variant:normal;font-weight:bold;font-stretch:normal;font-size:4.58611107px;font-family:Arial;-inkscape-font-specification:'Arial, Bold';font-variant-ligatures:normal;font-variant-caps:normal;font-variant-numeric:normal;font-feature-settings:normal;text-align:start;writing-mode:lr-tb;text-anchor:start;stroke-width:0.26458332">Artifical Intelligence (AI)</tspan><tspan
         sodipodi:role="line"
         x="1.6423728"
         y="280.38901"
         style="font-style:normal;font-variant:normal;font-weight:bold;font-stretch:normal;font-size:4.58611107px;font-family:Arial;-inkscape-font-specification:'Arial, Bold';font-variant-ligatures:normal;font-variant-caps:normal;font-variant-numeric:normal;font-feature-settings:normal;text-align:start;writing-mode:lr-tb;text-anchor:start;stroke-width:0.26458332"
         id="tspan1039-6" /><tspan
         sodipodi:role="line"
         x="1.6423728"
         y="286.12164"
         style="font-style:normal;font-variant:normal;font-weight:bold;font-stretch:normal;font-size:4.58611107px;font-family:Arial;-inkscape-font-specification:'Arial, Bold';font-variant-ligatures:normal;font-variant-caps:normal;font-variant-numeric:normal;font-feature-settings:normal;text-align:start;writing-mode:lr-tb;text-anchor:start;stroke-width:0.26458332"
         id="tspan1037-5" /></text>
    <text
       xml:space="preserve"
       style="font-style:normal;font-variant:normal;font-weight:normal;font-stretch:normal;font-size:3.17499995px;line-height:1.25;font-family:Arial;-inkscape-font-specification:'Arial, Normal';font-variant-ligatures:normal;font-variant-caps:normal;font-variant-numeric:normal;font-feature-settings:normal;text-align:start;letter-spacing:0px;word-spacing:0px;writing-mode:lr-tb;text-anchor:start;fill:#000000;fill-opacity:1;stroke:none;stroke-width:0.26458332"
       x="1.3103406"
       y="232.08171"
       id="text1043-7-4"><tspan
         sodipodi:role="line"
         x="1.3103406"
         y="232.08171"
         style="font-style:normal;font-variant:normal;font-weight:normal;font-stretch:normal;font-size:3.17499995px;font-family:Arial;-inkscape-font-specification:'Arial, Normal';font-variant-ligatures:normal;font-variant-caps:normal;font-variant-numeric:normal;font-feature-settings:normal;text-align:start;writing-mode:lr-tb;text-anchor:start;stroke-width:0.26458332"
         id="tspan1195">A class of ML which uses huge, layered models </tspan><tspan
         sodipodi:role="line"
         x="1.3103406"
         y="236.05046"
         style="font-style:normal;font-variant:normal;font-weight:normal;font-stretch:normal;font-size:3.17499995px;font-family:Arial;-inkscape-font-specification:'Arial, Normal';font-variant-ligatures:normal;font-variant-caps:normal;font-variant-numeric:normal;font-feature-settings:normal;text-align:start;writing-mode:lr-tb;text-anchor:start;stroke-width:0.26458332"
         id="tspan1199">(e.g. large artifical neural networks) to </tspan><tspan
         sodipodi:role="line"
         x="1.3103406"
         y="240.01921"
         style="font-style:normal;font-variant:normal;font-weight:normal;font-stretch:normal;font-size:3.17499995px;font-family:Arial;-inkscape-font-specification:'Arial, Normal';font-variant-ligatures:normal;font-variant-caps:normal;font-variant-numeric:normal;font-feature-settings:normal;text-align:start;writing-mode:lr-tb;text-anchor:start;stroke-width:0.26458332"
         id="tspan1197">progressively extract more information from the data.</tspan></text>
    <text
       xml:space="preserve"
       style="font-style:normal;font-variant:normal;font-weight:bold;font-stretch:normal;font-size:4.58611107px;line-height:1.25;font-family:Arial;-inkscape-font-specification:'Arial, Bold';font-variant-ligatures:normal;font-variant-caps:normal;font-variant-numeric:normal;font-feature-settings:normal;text-align:start;letter-spacing:0px;word-spacing:0px;writing-mode:lr-tb;text-anchor:start;fill:#000000;fill-opacity:1;stroke:none;stroke-width:0.26458332"
       x="1.0349889"
       y="227.79515"
       id="text1035-9"><tspan
         sodipodi:role="line"
         id="tspan1033-7"
         x="1.0349889"
         y="227.79515"
         style="font-style:normal;font-variant:normal;font-weight:bold;font-stretch:normal;font-size:4.58611107px;font-family:Arial;-inkscape-font-specification:'Arial, Bold';font-variant-ligatures:normal;font-variant-caps:normal;font-variant-numeric:normal;font-feature-settings:normal;text-align:start;writing-mode:lr-tb;text-anchor:start;stroke-width:0.26458332">Deep Learning (DL)</tspan><tspan
         sodipodi:role="line"
         x="1.0349889"
         y="233.52779"
         style="font-style:normal;font-variant:normal;font-weight:bold;font-stretch:normal;font-size:4.58611107px;font-family:Arial;-inkscape-font-specification:'Arial, Bold';font-variant-ligatures:normal;font-variant-caps:normal;font-variant-numeric:normal;font-feature-settings:normal;text-align:start;writing-mode:lr-tb;text-anchor:start;stroke-width:0.26458332"
         id="tspan1039-3" /><tspan
         sodipodi:role="line"
         x="1.0349889"
         y="239.26042"
         style="font-style:normal;font-variant:normal;font-weight:bold;font-stretch:normal;font-size:4.58611107px;font-family:Arial;-inkscape-font-specification:'Arial, Bold';font-variant-ligatures:normal;font-variant-caps:normal;font-variant-numeric:normal;font-feature-settings:normal;text-align:start;writing-mode:lr-tb;text-anchor:start;stroke-width:0.26458332"
         id="tspan1037-8" /></text>
    <path
       style="fill:none;stroke:#000000;stroke-width:0.26458332px;stroke-linecap:butt;stroke-linejoin:miter;stroke-opacity:1"
       d="m 55.992909,273.18759 18.374894,-0.016"
       id="path1229"
       inkscape:connector-curvature="0" />
    <path
       style="fill:none;stroke:#000000;stroke-width:0.26458332px;stroke-linecap:butt;stroke-linejoin:miter;stroke-opacity:1"
       d="m 53.152047,247.49632 22.118917,-0.016"
       id="path1229-9"
       inkscape:connector-curvature="0" />
    <path
       style="fill:none;stroke:#000000;stroke-width:0.26458332px;stroke-linecap:butt;stroke-linejoin:miter;stroke-opacity:1"
       d="m 44.193255,226.61635 55.738587,-0.016"
       id="path1229-9-8"
       inkscape:connector-curvature="0" />
  </g>
</svg>
