<?xml version="1.0" encoding="UTF-8" standalone="no"?>
<!-- Created with Inkscape (http://www.inkscape.org/) -->

<svg
   xmlns:dc="http://purl.org/dc/elements/1.1/"
   xmlns:cc="http://creativecommons.org/ns#"
   xmlns:rdf="http://www.w3.org/1999/02/22-rdf-syntax-ns#"
   xmlns:svg="http://www.w3.org/2000/svg"
   xmlns="http://www.w3.org/2000/svg"
   xmlns:sodipodi="http://sodipodi.sourceforge.net/DTD/sodipodi-0.dtd"
   xmlns:inkscape="http://www.inkscape.org/namespaces/inkscape"
   width="704.20001mm"
   height="704.20001mm"
   viewBox="0 0 704.20001 704.20001"
   version="1.1"
   id="svg8"
   inkscape:version="0.92.3 (2405546, 2018-03-11)"
   sodipodi:docname="Rock_paper_scissors_lizard_spock.svg">
  <defs
     id="defs2">
    <clipPath
       clipPathUnits="userSpaceOnUse"
       id="clipPath4720">
      <ellipse
         style="opacity:1;fill:none;fill-opacity:1;stroke:#ff0000;stroke-width:2.39161944;stroke-miterlimit:4;stroke-dasharray:none;stroke-opacity:1"
         id="ellipse4722"
         cx="506.44904"
         cy="195.97214"
         rx="99.672447"
         ry="97.988647" />
    </clipPath>
  </defs>
  <sodipodi:namedview
     id="base"
     pagecolor="#ffffff"
     bordercolor="#666666"
     borderopacity="1.0"
     inkscape:pageopacity="0.0"
     inkscape:pageshadow="2"
     inkscape:zoom="0.25"
     inkscape:cx="545.30167"
     inkscape:cy="920.45733"
     inkscape:document-units="mm"
     inkscape:current-layer="layer1"
     showgrid="false"
     fit-margin-top="0.1"
     fit-margin-left="0.1"
     fit-margin-bottom="0.1"
     fit-margin-right="0.1"
     inkscape:window-width="1920"
     inkscape:window-height="1001"
     inkscape:window-x="-9"
     inkscape:window-y="-9"
     inkscape:window-maximized="1" />
  <metadata
     id="metadata5">
    <rdf:RDF>
      <cc:Work
         rdf:about="">
        <dc:format>image/svg+xml</dc:format>
        <dc:type
           rdf:resource="http://purl.org/dc/dcmitype/StillImage" />
        <dc:title></dc:title>
      </cc:Work>
    </rdf:RDF>
  </metadata>
  <g
     inkscape:label="Layer 1"
     inkscape:groupmode="layer"
     id="layer1"
     transform="translate(0,407.20003)">
    <g
       id="g859"
       transform="translate(102.1,-102.09999)">
      <circle
         r="100"
         cy="-12.017002"
         cx="500"
         id="path829"
         style="opacity:1;fill:none;fill-opacity:1;stroke:#000000;stroke-width:4.19999981;stroke-miterlimit:4;stroke-dasharray:none;stroke-opacity:1" />
      <circle
         r="100"
         cy="-12.017018"
         cx="-9.6782394e-08"
         id="path846"
         style="opacity:1;fill:none;fill-opacity:1;stroke:#000000;stroke-width:4.19999981;stroke-miterlimit:4;stroke-dasharray:none;stroke-opacity:1" />
      <circle
         r="100"
         cy="-203"
         cx="250"
         id="path848"
         style="opacity:1;fill:none;fill-opacity:1;stroke:#000000;stroke-width:4.19999981;stroke-miterlimit:4;stroke-dasharray:none;stroke-opacity:1" />
      <circle
         r="100"
         cy="296.99994"
         cx="95.491486"
         id="path850"
         style="opacity:1;fill:none;fill-opacity:1;stroke:#000000;stroke-width:4.19999981;stroke-miterlimit:4;stroke-dasharray:none;stroke-opacity:1" />
      <circle
         r="100"
         cy="296.99997"
         cx="404.50848"
         id="path852"
         style="opacity:1;fill:none;fill-opacity:1;stroke:#000000;stroke-width:4.19999981;stroke-miterlimit:4;stroke-dasharray:none;stroke-opacity:1" />
    </g>
    <path
       inkscape:connector-curvature="0"
       id="path2204"
       style="font-size:12px;fill:#000000;fill-opacity:1;stroke-width:0.38892528"
       d="m 280.58377,195.25837 c -0.17262,1.34357 -0.078,2.0974 0.35895,2.8605 0.93227,1.62807 1.21077,3.94631 0.81826,6.81106 -0.45465,3.31841 -2.28597,10.13337 -2.93201,10.9111 -0.26779,0.32238 -1.09675,1.95177 -1.84211,3.62088 -0.74533,1.66906 -1.957,4.12655 -2.69258,5.46103 -0.73558,1.33448 -1.69875,3.29515 -2.14037,4.35702 -0.44159,1.06187 -0.98704,2.33169 -1.21206,2.8218 -0.66569,1.44987 -6.17066,5.30879 -7.54872,5.29157 -0.74544,-0.009 -1.56663,0.3162 -2.30103,0.9121 -0.92695,0.75217 -2.4992,1.23546 -8.3527,2.56756 -3.96594,0.90254 -8.11823,2.02516 -9.22731,2.4947 -1.29855,0.54977 -6.97597,1.82882 -15.9462,3.59248 -7.66133,1.50632 -14.84338,3.08945 -15.96011,3.51808 -6.56436,2.51953 -16.97772,3.71852 -19.3966,2.2333 -0.47486,-0.29159 -1.61834,-0.52515 -2.54105,-0.51902 -3.1453,0.0209 -5.7502,-0.62185 -8.32791,-2.05488 -2.96255,-1.64695 -5.58807,-2.49066 -8.71905,-2.80187 -1.21013,-0.12027 -2.70631,-0.43481 -3.32493,-0.69895 -0.61857,-0.26414 -1.90869,-0.81604 -2.86688,-1.22645 -0.9582,-0.41041 -1.875,-0.89211 -2.0373,-1.07039 -0.30442,-0.33442 -8.73869,-1.57925 -9.60379,-1.41745 -0.26718,0.05 -1.72146,-0.23156 -3.23172,-0.62561 -6.30056,-1.64383 -7.84469,-2.02308 -9.99532,-2.4549 -1.2436,-0.24968 -3.49306,-0.91313 -4.9988,-1.47432 -1.50574,-0.56118 -2.87612,-0.99441 -3.0453,-0.96276 -0.16917,0.0316 -1.02353,-0.79473 -1.89856,-1.83632 -0.87504,-1.04162 -2.28437,-2.24319 -3.13185,-2.67019 -0.95956,-0.48344 -2.09734,-1.5782 -3.01589,-2.90191 -0.81126,-1.16905 -1.95647,-2.32636 -2.54492,-2.57177 -0.92568,-0.38611 -1.162,-0.79768 -1.75322,-3.05344 -0.4436,-1.69252 -1.18292,-3.31556 -2.10743,-4.62649 -1.19933,-1.70061 -1.5243,-2.55505 -2.05899,-5.41378 -0.68441,-3.65926 -0.34167,-4.5022 0.80602,-1.98235 0.38817,0.85227 1.30699,2.77252 2.04181,4.26722 0.73482,1.4947 1.6647,3.68843 2.06639,4.87497 0.95093,2.80889 3.53541,7.0608 4.91443,8.08511 0.59793,0.44413 1.11843,0.97482 1.15668,1.17931 0.11017,0.58904 2.82486,2.07013 4.40634,2.40404 0.79298,0.16743 1.84372,0.54949 2.33499,0.84908 0.86394,0.52684 7.42415,2.57187 7.94043,2.47531 0.23022,-0.0431 3.82467,1.36646 8.04268,3.1539 0.88258,0.37399 2.06616,0.59367 2.6302,0.48817 0.89075,-0.1666 3.44504,0.33965 6.05103,1.19933 0.43535,0.14363 1.80529,0.32834 3.0443,0.41052 1.23902,0.0821 3.87436,0.40487 5.85623,0.71716 2.94271,0.46366 3.70117,0.73678 4.13614,1.4895 0.29297,0.50697 0.70733,1.12898 0.92084,1.38224 0.48613,0.57676 3.27216,1.0172 4.74363,0.74989 0.62845,-0.11418 2.13277,0.23307 3.4743,0.80198 1.30126,0.55183 2.73496,0.97888 3.18597,0.94901 0.45102,-0.0299 1.38589,0.12087 2.07749,0.33499 0.69159,0.21413 2.24212,0.41244 3.44561,0.44069 1.20349,0.0283 3.72921,0.19877 5.61267,0.37894 5.95022,0.56922 9.38552,0.71165 10.81801,0.44854 0.76353,-0.14023 3.27734,-0.9794 5.58626,-1.86481 2.30891,-0.88541 4.96179,-1.90066 5.89528,-2.25611 0.9335,-0.35545 2.49485,-1.05124 3.46967,-1.5462 1.41072,-0.71628 2.87678,-1.03919 7.18417,-1.58236 2.97646,-0.37533 6.2174,-0.65872 7.2021,-0.62976 2.78362,0.0819 6.04308,-0.25803 6.4087,-0.66831 0.18218,-0.20446 0.40761,-0.90314 0.50094,-1.55262 0.27161,-1.89049 3.33192,-4.17939 6.24351,-4.6697 1.40657,-0.23688 2.59109,-0.66126 3.04622,-1.09138 0.40956,-0.38709 1.37662,-0.82199 2.14902,-0.96646 1.10697,-0.20704 1.69495,-0.65208 2.77725,-2.10211 1.42531,-1.90964 2.60138,-2.49723 3.16472,-1.58109 0.4619,0.75116 1.00624,0.55324 2.2412,-0.81486 0.59084,-0.65455 1.2464,-1.22229 1.45682,-1.26165 0.64799,-0.1212 2.09739,1.18101 1.77724,1.59684 -0.16219,0.21068 -1.18686,1.55545 -2.27706,2.9884 -1.85704,2.44082 -2.10392,2.62813 -3.90901,2.96574 -1.38005,0.25812 -2.02189,0.20573 -2.26195,-0.18463 -0.2928,-0.47619 -0.42696,-0.45687 -1.06233,0.153 -0.39991,0.3839 -2.07919,1.04826 -3.73168,1.47635 -4.03077,1.04419 -6.1127,1.90013 -7.436,3.05719 -1.93564,1.69241 -1.05479,1.77604 5.18642,0.49239 8.35504,-1.71841 12.28689,-3.24832 12.84003,-4.99614 0.16697,-0.52761 0.96129,-1.69526 1.76521,-2.59479 0.80388,-0.89952 2.18361,-2.71527 3.06606,-4.03496 0.88245,-1.31969 2.10313,-2.8534 2.71263,-3.40821 0.6095,-0.55486 1.07777,-1.17153 1.04058,-1.3704 -0.0372,-0.19887 0.93398,-1.74589 2.15822,-3.43782 1.2242,-1.69196 2.9192,-4.45228 3.76668,-6.13412 1.28912,-2.55847 1.5992,-3.71504 1.89855,-7.08148 0.32726,-3.68092 0.2618,-4.49143 -0.76895,-9.51602 -1.22055,-5.94993 -1.58558,-6.73449 -4.66265,-10.02145 -0.85741,-0.91593 -1.61801,-1.9811 -1.6902,-2.36707 -0.18655,-0.99741 0.80836,-1.46556 1.80894,-0.8512 3.25071,1.99602 0.39682,-4.74898 -3.97159,-9.38663 -1.57264,-1.66956 7.9e-4,-3.34541 1.63379,-1.74019 0.75468,0.74178 0.75902,0.73685 0.52964,-0.59955 -0.23606,-1.37551 -2.50246,-4.73615 -4.66465,-6.91685 -1.76046,-1.77557 -1.95413,-3.71331 -0.31941,-3.19599 1.10453,0.34957 0.93617,-0.0913 -1.16563,-3.05215 -0.99623,-1.40347 -2.54641,-3.02786 -3.44485,-3.60977 -1.84257,-1.19346 -2.4625,-2.72607 -1.19832,-2.96251 0.42052,-0.0787 0.74542,-0.2455 0.72199,-0.37074 -0.13999,-0.74846 -1.96087,-2.23442 -3.47778,-2.83815 -2.78409,-1.10809 -4.64894,-2.39717 -4.51596,-3.1217 0.13576,-0.73974 0.70633,-0.90723 2.18321,-0.64088 1.36349,0.2459 1.27119,-0.32987 -0.2769,-1.72734 -1.3549,-1.22298 -4.42335,-2.13176 -6.12399,-1.81368 -1.1329,0.21189 -1.17979,0.16808 -1.1411,-1.06672 0.0463,-1.47722 0.68039,-3.19948 1.21484,-3.29944 0.20009,-0.0374 1.03874,0.27198 1.86361,0.68758 1.0868,0.54755 1.47096,0.60152 1.39512,0.19602 -0.14803,-0.79147 -1.36221,-1.45139 -3.58516,-1.94854 -2.10019,-0.46971 -2.87743,-1.03045 -2.23668,-1.6137 0.30158,-0.27454 0.13487,-0.55475 -0.61194,-1.02832 -1.06514,-0.67541 -2.07889,-0.72898 -1.96193,-0.10366 0.037,0.19788 0.2592,0.43388 0.49377,0.52454 0.54655,0.21115 0.8696,1.8927 0.43892,2.28472 -0.18047,0.16433 -0.92139,0.12018 -1.64648,-0.098 -0.94776,-0.28528 -1.41307,-0.25839 -1.65551,0.0957 -0.5493,0.802 -0.93691,0.67101 -1.13408,-0.38321 -0.19238,-1.02853 -1.73131,-2.16166 -2.7532,-2.02727 -0.61976,0.0815 -1.6542,-0.21443 -6.05088,-1.73101 -1.53402,-0.52916 -3.10886,-0.9023 -3.49968,-0.8292 -0.39079,0.0731 -0.85361,-0.0998 -1.02847,-0.38417 -0.3874,-0.63001 0.4018,-0.5397 4.82945,0.55247 0.47895,0.11818 1.18745,0.0984 1.57447,-0.0439 0.38698,-0.14229 1.18472,-0.0402 1.77276,0.22696 0.58799,0.26714 1.26223,0.44957 1.49826,0.40543 0.23603,-0.0442 0.78327,0.18914 1.21616,0.51845 1.27809,0.97229 4.32327,0.68239 4.12223,-0.39247 -0.0371,-0.19849 -0.70401,-0.49713 -1.48194,-0.66365 -0.7779,-0.16653 -1.56621,-0.46956 -1.75176,-0.6734 -0.18559,-0.20384 -0.72072,-0.19444 -1.18924,0.0209 -0.5455,0.25073 -1.00018,0.21362 -1.26433,-0.10308 -0.26173,-0.31388 -1.18822,-0.39445 -2.53512,-0.22056 -2.05285,0.26506 -2.12676,0.23884 -2.24761,-0.79697 -0.1843,-1.57935 -1.67586,-2.08942 -3.87758,-1.32602 -0.94342,0.32708 -1.88548,0.82757 -2.09351,1.11215 -0.20799,0.28461 -0.93266,0.84206 -1.61039,1.23878 -1.12724,0.65992 -1.32948,0.65945 -2.37498,-0.005 -1.68503,-1.07123 -3.66178,-1.54562 -5.83318,-1.39988 -2.19965,0.14762 -3.00134,0.80077 -2.73443,2.22781 0.11228,0.60032 -0.1049,1.08773 -0.62703,1.40736 -0.70617,0.43227 -1.2696,1.19241 -3.49515,4.71535 -0.77643,1.22903 -1.43875,0.9904 -1.98873,-0.71657 l -0.47157,-1.46353 -0.70657,1.43098 c -0.67282,1.36266 -2.25177,2.88119 -3.17547,3.05396 -0.59531,0.11135 -2.01025,-1.0832 -2.1466,-1.8122 -0.1815,-0.97038 -0.97704,-0.22852 -1.41568,1.32019 l -0.4056,1.43198 -0.39038,-1.98565 c -0.7082,-3.60215 0.14268,-4.9157 2.9878,-4.61242 1.48008,0.15777 1.75598,0.026 5.28495,-2.5236 2.04788,-1.47951 3.77641,-2.97893 3.84121,-3.33204 0.0648,-0.35307 0.43331,-0.70098 0.81894,-0.77311 0.38562,-0.0721 0.77527,-0.32305 0.86592,-0.55763 0.20118,-0.52074 0.34114,-0.55324 -3.98166,0.92427 -5.9324,2.02761 -7.64879,3.01653 -10.44922,6.02049 -4.17959,4.48326 -4.55992,4.69751 -4.92016,2.77146 -0.16339,-0.87358 -0.23661,-0.89569 -0.96386,-0.29096 -1.38364,1.15051 -3.9218,3.95257 -5.65818,6.24646 -1.97014,2.60272 -5.17413,5.91568 -7.60618,7.86477 -0.94487,0.75725 -3.29344,2.9559 -5.21903,4.88592 -3.68379,3.69217 -6.05104,5.68457 -6.95505,5.85366 -0.298,0.0557 -0.80758,-0.1194 -1.13231,-0.38916 -0.78882,-0.65524 -0.10634,-1.76063 2.41397,-3.90986 1.24164,-1.05882 1.66734,-1.62219 1.22924,-1.6267 -0.36864,-0.004 -1.06131,0.36844 -1.53922,0.82719 -0.47794,0.45879 -0.98278,0.75619 -1.12191,0.66094 -0.1391,-0.0953 -1.31648,0.48185 -2.61639,1.28248 -1.29991,0.80063 -3.54265,2.17608 -4.98383,3.05654 -1.44123,0.88048 -2.92264,2.00366 -3.29202,2.49599 -0.36943,0.49231 -1.19724,1.11308 -1.83962,1.37955 -0.64239,0.26643 -1.32677,0.76976 -1.52087,1.11849 -0.19405,0.34875 -0.56161,0.67314 -0.81676,0.72086 -0.41964,0.0785 -1.24181,0.90518 -4.84287,4.86961 -1.77517,1.95427 -3.96937,3.71979 -4.32246,3.478 -0.17531,-0.12009 -0.11263,-0.71262 0.13934,-1.31673 0.25194,-0.60411 0.31811,-1.25217 0.14701,-1.44012 -0.17111,-0.18795 0.19972,-1.02162 0.82404,-1.85261 1.59339,-2.12084 1.26599,-2.67712 -0.53178,-0.90372 -0.82674,0.81555 -1.47381,1.63976 -1.43793,1.8316 0.0359,0.1918 -0.71342,0.94551 -1.66508,1.67491 -0.95168,0.72936 -1.70174,1.4789 -1.66681,1.66565 0.0808,0.432 -2.76964,2.92299 -3.5014,3.05985 -0.30266,0.0566 -1.55997,1.093 -2.79401,2.3031 -1.23403,1.21009 -2.56825,2.26087 -2.96492,2.33506 -0.80348,0.15028 -1.71166,-0.78073 -1.93704,-1.98573 -0.18862,-1.00849 -0.51471,-0.93124 -2.24732,0.53243 -1.88088,1.58897 -4.03441,5.41311 -4.19364,7.44688 -0.0706,0.90132 -0.43206,2.35777 -0.80331,3.23659 -0.37125,0.87882 -0.88225,2.85762 -1.13556,4.39731 -0.2533,1.53972 -0.6547,3.19878 -0.89199,3.68687 -1.56132,3.21151 -1.81268,3.93931 -1.65384,4.78858 0.25269,1.35104 -0.0869,4.05928 -0.51906,4.14012 -0.489,0.0915 -1.57856,-7.77693 -1.34839,-9.73759 0.0979,-0.8339 0.90471,-2.78942 1.79293,-4.34565 0.88822,-1.5562 1.72594,-3.57957 1.86158,-4.49643 0.13565,-0.91681 0.75172,-3.1296 1.36904,-4.91736 1.30921,-3.79149 1.86344,-4.39405 8.97762,-9.76093 3.4629,-2.61235 5.24802,-3.72206 6.30572,-3.91989 0.8115,-0.15178 2.05367,-0.71615 2.76045,-1.25414 0.70677,-0.53804 1.8787,-1.20445 2.60427,-1.48098 0.72557,-0.27653 1.81932,-1.03935 2.4306,-1.69511 0.61123,-0.6558 1.42754,-1.25147 1.81397,-1.32375 1.26677,-0.23693 3.30247,-1.81711 4.46141,-3.46304 0.96766,-1.37432 1.26616,-1.57509 1.99778,-1.34352 1.1724,0.37102 2.83248,-0.008 3.86156,-0.88265 0.46945,-0.39884 1.20997,-0.79809 1.64562,-0.88729 0.43564,-0.0892 1.49074,-0.83953 2.34462,-1.66736 1.06867,-1.03613 2.30122,-1.75797 3.95484,-2.31625 1.32128,-0.44603 2.77225,-1.0525 3.22433,-1.34764 0.45212,-0.29517 2.82975,-1.19082 5.28363,-1.99038 3.7004,-1.20569 4.59812,-1.63925 5.26189,-2.54132 0.44016,-0.59816 1.20624,-1.2972 1.70236,-1.55341 1.07969,-0.55749 8.11447,-6.72384 8.34163,-7.31188 0.0875,-0.22655 0.78276,-0.89251 1.5449,-1.47995 0.76215,-0.58744 2.1748,-2.2517 3.13922,-3.69842 0.96438,-1.44668 2.76025,-3.43516 3.99078,-4.41887 1.23053,-0.98371 2.94809,-2.39858 3.81675,-3.14423 0.86871,-0.74562 2.72083,-2.01074 4.11585,-2.81135 2.31893,-1.33091 3.0981,-1.56076 9.08692,-2.68088 7.16385,-1.3399 8.18854,-1.33511 13.72435,0.0647 1.65672,0.41892 3.4858,0.67863 4.06465,0.57717 0.57887,-0.10151 1.81987,0.1106 2.75782,0.47134 1.04392,0.40146 2.29941,0.55036 3.23716,0.38391 0.84251,-0.14951 1.913,-0.0817 2.37888,0.15062 0.46588,0.23237 1.23757,0.34945 1.71487,0.26018 1.73409,-0.32434 11.62138,5.94706 13.72347,8.70465 0.58262,0.76431 1.28445,1.58297 1.5596,1.81924 1.68284,1.44499 4.82475,7.39819 5.32987,10.09888 0.65304,3.49147 1.88187,5.87713 5.29851,10.28636 l 3.37513,4.35567 0.74634,3.99033 c 0.68118,3.64198 0.84323,4.06986 1.85629,4.90117 1.46911,1.20558 3.67898,7.76973 5.00813,14.87611 0.70742,3.78225 1.16555,5.40664 1.7285,6.12881 1.15494,1.48157 1.70636,3.65171 1.44496,5.68667 z m -11.32887,33.77336 c -0.75651,0.79758 -1.56691,1.87188 -1.80089,2.38733 -0.39101,0.86137 -0.37485,0.9061 0.19977,0.55276 0.34386,-0.21144 0.76274,-0.41016 0.93088,-0.44161 0.49908,-0.0933 2.24196,-2.89953 2.13988,-3.44533 -0.0584,-0.31219 -0.61649,0.0474 -1.46964,0.94685 z M 222.43064,127.07095 c -0.66504,0.16059 -1.70734,0.24633 -2.31623,0.19052 -1.54059,-0.1412 -1.29265,0.59486 0.35907,1.06596 1.55392,0.44321 1.63697,0.43432 2.84771,-0.30508 1.21022,-0.73902 0.66076,-1.32599 -0.89055,-0.9514 z m 3.34896,117.74286 c -1.45221,0.38025 -2.95858,0.89402 -3.34749,1.14169 -0.63152,0.40219 -0.57947,0.45434 0.48691,0.4878 1.60715,0.0504 8.24881,-1.13402 9.3723,-1.67144 1.6246,-0.77713 -3.50991,-0.74406 -6.51172,0.042 z M 196.77119,131.93695 c -0.30117,0.1852 -0.51326,0.52023 -0.47131,0.74449 0.0529,0.28271 0.29623,0.23118 0.79376,-0.16813 0.79794,-0.64039 0.53784,-1.10532 -0.32245,-0.57636 z m -1.39901,1.70784 c -0.40206,0.0752 -1.06805,1.05912 -0.99202,1.46557 0.0328,0.17563 0.36935,0.0708 0.74778,-0.23288 0.67942,-0.5453 0.83761,-1.34367 0.24424,-1.23269 z m 73.41351,81.95845 c -0.97281,1.04582 -0.99057,1.05029 -1.13344,0.28642 -0.2124,-1.13564 -0.67655,-0.87897 -2.67033,1.4768 -1.83436,2.16736 -3.23812,2.89633 -3.44522,1.78905 -0.0818,-0.43735 -0.29251,-0.49729 -0.73132,-0.208 -0.33904,0.22346 -1.01681,0.57406 -1.50613,0.77906 -0.48937,0.20496 -1.26091,0.66284 -1.71454,1.01745 -1.06225,0.83033 -2.33962,0.73601 -2.51198,-0.18552 -0.15542,-0.83095 -0.5804,-0.84785 -1.13026,-0.045 -0.46775,0.68293 -7.43988,2.21539 -7.87991,1.73196 -0.16404,-0.18021 -0.61999,-0.15515 -1.01318,0.0557 -0.98585,0.52866 -2.63763,0.37515 -2.75571,-0.25614 -0.0948,-0.507 2.35469,-1.86466 3.87845,-2.14966 0.40638,-0.076 1.63091,-0.75017 2.72119,-1.49814 2.321,-1.59227 3.00868,-1.78369 3.78531,-1.05357 0.46174,0.43407 0.71182,0.42377 1.307,-0.0539 0.96727,-0.77628 3.13958,-1.00979 3.80417,-0.40887 0.62002,0.56063 1.65574,0.0422 1.83178,-0.91692 0.0671,-0.36589 -0.12239,-0.7597 -0.42119,-0.87514 -0.71662,-0.27683 -0.36686,-1.12267 0.53387,-1.29114 1.11825,-0.20915 1.99804,0.0571 2.1066,0.6375 0.12874,0.68832 0.95678,0.5196 2.53622,-0.5167 0.69586,-0.45658 1.65586,-0.90321 2.13335,-0.99252 0.47749,-0.0893 1.01543,0.0772 1.19546,0.36991 0.18002,0.29276 0.67676,0.46693 1.1039,0.38704 1.12678,-0.21075 1.11542,0.69528 -0.0241,1.92025 z m -2.4145,1.89904 c -0.18596,0.16927 -0.37218,0.12556 -0.41383,-0.0971 -0.0417,-0.22268 0.0963,-0.43702 0.30658,-0.47635 0.21026,-0.0393 0.39648,0.004 0.41382,0.097 0.0173,0.0927 -0.12062,0.30708 -0.30657,0.47639 z m -18.02184,-72.79756 c -0.13348,0.0262 -0.78354,-0.11756 -1.44451,-0.31901 -0.69542,-0.21191 -2.22393,-0.17613 -3.62744,0.085 -2.10291,0.39134 -2.47116,0.35449 -2.76852,-0.27594 -0.3931,-0.83355 -1.45775,-0.74774 -3.21497,0.25914 -0.73028,0.41846 -1.28086,0.54751 -1.47798,0.34651 -0.17283,-0.1762 -0.63602,-0.37516 -1.02937,-0.44209 -0.83084,-0.14139 -1.22737,-1.62996 -0.6643,-2.49398 0.40316,-0.61873 0.13501,-0.55632 -3.71265,0.86375 -1.14678,0.42325 -1.64134,0.43119 -2.11934,0.0342 -1.1078,-0.92022 -4.144,-0.0516 -6.45584,1.84696 -1.29028,1.05961 -2.16347,1.54136 -2.44106,1.34682 -0.7049,-0.49407 -1.40073,-2.29795 -0.92099,-2.38768 0.23305,-0.0436 0.47594,0.19986 0.53974,0.54098 0.0912,0.48762 0.21248,0.50415 0.56708,0.0772 0.25766,-0.31012 0.29511,-0.87376 0.0874,-1.31426 -0.31101,-0.65942 -0.22965,-0.76176 0.56079,-0.70563 0.54403,0.0386 1.43755,-0.32767 2.17111,-0.89006 0.68562,-0.52565 2.08584,-1.22851 3.11157,-1.56193 2.4904,-0.80948 7.39152,-1.05994 8.41727,-0.4301 0.44728,0.27466 1.46641,0.45914 2.26473,0.40997 0.7983,-0.0491 1.85791,0.0453 2.35467,0.20983 1.31189,0.43459 4.86697,0.94943 5.64938,0.81813 0.46066,-0.0773 0.7286,0.19339 0.85376,0.86257 0.11933,0.63801 0.76333,1.33786 1.86229,2.02384 0.92393,0.5767 1.57066,1.06986 1.4372,1.09585 z m -8.18483,-7.20323 c -0.39992,0.092 -0.6426,0.0439 -0.53932,-0.10693 0.10327,-0.1508 0.43047,-0.22604 0.7271,-0.16721 0.32778,0.065 0.25412,0.1725 -0.18778,0.27414 z m -10.91789,40.59621 c -0.50941,0.4788 -1.56383,0.8416 -3.08538,1.06161 -1.41483,0.20457 -3.13277,0.76887 -4.4286,1.45466 -2.55207,1.35069 -2.37399,1.31109 -2.51466,0.559 -0.0815,-0.43597 -0.29408,-0.49743 -0.732,-0.21163 -1.40314,0.91569 -3.36726,1.68988 -3.99506,1.57464 -0.45899,-0.0842 -0.66956,-0.43709 -0.66681,-1.11752 0.005,-1.29536 -0.62786,-1.51158 -1.41106,-0.48204 -0.43551,0.57248 -0.76611,0.72025 -1.09992,0.49164 -0.81766,-0.55999 -5.52679,2.72772 -6.34695,4.4312 -0.11516,0.23916 -0.3176,-0.12921 -0.44985,-0.81854 -0.2787,-1.45245 -1.05474,-1.74887 -2.1911,-0.83686 -0.43199,0.34669 -1.58221,0.80571 -2.55607,1.02002 -1.10083,0.24226 -1.97133,0.68276 -2.30124,1.16447 -0.29183,0.42611 -1.05711,0.87324 -1.70063,0.9936 -1.51982,0.28426 -3.36656,1.98345 -3.83033,3.52428 -0.44236,1.46984 -1.0495,1.68718 -1.27939,0.45806 -0.10976,-0.58682 0.40442,-1.69104 1.48202,-3.18251 0.90755,-1.25614 1.85249,-2.75619 2.09984,-3.33345 1.2173,-2.84072 7.31979,-6.87983 11.5512,-7.64558 1.38065,-0.24984 3.08602,-0.70765 3.78975,-1.0174 0.70374,-0.30972 2.38383,-0.62071 3.7336,-0.69104 1.53856,-0.0802 2.95939,-0.37562 3.80858,-0.79191 2.67606,-1.31184 5.36091,-1.45597 5.57723,-0.29941 0.0934,0.49955 0.74402,0.66853 2.73376,0.70997 2.8983,0.0604 3.58546,0.30115 4.18128,1.46495 0.30147,0.58883 0.20689,0.97924 -0.36821,1.51979 z m -11.05771,-1.89784 c -0.24299,0.15521 -0.0117,0.20177 0.51394,0.10345 0.52566,-0.0983 0.72447,-0.22532 0.4418,-0.28221 -0.28266,-0.0569 -0.71274,0.0236 -0.95574,0.17876 z m -5.65204,3.0997 c -0.18596,0.16927 -0.32392,0.38361 -0.30657,0.47636 0.0173,0.0927 0.20356,0.13641 0.41383,0.0971 0.21026,-0.0393 0.34821,-0.25371 0.30656,-0.4764 -0.0416,-0.22265 -0.22787,-0.26636 -0.41382,-0.097 z m -3.47634,-1.92165 c -0.1845,0.0345 -0.50136,0.36085 -0.70413,0.7252 -0.29898,0.53726 -0.2635,0.64279 0.18788,0.55837 0.30606,-0.0573 0.64974,-0.24023 0.76371,-0.40664 0.29516,-0.43097 0.1484,-0.95097 -0.24746,-0.87693 z m -7.43115,3.29568 c -0.22303,0.32565 -0.21228,0.50794 0.0273,0.46313 0.51029,-0.0954 0.87783,-0.6321 0.57496,-0.83952 -0.12897,-0.0883 -0.39997,0.0811 -0.60223,0.37639 z m 19.99708,-22.44566 c -0.19834,0.18053 -0.46955,0.25361 -0.60274,0.16239 -0.32506,-0.22262 0.018,-1.05846 0.46906,-1.14282 0.48857,-0.0914 0.5794,0.57471 0.13368,0.98043 z m 12.25602,74.37737 c -0.41963,0.37429 -1.14514,1.01715 -1.61222,1.42865 -1.22445,1.0786 -4.15473,2.43343 -4.94818,2.28782 -0.49954,-0.0917 -0.67497,-0.42524 -0.66452,-1.26333 l 0.0143,-1.13875 -1.69024,1.24379 c -2.71505,1.99782 -3.55607,2.27675 -4.00366,1.32769 -0.38676,-0.82013 -0.63498,-0.79147 -2.73405,0.31535 -0.68483,0.3611 -0.91553,0.25223 -1.45288,-0.6855 -0.74155,-1.29418 -0.85869,-1.29348 -3.11794,0.0187 -1.63039,0.94691 -1.75204,0.96606 -2.93431,0.46169 -0.74821,-0.31923 -2.38413,-0.43761 -4.15875,-0.30095 -1.60896,0.12391 -3.45355,0.25731 -4.09909,0.29642 -0.64553,0.0392 -2.74358,0.24532 -4.66234,0.45816 -2.51434,0.27893 -3.76543,0.23651 -4.4797,-0.1519 -0.54508,-0.29641 -1.00511,-0.61407 -1.02229,-0.70594 -0.0355,-0.18985 10.34105,-2.69752 12.67823,-3.06391 0.89962,-0.141 1.70502,-0.0356 1.9473,0.25497 0.32686,0.39199 0.94756,0.3432 2.97112,-0.23336 1.73355,-0.49393 2.67006,-0.60563 2.90587,-0.34653 0.20416,0.22422 1.43352,0.17922 2.97421,-0.10895 1.82466,-0.34127 2.83393,-0.34891 3.30688,-0.025 0.38287,0.26222 1.36394,0.3384 2.24238,0.1741 0.85894,-0.16065 1.90605,-0.1572 2.3269,0.008 0.60238,0.23596 1.08276,0.0551 2.25681,-0.84983 1.73736,-1.33905 2.75837,-1.13371 2.14526,0.43145 -0.53867,1.3752 0.2504,1.60022 2.0685,0.58986 3.57103,-1.98454 5.77249,-2.23296 3.74246,-0.42233 z m -38.63175,-83.84957 c -0.5941,0.60503 -2.14093,2.50895 -3.43739,4.23089 -1.29642,1.72196 -2.58838,3.17408 -2.87094,3.22693 -0.90027,0.16838 -1.12267,-0.81825 -0.5439,-2.41295 0.79857,-2.20036 -0.0978,-1.84234 -1.76307,0.70418 -1.08888,1.6651 -1.54002,2.05815 -2.30833,2.01121 -0.70611,-0.0431 -1.24013,0.30515 -2.04956,1.33659 -1.157,1.47439 -2.09423,1.90715 -2.53228,1.16926 -0.18283,-0.30798 -0.46317,-0.14278 -0.90961,0.53604 -0.57123,0.86859 -0.79183,0.95527 -1.92144,0.75505 -1.14255,-0.20251 -1.33219,-0.12252 -1.81216,0.76437 -0.29484,0.54478 -0.92235,1.06277 -1.39445,1.15106 -0.47214,0.0883 -1.37184,0.72933 -1.99937,1.4245 -0.9913,1.09822 -1.25589,1.21897 -2.01744,0.92063 -0.78713,-0.30831 -0.97955,-0.16767 -1.88731,1.37972 -0.55593,0.94766 -1.13927,1.96962 -1.29632,2.27102 -0.15701,0.30139 -0.45073,0.57889 -0.65273,0.61667 -0.58182,0.10882 -0.58725,-0.77128 -0.0141,-2.28205 0.62486,-1.64696 0.62097,-1.78816 -0.0458,-1.66345 -0.27873,0.0521 -0.83041,0.60044 -1.22591,1.21846 -0.76096,1.18903 -1.30094,1.50634 -1.42596,0.8379 -0.16304,-0.87172 1.93916,-3.08063 3.11899,-3.27728 0.64746,-0.10797 1.9583,-0.77991 2.91296,-1.49329 0.95467,-0.71335 2.38339,-1.64229 3.17493,-2.0643 0.79154,-0.42201 1.86785,-1.33121 2.39178,-2.02049 1.54422,-2.03147 5.57421,-4.81406 7.5816,-5.23486 1.14695,-0.2404 2.1154,-0.73328 2.76532,-1.40747 0.55013,-0.57062 1.19729,-1.07431 1.43809,-1.11935 0.24081,-0.045 0.92588,-0.46237 1.52236,-0.92734 1.03655,-0.80804 1.12036,-0.81497 1.89398,-0.15641 1.01809,0.86669 1.08069,0.85063 2.40611,-0.61768 1.36203,-1.50886 3.70443,-2.46214 3.87034,-1.57506 0.0615,0.32859 -0.37433,1.09247 -0.96843,1.6975 z m -11.60905,93.51821 c -0.37786,0.0707 -1.47472,-0.4249 -2.43747,-1.10122 -1.56234,-1.09754 -2.01705,-1.20882 -4.23066,-1.03533 -1.36409,0.10692 -2.50857,0.0424 -2.54331,-0.14337 -0.0347,-0.18579 -0.402,-0.27438 -0.81614,-0.19692 -0.41414,0.0775 -1.42992,-0.0887 -2.25726,-0.36915 -0.82738,-0.28049 -1.9081,-0.43446 -2.40161,-0.34215 -0.49351,0.0923 -1.1413,-0.0349 -1.43952,-0.2826 -0.56509,-0.46942 -2.64949,-0.54585 -4.61645,-0.1693 -0.65196,0.12471 -1.71552,-0.0896 -2.46702,-0.49728 -1.24959,-0.67791 -1.29242,-0.75944 -0.791,-1.50651 0.45069,-0.67151 0.69717,-0.74843 1.64574,-0.51368 0.77772,0.19248 1.21424,0.13208 1.44128,-0.19942 0.59616,-0.87047 2.65639,-0.96579 3.73988,-0.17297 0.68652,0.50237 1.62869,0.70908 2.85699,0.62689 1.00796,-0.0675 2.45607,-0.12148 3.21801,-0.12 0.76193,10e-4 1.77407,-0.0427 2.24922,-0.0982 0.47512,-0.0554 1.20989,0.23807 1.63281,0.65225 0.42293,0.41417 0.92055,0.61505 1.10586,0.44637 0.18528,-0.16867 0.94964,-0.30637 1.69857,-0.30594 1.06869,5.6e-4 1.53235,0.26084 2.15484,1.20956 0.43625,0.66483 1.21888,1.52306 1.73917,1.90712 1.17681,0.86865 1.45057,2.03742 0.51807,2.21183 z m -27.46456,-15.67302 c -0.33723,0.17371 -1.73504,0.50502 -3.1063,0.7363 -1.37127,0.23127 -2.85681,0.61773 -3.30121,0.8588 -0.65629,0.35604 -0.91245,0.2672 -1.36464,-0.47331 -0.38995,-0.63856 -0.83904,-0.85879 -1.49934,-0.73529 -0.51843,0.097 -1.06294,0.0441 -1.21,-0.11741 -0.14701,-0.16151 -1.01895,-0.27389 -1.9376,-0.2497 -0.91866,0.0242 -1.83689,-0.13903 -2.04051,-0.36272 -0.20363,-0.22373 -1.13936,-0.26779 -2.07942,-0.098 -1.34323,0.24268 -1.94744,0.13194 -2.82196,-0.51712 -0.61203,-0.45422 -1.27078,-1.08282 -1.46389,-1.39687 -0.1963,-0.31923 -0.78311,-0.4902 -1.33085,-0.38776 -0.60252,0.1127 -1.10441,-0.06 -1.30356,-0.44861 -0.1781,-0.34752 -0.64128,-1.04542 -1.02928,-1.55088 l -0.70547,-0.91903 1.72112,0.42361 c 0.94662,0.23298 2.15293,0.35241 2.68071,0.26541 0.52777,-0.087 1.34077,0.0319 1.80665,0.2643 0.46589,0.23237 1.32424,0.33325 1.90744,0.22417 0.66911,-0.12515 1.26412,0.0555 1.61257,0.48973 0.40118,0.49987 0.94347,0.61487 1.98286,0.42047 0.78688,-0.14718 1.84565,-0.0792 2.35283,0.15098 0.50718,0.23022 1.64955,0.34924 2.53859,0.26447 0.889,-0.0848 1.84747,0.004 2.12992,0.19754 0.28244,0.19344 0.92533,0.27471 1.42863,0.18057 0.58533,-0.10947 1.03538,0.084 1.24901,0.53696 0.24899,0.52798 0.7322,0.66409 1.89942,0.535 1.19935,-0.13265 1.67447,0.01 2.03145,0.60973 0.35167,0.59084 0.31558,0.86031 -0.14717,1.09864 z m -14.44656,-40.76884 c -0.52485,0.73219 -1.32067,2.23391 -1.76852,3.33715 -0.98509,2.42671 -1.58078,2.86333 -2.5876,1.89676 l -0.76165,-0.73123 -0.50805,0.91628 c -0.8506,1.53416 -2.3891,2.77536 -3.5567,2.86943 -0.88882,0.0716 -1.19503,0.34558 -1.55458,1.39088 -0.24625,0.71597 -0.77237,1.47 -1.16915,1.67561 -0.39677,0.20565 -0.9556,0.79934 -1.24184,1.31937 -0.48614,0.88314 -0.55495,0.9061 -1.04406,0.34836 -0.42034,-0.47935 -0.66153,-0.48643 -1.22278,-0.036 -0.38453,0.30862 -0.80828,0.48635 -0.94166,0.39501 -0.52171,-0.35728 -0.2043,-3.02419 0.42868,-3.60167 0.36831,-0.33601 1.00378,-1.35466 1.41217,-2.26361 0.66684,-1.48428 0.87253,-1.65261 2.01839,-1.652 1.46643,7.9e-4 3.35431,-1.60338 4.53654,-3.8548 0.60678,-1.15556 0.87051,-1.32735 2.03695,-1.32671 1.0044,5.6e-4 1.57889,-0.24708 2.29404,-0.98886 0.52471,-0.54426 1.172,-1.03033 1.43838,-1.08015 0.26638,-0.0498 0.72499,-0.40699 1.01918,-0.79367 0.63761,-0.83819 1.83296,-0.72105 2.00456,0.19642 0.0671,0.35867 -0.30745,1.25124 -0.8323,1.98343 z" />
    <path
       inkscape:connector-curvature="0"
       id="path896"
       d="m 301.32062,-370.9945 c -1.34828,-0.01 -2.47376,1.17824 -2.47376,1.17824 l 32.70912,45.77292 -57.34844,-10.98021 c -0.62838,3.10885 1.9513,4.00182 1.9513,4.00182 l 60.65573,19.61224 3.63802,2.57969 c 0,0 9.59115,9.78958 12.7,17.26406 3.10886,7.47448 2.57969,15.61042 2.57969,15.61042 0,0 -0.61647,6.5669 -0.8971,10.26189 -0.28063,3.69504 0.37427,6.24395 1.63711,9.93894 4.39658,13.89136 19.30437,19.11458 23.9944,19.31664 1.64984,-0.0318 11.69299,0.88877 14.96704,-8.3721 3.27405,-9.26087 -4.95783,-16.83774 -4.95783,-16.83774 0,0 -3.08688,-2.61967 -10.47688,-10.47739 -7.39,-7.85771 -20.08882,-24.8357 -20.15898,-26.02839 -0.0702,-1.19269 -1.06505,-1.74665 -1.06505,-1.74665 l -0.99219,-7.40833 c 0,0 4.10104,-1.12448 6.68073,-1.91823 2.57969,-0.79375 5.6224,0 5.6224,0 0,0 1.98437,0.13229 10.71562,2.24896 8.73125,2.11667 29.10417,10.05417 29.10417,10.05417 0,0 3.50573,0.72763 6.41614,0.26458 2.91042,-0.46302 5.88698,-2.38125 5.88698,-2.38125 0,0 2.18281,-1.85208 3.57188,-3.9026 1.38906,-2.0505 0.52916,-7.60677 0.52916,-7.60677 0,0 -0.39687,-3.10886 -5.15937,-9.32657 -4.7625,-6.21771 -14.68438,-8.73125 -14.68438,-8.73125 0,0 -9.72344,-3.43958 -20.17447,4.0349 -10.45105,7.47448 -18.38855,6.28385 -21.62969,6.15156 -3.24115,-0.13229 -18.05781,-4.7625 -18.05781,-4.7625 0,0 -41.4073,-44.51614 -43.39167,-46.83125 -0.62012,-0.72347 -1.27903,-0.97536 -1.89187,-0.9798 z m 98.17281,45.31714 c 11.29428,0.0156 24.08069,11.54967 21.98781,18.89808 -2.97656,10.45104 -12.22775,3.06054 -15.21354,2.11666 -2.98579,-0.94387 -7.60678,-3.10885 -12.89844,-3.57187 -8.6651,-2.51357 -6.15156,-10.12031 -6.15156,-10.12031 3.00447,-5.28238 7.50704,-7.32915 12.27573,-7.32256 z m -33.33388,49.38818 c 2.19892,-0.008 5.41861,0.86122 7.94577,5.19351 4.25627,6.45456 8.82059,9.60869 12.81576,13.75108 3.52054,3.6503 5.42549,8.74591 0.65474,14.40532 -1.93916,1.35366 -2.73354,1.50289 -4.95164,1.59578 -21.0501,0.88144 -29.9383,-29.52556 -18.99574,-34.52296 0,0 1.02659,-0.41693 2.53111,-0.42273 z"
       style="fill:#000000;fill-opacity:1;stroke:#000000;stroke-width:0.26458332px;stroke-linecap:butt;stroke-linejoin:miter;stroke-opacity:0.90055249" />
    <path
       style="opacity:1;fill:none;fill-opacity:1;stroke:#000000;stroke-width:4.19999981;stroke-miterlimit:4;stroke-dasharray:none;stroke-opacity:1"
       d="m 154.51665,-158.1369 v 109.14993 l -100.541651,3.086963 v -142.875003 0 c 0,0 64.925611,0 70.034281,0"
       id="path4631"
       inkscape:connector-curvature="0"
       sodipodi:nodetypes="cccccc" />
    <path
       style="opacity:1;fill:none;fill-opacity:1;stroke:#000000;stroke-width:4.19999981;stroke-miterlimit:4;stroke-dasharray:none;stroke-opacity:1"
       d="m 156.61665,-157.14994 h -33.50079 v -33.72507"
       id="rect4626"
       inkscape:connector-curvature="0" />
    <path
       style="fill:none;stroke:#000000;stroke-width:4.19846582;stroke-linecap:butt;stroke-linejoin:miter;stroke-miterlimit:4;stroke-dasharray:none;stroke-opacity:1"
       d="m 123.72879,-189.38808 31.4015,31.62474 z"
       id="path4660"
       inkscape:connector-curvature="0" />
    <g
       id="g4603">
      <ellipse
         ry="3.1088541"
         rx="3.5057292"
         cy="166.95729"
         cx="477.24219"
         id="path4669"
         style="opacity:1;fill:none;fill-opacity:1;stroke:#000000;stroke-width:1.20000005;stroke-miterlimit:4;stroke-dasharray:none;stroke-opacity:1" />
      <g
         clip-path="url(#clipPath4720)"
         id="g4718">
        <path
           style="fill:none;stroke:#000000;stroke-width:2.29999995;stroke-linecap:butt;stroke-linejoin:miter;stroke-miterlimit:4;stroke-dasharray:none;stroke-opacity:1"
           d="m 447.14191,209.34893 c -2.47057,-2.38394 -3.46114,-3.36759 -3.46114,-3.36759 l -10.94468,-13.37683 c 0,0 -1.68381,-1.68381 -1.59025,-3.64824 0.0935,-1.96442 0,-2.99341 0,-2.99341 0,0 0,-1.49673 1.02899,-2.61925 1.02896,-1.12255 4.49011,-5.0514 4.49011,-5.0514 l 3.5547,-2.15151 c 0,0 -0.28064,-2.33862 6.08037,-4.30305 6.36103,-1.96442 20.95394,-15.24772 20.95394,-15.24772 0,0 9.67096,-9.24083 23.945,-2.59723 2.45414,1.14224 5.29167,4.36562 5.29167,4.36562 l 7.54062,0.13229 c 0,0 3.57188,-0.26458 5.95313,0.52917 2.38125,0.79375 13.09687,3.57187 13.09687,3.57187 l 12.56771,-1.91823 c 0,0 -4.10104,4.16719 -1.45521,3.37344 3.73677,-1.31104 6.35843,-3.39635 10.3849,-3.175 0,0 -6.92169,1.83751 -5.09323,5.29167 1.46466,1.13905 11.84953,-5.27374 15.875,-2.71198 -3.51515,1.50342 -6.41615,3.77031 -6.41615,3.77031 0,0 19.22057,-2.3935 24.34167,-0.52916 -3.80859,1.79819 -8.53281,5.75468 -8.53281,5.75468 0,0 20.02906,-2.57429 25.92916,-0.39687 -1.25677,1.32292 -5.98567,1.51087 -8.46666,5.82083 4.06744,1.39954 10.19123,-4.24804 13.55989,-2.18281 -1.79072,1.20534 -5.68854,2.05052 -6.35,4.63021 4.16719,-1.05833 7.50547,-2.75753 9.92188,-1.98438 -10.34974,5.73409 -8.13594,8.92969 -8.13594,8.92969 0,0 10.78177,-4.29948 14.68438,-1.5875 3.9026,2.71198 -2.4474,6.41615 -2.4474,6.41615 l 11.1125,-6.15157 c 0,0 -1.30979,36.14941 -10.24854,57.6921 -1.89411,4.56488 -25.93323,33.25842 -25.93323,33.25842 0,0 -5.97925,-11.85991 -10.93922,-15.9998 -7.99578,-6.67375 -33.1132,6.3526 -85.68661,-32.92758 -30.30839,-17.86699 -31.57958,-16.32494 -34.61142,-18.61534 z"
           id="path4667"
           inkscape:connector-curvature="0"
           sodipodi:nodetypes="ccccccccccsccsccccccccccccccccccscscc" />
        <ellipse
           style="opacity:1;fill:none;fill-opacity:1;stroke:#000000;stroke-width:2.29999995;stroke-miterlimit:4;stroke-dasharray:none;stroke-opacity:1"
           id="path4671"
           cx="477.30832"
           cy="167.08958"
           rx="4.5640626"
           ry="3.8364582" />
        <ellipse
           style="opacity:1;fill:none;fill-opacity:1;stroke:#000000;stroke-width:2.29999995;stroke-miterlimit:4;stroke-dasharray:none;stroke-opacity:1"
           id="path4673"
           cx="477.37448"
           cy="167.08958"
           rx="9.5911455"
           ry="8.598958" />
        <path
           style="opacity:1;fill:none;fill-opacity:1;stroke:#000000;stroke-width:8.69291306;stroke-miterlimit:4;stroke-dasharray:none;stroke-opacity:1"
           d="m 1807.1875,2122.0312 c -19.7683,0.069 -38.4064,11.0086 -47.985,26.8821 -3.7976,6.2933 -6.1712,13.3622 -6.6266,20.8367 -10e-5,6.9578 -1.1243,23.1137 1.9393,29.0746 8.5404,16.617 30.12,13.694 52.3184,13.6945 30.1623,3e-4 54.9672,-16.4146 54.9669,-42.7691 3e-4,-26.3545 -24.4511,-47.7192 -54.6133,-47.7188 z"
           transform="matrix(0.26458333,0,0,0.26458333,0,-407.20003)"
           id="path4677"
           inkscape:connector-curvature="0"
           sodipodi:nodetypes="cscscccc" />
        <path
           style="fill:none;stroke:#000000;stroke-width:1.66499996;stroke-linecap:butt;stroke-linejoin:miter;stroke-miterlimit:4;stroke-dasharray:none;stroke-opacity:1"
           d="m 561.57812,221.99061 c -3.83646,-4.89479 -5.68854,-17.59479 -5.95313,-23.01875 -0.26458,-5.42396 -3.04271,-12.96458 -10.05416,-12.43541 -7.01146,0.52916 -9.12813,3.0427 -18.52084,5.02708 -9.3927,1.98437 -35.18958,2.77812 -35.18958,2.77812 0,0 -2.43647,-0.24045 -8.4233,1.16272 -5.98683,1.40316 -24.41506,-2.15152 -34.61139,-4.2095 -10.19635,-2.05798 -17.67988,-5.33201 -17.67988,-5.33201 v 0 0"
           id="path4686"
           inkscape:connector-curvature="0" />
        <path
           style="opacity:1;fill:none;fill-opacity:1;stroke:#000000;stroke-width:6.29291344;stroke-miterlimit:4;stroke-dasharray:none;stroke-opacity:1"
           d="m 1985,2217.293 a 31.749998,27.249999 0 0 0 -31.75,27.25 31.749998,27.249999 0 0 0 13.4355,22.2382 c 9.9049,-1.0958 18.6906,-2.3388 25.3145,-3.7382 8.2677,-1.7467 15.0035,-3.6017 20.8691,-5.4453 a 31.749998,27.249999 0 0 0 3.8809,-13.0547 31.749998,27.249999 0 0 0 -31.75,-27.25 z"
           transform="matrix(0.26458333,0,0,0.26458333,0,-407.20003)"
           id="path4688"
           inkscape:connector-curvature="0" />
        <path
           style="fill:none;stroke:#000000;stroke-width:2.29999995;stroke-linecap:butt;stroke-linejoin:miter;stroke-miterlimit:4;stroke-dasharray:none;stroke-opacity:1"
           d="m 523.08124,162.59165 c 0,0 63.44174,31.32246 90.75666,31.69664 27.31495,0.37417 13.2833,-10.85115 13.2833,-10.85115"
           id="path4707"
           inkscape:connector-curvature="0" />
      </g>
    </g>
    <g
       id="g4688"
       transform="translate(2.6192413,3.7417733)">
      <ellipse
         ry="1.256284"
         rx="1.3555028"
         cy="-118.71005"
         cx="595.03137"
         id="path4545"
         style="opacity:1;fill:#000000;fill-opacity:1;stroke:none;stroke-width:3.78127456;stroke-miterlimit:4;stroke-dasharray:none;stroke-opacity:1" />
      <circle
         r="1.2862346"
         cy="-114.01044"
         cx="636.66266"
         id="path4547"
         style="opacity:1;fill:#000000;fill-opacity:1;stroke:none;stroke-width:2.03873205;stroke-miterlimit:4;stroke-dasharray:none;stroke-opacity:1" />
      <path
         inkscape:connector-curvature="0"
         id="path4549"
         d="m 633.10804,-113.96365 c -0.0468,2.5023 2.26845,2.73616 2.26845,2.73616 0,0 2.52569,0.39757 3.90547,-0.58465 1.37977,-0.98221 0.42095,-3.22728 0.42095,-3.22728 z"
         style="fill:none;stroke:#000000;stroke-width:0.26458332px;stroke-linecap:butt;stroke-linejoin:miter;stroke-opacity:1" />
      <path
         sodipodi:nodetypes="cccc"
         inkscape:connector-curvature="0"
         id="path4551"
         d="m 628.82837,-114.0572 c 5.94009,-4.3732 19.43383,-2.1983 19.41047,3.53128 -7.60039,-7.71739 -17.49279,-2.3386 -17.49279,-2.3386 z"
         style="fill:#000000;fill-opacity:1;stroke:#000000;stroke-width:0.26458332px;stroke-linecap:butt;stroke-linejoin:miter;stroke-opacity:1" />
      <path
         sodipodi:nodetypes="csc"
         inkscape:connector-curvature="0"
         id="path4553"
         d="m 646.6747,-112.11199 c -5.15937,4.99401 -13.52682,4.23333 -16.00729,-0.76068 -0.40803,-0.8215 3.86953,-2.61275 3.86953,-2.61275"
         style="fill:none;stroke:#000000;stroke-width:0.76499999;stroke-linecap:butt;stroke-linejoin:miter;stroke-miterlimit:4;stroke-dasharray:none;stroke-opacity:1" />
      <path
         inkscape:connector-curvature="0"
         id="path4555"
         d="m 628.82837,-114.0572 c 8.20852,-7.5537 10.73423,-6.01023 12.23092,-6.29087 1.49673,-0.28062 11.08501,-6.73518 11.08501,-6.73518 l -0.56126,5.0514 c 0,0 -2.19829,2.3386 -5.23848,3.74176 -3.0402,1.40317 -2.94664,-0.18709 -6.2207,1.68381 -3.27406,1.87087 -3.41437,1.30961 -3.41437,1.30961"
         style="fill:#000000;fill-opacity:1;stroke:#000000;stroke-width:0.26458332px;stroke-linecap:butt;stroke-linejoin:miter;stroke-opacity:1" />
      <path
         sodipodi:nodetypes="cccc"
         inkscape:connector-curvature="0"
         id="path4557"
         d="m 608.59942,-113.84673 c -3.13373,-0.98221 -7.43678,0.74835 -10.47697,0.65482 -3.0402,-0.0936 -8.37221,-2.01121 -9.35443,-3.97563 -0.51449,-0.84192 9.5883,-9.16737 19.8314,3.32081 z"
         style="fill:none;stroke:#000000;stroke-width:0.76499999;stroke-linecap:butt;stroke-linejoin:miter;stroke-miterlimit:4;stroke-dasharray:none;stroke-opacity:1" />
      <path
         inkscape:connector-curvature="0"
         transform="matrix(0.26458333,0,0,0.26458333,0,-407.20003)"
         id="path4577"
         d="m 2225.265,1096.1858 c 0,0 0,0 0,0 v 0 c -1.591,-16.2635 15.2028,-17.1474 20.5061,-16.9706 5.3033,0.1769 20.5061,-1.7678 37.8302,3.182 17.3241,4.9497 -11.844,-20.5061 -14.3189,-22.4507 -2.4749,-1.9445 -43.6639,-28.8146 -43.6639,-28.8146 0,0 4.773,-8.3085 21.2132,-2.2981 16.4403,6.0104 49.4975,28.2843 57.2757,36.7696 7.7782,8.4853 11.4905,14.8492 22.0971,20.5061 10.6066,5.6568 11.4905,11.1369 11.4905,11.1369 0,0 -5.6569,-4.773 -10.9602,-4.9497 7.4246,8.4852 10.6066,18.7383 5.1265,26.5165 -7.6014,-15.2029 -20.6828,-17.1474 -45.9619,-25.1023 -0.6171,-0.1942 -1.2402,-0.3775 -1.8687,-0.5502 l -3.9682,-3.5548 -9.3125,-4.625 -13,-2.75 -15.0625,1.4375 -11.6875,5.5 -4.125,3.0625 z"
         style="fill:#000000;fill-opacity:1;stroke:#000000;stroke-width:0.99999994px;stroke-linecap:butt;stroke-linejoin:miter;stroke-opacity:1" />
      <path
         inkscape:connector-curvature="0"
         id="path4580"
         d="m 591.94853,-119.81017 c -1.12252,0.95882 -2.54908,0.21047 -0.81852,1.91764 1.73056,1.7072 2.80633,2.43216 4.37319,2.57247 1.56689,0.14033 3.13376,-1.07574 3.15714,-1.52009 0.0233,-0.44434 0.45543,-3.41714 -0.42095,-3.7184 -0.87638,-0.30122 -2.66602,-0.65479 -2.66602,-0.65479 z"
         style="fill:none;stroke:#000000;stroke-width:0.26458332px;stroke-linecap:butt;stroke-linejoin:miter;stroke-opacity:1" />
      <path
         inkscape:connector-curvature="0"
         id="path4582"
         d="m 595.59676,-65.437531 c 4.44336,0.935434 16.51058,-1.5435 18.70887,0 2.19829,1.543473 3.41437,1.870869 4.72398,0.888656 1.30963,-0.982213 2.05798,-2.385377 4.02241,-0.935434 1.96442,1.449943 4.06918,1.63703 4.06918,1.63703 l -10.33666,0.935434 c 0,0 -1.1693,-0.09353 -1.59025,0.374174 -0.42095,0.46773 -1.54347,0.701595 -1.96443,0.374174 -0.42095,-0.327396 -1.87089,-0.888657 -2.75955,-0.982213 -0.88868,-0.09353 -12.58173,-0.374174 -14.87355,-2.291821 z"
         style="fill:#000000;fill-opacity:1;stroke:#000000;stroke-width:0.26458332px;stroke-linecap:butt;stroke-linejoin:miter;stroke-opacity:1" />
      <path
         inkscape:connector-curvature="0"
         id="path4584"
         d="m 623.66006,-63.847279 -0.0468,5.00462 c 0,0 0.14033,0.841904 -0.70157,1.543473 -0.84191,0.701596 -14.35907,3.320838 -19.59756,-0.748347 -5.23848,-4.069186 0.0936,0.09353 0.0936,0.09353"
         style="fill:none;stroke:#000000;stroke-width:0.66500002;stroke-linecap:butt;stroke-linejoin:miter;stroke-miterlimit:4;stroke-dasharray:none;stroke-opacity:1" />
      <path
         inkscape:connector-curvature="0"
         id="path4586"
         d="m 600.83525,-85.876964 c -5.42558,8.793163 -11.78661,13.657474 -12.34787,18.147586 -0.56126,4.490138 4.20949,13.376857 4.20949,13.376857 v 0 0"
         style="fill:none;stroke:#000000;stroke-width:0.465;stroke-linecap:butt;stroke-linejoin:miter;stroke-miterlimit:4;stroke-dasharray:none;stroke-opacity:1" />
      <path
         inkscape:connector-curvature="0"
         id="path4588"
         d="m 631.23714,-79.796601 c 2.05798,4.115965 1.12255,13.18977 1.12255,13.18977"
         style="fill:none;stroke:#000000;stroke-width:0.465;stroke-linecap:butt;stroke-linejoin:miter;stroke-miterlimit:4;stroke-dasharray:none;stroke-opacity:1" />
      <path
         sodipodi:nodetypes="csscscscsscscccscsccccccsccccccccccccccccscsscsssccscccccsccccccccccc"
         inkscape:connector-curvature="0"
         id="path4590"
         d="m 652.19788,-114.69168 c 0,0 -0.92604,15.345837 -1.85208,17.991671 -0.92604,2.645833 -12.83229,23.283333 -15.08125,30.559374 -2.24896,7.276042 -11.90625,20.6375 -11.90625,20.6375 0,0 -5.95313,8.202083 -13.22917,7.011458 -7.27604,-1.190625 -15.34583,-0.926041 -15.34583,-0.926041 0,0 -4.49792,0.132291 -9.26042,-5.291667 -4.7625,-5.423958 -8.86354,-8.202083 -8.86354,-8.202083 0,0 -2.51354,-4.233333 -6.87917,-11.90625 -4.36562,-7.672917 -8.33437,-11.641667 -9.12812,-22.886458 -0.79375,-11.244792 -1.32292,-13.493754 -1.32292,-13.493754 0,0 -0.79375,-4.10104 -4.63021,-6.35 -3.83645,-2.24895 -1.19062,-8.20208 -1.19062,-8.20208 l 1.85208,-2.64583 3.83646,3.175 c 0,0 3.70417,8.59896 5.02708,8.73125 1.32292,0.13229 -1.4552,-10.05417 -0.26458,-12.03854 1.19063,-1.98438 1.5875,-1.98438 1.71979,-3.96875 0.13229,-1.98438 -0.26458,-2.64584 0.26459,-4.49792 0.52916,-1.85208 1.5875,-3.70417 1.5875,-3.70417 0,0 0.66145,-0.79375 2.64583,-1.5875 1.98437,-0.79375 2.38125,-0.79375 3.175,-1.45521 0.79375,-0.66145 0.92604,-0.39687 1.85208,-1.71979 0.92604,-1.32291 1.19063,-1.05833 1.71979,-2.51354 0.52917,-1.45521 0.92605,-2.77812 0.92605,-3.43958 0,-0.66146 1.0959,-6.76291 2.03133,-7.60481 0.93544,-0.8419 1.59026,-1.59025 2.24507,-1.87088 0.65482,-0.28064 2.89989,-0.18709 2.89989,-0.18709 0,0 1.49669,0.37418 2.89986,0.93544 1.40316,0.56127 1.59025,0.56127 3.08697,1.02899 1.4967,0.46772 2.61925,0.8419 3.36759,0.65481 0.74835,-0.18709 2.89986,-0.93545 2.89986,-0.93545 0,0 5.98686,-3.83531 7.39003,-3.27405 -1.63703,0.60804 -7.20291,3.74178 -5.70622,4.02241 1.49672,0.28063 2.61924,0.8419 3.55468,0.65481 0.93546,-0.18709 1.21608,-0.74835 2.52571,0.28063 1.30961,1.02899 2.43216,1.87089 3.1805,2.15152 0.74835,0.28063 0.84191,0.37418 2.99342,0.65481 2.15151,0.28064 3.74176,0.37418 4.20949,0.65481 0.46773,0.28064 1.77734,1.21608 2.71278,1.96444 0.93546,0.74835 4.20949,1.87087 4.20949,1.87087 0,0 3.32298,0.0571 4.11673,-0.009 0.79375,-0.0661 1.19063,0.19844 1.25677,0.52917 0.0661,0.33073 0.0661,0.33073 0.0661,0.72761 0,0.39687 -0.92604,0.39687 0,0.59531 0.92604,0.19844 1.12448,0 1.65365,-0.13229 0.52916,-0.1323 1.5875,-0.39688 2.18281,-0.39688 0.59531,0 0.52916,-0.13229 1.52135,-0.13229 h 2.11667 c 2.3151,0 0.99219,0.26458 2.38125,-0.0662 1.38906,-0.33073 0.92604,-0.19843 1.52135,-0.33073 0.59532,-0.13229 0.52917,-0.13229 1.12448,-0.26458 0.59531,-0.13229 0.52917,-0.19844 1.12448,-0.26458 0.59531,-0.0662 -0.0661,-0.13229 1.05833,-0.19844 1.12448,-0.0661 1.25678,-0.19844 1.65365,-0.13229 0.39688,0.0661 -0.0661,-0.39688 1.19063,0.19844 1.25677,0.59531 1.32291,0.46302 1.38906,0.7276 0.0661,0.26458 0,0.19844 0.13229,0.66146 0.13229,0.46302 0.0661,0.26458 0.46302,0.79375 0.39688,0.52917 -0.13229,0.13229 0.52917,0.7276 0.66146,0.59532 0.59531,0.79375 0.92604,0.8599 0.33073,0.0661 -0.0661,0.39687 0.99219,0.19844 1.05833,-0.19844 1.19062,-0.19844 1.52135,-0.46302 0.33073,-0.26459 0.33073,-0.1323 0.66146,-0.66146 0.33073,-0.52917 0.46302,-0.79375 0.85989,-1.12448 0.39688,-0.33073 0.99219,-1.12448 0.99219,-1.12448 0,0 -0.0787,8.42282 -0.85989,10.51719 -0.78119,2.09436 -0.72761,14.48593 -0.72761,14.48593 z"
         style="fill:none;stroke:#000000;stroke-width:1.36500001;stroke-linecap:butt;stroke-linejoin:miter;stroke-miterlimit:4;stroke-dasharray:none;stroke-opacity:1" />
      <path
         inkscape:connector-curvature="0"
         id="path4605"
         d="m 591.74059,-139.29793 c 7.67292,-0.26458 18.25625,7.67292 18.25625,7.67292"
         style="fill:none;stroke:#000000;stroke-width:0.465;stroke-linecap:butt;stroke-linejoin:miter;stroke-miterlimit:4;stroke-dasharray:none;stroke-opacity:1" />
      <path
         inkscape:connector-curvature="0"
         id="path4607"
         d="m 649.85246,-129.8428 c -15.06064,-1.30964 -19.92493,2.80633 -22.82481,2.71277 -2.89986,-0.0935 -3.83532,-0.74835 -3.83532,-0.74835"
         style="fill:none;stroke:#000000;stroke-width:0.465;stroke-linecap:butt;stroke-linejoin:miter;stroke-miterlimit:4;stroke-dasharray:none;stroke-opacity:1" />
      <path
         inkscape:connector-curvature="0"
         id="path4609"
         d="m 593.91295,-141.91002 c 15.52837,1.3096 27.31495,11.88013 27.31495,11.88013"
         style="fill:none;stroke:#000000;stroke-width:0.465;stroke-linecap:butt;stroke-linejoin:miter;stroke-miterlimit:4;stroke-dasharray:none;stroke-opacity:1" />
      <path
         inkscape:connector-curvature="0"
         id="path4611"
         d="m 594.38068,-146.86788 c 10.66406,2.43215 23.66672,7.95127 23.66672,7.95127"
         style="fill:none;stroke:#000000;stroke-width:0.465;stroke-linecap:butt;stroke-linejoin:miter;stroke-miterlimit:4;stroke-dasharray:none;stroke-opacity:1" />
      <path
         inkscape:connector-curvature="0"
         id="path4613"
         d="m 651.53626,-132.92978 c -10.94467,-2.15151 -17.3057,-0.65481 -21.23455,-0.8419 -3.92888,-0.18709 -5.98684,-0.8419 -5.98684,-0.8419"
         style="fill:none;stroke:#000000;stroke-width:0.465;stroke-linecap:butt;stroke-linejoin:miter;stroke-miterlimit:4;stroke-dasharray:none;stroke-opacity:1" />
      <path
         id="path4615"
         inkscape:connector-curvature="0"
         d="m 606.22653,-90.416155 c -0.33073,4.299479 -0.33073,4.299479 -0.33073,4.299479 0,0 -0.39688,3.638021 1.65365,3.108854 2.05052,-0.529167 4.23333,-1.124479 6.61458,0.198437 2.38125,1.322917 2.51354,1.058334 2.51354,1.058334 0,0 1.38906,2.645833 4.10104,2.778125 2.71198,0.132291 5.35781,-0.992188 5.75469,-1.785938 0.39687,-0.79375 -0.46302,-1.124479 0.26458,-1.322916 0.72761,-0.198438 2.64584,-0.264584 2.64584,-1.256771 0,-0.992188 -0.52917,-4.167188 -0.52917,-4.167188 v 0"
         style="fill:none;stroke:#000000;stroke-width:0.86500001;stroke-linecap:butt;stroke-linejoin:miter;stroke-miterlimit:4;stroke-dasharray:none;stroke-opacity:1" />
      <path
         sodipodi:nodetypes="ccc"
         inkscape:connector-curvature="0"
         id="path4619"
         d="m 610.36064,-83.503916 c 1.88516,1.058334 3.43959,1.570964 4.10104,0.942578 -2.06706,-1.389062 -4.10104,-0.942578 -4.10104,-0.942578 z"
         style="fill:#000000;fill-opacity:1;stroke:#000000;stroke-width:0.26458332px;stroke-linecap:butt;stroke-linejoin:miter;stroke-opacity:1" />
      <path
         sodipodi:nodetypes="cccc"
         inkscape:connector-curvature="0"
         id="path4621"
         d="m 626.66516,-81.310838 c 0.51451,-0.198781 0.58466,-0.777583 0.58466,-0.777583 l -0.58465,0.233865 z"
         style="fill:#000000;fill-opacity:1;stroke:#000000;stroke-width:0.26458332px;stroke-linecap:butt;stroke-linejoin:miter;stroke-opacity:1" />
      <path
         inkscape:connector-curvature="0"
         id="path4623"
         d="m 628.82837,-114.0572 c 0,0 -2.64263,1.52008 -2.64263,4.51352 0,2.99342 -0.28061,12.441398 -0.28061,12.441398 v 0"
         style="fill:none;stroke:#000000;stroke-width:0.86500001;stroke-linecap:butt;stroke-linejoin:miter;stroke-miterlimit:4;stroke-dasharray:none;stroke-opacity:1" />
      <path
         sodipodi:nodetypes="ccsc"
         inkscape:connector-curvature="0"
         id="path4625"
         d="m 616.97163,-111.18071 c 0,0 0.14033,3.69499 -0.51448,4.63045 -0.65482,0.93543 -2.15152,4.20949 -2.43216,4.95784 -0.28064,0.74835 -0.31525,0.81029 -0.31525,0.81029"
         style="fill:none;stroke:#000000;stroke-width:0.86500001;stroke-linecap:butt;stroke-linejoin:miter;stroke-miterlimit:4;stroke-dasharray:none;stroke-opacity:1" />
      <path
         sodipodi:nodetypes="cccc"
         inkscape:connector-curvature="0"
         id="path4627"
         d="m 603.40771,-57.954003 c 0,0 10.17294,2.408766 16.41703,1.496721 0,0 -5.16832,1.543474 -7.01583,1.473333 -1.8475,-0.07017 -6.61823,-0.444368 -9.4012,-2.970054 z"
         style="fill:#000000;fill-opacity:1;stroke:#000000;stroke-width:0.26458332px;stroke-linecap:butt;stroke-linejoin:miter;stroke-opacity:1" />
      <path
         sodipodi:nodetypes="cccsccccscsccccccsccccccccccccccccscsscsssccscccccsccccccccccc"
         inkscape:connector-curvature="0"
         id="path4590-4"
         d="m 652.19818,-114.6916 c 0,0 5.44205,-7.58645 6.24269,-20.53341 0.93441,-15.11003 6.41737,-9.32475 -2.46653,-31.4384 -20.38756,-36.04357 -46.96216,-35.70644 -51.62034,-35.75179 -6.20516,-0.0604 -56.54496,-0.35727 -57.45999,51.21111 -5.82987,8.67743 8.46637,32.80825 6.61459,35.45416 l 1.85208,-2.64583 3.83646,3.175 c 0,0 3.70417,8.59896 5.02708,8.73125 1.32292,0.13229 -1.4552,-10.05417 -0.26458,-12.03854 1.19063,-1.98438 1.5875,-1.98438 1.71979,-3.96875 0.13229,-1.98438 -0.26458,-2.64584 0.26459,-4.49792 0.52916,-1.85208 1.5875,-3.70417 1.5875,-3.70417 0,0 0.66145,-0.79375 2.64583,-1.5875 1.98437,-0.79375 2.38125,-0.79375 3.175,-1.45521 0.79375,-0.66145 0.92604,-0.39687 1.85208,-1.71979 0.92604,-1.32291 1.19063,-1.05833 1.71979,-2.51354 0.52917,-1.45521 0.92605,-2.77812 0.92605,-3.43958 0,-0.66146 1.0959,-6.76291 2.03133,-7.60481 0.93544,-0.8419 1.59026,-1.59025 2.24507,-1.87088 0.65482,-0.28064 2.89989,-0.18709 2.89989,-0.18709 0,0 1.49669,0.37418 2.89986,0.93544 1.40316,0.56127 1.59025,0.56127 3.08697,1.02899 1.4967,0.46772 2.61925,0.8419 3.36759,0.65481 0.74835,-0.18709 2.89986,-0.93545 2.89986,-0.93545 0,0 5.98686,-3.83531 7.39003,-3.27405 -1.63703,0.60804 -7.20291,3.74178 -5.70622,4.02241 1.49672,0.28063 2.61924,0.8419 3.55468,0.65481 0.93546,-0.18709 1.21608,-0.74835 2.52571,0.28063 1.30961,1.02899 2.43216,1.87089 3.1805,2.15152 0.74835,0.28063 0.84191,0.37418 2.99343,0.65481 2.1515,0.28064 3.74175,0.37418 4.20948,0.65481 0.46773,0.28064 1.77734,1.21608 2.71279,1.96444 0.93545,0.74835 4.20948,1.87087 4.20948,1.87087 0,0 3.32298,0.0571 4.11673,-0.009 0.79375,-0.0661 1.19063,0.19844 1.25677,0.52917 0.0661,0.33073 0.0661,0.33073 0.0661,0.72761 0,0.39687 -0.92604,0.39687 0,0.59531 0.92604,0.19844 1.12448,0 1.65365,-0.13229 0.52916,-0.1323 1.5875,-0.39688 2.18281,-0.39688 0.59531,0 0.52916,-0.13229 1.52135,-0.13229 h 2.11667 c 2.3151,0 0.99219,0.26458 2.38125,-0.0662 1.38906,-0.33073 0.92604,-0.19843 1.52135,-0.33073 0.59532,-0.13229 0.52917,-0.13229 1.12448,-0.26458 0.59531,-0.13229 0.52917,-0.19844 1.12448,-0.26458 0.59531,-0.0662 -0.0661,-0.13229 1.05833,-0.19844 1.12448,-0.0661 1.25678,-0.19844 1.65365,-0.13229 0.39688,0.0661 -0.0661,-0.39688 1.19063,0.19844 1.25677,0.59531 1.32291,0.46302 1.38906,0.7276 0.0661,0.26458 0,0.19844 0.13229,0.66146 0.13229,0.46302 0.0661,0.26458 0.46302,0.79375 0.39688,0.52917 -0.13229,0.13229 0.52917,0.7276 0.66146,0.59532 0.59531,0.79375 0.92604,0.8599 0.33073,0.0661 -0.0661,0.39687 0.99219,0.19844 1.05833,-0.19844 1.19062,-0.19844 1.52135,-0.46302 0.33073,-0.26459 0.33073,-0.1323 0.66146,-0.66146 0.33073,-0.52917 0.46302,-0.79375 0.8599,-1.12448 0.39688,-0.33073 0.99219,-1.12448 0.99219,-1.12448 0,0 -0.0787,8.42282 -0.85989,10.51719 -0.7812,2.09436 -0.72762,14.48593 -0.72762,14.48593 z"
         style="fill:#000000;fill-opacity:1;stroke:#000000;stroke-width:0.26458332px;stroke-linecap:butt;stroke-linejoin:miter;stroke-opacity:1" />
      <path
         inkscape:connector-curvature="0"
         id="path4644"
         d="m 546.89401,-151.20409 c 0,0 -5.42425,8.59887 -4.76279,17.33012 0.66146,8.73125 -0.39688,21.43125 -0.39688,21.43125 0,0 -0.39687,4.7625 1.19063,7.01146 1.5875,2.24896 5.55625,8.202084 5.55625,8.202084 0,0 2.11666,2.645833 5.55625,1.719792 3.43958,-0.926042 5.96566,0.79248 5.96566,0.79248"
         style="fill:none;stroke:#000000;stroke-width:1.36500001;stroke-linecap:butt;stroke-linejoin:miter;stroke-miterlimit:4;stroke-dasharray:none;stroke-opacity:1" />
      <path
         inkscape:connector-curvature="0"
         id="path4646"
         d="m 543.45416,-133.74168 0.0661,-4.29947"
         style="fill:none;stroke:#000000;stroke-width:0.26458332px;stroke-linecap:butt;stroke-linejoin:miter;stroke-opacity:1" />
      <path
         inkscape:connector-curvature="0"
         id="path4648"
         d="m 543.85103,-122.89376 c 1.12448,-1.45521 0.59532,-5.62239 0.59532,-5.62239"
         style="fill:none;stroke:#000000;stroke-width:0.465;stroke-linecap:butt;stroke-linejoin:miter;stroke-miterlimit:4;stroke-dasharray:none;stroke-opacity:1" />
      <path
         sodipodi:nodetypes="cczzcc"
         inkscape:connector-curvature="0"
         id="path4650"
         d="m 543.6526,-115.1547 c -0.66146,3.37344 0.52916,7.34219 2.91039,9.45886 2.38125,2.11666 2.28181,1.98075 3.04271,2.44739 0.7609,0.46664 0.89297,0.32246 1.32291,0.59532 0.42995,0.27286 0.72761,0.99218 0.72761,0.99218 v 0"
         style="fill:none;stroke:#000000;stroke-width:0.26458332px;stroke-linecap:butt;stroke-linejoin:miter;stroke-opacity:1" />
      <path
         sodipodi:nodetypes="cc"
         inkscape:connector-curvature="0"
         id="path4652"
         d="m 547.70207,-121.51737 c 1.87087,-3.5079 0.74835,-8.60608 -1.26285,-10.28988"
         style="fill:none;stroke:#000000;stroke-width:0.26499999;stroke-linecap:butt;stroke-linejoin:miter;stroke-miterlimit:4;stroke-dasharray:none;stroke-opacity:1" />
      <path
         sodipodi:nodetypes="cc"
         inkscape:connector-curvature="0"
         id="path4654"
         d="m 555.13882,-105.10034 c -9.16734,-5.00462 -5.70619,-8.09157 -3.08695,-11.88011"
         style="fill:none;stroke:#000000;stroke-width:0.96499997;stroke-linecap:butt;stroke-linejoin:miter;stroke-miterlimit:4;stroke-dasharray:none;stroke-opacity:1" />
    </g>
    <path
       style="opacity:1;fill:#000000;fill-opacity:1;stroke:none;stroke-width:0.2;stroke-miterlimit:4;stroke-dasharray:none;stroke-opacity:1"
       d="m 399.27385,195.98263 -33.33091,-19.24364 v 13.6142 h -56.65839 v 11.25829 h 56.65839 v 13.6148 z"
       id="path4741"
       inkscape:connector-curvature="0" />
    <path
       style="opacity:1;fill:#000000;fill-opacity:1;stroke:none;stroke-width:0.19119193;stroke-miterlimit:4;stroke-dasharray:none;stroke-opacity:1"
       d="m 569.70867,1.1956624 -28.6016,25.7529676 12.94788,4.20702 -17.50841,53.88533 10.70727,3.479004 17.5084,-53.885333 12.94845,4.207205 z"
       id="path4741-6"
       inkscape:connector-curvature="0" />
    <path
       style="opacity:1;fill:#000000;fill-opacity:1;stroke:none;stroke-width:0.19119193;stroke-miterlimit:4;stroke-dasharray:none;stroke-opacity:1"
       d="m 439.6706,-235.39839 15.65415,35.15984 8.00223,-11.01412 45.8376,33.30297 6.61745,-9.10815 -45.8376,-33.30296 8.00258,-11.01461 z"
       id="path4741-6-4"
       inkscape:connector-curvature="0" />
    <path
       style="opacity:1;fill:#000000;fill-opacity:1;stroke:none;stroke-width:0.19119193;stroke-miterlimit:4;stroke-dasharray:none;stroke-opacity:1"
       d="m 187.40499,-186.85819 38.27639,-4.02299 -8.00222,-11.01413 45.8376,-33.30296 -6.61746,-9.10814 -45.8376,33.30296 -8.00258,-11.0146 z"
       id="path4741-6-4-0"
       inkscape:connector-curvature="0" />
    <path
       style="opacity:1;fill:#000000;fill-opacity:1;stroke:none;stroke-width:0.19119193;stroke-miterlimit:4;stroke-dasharray:none;stroke-opacity:1"
       d="M 165.83382,88.981199 173.83579,51.335016 160.88791,55.542029 143.3795,1.6566973 132.67224,5.1357063 150.18065,59.021038 137.2322,63.228242 Z"
       id="path4741-6-4-0-1"
       inkscape:connector-curvature="0" />
    <path
       style="opacity:1;fill:#000000;fill-opacity:1;stroke:none;stroke-width:1.38508797;stroke-miterlimit:4;stroke-dasharray:none;stroke-opacity:1"
       d="m 1740.8164,1071.8555 v 51.455 h -214.1406 -313.8086 v 42.5508 h 313.8086 214.1406 v 51.459 l 125.9766,-72.7324 z m -933.1289,51.455 v 42.5508 h 216.2031 v -42.5508 z"
       transform="matrix(0.26458333,0,0,0.26458333,0,-407.20003)"
       id="rect4899"
       inkscape:connector-curvature="0" />
    <path
       style="opacity:1;fill:#000000;fill-opacity:1;stroke:none;stroke-width:1.38508797;stroke-miterlimit:4;stroke-dasharray:none;stroke-opacity:1"
       d="m 1215.6406,853.91016 -108.0996,97.33398 48.9356,15.90039 -66.1739,203.66017 -80.6308,248.1601 40.6191,12.6817 80.4805,-247.6934 66.1738,-203.66013 48.9395,15.90039 z m -264.36912,744.79494 -83.14648,255.8984 40.4668,13.1485 83.29882,-256.3653 z"
       transform="matrix(0.26458333,0,0,0.26458333,0,-407.20003)"
       id="rect4899-6"
       inkscape:connector-curvature="0" />
    <path
       style="opacity:1;fill:#000000;fill-opacity:1;stroke:none;stroke-width:1.38508797;stroke-miterlimit:4;stroke-dasharray:none;stroke-opacity:1"
       d="m 734.11328,1321.4785 59.16406,132.8867 30.2461,-41.6269 173.24414,125.8691 223.97652,162.7285 25.0098,-34.4238 -223.9766,-162.7285 -173.2441,-125.8711 30.2461,-41.6289 z m 664.52732,456.5117 -25.0097,34.4219 204.8105,148.8047 25.0098,-34.4238 z"
       transform="matrix(0.26458333,0,0,0.26458333,0,-407.20003)"
       id="rect4899-6-1"
       inkscape:connector-curvature="0" />
    <path
       style="opacity:1;fill:#000000;fill-opacity:1;stroke:none;stroke-width:1.38508797;stroke-miterlimit:4;stroke-dasharray:none;stroke-opacity:1"
       d="m 1873.7949,1312.3555 -150.4062,109.2773 25.0117,34.4238 150.4043,-109.2754 z m -303.291,220.3535 -278.3828,202.2578 -173.2441,125.8691 -30.2461,-41.6308 -59.1661,132.8887 144.668,-15.2051 -30.2441,-41.6289 173.2441,-125.8692 278.3828,-202.2558 z"
       transform="matrix(0.26458333,0,0,0.26458333,0,-407.20003)"
       id="rect4899-6-1-8"
       inkscape:connector-curvature="0" />
    <path
       style="opacity:1;fill:#000000;fill-opacity:1;stroke:none;stroke-width:1.38508797;stroke-miterlimit:4;stroke-dasharray:none;stroke-opacity:1"
       d="m 1470.8477,851.94141 -40.4688,13.14843 65.9707,203.03516 41.2402,-10.7734 z m 125.2402,385.44729 -41.2402,10.7734 97.7109,300.7246 66.1738,203.6621 -48.9375,15.9004 108.0996,97.334 30.2442,-142.2852 -48.9375,15.9024 -66.1739,-203.6621 z"
       transform="matrix(0.26458333,0,0,0.26458333,0,-407.20003)"
       id="rect4899-6-1-8-6"
       inkscape:connector-curvature="0" />
  </g>
</svg>
